<svg width="15" height="12" viewBox="0 0 15 12" fill="none" xmlns="http://www.w3.org/2000/svg">
<path d="M11.7588 53.1766C11.4017 54.2532 11.1108 53.0638 10.9525 51.4446C10.9076 50.9427 11.0877 48.7233 11.0644 48.2768C11.0195 47.4066 10.8531 48.4899 10.8196 47.4542C10.8096 47.1001 11.0861 43.5842 11.0712 43.2935C10.996 41.7264 10.7738 42.6114 10.6429 41.8505C10.0517 38.0999 9.38289 36.7162 8.7211 35.042C8.49741 34.4925 8.49224 31.277 8.08743 32.6434C8.03979 32.806 7.75299 35.8882 7.72182 36.1414C7.23876 40.0183 7.88935 33.8032 7.91111 32.971C7.99298 29.6847 7.76909 29.3748 7.40912 30.5378C7.25478 31.0415 6.69988 37.1655 6.96542 33.7232C6.98341 33.4907 7.36045 30.2252 7.3708 29.8737C7.3931 29.083 7.2167 29.6548 7.19747 29.3907C7.16354 28.8652 7.14524 28.8965 7.06346 28.8497C6.954 28.7572 6.99915 27.1179 6.79068 27.8436C6.74449 28.0081 6.39454 31.3597 6.28469 31.9243C6.17478 32.4879 6.08917 32.1902 6.14242 31.3967C6.19565 30.6027 6.52235 27.9744 6.58645 27.3707C7.13312 22.2758 6.16824 29.3076 6.12735 29.4795C5.45384 32.4104 5.66814 28.3633 5.3788 28.3376C5.15386 28.3261 4.7346 29.6168 4.53927 29.4054C4.30777 29.1405 4.34382 27.3016 4.04827 27.5759C4.01722 27.6009 3.47914 31.5263 3.43882 31.5646C3.01058 31.9682 2.69451 31.4832 2.75229 28.7839C2.75918 28.5099 3.35346 25.0821 3.39454 24.6032C3.62001 21.7443 4.48829 14.927 1.81313 29.8346C1.75604 29.225 1.66758 28.5893 2.06634 25.5594C2.32492 23.6096 3.07363 19.8938 2.6887 21.4676C2.60216 21.8181 2.04526 25.0898 1.9581 25.3681C1.58816 26.5359 1.61729 25.4444 1.14466 27.1002C1.0463 27.4445 0.502754 30.368 0.393608 30.8924C-0.499915 35.1369 0.704677 28.0685 0.780574 27.5526C1.30654 23.6978 0.87458 25.1704 0.688474 25.0357C0.646549 25.0029 -0.0983469 28.9276 -0.170044 29.0361C-0.533969 29.5458 -0.734272 29.1523 -0.603418 27.3661C-0.571039 26.9596 0.21375 23.6486 0.268193 23.2847C0.507594 21.7223 -0.923347 27.9873 -0.731005 26.6072C-0.691299 26.3245 -0.031891 23.4874 0.034918 23.1745C1.09283 18.2653 -0.546769 25.1891 -0.60261 25.3374C-1.31779 27.375 0.261734 20.1155 -0.166468 21.0934C-0.222357 21.217 -1.04554 24.8098 -1.15266 24.9374C-1.87896 25.8066 -2.23093 24.6646 -1.8963 21.6891C-1.84735 21.2307 -1.00194 18.5937 -0.910996 18.2647C0.543233 13.1337 -1.54719 19.9662 -1.65675 20.2141C-2.44507 21.9989 -0.776432 16.2422 -3.56269 24.2849C-3.61661 22.8502 -4.17695 22.93 -4.71553 22.6729C-5.95613 24.1119 -9.26393 17.0937 -11.093 17.6078C-13.641 14.3266 -13.5789 8.07562 -8.92183 6.96796C-8.82678 6.94176 -5.38486 7.6767 -5.21415 7.64285C-3.12891 7.39055 -8.52084 6.36303 -14.574 3.34458C-16.0543 2.47936 -8.2907 4.79705 -7.75966 5.07034C-5.6987 5.79398 -0.898342 7.88603 -0.496272 8.01905C2.57512 9.27663 -13.2989 2.34112 -12.9907 1.68055C-12.9575 1.67838 -10.1238 3.13811 -9.81923 3.23627C-8.87061 3.56026 -9.94488 2.8786 -8.91461 3.27507C-6.52374 4.18423 0.805921 8.31454 -3.35149 5.72361C-3.88165 5.37323 -12.3935 0.466 -11.7609 0.319661C-11.5043 0.265459 -11.2731 -0.392432 -10.6523 -0.164759C-10.036 0.063252 -7.51228 1.97667 -7.39118 2.04261C-3.79102 4.20013 -2.45719 5.31942 2.57172 8.93767C7.52945 12.6143 -4.2515 3.78641 -5.52345 2.74424C-6.78723 1.69857 -3.92891 3.64767 -2.9752 4.37761C-2.01335 5.09741 -0.464899 6.38115 0.0818678 6.78537C3.61513 9.47639 -5.5505 2.1292 -7.30004 0.577568C-11.3736 -3.17864 -2.90627 3.71964 -2.04868 4.36546C-1.80781 4.52918 -3.69105 2.90522 -3.83974 2.7224C-4.39315 2.00877 -1.83151 4.25499 -4.01055 2.01197C-4.37634 1.65762 -9.01448 -2.99115 -5.46487 0.267545C-4.95641 0.740947 -3.01885 2.65101 -2.54206 3.03458C-1.82733 3.61105 -1.3181 3.94157 -1.902 3.23982C-2.33264 2.71924 -5.54347 -0.410215 -4.49924 0.515647C-4.03568 0.931825 -2.23984 2.84409 -1.52918 3.47678C-0.821222 4.11157 -0.799444 3.93026 -0.822627 3.8275C-0.847324 3.72326 -3.20962 1.27708 -3.36466 1.1084C-4.24721 0.136577 -5.26714 -1.15519 -5.25384 -1.16195C-5.03395 -1.93294 -0.929886 2.09871 -1.81218 0.366022C-1.8757 0.231744 -4.17912 -2.51665 -4.21237 -2.56562C-5.05999 -3.81403 0.92332 3.60955 3.00339 6.03068C-1.62029 0.411615 -0.747017 1.39933 -1.18609 0.727759C-1.40067 0.398984 -3.19338 -1.7749 -3.37244 -2.00105C-6.01272 -5.37001 -2.49699 -1.10391 -1.78172 -0.22802C0.856778 2.98801 -2.18707 -0.87119 -0.427619 1.28192C1.31356 3.42305 3.82967 6.64926 3.84434 6.5705C2.23709 4.52048 -2.05316 -0.764948 -2.69034 -1.66789C-4.1637 -3.76894 -3.32555 -3.1267 -2.37645 -2.21607C-1.77729 -1.64463 -1.12861 -0.971681 -0.94229 -0.843951C-0.462398 -0.511787 -0.702618 -0.931908 -0.056791 -0.238977C1.10429 1.01934 -1.95224 -3.00181 -3.21152 -4.94518C-4.46446 -6.89251 2.80402 3.18709 4.39209 5.33525C5.97509 7.48565 4.36819 5.25556 5.24463 6.43319C6.11927 7.61171 7.16225 9.09907 7.51235 9.52586C7.85813 9.95505 5.15352 6.04868 3.54055 3.76817C0.117021 -1.05877 -3.55226 -6.0704 -2.16739 -4.37785C-2.08596 -4.27686 -0.206884 -1.60357 0.00806251 -1.35127C1.64835 0.568468 1.91394 0.572985 3.34068 2.29172C3.53906 2.53275 5.58139 5.53989 5.71916 5.71473C7.15386 7.54999 3.64016 2.52774 -0.11053 -3.1557C4.97325 4.34469 8.13159 8.90057 8.2379 8.89335C8.30612 8.88996 6.08704 5.61333 4.57051 3.27204C4.11431 2.56562 5.66692 4.79615 4.63986 3.24412C1.28719 -1.83237 -2.54018 -7.46581 -0.907285 -5.2951C-0.830611 -5.19132 0.995275 -2.40636 1.125 -2.25041C1.96881 -1.22602 -1.52536 -6.54431 -1.80321 -7.28364C-2.01853 -7.86551 0.284578 -4.73414 0.737657 -4.27481C6.2367 4.30056 5.05854 2.28503 1.33492 -3.67073C1.56288 -3.47494 1.432 -3.86196 2.01928 -3.08441C2.21958 -2.81938 3.77298 -0.312085 3.94564 -0.0442054C6.64609 4.16321 3.04341 -1.64338 2.91867 -1.88134C1.71372 -4.19918 4.56434 0.127501 2.07988 -4.28609C1.98967 -4.44461 -1.68606 -10.4913 1.05079 -6.10862C1.23816 -5.80572 2.86136 -3.02462 3.06621 -2.85788C3.27577 -2.69335 5.36686 0.475152 3.78024 -2.3967C3.39667 -3.08716 0.520799 -8.06067 2.87201 -4.23702C3.19071 -3.71745 4.22171 -1.96933 4.80888 -1.00457C6.67765 2.07084 3.04242 -4.08884 6.17813 1.11599C9.31413 6.32035 11.6788 10.2085 9.63713 6.54589C9.57757 6.43952 6.7299 1.53769 6.80611 1.59694C6.92888 1.6965 7.59109 2.67742 7.62041 2.6177C7.63372 2.58717 5.85169 -0.448614 5.82345 -0.506664C5.00342 -2.31137 6.69567 0.335593 7.53808 1.4233C7.69403 1.62983 5.42474 -2.60162 7.35354 0.667603C9.45895 4.24981 17.8762 19.3431 15.9713 15.6908C15.1994 14.2357 4.61235 -4.96408 10.2394 4.90453C9.08864 2.32425 12.0629 7.32393 10.3513 3.68048C10.2753 3.51914 7.40121 -1.88306 7.46575 -1.82323C7.56614 -1.72342 8.93973 0.785181 9.0531 0.938148C9.56232 1.64251 8.50257 -0.565467 8.78368 -0.283829C8.88691 -0.182065 10.2595 2.43727 10.3806 2.56015C10.4996 2.68108 8.71053 -0.777832 9.64935 0.853252C10.365 2.0965 14.1117 9.11895 14.5936 9.91378C10.9505 2.95929 11.0651 3.08176 10.1791 1.20641C10.0073 0.842504 8.72764 -1.57193 8.5813 -1.8691C7.95868 -3.13278 9.0318 -1.13827 8.35094 -2.51219C8.18759 -2.84226 6.95036 -5.22087 6.74727 -5.62513C4.97514 -9.15406 7.8356 -3.84376 8.32939 -2.91693C10.2123 0.598999 8.63262 -2.50992 9.39148 -1.1343C10.1485 0.242032 10.9938 2.01471 11.4727 2.8399C12.4618 4.54739 12.3707 4.10744 12.5133 4.17297C12.5625 4.18447 10.9122 1.00863 10.8815 0.936274C10.5451 0.0888176 12.3423 3.44588 9.15901 -2.93306C17.5452 13.4817 8.39579 -4.5507 10.1745 -1.31514C10.3181 -1.05333 14.254 6.72421 14.8016 7.88127C15.3494 9.03694 14.0745 6.6283 14.9357 8.42827C15.1363 8.85139 18.7828 16.1607 19.0017 16.6044C20.7052 20.0764 14.7857 8.47313 14.457 7.83763C10.9138 0.977621 14.843 8.85175 15.1056 9.40037C16.2982 11.9198 15.396 10.3238 16.2435 12.1243C16.791 13.2881 20.7055 20.8697 20.5584 20.6517C20.0765 19.9292 14.5324 9.39609 19.2163 18.5932C20.2164 20.5542 24.5606 28.8064 21.0959 22.343C20.8791 21.9347 17.7075 16.023 19.6542 19.7935C19.8999 20.2688 21.1666 22.6734 21.2686 22.8777C21.9283 24.1995 20.8983 22.2948 21.3512 23.2284C21.8041 24.162 22.4936 25.5463 22.0266 24.7505C21.7478 24.2745 19.3365 19.8216 18.7404 18.7345C17.024 15.6024 19.7532 20.7831 17.6898 16.9824C15.6118 13.1648 12.5392 7.32246 11.1431 4.88454C14.4835 11.1057 17.9103 17.492 21.271 23.7477C21.0547 23.5817 19.8633 21.6304 19.9092 21.9609C19.9186 22.008 21.7558 25.3299 21.814 25.4655C22.0537 26.0219 20.7011 23.6774 21.168 24.6508C21.5363 25.417 23.4505 28.9516 23.9114 29.854C19.9417 22.8163 21.215 25.2472 20.8101 24.6279C20.6689 24.4147 19.6065 22.5363 19.2472 21.9306C17.9156 19.6925 21.4633 25.8891 22.0075 26.8723C24.3389 31.0634 16.3286 17.0266 16.4498 17.4174C16.4515 17.4345 20.703 24.9273 20.9686 25.3934C22.6854 28.4416 19.4664 22.7983 19.1272 22.2592C18.5075 21.2738 17.4426 19.5131 18.6651 21.7211C19.0257 22.3761 21.7088 27.0272 19.587 23.4567C19.3088 22.9894 17.8704 20.5319 17.7832 20.3897C16.3223 18.0241 20.8568 25.7372 22.3775 28.3582C23.9002 30.9774 20.722 25.6813 19.8014 24.1577C17.4258 20.2126 18.8125 22.456 18.5828 22.0669C15.8535 17.433 16.2917 18.2496 16.0322 17.8752C11.5387 10.3405 11.7595 10.8219 15.7809 17.5177C16.2197 18.2493 15.8215 17.5342 16.0322 17.8752C20.4119 25.2851 20.9656 26.2383 16.7802 19.3694C14.8168 16.1511 12.5699 12.3732 13.3264 13.7948C13.6689 14.4359 16.8094 19.596 17.6407 21.0179C19.5444 24.2579 16.5472 19.4858 16.9541 20.278C17.1046 20.5639 18.8597 23.3662 19.024 23.6576C19.4682 24.4379 18.1333 22.3465 18.7756 23.4437C18.8364 23.5465 20.6751 26.479 20.6911 26.521C20.8512 26.895 19.6194 25.0509 19.5252 25.0382C19.4794 25.0341 20.4715 26.666 20.2397 26.359C19.8528 25.8414 17.0083 21.6883 17.6389 22.7376C18.0466 23.4066 19.9862 26.2743 21.2977 28.2349C23.8499 32.0286 19.2341 25.2631 18.5063 24.2244C18.4819 24.1902 18.0438 23.5011 17.031 22.0408C14.9359 18.9875 18.4968 24.2114 18.5063 24.2244C18.0421 23.5493 17.553 22.9318 17.9211 23.4819C18.1224 23.7825 19.9903 26.4787 20.0607 26.5839C21.6939 29.0234 22.181 29.7002 21.2725 28.4644C21.2334 28.4109 19.093 25.431 19.0274 25.3427C18.0518 24.035 20.669 27.6814 22.2475 29.8283C23.823 31.9759 23.3154 31.2418 19.5477 26.1943C20.0169 26.8337 18.3394 24.6111 17.3067 23.2737C16.2733 21.9369 20.5965 27.6217 20.6827 27.7335C21.6476 29.0012 21.9712 29.4127 21.9633 29.3961C21.9486 29.3659 20.8128 27.8944 20.562 27.5676C20.3697 27.3184 21.027 28.1193 21.5374 28.711C21.9483 29.1879 20.8997 27.8833 21.5927 28.699C21.6857 28.8077 23.7001 31.2682 23.7785 31.3622C26.2239 34.2771 21.27 28.2861 20.3908 27.2116C17.1912 23.3058 15.4582 21.2496 16.9874 23.067C17.3312 23.4886 24.5623 32.0328 25.0172 32.5053C25.5859 33.1119 22.9723 30.0679 23.6308 30.7835C23.685 30.8417 25.2941 32.7225 25.2449 32.6209C25.0386 32.1731 24.2003 30.9926 24.499 31.0563C24.5348 31.0567 27.1498 33.9853 27.2499 34.0292C27.7167 34.2337 27.8369 33.922 26.7529 32.4124C26.4766 32.0328 24.5263 30.0951 23.966 29.5015C20.5577 25.9272 25.6674 30.9656 25.7904 31.036C28.6573 33.0415 24.2678 28.2466 27.1603 29.6235C27.3021 29.7387 33.541 34.2728 28.5911 29.9017C28.2725 29.5978 23.1192 25.2372 26.8479 27.9616C27.0848 28.1273 29.7139 30.4056 29.604 29.9723C29.4803 29.5582 31.6493 30.54 28.8235 27.9307C27.9495 27.0856 22.5652 23.0439 27.2279 25.7297C27.5033 25.9966 38.164 31.8752 31.2873 27.0741C30.152 26.2875 22.5784 21.6976 26.7626 23.5531C27.5843 23.8935 29.1599 25.1137 30.4084 25.4244C32.3688 25.8352 30.6546 24.0414 34.6312 24.89C35.315 25.0857 41.1586 26.8058 37.2925 24.239C36.68 23.8533 33.8828 22.8724 33.7169 22.416C32.8777 20.3278 35.4998 18.8519 34.0534 15.8089C33.5314 14.7584 28.7526 14.2909 27.6279 13.2786C26.5096 12.2415 25.4467 10.5885 27.6424 9.58943C29.8351 8.49268 37.4782 9.96865 38.0454 7.73216C39.6694 1.21727 35.6571 -7.17689 30.8664 -11.5275L14.1634 -24.7933C13.5987 -24.241 13.0861 -23.6392 12.7821 -23.496C12.6593 -23.4363 13.6532 -25.9774 13.5338 -26.0749C13.1097 -26.4437 13.1655 -29.1003 11.3731 -23.5843C9.96902 -19.1582 9.12845 -15.7232 8.5509 -13.9238C8.29663 -13.0594 10.6457 -21.6034 10.7025 -21.8771C11.3473 -24.6387 10.2771 -20.8615 10.5308 -22.0397C10.581 -22.2849 11.487 -25.7602 11.5169 -25.9311C11.6227 -26.547 11.1888 -25.0031 11.2294 -25.295C11.2488 -25.4342 11.903 -28.0981 11.8369 -27.8963C11.6876 -27.4438 11.3871 -26.3301 10.7792 -23.8319C10.7253 -23.6039 9.94983 -20.281 9.91355 -20.1591C9.85289 -19.9723 9.29306 -17.4986 9.86738 -20.054C10.0409 -20.8226 11.396 -26.9435 10.4539 -22.7178C10.2568 -21.8352 8.64505 -14.4819 10.0385 -20.8353C10.2791 -21.8891 12.0987 -30.4717 10.9145 -24.9419C10.6029 -23.4865 9.33824 -17.4576 9.54437 -18.4035C9.57621 -18.5546 10.2636 -21.8511 10.3322 -22.1724C10.5598 -23.2475 10.4952 -22.894 10.7114 -23.9264C10.7693 -24.2088 11.4482 -27.6266 11.5098 -27.939C11.6779 -28.8036 11.5069 -27.933 11.3179 -26.8587C11.2468 -26.4562 10.7104 -23.6199 10.6523 -23.3112C9.72078 -18.2875 10.9973 -25.0648 11.0709 -25.4601C11.5228 -27.8252 10.9509 -24.6366 11.1253 -25.4762C11.1709 -25.6995 11.7471 -28.9369 11.7998 -29.2253C12.3108 -32.0443 11.2662 -26.2321 11.1589 -25.59C10.8571 -23.7716 10.936 -24.0261 11.0341 -24.4356C11.0708 -24.5908 11.705 -28.3505 11.7288 -28.4467C11.8794 -29.0874 11.8591 -28.721 11.5864 -26.6359C11.5341 -26.2364 11.0637 -23.3383 10.9604 -22.6758C10.2431 -18.0392 11.2791 -24.3543 11.3771 -24.956C11.8363 -27.7014 11.4449 -25.1347 11.5459 -25.6094C12.0331 -27.9756 11.9368 -26.2519 11.9483 -25.1779C11.9543 -23.7969 11.7821 -21.0027 12.1039 -21.6938C12.1235 -21.7341 12.5855 -25.6125 12.6078 -25.6971C12.868 -26.6138 12.8431 -25.08 13.1303 -26.1828C13.1528 -26.2665 13.5504 -29.9478 13.5991 -30.2059C13.7019 -30.7611 13.7281 -30.5557 13.64 -29.3759C13.5982 -28.8075 13.2232 -25.6523 13.1893 -25.1445C13.1102 -23.9548 13.1401 -23.6863 13.2578 -24.2707C13.3082 -24.5275 13.6764 -28.2966 13.7093 -28.3371C13.9423 -28.6901 14.1786 -29.3217 13.9197 -24.4201C13.9015 -24.0835 13.1822 -16.4206 13.3573 -17.8866C13.562 -20.0128 13.7997 -22.5141 14.0168 -24.7868C14.4332 -25.9826 14.4968 -23.2986 14.7811 -22.8618C14.7924 -22.8444 15.0976 -26.911 15.1199 -26.8979C15.2584 -26.8264 15.4621 -27.9438 15.3049 -23.8912C15.2897 -23.4949 14.7642 -16.34 14.8871 -17.4189C14.9096 -17.6158 15.0472 -18.5652 15.1719 -20.1177C15.1903 -20.3519 15.4134 -23.6931 15.4395 -23.7891C15.5841 -24.2888 15.6392 -23.519 15.6102 -21.4708C15.6057 -21.1338 15.3676 -17.5757 15.3635 -17.3048C15.3405 -15.4096 15.5849 -18.1108 15.4686 -14.8747C15.3993 -12.6953 15.0606 -6.54043 14.788 -0.478836C14.7504 0.376418 14.7861 0.514011 14.6169 4.0402C14.1941 12.9073 13.684 22.6144 13.2352 32.0659C13.139 34.1017 13.3725 31.9153 13.0602 36.8311C13.0394 37.1601 12.8618 38.788 12.7521 40.4553C12.6762 41.6081 12.53 45.1955 12.417 46.6704C12.3025 48.1438 12.4139 45.1361 12.2594 46.8677C12.1047 48.6208 11.9065 52.7004 11.7588 53.1766ZM12.6478 17.3295C10.5256 14.6349 18.2217 24.5633 16.3918 22.1791C16.2943 22.052 12.7516 17.4619 12.6478 17.3295ZM15.3325 13.3086C12.6275 8.47269 16.4974 15.6421 18.5816 19.3796C20.6576 23.1162 16.1497 14.7761 15.3325 13.3086ZM13.9737 9.44665C11.8554 5.62514 20.2154 21.355 18.5829 18.1446C18.4907 17.9632 14.0963 9.66873 13.9737 9.44665ZM14.5076 1.23642C14.4989 1.40302 14.5256 1.56733 14.5354 1.40228C14.7716 -2.58041 14.7256 -2.90581 14.5076 1.23642ZM12.5291 5.23146C11.3974 3.10391 12.6145 5.60626 14.0231 8.25108C15.1544 10.3797 13.9343 7.87927 12.5291 5.23146ZM2.55026 8.42119C2.4097 8.29754 2.26515 8.20668 3.062 8.9029C5.62756 11.1463 4.91356 10.5017 2.55026 8.42119ZM13.5044 4.50522C13.0533 3.98114 6.32688 -9.10677 7.27405 -7.72435C7.44378 -7.47338 9.30073 -3.49133 9.94015 -2.32789C11.0994 -0.205492 7.02433 -8.49749 9.31937 -4.10969C9.73651 -3.30513 13.5429 4.56529 13.5133 4.52371C13.5104 4.51755 13.5074 4.51138 13.5044 4.50522ZM3.39988 5.40717C3.2974 5.27643 3.16539 5.17948 3.26557 5.3102C5.6956 8.47247 5.95221 8.67795 3.39988 5.40717ZM-5.64308 8.25634C-6.00157 8.2145 -6.37229 8.87036 -6.03941 8.90707C0.479608 9.02278 1.17273 8.92177 -5.64308 8.25634ZM0.886111 -4.04721C-1.22956 -7.45658 -1.41102 -7.90114 1.33194 -3.67491C1.1394 -3.86941 1.06876 -3.87106 0.886111 -4.04721Z" fill="#232322"/>
</svg>
