<svg width="2" height="10" viewBox="0 0 2 10" fill="none" xmlns="http://www.w3.org/2000/svg">
<path d="M-1.6054 9.14847C-1.65488 9.08067 -1.59586 9.01305 -1.51689 8.96316C-1.49239 8.94761 -1.38691 8.96126 -1.36522 8.95047C-1.32298 8.93056 -1.37387 8.90691 -1.32372 8.88722C-1.30657 8.88057 -1.13932 8.89827 -1.12518 8.89108C-1.049 8.85353 -1.08971 8.81181 -1.05192 8.7716C-0.945459 8.65906 -0.875799 8.54667 -0.819289 8.43182C-0.77688 8.34629 -0.741874 8.25944 -0.704132 8.17112C-0.675229 8.10245 -0.518371 8.0281 -0.580651 7.95173C-0.588084 7.94301 -0.73552 7.93929 -0.747555 7.93701C-0.931759 7.90129 -0.635188 7.92701 -0.594759 7.9131C-0.435048 7.85679 -0.417132 7.78625 -0.470005 7.72082C-0.492909 7.69266 -0.786791 7.70092 -0.62108 7.68435C-0.60988 7.68319 -0.454098 7.6999 -0.436971 7.69362C-0.398422 7.67904 -0.42438 7.64672 -0.411168 7.63465C-0.38493 7.61165 -0.386234 7.60746 -0.382907 7.58406C-0.377021 7.5525 -0.296887 7.52034 -0.32992 7.48339C-0.337435 7.47547 -0.49819 7.47434 -0.524627 7.46068C-0.55104 7.44729 -0.535352 7.41752 -0.496891 7.4097C-0.458414 7.40191 -0.332908 7.4151 -0.303942 7.41527C-0.0595009 7.41726 -0.394066 7.35757 -0.402085 7.35254C-0.538218 7.25911 -0.340913 7.20097 -0.335483 7.12238C-0.331801 7.06314 -0.390131 6.99402 -0.376873 6.93799C-0.360418 6.87081 -0.269034 6.82098 -0.27834 6.75417C-0.279138 6.74715 -0.467809 6.7392 -0.46916 6.73055C-0.483303 6.63827 -0.454771 6.54972 -0.319663 6.47208C-0.305946 6.46428 -0.142082 6.49115 -0.118518 6.48431C0.0221561 6.44141 0.355771 6.38832 -0.358764 6.28517C-0.327083 6.25051 -0.293632 6.20824 -0.145608 6.18944C-0.0503383 6.17738 0.127073 6.21646 0.0531446 6.18236C0.036677 6.17474 -0.121321 6.16637 -0.134122 6.15612C-0.187861 6.11288 -0.13251 6.07721 -0.209767 6.03132C-0.22585 6.02194 -0.366885 6.00911 -0.392013 6.00426C-0.595456 5.96439 -0.252783 5.97043 -0.227425 5.96664C-0.0381589 5.93671 -0.106549 5.89264 -0.0969048 5.84694C-0.0945836 5.83633 -0.285032 5.8279 -0.289582 5.81688C-0.310626 5.75984 -0.287969 5.70575 -0.197957 5.66284C-0.17748 5.65335 -0.0178322 5.68303 0.000184298 5.67948C0.0776528 5.66376 -0.225576 5.6222 -0.157108 5.60641C-0.143063 5.60303 -0.00567618 5.62229 0.0095579 5.62319C0.24867 5.6375 -0.0862647 5.58491 -0.0932439 5.58031C-0.189123 5.52169 0.165618 5.5349 0.121395 5.48471C0.115758 5.4786 -0.0598918 5.46891 -0.065081 5.45302C-0.100652 5.34689 -0.038919 5.24638 0.113599 5.16686C0.137081 5.15444 0.266212 5.18323 0.282448 5.18445C0.53617 5.20326 0.200462 5.14701 0.188465 5.14021C0.102553 5.08795 0.390216 5.0913 -0.00722748 5.00764C0.0562005 4.94992 0.0646605 4.88497 0.0741376 4.81983C0.0889907 4.71771 0.106356 4.61537 0.34169 4.55052C0.34618 4.54911 0.510967 4.57976 0.519208 4.57686C0.620195 4.54226 0.361599 4.50993 0.052898 4.42439C-0.0245931 4.40277 0.359007 4.44033 0.387168 4.44285C0.490984 4.45183 0.735453 4.5014 0.755749 4.502C0.915273 4.50585 0.101582 4.37302 0.106553 4.34199C0.108071 4.34126 0.257013 4.3706 0.272326 4.37054C0.320383 4.37045 0.262276 4.35244 0.315105 4.35337C0.437324 4.35567 0.833244 4.41705 0.608085 4.35063C0.578857 4.34207 0.117037 4.26813 0.143557 4.24437C0.154507 4.23499 0.155046 4.18515 0.187289 4.17681C0.219481 4.16849 0.36628 4.20386 0.372878 4.20402C0.575518 4.2023 0.654442 4.23037 0.948132 4.26383C1.24069 4.29735 0.549559 4.17988 0.473831 4.15881C0.398326 4.13775 0.564919 4.14011 0.622338 4.14374C0.679783 4.14735 0.772603 4.17229 0.805481 4.17226C1.02037 4.17171 0.465995 4.09405 0.358764 4.06169C0.104914 3.98486 0.620714 4.05414 0.675736 4.03641C0.690607 4.03156 0.573037 4.01626 0.56334 4.00773C0.526498 3.97413 0.688888 3.98797 0.548083 3.93143C0.525133 3.92224 0.222267 3.84117 0.450665 3.86766C0.483589 3.87153 0.609797 3.90145 0.640378 3.89576C0.686258 3.88728 0.719631 3.86293 0.680409 3.83722C0.651386 3.81822 0.438775 3.7937 0.507057 3.78946C0.537538 3.78762 0.657694 3.82435 0.704715 3.81899C0.751717 3.81366 0.752899 3.77799 0.751194 3.76393C0.749383 3.74989 0.588942 3.72678 0.578429 3.72368C0.518277 3.7055 0.446471 3.66527 0.447098 3.66304C0.449586 3.54503 0.737856 3.49326 0.671135 3.36552C0.666124 3.35557 0.497505 3.328 0.495014 3.32614C0.430734 3.28259 0.871365 3.39451 1.02449 3.40369C0.684064 3.33891 0.748014 3.33904 0.714907 3.31078C0.698679 3.29711 0.56602 3.27625 0.552734 3.27265C0.355889 3.21773 0.616082 3.25899 0.66941 3.26692C0.8656 3.29602 0.638286 3.23922 0.769445 3.25857C0.899626 3.27777 1.08753 3.33155 1.08908 3.31115C0.968604 3.28109 0.647828 3.23201 0.599383 3.20645C0.416045 3.11011 0.687111 3.05329 0.722326 3.01301C0.757544 2.97252 0.738224 2.95284 0.787574 2.93537C0.876838 2.90367 0.637648 2.87284 0.535996 2.82067C0.434393 2.76836 1.01093 2.90249 1.13641 2.92387C1.26181 2.94533 1.13457 2.91428 1.20411 2.92315C1.27363 2.93204 1.356 2.96084 1.38424 2.95385C1.41246 2.9468 1.19786 2.8675 1.06851 2.8362C0.79447 2.76989 0.501706 2.72514 0.610226 2.71356C0.616653 2.71294 0.767756 2.75058 0.784642 2.74659C0.913766 2.71378 0.933348 2.65606 1.04891 2.62081C1.06504 2.61601 1.23304 2.65832 1.24435 2.65592C1.36262 2.63106 1.07338 2.58842 0.761427 2.49613C1.18259 2.59006 1.44397 2.62973 1.45395 2.59442C1.4601 2.5732 1.27487 2.53837 1.14778 2.49721C1.10947 2.48483 1.23932 2.49598 1.15316 2.47507C0.871511 2.40661 0.551048 2.35473 0.685241 2.34389C0.69159 2.34351 0.845717 2.38118 0.856299 2.3775C0.925442 2.35397 0.629719 2.28774 0.602031 2.2409C0.580287 2.20424 0.772688 2.18698 0.809384 2.15837C1.28403 2.25855 1.18223 2.20273 0.857679 2.12071C0.875843 2.10079 0.862528 2.07212 0.912364 2.05968C0.929366 2.05539 1.0658 2.08911 1.08085 2.09127C1.31691 2.12549 1.00048 2.04896 0.989014 2.04146C0.878708 1.96315 1.12934 1.96953 0.903904 1.86998C0.895782 1.86641 0.566541 1.79461 0.810206 1.83139C0.826991 1.83398 0.973572 1.88205 0.990154 1.86064C1.00675 1.83931 1.19305 1.83082 1.04707 1.76593C1.01193 1.75027 0.748332 1.67434 0.960953 1.70165C0.989817 1.7054 1.08394 1.72746 1.13724 1.73529C1.30711 1.76008 0.974809 1.6852 1.26057 1.73221C1.54631 1.77923 1.76367 1.79833 1.57518 1.72413C1.56972 1.72189 1.30704 1.65917 1.31339 1.64957C1.32375 1.63429 1.38375 1.6219 1.38566 1.60399C1.38648 1.59539 1.22122 1.5668 1.21852 1.56472C1.13825 1.48907 1.29284 1.47938 1.36881 1.43197C1.38307 1.42332 1.16572 1.34542 1.34718 1.36015C1.54582 1.37625 2.347 1.5659 2.16607 1.47214C2.09376 1.43434 1.07647 1.19786 1.61452 1.26647C1.4987 1.16359 1.78439 1.14764 1.61218 1.03333C1.60456 1.02822 1.32108 0.959908 1.32658 0.95265C1.33531 0.941972 1.47015 0.96221 1.48067 0.955403C1.52808 0.927646 1.42053 0.871299 1.44512 0.840623C1.45419 0.828841 1.59138 0.860944 1.60221 0.846839C1.61292 0.832694 1.43312 0.786116 1.52518 0.78232C1.59532 0.779576 1.9703 0.837138 2.0179 0.824137C1.65131 0.750823 1.66183 0.737306 1.57009 0.692476C1.55228 0.6838 1.42357 0.663949 1.40856 0.658548C1.34465 0.636029 1.4522 0.648026 1.38236 0.62483C1.36559 0.619233 1.24034 0.594472 1.21956 0.588509C1.03809 0.536905 1.32486 0.566959 1.37479 0.572179C1.56443 0.591974 1.40302 0.552176 1.47893 0.553659C1.55483 0.555125 1.64279 0.592359 1.69027 0.585985C1.78857 0.572386 1.77599 0.5291 1.78791 0.498471C1.79188 0.486143 1.62291 0.462301 1.61959 0.459783C1.5822 0.425549 1.76532 0.433427 1.4348 0.354575C2.30016 0.502703 1.35428 0.322501 1.53391 0.318882C1.54843 0.318659 1.95677 0.39324 2.01445 0.416016C2.07207 0.43879 1.94138 0.431276 2.03159 0.46515C2.05276 0.473094 2.43051 0.568346 2.45307 0.57578C2.6294 0.633791 2.01981 0.519073 1.98613 0.513789C1.62254 0.457496 2.02887 0.563214 2.05595 0.57563C2.18009 0.63229 2.08931 0.642036 2.17705 0.686762C2.23374 0.715778 2.63214 0.795582 2.61726 0.806815C2.56803 0.844231 2.00886 0.750178 2.48271 0.887437C2.58376 0.916774 3.02121 0.993839 2.67213 0.959005C2.65012 0.956832 2.33195 0.919058 2.52737 0.97236C2.55201 0.979079 2.67897 1.00421 2.68918 1.00866C2.75506 1.03794 2.65187 1.02823 2.69694 1.05477C2.742 1.08132 2.81015 1.11604 2.76326 1.12668C2.73517 1.13331 2.49571 1.10106 2.43671 1.09505C2.2668 1.07744 2.53681 1.1491 2.33294 1.11834C2.12805 1.0874 1.8237 1.00652 1.68746 1.00572C2.01693 1.07287 2.35486 1.143 2.68609 1.21113C2.66317 1.26509 2.54532 1.29944 2.54841 1.35893C2.54913 1.36637 2.72774 1.39513 2.73307 1.40405C2.75476 1.44156 2.62293 1.4432 2.66644 1.48669C2.70083 1.52034 2.88263 1.58663 2.92442 1.62293C2.54414 1.56211 2.66409 1.62739 2.6237 1.64931C2.60972 1.65695 2.5092 1.6356 2.47489 1.636C2.3479 1.63799 2.68354 1.69384 2.73443 1.71202C2.95158 1.78979 2.19724 1.63729 2.20823 1.67814C2.20857 1.68022 2.60536 1.78718 2.62967 1.79578C2.78842 1.85074 2.48911 1.77042 2.45668 1.77757C2.39743 1.79059 2.29803 1.7875 2.40984 1.84011C2.44298 1.85556 2.68926 1.92723 2.49229 1.903C2.4665 1.89984 2.33397 1.87114 2.32585 1.87121C2.18991 1.87483 2.60686 1.96246 2.74449 2.0094C2.88207 2.0564 2.58847 2.02365 2.50433 2.01187C2.28665 1.9816 2.41488 1.98175 2.39398 1.97658C2.14515 1.91527 2.18422 1.94398 2.1599 1.9546C1.75046 1.87166 1.77065 1.89772 2.13634 1.96594C2.1763 1.97336 2.14059 1.95373 2.1599 1.9546C2.55843 2.05134 2.60501 2.08512 2.22472 2.03252C2.04648 2.0079 1.84394 1.95386 1.9113 2.00589C1.9417 2.02946 2.22461 2.08184 2.29833 2.11242C2.46652 2.18238 2.19496 2.1701 2.22912 2.21333C2.24153 2.22893 2.3982 2.24902 2.41199 2.2608C2.44909 2.29216 2.32929 2.28785 2.3838 2.32282C2.38894 2.32603 2.55131 2.35479 2.5519 2.36224C2.55956 2.41909 2.44639 2.44444 2.43193 2.49917C2.42504 2.52555 2.50394 2.59231 2.48023 2.61635C2.4401 2.65817 2.19317 2.66803 2.24156 2.72114C2.27244 2.75553 2.43505 2.78336 2.54261 2.81777C2.75113 2.88434 2.36125 2.84349 2.301 2.83657C2.29901 2.83633 2.26579 2.80529 2.18037 2.80033C2.00626 2.77149 2.30031 2.83615 2.301 2.83657C2.26208 2.83209 2.21586 2.87047 2.24482 2.88598C2.26065 2.89444 2.41414 2.92351 2.4195 2.92732C2.54364 3.01683 2.56972 3.08648 2.48545 3.13333C2.48213 3.13377 2.31138 3.09674 2.30573 3.09824C2.22227 3.11823 2.42677 3.18475 2.54499 3.23976C2.66315 3.29482 2.61679 3.30941 2.31941 3.26651C2.35182 3.29643 2.21538 3.30179 2.13279 3.30408C2.0502 3.30637 2.38291 3.37691 2.38917 3.37986C2.58983 3.47284 2.39314 3.46324 2.35293 3.50925C2.33325 3.53096 2.37174 3.58972 2.40286 3.62376C2.42801 3.65074 2.34731 3.64782 2.39342 3.67718C2.39958 3.68113 2.54861 3.70809 2.55417 3.71003C2.72756 3.76696 2.36656 3.68431 2.30083 3.67586C2.06182 3.64507 1.93418 3.63043 2.03959 3.68034C2.06371 3.69186 2.58292 3.81387 2.61124 3.83141C2.64708 3.8541 2.46074 3.8115 2.50305 3.83621C2.50649 3.83829 2.6222 3.86076 2.6152 3.86945C2.58421 3.91008 2.50725 3.94639 2.50985 3.99528C2.50976 4.00187 2.69489 4.02916 2.69779 4.03923C2.71122 4.08662 2.69542 4.13239 2.60153 4.15789C2.57784 4.16408 2.45044 4.13328 2.41183 4.12829C2.17812 4.09849 2.51019 4.18153 2.51599 4.18589C2.663 4.29268 2.34806 4.2951 2.47872 4.39951C2.48643 4.40539 2.84104 4.50289 2.52926 4.46167C2.50852 4.45892 2.18955 4.41664 2.40359 4.46812C2.41699 4.47132 2.58147 4.49154 2.56208 4.50413C2.54272 4.5168 2.64712 4.5609 2.4643 4.55075C2.40672 4.54751 2.08806 4.50834 2.33626 4.57274C2.35356 4.57734 2.91754 4.70723 2.52278 4.65014C2.4578 4.64073 2.04234 4.567 2.25134 4.62805C2.29188 4.63978 2.38607 4.64737 2.4419 4.66946C2.52799 4.70331 2.41238 4.70897 2.59387 4.76303C2.62599 4.7726 2.9056 4.83679 2.68899 4.81415C2.65506 4.81063 2.51681 4.78331 2.50007 4.78784C2.41979 4.80936 2.50688 4.86026 2.40508 4.87893C2.36929 4.88564 2.14554 4.84278 2.08321 4.84588C2.02091 4.84897 1.95875 4.86583 2.05935 4.89578C2.16001 4.92566 2.52073 4.96833 2.54625 4.99271C2.62988 5.07237 2.52354 5.12105 2.44745 5.17568C2.42262 5.19353 2.40102 5.21197 2.39032 5.23209C2.38384 5.24422 2.51388 5.25248 2.51358 5.2716C2.51292 5.34247 2.61689 5.47818 2.33529 5.50202C2.10965 5.52152 1.95118 5.43724 1.85697 5.46306C1.81197 5.47578 2.22763 5.55114 2.24024 5.55714C2.3684 5.61736 2.17923 5.62268 2.23117 5.66859C2.24196 5.67805 2.4126 5.69191 2.41992 5.69968C2.44642 5.72637 2.36764 5.74094 2.37875 5.76464C2.38413 5.77532 2.51398 5.78963 2.50286 5.79739C2.47774 5.81611 2.42088 5.82866 2.29677 5.83511C2.28546 5.83572 2.12576 5.80293 2.11779 5.81844C2.10534 5.84358 1.9815 5.86189 2.10176 5.90698C2.13796 5.92043 2.4344 5.95563 2.22738 5.95082C2.18415 5.94982 1.82869 5.90308 2.13371 5.96152C2.18437 5.97144 2.59507 6.05665 2.32545 6.04427C2.25448 6.04106 1.96159 6.02045 2.00615 6.03658C2.0133 6.03887 2.1733 6.05104 2.18782 6.06177C2.23625 6.09924 2.21558 6.13026 2.26195 6.16809C2.27465 6.17825 2.441 6.18347 2.45467 6.19798C2.49249 6.23787 2.44578 6.27707 2.39049 6.30614C2.36978 6.31689 2.23402 6.29364 2.21905 6.29299C1.97549 6.2826 2.30116 6.32584 2.31969 6.33275C2.43051 6.3755 2.27466 6.383 2.31237 6.4156C2.32236 6.4246 2.47871 6.43484 2.49244 6.43783C2.62652 6.46781 2.34798 6.42733 2.3161 6.43451C2.22585 6.45457 2.23515 6.48809 2.2522 6.51908C2.2587 6.53048 2.44057 6.53629 2.44431 6.54627C2.46984 6.60641 2.44701 6.66281 2.34214 6.7095C2.32207 6.71819 2.18348 6.69869 2.15148 6.69792C1.92761 6.69248 2.22902 6.74263 2.25747 6.75026C2.38737 6.78518 2.26341 6.78321 2.28455 6.80573C2.39004 6.91508 2.29791 7.03172 2.23986 7.12187C2.16499 7.23968 2.02496 7.32643 2.05078 7.44728C2.05225 7.45501 2.2383 7.46084 2.24195 7.46765C2.28063 7.55422 2.20243 7.63113 2.25039 7.71911C2.25401 7.72622 2.43059 7.72811 2.44231 7.73988C2.4676 7.76373 2.45611 7.79238 2.39846 7.81147C2.37066 7.82086 2.22065 7.79611 2.19576 7.80578C2.13747 7.82813 2.12313 7.85571 2.14962 7.88465C2.16129 7.89693 2.34235 7.89095 2.34349 7.90597C2.35496 8.00876 2.38006 8.10947 2.141 8.19982C2.1246 8.20578 1.75831 8.19161 1.82761 8.21089C1.9291 8.21779 2.04856 8.22449 2.15707 8.23113C2.19668 8.35205 2.1204 8.46637 2.07323 8.58426C2.06077 8.61666 2.05047 8.6462 2.04467 8.67884C2.04355 8.68525 2.23806 8.68428 2.23687 8.6967C2.23022 8.76885 2.28031 8.84157 2.08377 8.9052C2.06455 8.91152 1.72356 8.89017 1.77407 8.91421C1.78327 8.91891 1.82714 8.95321 1.90078 8.96533C1.9119 8.96705 2.07146 8.96911 2.07556 8.98C2.09666 9.04204 2.05721 9.10203 1.95705 9.15691C1.94059 9.16548 1.77145 9.14746 1.75825 9.15347C1.66592 9.19727 1.79247 9.25551 1.63705 9.28622C1.5325 9.30556 1.23945 9.28655 0.950272 9.29117C0.909444 9.29253 0.902801 9.30314 0.734715 9.30276C0.311971 9.30326 -0.150763 9.28614 -0.601374 9.28703C-0.698537 9.29102 -0.594019 9.32841 -0.828537 9.30713C-0.844311 9.30755 -0.921792 9.26504 -1.00106 9.25508C-1.05592 9.24767 -1.22711 9.25572 -1.2972 9.24067C-1.36722 9.22591 -1.22359 9.21657 -1.30575 9.1982C-1.38892 9.17979 -1.58352 9.17864 -1.6054 9.14847ZM1.76353 3.31514C1.59999 3.29979 2.18572 3.42126 2.04921 3.37434C2.04192 3.37193 1.77156 3.31585 1.76353 3.31514ZM2.10313 1.20959C1.83992 1.18005 2.21701 1.27257 2.41998 1.29693C2.62275 1.32117 2.18293 1.21847 2.10313 1.20959ZM1.96155 0.936184C1.75229 0.921821 2.58329 1.0921 2.4208 1.03012C2.41163 1.02656 1.97371 0.937002 1.96155 0.936184ZM0.870574 9.21901C0.862628 9.21883 0.854316 9.23239 0.862182 9.23279C1.05171 9.24763 1.06816 9.2216 0.870574 9.21901ZM1.80196 0.662283C1.68774 0.64845 1.81304 0.697743 1.95507 0.715009C2.06933 0.728867 1.94405 0.679446 1.80196 0.662283ZM0.963109 4.08815C0.95429 4.08682 0.944566 4.09539 0.994174 4.10423C1.15395 4.13266 1.11142 4.11058 0.963109 4.08815ZM1.86908 0.263809C1.82646 0.316876 1.13157 0.220013 1.22131 0.171668C1.23756 0.162855 1.43606 0.238357 1.50091 0.235587C1.61909 0.23029 1.1903 0.130151 1.42712 0.146737C1.47047 0.149774 1.87305 0.261042 1.87002 0.264096C1.86971 0.264 1.86939 0.263904 1.86908 0.263809ZM1.05739 3.18206C1.04956 3.18083 1.0394 3.19322 1.04702 3.19511C1.23161 3.24035 1.25219 3.21549 1.05739 3.18206ZM0.497025 4.61454C0.480255 4.61263 0.459424 4.64293 0.474594 4.64645C0.778544 4.71235 0.821421 4.65211 0.497025 4.61454ZM0.822164 2.16047C0.638326 2.10625 0.620088 2.0836 0.857426 2.12073C0.841817 2.13313 0.836821 2.14784 0.822164 2.16047Z" fill="#232322"/>
</svg>
