<svg width="3" height="15" viewBox="0 0 3 15" fill="none" xmlns="http://www.w3.org/2000/svg">
<path d="M-1.49798 14.1976C-1.54877 14.1143 -1.49119 14.0114 -1.41329 13.9343C-1.38912 13.9098 -1.28336 13.9245 -1.26189 13.9072C-1.22009 13.8761 -1.27147 13.8425 -1.22177 13.8113C-1.20477 13.8006 -1.03713 13.8175 -1.02315 13.8062C-0.947783 13.7452 -0.989428 13.6852 -0.952527 13.6224C-0.770489 13.3141 -0.701453 13.0083 -0.618788 12.696C-0.613814 12.677 -0.604542 12.657 -0.59311 12.6363C-0.542283 12.5491 -0.448615 12.4489 -0.50126 12.3599C-0.508932 12.347 -0.656456 12.3516 -0.668553 12.349C-0.853725 12.307 -0.556469 12.3255 -0.516453 12.3023C-0.35843 12.2094 -0.342593 12.1013 -0.39743 12.0058C-0.421183 11.9649 -0.714759 11.9987 -0.549594 11.9621C-0.538434 11.9596 -0.382159 11.973 -0.365235 11.9626C-0.327167 11.9391 -0.354107 11.8918 -0.341277 11.8728C-0.31576 11.8361 -0.317195 11.8299 -0.314606 11.7944C-0.309734 11.7472 -0.230642 11.6926 -0.264872 11.6398C-0.272643 11.6285 -0.433405 11.6394 -0.460283 11.6211C-0.487108 11.6022 -0.472415 11.557 -0.434222 11.5424C-0.396013 11.5278 -0.270092 11.5374 -0.241126 11.5354C0.00333944 11.5188 -0.333168 11.4568 -0.341346 11.4496C-0.480577 11.3204 -0.285281 11.2159 -0.282655 11.0994C-0.281025 11.0093 -0.341856 10.9123 -0.330628 10.8269C-0.316598 10.7241 -0.227129 10.643 -0.238896 10.5423C-0.239959 10.5319 -0.428913 10.538 -0.430592 10.5253C-0.448258 10.3902 -0.423166 10.2555 -0.291102 10.1251C-0.277689 10.1119 -0.112769 10.1353 -0.0894708 10.1226C0.0494971 10.0445 0.381076 9.92752 -0.337697 9.85038C-0.307435 9.79561 -0.275717 9.7289 -0.128452 9.68441C-0.0336677 9.65576 0.145383 9.69442 0.0700383 9.65159C0.0532572 9.64193 -0.105117 9.64726 -0.11834 9.63322C-0.173865 9.57427 -0.120017 9.51519 -0.199232 9.45568C-0.215716 9.44357 -0.357324 9.44071 -0.382664 9.4364C-0.587839 9.40045 -0.244828 9.36948 -0.219624 9.36083C-0.0316029 9.29432 -0.10191 9.23664 -0.09423 9.1669C-0.0923664 9.15072 -0.283247 9.16129 -0.288277 9.14538C-0.311825 9.06318 -0.291576 8.98041 -0.20343 8.905C-0.183367 8.88827 -0.0223235 8.91234 -0.00445589 8.90476C0.0723602 8.87126 -0.232895 8.84831 -0.1651 8.81598C-0.1512 8.80916 -0.0128777 8.82024 0.00240448 8.81962C0.242288 8.81016 -0.0951849 8.77478 -0.102378 8.76887C-0.200966 8.69411 0.154586 8.66725 0.108057 8.59792C0.102137 8.58956 -0.0740703 8.59849 -0.0799924 8.57553C-0.120466 8.42234 -0.0634521 8.26516 0.0854535 8.1243C0.108367 8.10243 0.239003 8.12671 0.255312 8.1262C0.510201 8.11751 0.171464 8.08211 0.159125 8.07377C0.0706055 8.00862 0.358797 7.97058 -0.0431768 7.90506C0.112799 7.66158 -0.0971381 7.39324 0.283586 7.16952C0.288016 7.16666 0.4547 7.18478 0.462817 7.17904C0.562341 7.10998 0.301549 7.10515 -0.0121647 7.03006C-0.0909283 7.01105 0.295491 7.00181 0.323857 7.00065C0.428388 6.99625 0.675932 7.02849 0.696312 7.02589C0.856471 7.00394 0.0340897 6.94522 0.0375327 6.89829C0.0390186 6.89694 0.189808 6.91506 0.205159 6.91233C0.253344 6.90392 0.194193 6.8871 0.247222 6.87928C0.369906 6.86151 0.769975 6.88421 0.540961 6.82391C0.511233 6.81619 0.0444482 6.78625 0.0699111 6.74614C0.0804443 6.7302 0.0786133 6.65574 0.110573 6.63768C0.142488 6.61958 0.291447 6.64652 0.298075 6.6456C0.501371 6.60689 0.581869 6.63502 0.878185 6.63272C1.17338 6.63058 0.474314 6.57774 0.397347 6.55963C0.320601 6.54149 0.487954 6.5152 0.545768 6.51034C0.603605 6.50545 0.697903 6.52624 0.730913 6.52029C0.946667 6.48079 0.386592 6.46386 0.277494 6.43461C0.0191824 6.36542 0.540249 6.37602 0.594798 6.33928C0.60954 6.32926 0.490785 6.32757 0.480691 6.31648C0.442291 6.27262 0.60603 6.26396 0.462257 6.20472C0.438821 6.19513 0.131207 6.12845 0.361863 6.12648C0.395113 6.1263 0.523131 6.14839 0.553669 6.13417C0.599488 6.11293 0.632159 6.07011 0.591789 6.03864C0.561917 6.01537 0.347196 6.01715 0.415723 5.9984C0.446317 5.99012 0.56848 6.02342 0.615586 6.00687C0.66266 5.99043 0.662633 5.93666 0.660495 5.91551C0.658229 5.8946 0.496004 5.88909 0.485324 5.88632C0.424201 5.86984 0.350675 5.8222 0.35124 5.81872C0.350338 5.68657 0.510904 5.57827 0.564029 5.45946C0.582329 5.41791 0.588043 5.37498 0.57042 5.32877C0.565235 5.31459 0.394643 5.3029 0.392104 5.30053C0.32668 5.24595 0.772943 5.33698 0.927641 5.32391C0.583149 5.28625 0.647713 5.27514 0.613972 5.23854C0.59744 5.22084 0.463259 5.21257 0.449802 5.20948C0.250506 5.16078 0.513743 5.17728 0.567682 5.17994C0.766131 5.18948 0.536066 5.14338 0.668733 5.14972C0.800402 5.15609 0.990613 5.20444 0.992052 5.17359C0.870133 5.14914 0.545671 5.13078 0.496591 5.10055C0.310773 4.98661 0.585634 4.85216 0.621724 4.78631C0.657944 4.71866 0.638684 4.69227 0.689056 4.65748C0.780173 4.59493 0.538225 4.58722 0.436293 4.52441C0.334583 4.46058 0.916224 4.57206 1.04302 4.58431C1.16973 4.59684 1.04139 4.57014 1.11172 4.57256C1.18203 4.57507 1.2649 4.60537 1.2937 4.59056C1.32245 4.57585 1.10678 4.49025 0.97643 4.46297C0.700215 4.40539 0.404308 4.38323 0.514938 4.3486C0.521486 4.34666 0.67371 4.38025 0.690988 4.37163C0.823317 4.30143 0.845513 4.21163 0.964862 4.14142C0.981516 4.13179 1.15034 4.17154 1.16196 4.16631C1.28347 4.11237 0.991333 4.08936 0.678852 3.99361C1.10242 4.07641 1.36627 4.09948 1.37825 4.04634C1.38575 4.0137 1.19921 3.98637 1.07233 3.94141C1.03409 3.92783 1.16566 3.9273 1.07922 3.9073C0.796722 3.8416 0.47354 3.80603 0.611175 3.77118C0.617674 3.76977 0.772178 3.80639 0.78322 3.79942C0.855353 3.75482 0.558645 3.69289 0.53438 3.62366C0.515384 3.5691 0.713146 3.5199 0.753703 3.47037C1.22926 3.56608 1.13034 3.49429 0.806834 3.40683C0.827405 3.37434 0.816663 3.33279 0.86916 3.30761C0.887058 3.29904 1.0229 3.33559 1.03807 3.3372C1.27577 3.36358 0.960546 3.28146 0.9497 3.2711C0.845844 3.16316 1.10151 3.1485 0.883894 3.0178C0.876038 3.01319 0.548419 2.93418 0.793144 2.96754C0.809976 2.97002 0.953652 3.02959 0.973523 2.9957C0.993641 2.96081 1.18561 2.93267 1.0457 2.84633C1.01195 2.82578 0.753696 2.72965 0.967617 2.75447C0.996638 2.75795 1.08965 2.78446 1.14308 2.79234C1.31333 2.81747 0.984608 2.72789 1.27006 2.7788C1.55558 2.82941 1.77436 2.84725 1.59357 2.7481C1.58833 2.74513 1.32976 2.6666 1.33801 2.65161C1.35137 2.62782 1.41508 2.60617 1.42023 2.57972C1.4226 2.56701 1.25841 2.53228 1.25602 2.52933C1.18825 2.41815 1.34874 2.39745 1.43708 2.32331C1.45348 2.31017 1.2475 2.19913 1.43052 2.21718C1.63078 2.2374 2.40987 2.50447 2.24435 2.37338C2.17776 2.32243 1.19219 1.97466 1.72716 2.07637C1.63441 1.92426 1.93114 1.9087 1.78864 1.73728C1.78229 1.72977 1.5133 1.61646 1.52149 1.60534C1.53406 1.58933 1.66571 1.62574 1.67868 1.61629C1.73607 1.57839 1.645 1.48926 1.68155 1.44484C1.69508 1.42809 1.8238 1.4856 1.83977 1.46634C1.85563 1.4471 1.68956 1.36274 1.78507 1.36533C1.85795 1.36714 2.21734 1.48959 2.27 1.47809C1.92544 1.33307 1.94114 1.31524 1.86616 1.2397C1.85161 1.22505 1.72879 1.18129 1.71576 1.17167C1.66025 1.13099 1.76457 1.16151 1.70365 1.11865C1.68904 1.10831 1.57221 1.05682 1.55371 1.04537C1.39223 0.945392 1.67191 1.02375 1.72005 1.03877C1.90379 1.09348 1.7579 1.01337 1.83459 1.02585C1.91092 1.03917 1.98284 1.10598 2.03375 1.10429C2.13864 1.10168 2.146 1.03973 2.17264 1.00061C2.18246 0.984852 2.02511 0.918202 2.02299 0.914149C2.00325 0.857951 2.18191 0.908323 1.89453 0.726319C2.67734 1.12443 1.83162 0.663446 2.01529 0.695987C2.0301 0.698748 2.39202 0.901995 2.43725 0.945631C2.4827 0.988767 2.35729 0.94708 2.43022 1.0117C2.44695 1.0275 2.77607 1.23661 2.79555 1.25021C2.94557 1.36026 2.39396 1.07677 2.36278 1.06283C2.02722 0.91109 2.38271 1.1365 2.4049 1.15695C2.50395 1.25548 2.41039 1.24884 2.48042 1.32253C2.52569 1.37022 2.89376 1.54239 2.87566 1.55201C2.81626 1.58327 2.28642 1.38017 2.71615 1.62519C2.80788 1.67742 3.22178 1.83857 2.88382 1.74165C2.86258 1.73536 2.55509 1.64296 2.73525 1.73645C2.758 1.74816 2.87798 1.79668 2.88695 1.80348C2.94481 1.84802 2.84414 1.82208 2.88193 1.86086C2.91988 1.89927 2.97947 1.9492 2.92961 1.95682C2.89983 1.96126 2.66712 1.89505 2.60907 1.88177C2.44218 1.84254 2.696 1.96025 2.49803 1.90204C2.29875 1.84443 2.01305 1.71025 1.8742 1.70091C2.18997 1.81646 2.51357 1.93649 2.83104 2.05294C2.79478 2.11869 2.66739 2.15494 2.65749 2.23258C2.65657 2.24236 2.83136 2.2895 2.83486 2.30127C2.84888 2.35077 2.71485 2.34679 2.7504 2.40504C2.77855 2.45045 2.95042 2.54284 2.98657 2.59009C2.61189 2.49989 2.72104 2.59128 2.67662 2.61853C2.66113 2.62839 2.56262 2.59913 2.52765 2.59948C2.39803 2.60183 2.72993 2.67786 2.77862 2.70225C2.98674 2.80559 2.24436 2.60259 2.24845 2.65939C2.24834 2.66255 2.63515 2.8034 2.65868 2.81431C2.81182 2.88619 2.51955 2.78178 2.48541 2.79202C2.42301 2.81085 2.322 2.80957 2.42816 2.87869C2.45959 2.89919 2.70027 2.98975 2.50303 2.9628C2.4772 2.95932 2.34622 2.92419 2.33792 2.9246C2.19858 2.93547 2.61146 3.0408 2.74559 3.0992C2.87974 3.15739 2.58517 3.12368 2.50089 3.11153C2.28293 3.07972 2.41362 3.07382 2.39299 3.06766C2.14745 2.99369 2.18342 3.03205 2.15716 3.04853C1.75044 2.95306 1.76727 2.99019 2.13156 3.06608C2.17136 3.07434 2.13756 3.04836 2.15716 3.04853C2.55081 3.1644 2.59449 3.20717 2.21326 3.15495C2.03455 3.13072 1.83459 3.06647 1.89681 3.13678C1.92489 3.16864 2.20727 3.22427 2.2789 3.26267C2.4424 3.34994 2.1672 3.35073 2.19751 3.40986C2.20858 3.43106 2.3662 3.44736 2.37909 3.46291C2.41374 3.50445 2.29238 3.50678 2.34468 3.55176C2.34962 3.55584 2.51233 3.58311 2.51228 3.59344C2.51501 3.67275 2.3982 3.71653 2.3794 3.79582C2.37026 3.83471 2.4463 3.91967 2.42076 3.9561C2.37736 4.01956 2.12599 4.061 2.17243 4.1319C2.20208 4.17775 2.36594 4.19807 2.47357 4.23435C2.6824 4.3036 2.28851 4.29236 2.22761 4.2902C2.2256 4.2901 2.19312 4.24992 2.10663 4.25339C1.93106 4.23381 2.22692 4.28972 2.22761 4.2902C2.18829 4.28849 2.13987 4.34979 2.16869 4.36861C2.18444 4.37879 2.33916 4.40059 2.34447 4.40538C2.46751 4.51663 2.49212 4.61321 2.40607 4.69134C2.4027 4.69245 2.23044 4.6632 2.22468 4.66616C2.13971 4.70713 2.34576 4.77387 2.46475 4.83603C2.58379 4.89761 2.53684 4.925 2.23626 4.9078C2.26886 4.94605 2.13075 4.97522 2.04724 4.99137C1.96372 5.00749 2.30003 5.05835 2.30635 5.06162C2.50923 5.16511 2.31045 5.18237 2.27018 5.25589C2.25048 5.29058 2.28995 5.37026 2.3218 5.41517C2.34751 5.45087 2.26611 5.45966 2.31312 5.49495C2.31939 5.4997 2.47017 5.5142 2.47581 5.5161C2.6517 5.57026 2.28615 5.50992 2.2197 5.5086C1.97808 5.50387 1.84906 5.50407 1.95632 5.55985C1.98085 5.57282 2.50685 5.66359 2.53578 5.6846C2.53874 5.68681 2.54023 5.68865 2.54048 5.69017C2.54341 5.70717 2.38714 5.6835 2.42687 5.71018C2.4304 5.71264 2.54753 5.72575 2.54069 5.73973C2.5105 5.80462 2.4339 5.87273 2.438 5.94475C2.43811 5.95457 2.62532 5.96223 2.62855 5.97667C2.64355 6.04431 2.62908 6.11623 2.53552 6.17144C2.51191 6.18499 2.38268 6.16189 2.34366 6.16141C2.10753 6.15896 2.44449 6.22333 2.45049 6.22884C2.60214 6.36323 2.28571 6.42406 2.42118 6.55951C2.42916 6.56712 2.78942 6.65044 2.47451 6.64498C2.45356 6.64461 2.1314 6.63871 2.34855 6.67796C2.36214 6.68038 2.5282 6.68096 2.50926 6.70383C2.49035 6.72678 2.59703 6.77545 2.41301 6.79361C2.35504 6.79931 2.03339 6.79772 2.28539 6.85096C2.30298 6.8547 2.87481 6.95138 2.47602 6.93593C2.41038 6.93335 1.9901 6.89573 2.20258 6.95161C2.24379 6.96231 2.33866 6.95678 2.39568 6.9807C2.48357 7.01727 2.36777 7.04735 2.55231 7.09809C2.58498 7.10703 2.86839 7.15599 2.65002 7.16034C2.61582 7.16104 2.47588 7.14369 2.45928 7.15379C2.37968 7.20181 2.46931 7.26558 2.36802 7.31318C2.33242 7.33005 2.10607 7.30318 2.0437 7.31903C1.98135 7.33488 1.91979 7.37182 2.02204 7.40073C2.12433 7.4296 2.488 7.43258 2.51467 7.46643C2.63055 7.61335 2.40883 7.73526 2.36875 7.87209C2.36278 7.89234 2.49348 7.88369 2.49399 7.91408C2.49639 8.02631 2.60626 8.22585 2.32518 8.30701C2.10001 8.37236 1.9377 8.26423 1.84445 8.31895C1.79994 8.34552 2.21945 8.40068 2.23233 8.40833C2.36323 8.48369 2.174 8.52043 2.22795 8.58488C2.23915 8.59815 2.41059 8.59499 2.41824 8.60616C2.44588 8.64438 2.36761 8.67881 2.37972 8.71454C2.38554 8.73058 2.51614 8.7345 2.50532 8.74838C2.48094 8.78166 2.42453 8.8096 2.30054 8.83718C2.28924 8.83971 2.12802 8.81064 2.12068 8.83605C2.10927 8.87718 1.98606 8.92291 2.1083 8.97679C2.14509 8.99278 2.44323 9.00786 2.23583 9.02845C2.19251 9.03277 1.83484 9.00738 2.14251 9.05791C2.19363 9.06647 2.6081 9.14581 2.33774 9.16236C2.26659 9.16675 1.97264 9.17286 2.01791 9.19208C2.02515 9.19473 2.18576 9.19288 2.20073 9.20771C2.25071 9.25982 2.23124 9.3118 2.27914 9.36519C2.29225 9.37947 2.45892 9.36647 2.47317 9.38748C2.5126 9.44515 2.46739 9.5131 2.41318 9.56596C2.39288 9.58537 2.25614 9.56562 2.24113 9.56646C1.99705 9.58 2.32458 9.60774 2.34338 9.61635C2.45592 9.66999 2.3003 9.70016 2.33925 9.74739C2.34959 9.76032 2.50641 9.75773 2.52026 9.76078C2.65554 9.79195 2.37533 9.76155 2.34371 9.77662C2.25419 9.8188 2.26477 9.8701 2.28301 9.9167C2.28994 9.93383 2.47209 9.92187 2.47622 9.93713C2.50403 10.0286 2.48325 10.1208 2.3801 10.205C2.36034 10.2209 2.22099 10.2055 2.18896 10.2079C1.96484 10.2239 2.26816 10.2696 2.29689 10.2786C2.42809 10.3196 2.30404 10.3294 2.32601 10.3623C2.43546 10.5236 2.34746 10.7153 2.29252 10.8618C2.22168 11.0546 2.08466 11.1996 2.11436 11.3875C2.11608 11.3993 2.30231 11.3923 2.30618 11.4025C2.34766 11.5342 2.27188 11.6615 2.32254 11.7946C2.32638 11.8054 2.503 11.7941 2.51508 11.8115C2.54109 11.8467 2.53047 11.8925 2.47339 11.9272C2.44587 11.9442 2.29514 11.9172 2.27054 11.9344C2.2129 11.9747 2.19943 12.0164 2.22675 12.0605C2.23877 12.079 2.41964 12.0554 2.42122 12.0791C2.4357 12.2373 2.46352 12.397 2.22687 12.5524C2.21061 12.5634 1.84399 12.5662 1.91379 12.5914C2.01545 12.5952 2.13507 12.5974 2.24375 12.6004C2.25091 12.6316 2.2548 12.6623 2.25613 12.6924C2.26469 12.8948 2.16291 13.0952 2.14195 13.2973C2.14097 13.307 2.33545 13.294 2.33455 13.3127C2.32952 13.424 2.38125 13.5317 2.18611 13.6411C2.16702 13.652 1.82556 13.6401 1.87659 13.6737C1.88592 13.679 1.9305 13.7308 2.00441 13.7448C2.01556 13.7467 2.17516 13.7408 2.17951 13.7567C2.20195 13.8508 2.16376 13.9456 2.06463 14.0378C2.04833 14.0526 1.87884 14.0335 1.86576 14.044C1.77428 14.1173 1.90187 14.2019 1.74665 14.2693C1.64217 14.3136 1.34893 14.2921 1.0597 14.3131C1.01888 14.3166 1.01219 14.3429 0.844097 14.3434C0.421356 14.3459 -0.0414221 14.3273 -0.492032 14.331C-0.589153 14.3333 -0.484646 14.3815 -0.719162 14.3536C-0.7349 14.3517 -0.812515 14.3112 -0.891952 14.3026C-0.946892 14.296 -1.11797 14.3053 -1.18824 14.2918C-1.25845 14.279 -1.11498 14.2676 -1.19744 14.2483C-1.28091 14.2283 -1.47552 14.2338 -1.49798 14.1976ZM1.67383 5.06638C1.50846 5.07048 2.10077 5.15418 1.96269 5.10733C1.95531 5.10497 1.68195 5.06612 1.67383 5.06638ZM2.24048 2.00988C1.97978 1.95717 2.34089 2.10083 2.54122 2.14421C2.74097 2.18872 2.31941 2.02618 2.24048 2.00988ZM2.17526 1.62412C1.96702 1.58592 2.7577 1.89319 2.61125 1.7963C2.60299 1.7908 2.18732 1.62642 2.17526 1.62412ZM0.979191 14.1948C0.971249 14.1946 0.963137 14.217 0.971009 14.2172C1.16078 14.2318 1.17684 14.1887 0.979191 14.1948ZM2.11378 1.22747C2.00409 1.19148 2.11046 1.27827 2.24707 1.32224C2.35669 1.35815 2.24989 1.27291 2.11378 1.22747ZM0.885656 6.36501C0.87674 6.36461 0.867322 6.37933 0.917527 6.38364C1.07923 6.39745 1.0356 6.37184 0.885656 6.36501ZM2.37818 0.713313C2.30886 0.761638 1.67478 0.457136 1.80133 0.402246C1.82363 0.393566 1.96874 0.556043 2.03536 0.568591C2.15425 0.595383 1.80317 0.328067 2.02532 0.420334C2.0646 0.439151 2.38252 0.71259 2.37891 0.713971C2.37867 0.713752 2.37842 0.713532 2.37818 0.713313ZM0.959783 4.98502C0.951871 4.98448 0.941551 5.0049 0.949255 5.00646C1.13592 5.04327 1.15678 5.00247 0.959783 4.98502ZM0.442449 7.23926C0.425547 7.2392 0.406176 7.28806 0.421552 7.29082C0.729399 7.33921 0.769432 7.24109 0.442449 7.23926ZM0.766565 3.47204C0.583907 3.41107 0.567679 3.37775 0.806573 3.40689C0.78937 3.42759 0.782798 3.45074 0.766565 3.47204Z" fill="#232322"/>
</svg>
