<svg width="191" height="27" viewBox="0 0 191 27" fill="none" xmlns="http://www.w3.org/2000/svg">
<path d="M188.896 50.2333C186.366 51.4553 182.771 50.4246 180.13 48.8899C179.289 48.415 179.654 46.1778 179.079 45.7488C177.952 44.9121 176.975 46.0259 175.861 45.0154C175.503 44.6693 175.874 41.1354 175.503 40.8531C173.449 39.3312 171.551 40.251 169.505 39.5124C166.202 38.3175 162.979 37.3449 159.75 36.5067C151.43 34.9577 140.456 31.7577 136.065 29.3374C136.073 29.2972 136.17 29.2663 136.537 29.2639C137.181 29.3522 137.633 29.3786 137.983 29.3862C138.279 29.3875 138.476 29.3711 138.643 29.3497C138.961 29.3049 139.064 29.2352 139.131 29.1628C139.238 29.0157 139.11 28.8484 138.924 28.6821C138.533 28.3487 137.908 28.0107 137.24 27.7502C135.892 27.2294 134.349 27.0135 133.018 27.7745C132.681 27.9702 133.153 31.0367 133.108 31.2966C132.415 35.276 132.193 29.0233 131.442 28.2561C128.368 25.2386 125.138 25.2721 122.518 26.7422C121.398 27.3776 123.212 33.3713 121.664 30.062C121.557 29.8387 121.518 26.538 121.159 26.2228C120.363 25.5125 119.016 26.2448 118.428 26.0453C117.262 25.6474 117.106 25.6973 116.054 25.7723C114.628 25.845 112.766 24.4034 111.308 25.3124C111.004 25.5155 111.798 28.8182 111.345 29.4447C110.894 30.07 109.474 29.939 108.931 29.1999C108.38 28.4612 108.286 25.807 108.137 25.2127C106.885 20.196 106.087 27.425 105.896 27.6229C103.353 30.1515 100.671 28.7582 97.9981 28.0602C96.9799 27.8351 96.0043 27.6781 94.9965 27.7783C92.0298 28.084 88.8991 29.6395 85.9974 29.5791C82.5394 29.4928 79.6243 27.7037 76.3165 27.9681C75.9651 27.9915 76.3134 31.96 75.8763 31.9961C71.2256 32.3743 66.5664 31.6543 62.3668 28.558C61.9468 28.244 62.8565 24.8378 62.4643 24.3176C60.0121 21.2117 56.9785 13.9045 53.3602 28.6883C51.649 27.8569 49.6029 26.9354 48.5356 23.6828C47.8494 21.5893 49.382 17.9914 47.9339 19.4036C47.6083 19.7176 47.4506 23.0517 46.9999 23.2743C45.327 24.0974 43.8305 23.1405 42.2052 23.8871C41.9882 23.9881 41.7696 24.1203 41.5487 24.2922C41.1696 24.5944 40.8064 27.5473 40.6344 28.0626C39.2192 32.2319 39.0857 24.9656 38.8588 24.4068C37.2939 20.2555 35.5309 21.562 33.6157 21.2316C33.1607 21.1525 33.2175 25.1828 32.7697 25.2503C30.5297 25.5569 28.2747 24.9773 26.3229 23.0376C25.8777 22.5958 26.5961 19.2409 26.3943 18.8562C25.4887 17.2019 24.8055 23.5954 23.9511 22.1463C23.771 21.8495 24.0712 18.9502 24.0553 18.6285C23.7882 13.5791 22.8491 20.6529 22.6992 20.802C20.8078 22.8503 19.8545 15.3842 18.0195 16.417C17.8066 16.5489 18.247 20.237 17.6688 20.3832C13.7564 21.4051 10.7474 20.5662 7.25333 18.4884C6.47642 18.228 6.22947 15.4274 6.10018 15.1087C4.08115 10.1134 5.01458 17.3459 3.06685 17.7692C2.7933 17.8275 2.49173 17.8744 2.16111 17.9041C1.87787 18.0942 1.61573 18.1727 1.37222 18.1803C1.25044 18.1841 1.1333 18.1702 1.02023 18.1436C0.916462 18.1175 0.720233 18.0753 0.579153 18.0268C0.428631 17.9779 0.283323 17.9212 0.138883 17.8612C0.0661248 17.8312 -0.00373434 17.8005 -0.079755 17.7692C-0.204894 17.7348 -0.332402 17.6993 -0.469895 17.6622C-0.607705 17.625 -0.754779 17.5864 -0.928396 17.5431C-1.01538 17.5214 -1.10923 17.4984 -1.21446 17.4731C-1.2671 17.4604 -1.32263 17.4471 -1.38191 17.4329C-1.44473 17.4185 -1.71173 17.3717 -1.95522 17.317C-2.54156 17.1248 -3.0266 17.2788 -5.4529 15.9254C-6.5109 15.1616 -9.4086 13.657 -10.4133 8.45478C-10.849 5.95433 -10.0653 3.08331 -9.07393 1.50658C-8.08166 -0.148732 -7.09665 -0.974432 -6.37466 -1.54103C-4.91055 -2.61739 -4.17828 -2.82606 -3.62015 -3.05474C-3.07468 -3.25323 -2.73639 -3.33846 -2.46017 -3.40676C-2.20611 -3.46863 -1.92459 -3.52303 -1.8718 -3.5304C-1.80754 -3.54036 -1.74797 -3.54907 -1.69194 -3.55696C-0.846283 -3.6668 -0.497856 -3.69942 -0.260463 -3.83572C-0.00899729 -3.96963 0.309103 -4.19862 0.4479 -4.54743C0.786853 -5.25024 1.1814 -6.49189 1.34748 -8.58598C9.72771 -6.06914 17.1118 -10.9505 24.8958 -3.37654C24.9933 -3.28863 24.8346 0.231021 25.0281 0.39124C27.3586 2.35995 26.8879 -3.10704 28.4649 -9.7942C28.8698 -11.4733 30.0359 -3.39254 30.132 -2.79971C30.5007 -0.616185 30.0757 4.61671 30.2004 5.03989C31.2138 8.36393 31.177 -8.95118 32.6345 -8.94204C32.6792 -8.91269 32.4553 -5.72817 32.5728 -5.41004C32.9357 -4.41128 33.3228 -5.67298 33.6801 -4.5711C34.5003 -2.02089 34.6282 6.39385 35.9939 1.52306C36.1686 0.891371 36.1152 -8.93437 37.414 -8.44092C37.9287 -8.23775 40.2444 -8.34013 40.9036 -7.67704C41.5386 -7.01789 40.9696 -3.87171 41.0126 -3.73303C42.5723 0.514901 41.8528 2.2236 42.4206 8.44976C42.9492 14.6534 43.4285 -0.061236 43.8659 -1.6847C44.2945 -3.30493 45.4321 0.218191 45.6394 1.4357C45.8648 2.65342 45.3625 4.6363 45.5822 5.33138C47.0742 9.88363 46.9006 -1.90213 47.7053 -4.18611C48.7386 -7.15025 49.4526 -5.16513 49.883 -2.58372C50.1227 -0.470639 50.4044 2.05644 50.8991 2.58062C51.1977 2.89397 51.1314 0.394746 51.4283 0.184272C52.5682 -0.622307 53.083 2.82015 54.4938 -0.248056C54.7475 -0.746635 55.9086 -7.27466 56.4411 -2.44752C56.5223 -1.75129 56.1946 0.963909 56.6701 1.58205C57.3799 2.51068 58.717 3.11167 59.5029 2.19442C60.0767 1.51626 59.3743 -2.95952 60.1019 -1.5752C60.4306 -0.95788 59.8657 1.67304 60.4931 2.61341C61.1198 3.55541 62.7012 3.3974 63.2959 3.28177C63.8914 3.16605 63.4257 -0.219072 63.4658 -0.44982C63.7019 -1.77128 64.718 -3.46097 64.8113 -3.46291C69.5249 -4.13078 74.8484 1.08779 79.09 -1.69244C79.4091 -1.90547 78.4441 -5.36769 78.4853 -5.43639C79.2536 -7.13909 80.3896 2.37349 82.0103 5.27766C80.23 -1.78077 81.0438 -0.609481 81.6235 -1.59095C81.8893 -2.06827 80.9309 -4.72757 80.8899 -5.01527C80.4854 -7.52655 80.8963 -6.71746 81.4499 -5.43552C81.9167 -4.57331 82.3888 -3.46333 82.5789 -3.03747C84.2663 0.795941 83.4071 -4.07224 84.5057 -1.49327C85.5657 1.07568 85.982 5.20627 86.8505 4.91081C86.4339 2.32442 83.896 -4.03954 84.38 -5.31444C86.3664 -10.2144 93.05 -6.04426 95.2905 -5.77625C97.6361 -5.55444 98.3045 -6.10756 99.7234 -5.32165C102.257 -3.87749 100.875 -8.80963 102.195 -11.2525C103.543 -13.6863 103.794 -1.23545 104.222 1.40919C104.629 4.05537 104.627 1.29849 104.982 2.74388C105.33 4.18962 104.954 6.03877 105.547 6.54754C106.123 7.05485 107.349 2.21998 107.419 -0.57937C107.54 -6.5113 106.457 -12.6778 108.219 -10.579C108.318 -10.4539 108.168 -7.17602 108.538 -6.86238C111.451 -4.47699 114.319 -4.36687 117.03 -2.10936C117.397 -1.79368 117.02 1.83682 117.228 2.06173C119.384 4.4252 118.7 -1.71587 120.2 -8.48383C119.624 0.564939 120.124 6.11827 121.712 6.24869C122.669 6.33349 122.727 2.37463 123.552 -0.370013C123.801 -1.19759 124.349 1.56259 124.606 -0.284312C125.484 -6.31808 125.262 -13.1723 126.975 -10.3118C127.046 -10.1763 126.502 -6.88064 126.767 -6.65555C127.231 -6.2607 127.618 -6.42201 127.987 -6.88114C128.935 -8.14358 129.759 -11.6441 131.161 -12.0735C132.66 -12.5338 134.839 -8.42101 136.414 -7.6341C135.394 2.50197 137.173 0.330831 138.469 -6.60083C139.505 -6.21214 140.683 -6.49851 141.619 -5.43491C141.94 -5.07211 141.431 -2.1576 141.446 -1.83613C141.658 3.20543 142.764 -3.55438 143.015 -3.79988C145.731 -6.16165 147.29 -0.819185 150.096 -5.65421C150.197 -5.82847 150.945 -12.8661 151.126 -7.66432C151.137 -7.30593 150.079 -4.16576 151.168 -3.8218C152.253 -3.47744 154.043 0.479654 155.849 -2.66653C156.286 -3.42352 157.668 -9.07692 158.074 -4.54488C158.129 -3.9295 157.864 -1.91426 157.925 -0.777071C158.13 2.84726 158.911 -4.26653 159.022 1.83438C159.129 7.93445 159.997 12.5609 161.873 8.48367C161.93 8.36531 162.679 2.73362 163.163 2.8542C163.933 3.0518 164.987 4.29815 165.811 4.30624C166.203 4.30799 166.144 0.779355 166.215 0.718785C167.048 0.163891 167.777 0.0724123 168.462 0.254716C169.178 0.396732 169.865 0.719632 170.594 1.22669C170.961 1.48522 171.337 1.78129 171.781 2.21004C172.179 2.65821 172.912 3.1654 173.24 4.64672C173.792 5.67337 172.908 6.79147 171.952 7.45813C171.175 7.27181 170.301 7.11751 169.485 7.06817C168.915 7.03158 169.325 12.0564 166.945 8.9222C164.377 5.47471 158.989 -10.9765 158.28 -6.27155C157.996 -4.39203 164.638 16.5477 158.869 6.58492C156.513 10.4835 151.426 6.15052 149.423 11.1397C149.333 11.3615 150.916 17.2943 150.527 17.3446C149.949 17.4076 148.696 14.8179 148.254 14.7755C146.375 14.5301 145.739 17.3504 144.073 17.5337C143.444 17.6084 142.665 14.7475 141.92 14.8344C141.168 14.9264 141.996 18.7627 140.434 17.3174C139.239 16.217 135.919 8.94642 134.658 8.4045C137.21 15.8295 136.526 15.8972 136.045 18.261C135.955 18.7181 137.095 21.2144 137.099 21.5637C137.135 23.0432 136.008 21.0383 136.101 22.6299C136.123 23.0122 137.003 25.5446 137.072 26C137.688 29.9674 134.579 24.6662 134.033 23.745C131.974 20.2409 132.786 23.6515 131.691 22.3717C130.604 21.0899 130.799 18.9402 129.821 18.2741C127.779 16.9036 126.177 17.93 124.711 18.3278C124.153 18.4941 125.742 21.7258 125.69 21.8278C124.831 23.1026 122.373 19.9522 124.224 26.8732C116.931 9.92844 124.159 28.7973 121.315 25.9694C121.086 25.7417 117.505 17.7888 117.609 16.362C117.701 14.9429 119.525 17.1561 119.528 15.0227C119.517 14.525 117.682 6.49149 117.646 5.97815C117.429 1.93692 121.993 14.1402 122.299 14.7896C125.561 21.8184 123.694 13.139 123.827 12.446C124.272 9.32835 126.106 10.6239 126.591 8.34481C126.928 6.86405 124.185 -1.21615 124.863 -1.17713C127.154 -1.06552 131.752 9.93683 130.216 -0.459342C129.889 -2.67685 126.409 -11.3394 130.255 -4.91606C130.502 -4.51245 133.766 1.45249 132.975 -2.76652C132.875 -3.29832 131.974 -5.86248 132 -6.11339C132.192 -7.74566 133.347 -5.856 133.74 -7.09328C134.132 -8.3302 134.489 -10.0946 135.63 -9.5196C136.312 -9.17545 138.642 -4.62857 139.297 -3.54537C141.171 -0.420078 139.935 -6.19495 141.803 -2.2695C143.686 1.67399 145.064 8.19013 147.128 10.4359C144.798 3.77004 142.458 -3.09015 140.137 -9.80176C142.627 -10.4263 145.758 -9.12877 148.025 -10.2956C148.304 -10.4473 146.691 -13.8984 146.955 -14.1521C148.062 -15.2035 150.15 -13.0939 151.118 -14.6126C151.855 -15.7992 151.533 -19.9807 152.196 -21.3271C155.775 -14.0493 156.321 -17.215 157.675 -16.9728C158.146 -16.8901 158.94 -14.8834 159.476 -14.3429C161.505 -12.3668 158.265 -18.7529 158.097 -19.9005C157.545 -23.3202 160.549 -17.0437 162.824 -13.3343L151.533 11.3138C154.261 16.8231 158.178 18.9085 160.274 19.7523C162.509 20.616 163.757 20.7018 164.623 21.0731C164.925 21.2787 165.858 30.2083 166.224 30.7418C166.656 31.7005 166.901 31.9403 167.034 31.7785C166.843 31.2934 167.37 27.6473 166.895 27.1547C165.701 25.9337 164.999 23.8365 163.435 26.273C162.991 26.9958 161.656 32.2941 161.126 28.0976C161.057 27.548 161.299 24.7103 161.226 24.5384C159.912 21.6663 159.268 30.5888 158.183 33.5507C157.091 36.5112 156.206 30.2521 156.078 28.4571C155.724 23.8123 156.761 26.5349 156.832 26.0868C157.672 20.7562 156.655 21.6098 155.961 21.1008C156.523 12.3455 155.49 12.7935 155.246 20.6086C155.222 21.4625 155.846 20.6901 155.961 21.1008C154.674 29.635 153.435 30.6443 152.856 22.5274C152.589 18.7231 153.486 14.3875 151.63 15.8469C150.787 16.5048 150.582 22.5494 149.748 24.1315C147.832 27.74 146.259 21.945 144.557 22.6823C143.937 22.9498 144.215 26.295 143.78 26.5912C142.624 27.3872 141.908 24.8298 140.715 25.995C140.606 26.1048 140.523 29.5733 140.184 29.586C137.61 29.7493 135.617 27.3312 133.003 27.0154C131.741 26.8647 129.291 28.5429 128.029 28.0332C126.978 27.6208 125.913 26.2026 124.873 24.9456C124.052 23.5995 123.127 22.4552 122.266 23.0409C121.206 23.7598 121.225 27.2314 120.693 29.5648C119.703 34.0893 118.603 25.8591 118.392 24.5864C118.386 24.5435 119.305 23.7551 118.882 21.9641C118.706 18.2541 118.4 24.5706 118.392 24.5864C118.284 23.7604 116.489 22.9418 116.119 23.605C115.92 23.9654 116.011 27.2461 115.91 27.3721C113.551 30.2963 111.355 31.1861 108.955 29.785C108.91 29.7212 108.765 26.0545 108.66 25.9504C107.163 24.4037 106.573 28.9508 105.76 31.6974C104.937 34.4452 104.116 33.638 102.743 27.4565C102.028 28.3367 100.528 25.728 99.5935 24.1601C98.6508 22.593 99.6757 29.6641 99.6466 29.8111C98.719 34.541 97.1643 30.6764 95.4375 30.4181C94.6476 30.2831 93.6121 31.5697 93.2795 32.4892C93.217 32.5307 93.1559 32.5716 93.0964 32.6116C91.277 33.8199 89.8885 32.4371 88.6448 33.8329C88.4796 34.0181 89.4001 37.0688 89.3669 37.2022C88.4981 41.3013 87.6311 33.524 87.0104 32.2404C84.807 27.5478 83.7238 25.0286 82.4358 27.6693C82.1612 28.2711 82.783 39.5148 82.0794 40.2826C81.1959 41.2548 80.9867 37.2309 80.1151 38.3355C80.0393 38.426 80.3984 40.8763 79.7441 40.8541C76.7495 40.7757 73.5921 39.6438 70.7715 40.1014C70.382 40.1545 71.1744 44.0332 70.6081 44.1743C67.9476 44.8328 64.9629 44.8263 62.3022 43.0475C61.6483 42.5971 61.9946 39.8399 61.8391 39.0268C60.9225 34.1074 59.8423 41.2935 59.6239 41.431C54.7162 44.8873 51.2706 38.3192 45.4709 40.8603C45.4604 40.8651 45.447 40.8775 45.4308 40.8967C45.2344 41.5005 43.8464 48.4016 43.8607 42.0032C43.8827 41.5644 43.7933 34.7911 43.0366 39.3686C42.991 39.6551 43.1006 43.1428 42.5573 42.7553C41.982 42.367 40.9391 44.6372 40.1993 40.7861C39.9877 39.5736 39.5394 32.8171 38.4707 38.1529C38.3907 38.5245 36.7274 50.6167 36.4549 42.2355C36.41 40.8561 36.7095 31.9984 35.5201 36.5171C35.2945 37.3935 35.6296 39.3769 35.0607 40.6C34.1991 42.4855 33.1218 40.0954 32.0448 44.0313C31.8543 44.728 31.046 50.7343 30.4632 46.1656C30.3717 45.45 30.5763 42.4931 30.2512 42.1599C28.6971 40.5619 27.0408 42.5389 25.4222 40.4981C24.8469 39.7811 25.1204 34.9976 24.5108 33.7191C23.9069 32.4408 22.6581 31.2176 22.05 33.4092C21.4414 35.6017 22.2051 43.2158 21.2711 43.8357C17.2523 46.53 13.1255 42.1426 9.116 41.6228C8.53194 41.5453 9.12732 44.2531 8.2618 44.3361C7.20583 44.446 5.77359 44.8668 4.73504 45.1156C4.50464 45.1759 4.25761 45.229 4.24203 45.2487C4.22797 45.2586 4.29029 45.2599 4.57014 45.2311C4.64439 45.2234 4.71339 45.2157 4.84126 45.2005C5.01267 45.1804 5.233 45.1533 5.54414 45.1098C5.85761 45.0655 6.25574 45.0071 6.85063 44.9017C6.99993 44.8752 7.16234 44.8454 7.3415 44.8111C7.43109 44.7939 7.52488 44.7757 7.62347 44.756C7.74589 44.7312 7.73152 44.7354 8.13602 44.6508C9.56792 44.256 10.9175 44.3298 16.6888 41.7511C19.5898 39.9876 24.6546 38.9391 32.5439 27.8066C36.2852 22.3365 39.7746 12.076 38.4436 2.33103C37.3357 -7.20538 32.8155 -14.4276 29.2037 -18.5223C21.6258 -26.65 17.3795 -27.5663 14.6278 -28.929C11.8698 -30.0296 10.3291 -30.3924 9.11569 -30.6955C7.92428 -30.9779 7.12921 -31.1176 6.48895 -31.2242C6.32984 -31.2503 6.1818 -31.2736 6.04294 -31.2946C5.9324 -31.3112 5.92932 -31.3113 5.87406 -31.3192C5.7835 -31.3322 5.69701 -31.3441 5.61412 -31.3553C5.28277 -31.3998 5.00796 -31.432 4.76965 -31.4576C3.83038 -31.5559 3.40054 -31.5695 3.09643 -31.5778C2.71968 -31.5754 2.63043 -31.5433 2.59794 -31.5033C2.5793 -31.4206 2.75574 -31.2992 3.02189 -31.139C-5.07833 -30.8377 -5.24132 -29.8739 -5.89607 -29.6759C-6.11165 -29.5216 -6.07745 -29.4205 -5.97284 -29.331C-5.86685 -29.2416 -5.681 -29.165 -5.44235 -29.0923C-4.50012 -28.7998 -3.25234 -28.4165 -2.15875 -27.7802C3.41029 -24.2153 -1.46905 -19.5932 2.14282 -18.3998C3.70607 -17.7869 4.03272 -26.7809 4.38475 -27.1089C7.7638 -30.4093 10.3726 -26.6314 13.0354 -27.9471C13.5857 -28.217 12.9034 -31.7867 13.389 -31.9764C15.1171 -32.6566 16.8063 -31.0675 18.2938 -31.35C18.9743 -31.484 18.8916 -34.2279 19.4932 -34.0076C20.9634 -33.509 22.1868 -32.3171 23.4496 -29.6904C23.5572 -29.4513 22.5999 -26.0771 23.5956 -25.907C25.1739 -25.6414 26.934 -22.9953 28.8834 -25.4737C29.452 -26.2201 29.9733 -32.4698 30.7683 -28.0595C30.9267 -27.1381 30.0155 -19.6632 31.8322 -26.032C32.1027 -27.0954 35.2172 -35.613 35.6757 -29.8748C35.8028 -28.3649 35.8452 -22.165 36.5542 -23.0594C36.6512 -23.2039 36.7063 -26.5864 37.2315 -26.8578C39.0977 -27.7527 40.8928 -27.1686 42.8233 -27.9749C43.3482 -28.1955 43.0813 -31.7472 43.8573 -31.9641C45.9087 -32.5771 48.2433 -31.34 49.9568 -29.9697C50.5981 -29.4565 49.6668 -26.68 49.6703 -26.3616C49.6758 -25.4445 49.7281 -24.9016 49.8131 -24.6307C50.1529 -23.3819 51.2158 -28.0003 51.4677 -28.2956C53.3473 -30.4371 53.9508 -27.0618 55.3828 -27.7072C55.7764 -27.8768 56.0249 -31.1658 56.1411 -31.4445C57.3073 -34.1632 55.8638 -28.4108 56.227 -27.6963C57.2425 -25.6754 58.6879 -25.7272 59.9755 -25.9698C60.449 -26.0638 60.4757 -29.9104 60.8893 -29.9521C63.3339 -30.2729 65.5409 -29.6343 67.4366 -27.3336C67.7946 -26.8935 67.2578 -23.9963 67.2761 -23.3207C67.423 -18.5915 68.8777 -24.8868 69.1073 -25.4795C70.2025 -28.1802 70.3223 -25.5674 71.1194 -25.9966C74.9547 -28.1364 79.1583 -26.3498 82.6693 -25.4166C86.0334 -24.5151 89.0431 -22.9345 92.2489 -22.7359C93.6306 -22.7024 94.9932 -22.8132 96.4196 -23.1588C96.7735 -23.2412 95.976 -27.082 96.2753 -27.2028C100.192 -28.59 104.33 -27.5139 108.283 -29.0765C108.609 -29.198 107.727 -32.8269 108.238 -33.1456C109.268 -33.8234 110.697 -33.7742 111.948 -32.7178C112.557 -32.2095 112.157 -28.9721 112.761 -28.5247C114.149 -27.4737 115.561 -27.3561 116.829 -28.0831C117.361 -28.3997 116.132 -32.0805 116.853 -32.1983C121.87 -33.0807 126.701 -34.2369 133.104 -29.7524C133.595 -29.4455 134.359 -21.7837 135.249 -23.3082C135.212 -25.4451 135.082 -27.9543 135 -30.2361C135.926 -30.3941 136.908 -30.5179 138.252 -30.5901C138.91 -30.6244 139.684 -30.6497 140.795 -30.6313C141.383 -30.6192 141.949 -30.6041 142.918 -30.5374C143.763 -30.4734 145.077 -30.3779 147.145 -30.014C150.391 -29.3971 151.078 -29.1086 151.96 -28.8468C152.742 -28.5918 153.231 -28.3894 153.661 -28.1915C154.501 -27.8004 155.081 -27.4283 155.681 -27.0597C156.851 -26.3296 158.039 -25.6373 159.406 -25.3997C159.541 -25.3766 159.516 -29.4603 159.756 -29.438C160.04 -29.413 160.328 -29.4427 160.622 -29.4716C163.081 -29.5661 165.484 -29.6022 168 -26.3889C168.308 -25.9935 168.181 -18.8182 169.116 -19.9076C169.273 -20.1058 170.691 -21.0725 171.031 -22.6339C171.078 -22.8693 170.789 -26.2152 171.241 -26.3174C173.831 -26.8522 176.542 -26.1419 179.176 -24.178C179.602 -23.8547 179.273 -20.2764 179.578 -20.0154C181.783 -18.1918 183.931 -20.9964 186.188 -17.8684C187.732 -15.7631 187.517 -9.58083 188.622 -3.56058C188.757 -2.71095 189.782 -2.62227 190.002 0.903904C190.434 9.77089 190.436 19.4988 190.972 28.9471C191.025 29.9644 191.24 29.9181 191.145 30.2426C190.983 30.5667 190.747 31.2515 191.227 33.7083C191.447 34.031 191.049 35.681 190.902 37.3617C190.83 38.5216 191.23 42.0968 191.044 43.5862C190.865 45.074 190.384 42.0848 189.96 43.8458C189.507 45.6296 189.973 49.6962 188.896 50.2333ZM95.209 17.2428C93.877 14.0068 96.2523 26.3428 96.3158 23.2688C96.316 23.1057 95.2741 17.4017 95.209 17.2428ZM148.975 -0.221557C151.851 4.62845 149.724 -3.26952 147.569 -7.03762C145.422 -10.804 148.107 -1.69323 148.975 -0.221557ZM140.095 7.24256C142.711 10.9528 136.968 -5.9105 136.927 -2.07801C136.922 -1.8608 139.943 7.02715 140.095 7.24256ZM185.117 -1.65875C185.136 -1.49249 185.779 -1.35976 185.79 -1.5259C185.937 -5.52682 184.658 -5.78968 185.117 -1.65875ZM131.27 14.9996C132.445 17.1411 132.559 14.154 131.121 11.4828C129.969 9.3319 129.817 12.3325 131.27 14.9996ZM50.4444 8.69565C50.4452 8.50827 49.9853 8.30103 49.9042 9.35577C49.6436 12.7547 50.4207 11.8526 50.4444 8.69565ZM114.108 21.4815C116.462 21.4642 123.712 34.4346 119.695 34.1051C119.018 34.0175 119.45 29.2303 118.274 28.231C116.297 26.3575 118.118 35.4442 115.499 31.0691C114.997 30.2736 113.96 21.4533 114.106 21.4606C114.107 21.4675 114.107 21.4745 114.108 21.4815ZM91.9268 2.50939C91.8789 2.3489 91.2082 2.32252 91.2263 2.48751C91.6948 6.46104 92.9824 6.52872 91.9268 2.50939ZM23.1515 0.0685886C23.1113 -0.28556 21.5838 -0.603582 21.5394 -0.276532C20.8176 6.25148 23.8688 6.91376 23.1515 0.0685886ZM136.413 -7.36113C137.503 -11.2861 138.391 -11.6749 138.466 -6.60624C137.796 -6.93948 137.091 -7.04732 136.413 -7.36113Z" fill="#232322"/>
</svg>
