<svg width="7" height="2" viewBox="0 0 7 2" fill="none" xmlns="http://www.w3.org/2000/svg">
<path d="M6.48031 3.37019C6.42067 3.41922 6.37394 3.36026 6.33981 3.28138C6.32911 3.2569 6.34194 3.1515 6.33542 3.12987C6.32272 3.08771 6.30362 3.13852 6.29181 3.08849C6.28776 3.07138 6.30574 2.90429 6.30122 2.89019C6.27674 2.81411 6.24703 2.85491 6.21933 2.81718C6.0889 2.6314 5.95262 2.55819 5.8163 2.47141C5.7699 2.44283 5.72386 2.28659 5.67122 2.34951C5.66497 2.357 5.65741 2.50424 5.65543 2.51628C5.62464 2.70048 5.65237 2.40415 5.64411 2.36389C5.61122 2.20491 5.56354 2.18773 5.51734 2.24132C5.49776 2.26456 5.49376 2.55786 5.48805 2.39264C5.48763 2.38147 5.50385 2.22572 5.50019 2.2087C5.49189 2.17043 5.46836 2.19672 5.46039 2.18369C5.45527 2.17498 5.45151 2.16934 5.44817 2.1656C5.44199 2.15823 5.43735 2.15818 5.42714 2.15623C5.40619 2.15084 5.38626 2.07132 5.35988 2.10491C5.35421 2.11254 5.34891 2.27305 5.33877 2.29967C5.32878 2.32626 5.3095 2.31117 5.30529 2.27292C5.30115 2.23466 5.31358 2.10912 5.31451 2.0802C5.32267 1.83613 5.27306 2.17128 5.26926 2.17938C5.20098 2.31704 5.16811 2.12151 5.1143 2.11801C5.07485 2.11586 5.02541 2.17586 4.98823 2.16431C4.94427 2.14996 4.91031 2.06019 4.86559 2.0718C4.86085 2.07283 4.85206 2.26137 4.84623 2.26302C4.78415 2.28034 4.72468 2.25521 4.674 2.12364C4.66887 2.11028 4.68925 1.9457 4.68488 1.92247C4.6572 1.78386 4.62417 1.4534 4.54737 2.17084C4.52446 2.14086 4.49516 2.10946 4.48406 1.96282C4.4768 1.86843 4.5044 1.68956 4.48092 1.765C4.47563 1.7818 4.46886 1.93977 4.46183 1.95306C4.43226 2.00883 4.40837 1.9555 4.37682 2.03499C4.37038 2.05153 4.36106 2.19283 4.35767 2.21815C4.32967 2.42312 4.33519 2.08119 4.3328 2.05613C4.31356 1.86916 4.28354 1.93988 4.25239 1.93299C4.24516 1.93131 4.23939 2.12162 4.23192 2.12682C4.19286 2.15119 4.15741 2.1321 4.12821 2.04523C4.12176 2.02546 4.14131 1.86446 4.13886 1.84674C4.1279 1.77059 4.10099 2.07544 4.08993 2.00829C4.08757 1.99452 4.1 1.85637 4.10054 1.84113C4.10899 1.60196 4.07486 1.93916 4.0718 1.94643C4.03238 2.04594 4.03998 1.69179 4.00591 1.73942C4.00182 1.74548 3.99664 1.92109 3.98596 1.92742C3.91413 1.97054 3.84697 1.91708 3.79022 1.77197C3.78137 1.74965 3.79887 1.61876 3.79944 1.60251C3.80797 1.34849 3.77515 1.68722 3.77075 1.69973C3.73678 1.78965 3.73394 1.50327 3.68492 1.90596C3.58176 1.75706 3.45142 1.97536 3.36701 1.60481C3.3659 1.60051 3.3812 1.43362 3.37894 1.42576C3.35174 1.32932 3.33853 1.5895 3.29149 1.90536C3.27966 1.98467 3.29138 1.59989 3.29196 1.57166C3.29421 1.46766 3.31903 1.21953 3.31867 1.19933C3.31505 1.04063 3.25468 1.86286 3.23389 1.86154C3.23334 1.86012 3.24762 1.70902 3.24702 1.69384C3.24519 1.6462 3.23521 1.70591 3.23386 1.65342C3.23086 1.53197 3.25699 1.13219 3.22057 1.36324C3.2159 1.39323 3.18396 1.85981 3.1669 1.83635C3.16015 1.82661 3.12639 1.83207 3.11936 1.80114C3.11236 1.77025 3.13022 1.62047 3.13005 1.61391C3.12012 1.4133 3.13591 1.33167 3.14577 1.03653C3.15551 0.742503 3.10574 1.44177 3.0947 1.5194C3.08371 1.59681 3.07804 1.43148 3.07791 1.37414C3.07779 1.31679 3.09066 1.22173 3.08914 1.18916C3.07885 0.976344 3.05109 1.53523 3.03392 1.64551C2.99335 1.90663 3.01688 1.38703 3.00188 1.3348C2.99782 1.32069 2.99298 1.43907 2.98758 1.44976C2.96633 1.49055 2.96782 1.32798 2.9359 1.47471C2.93061 1.49862 2.89042 1.80903 2.89724 1.5795C2.89825 1.5464 2.91239 1.41755 2.90698 1.38803C2.89892 1.34374 2.88052 1.31393 2.86494 1.35617C2.85343 1.38743 2.84758 1.60108 2.8412 1.53408C2.83838 1.50417 2.8573 1.38037 2.8512 1.33456C2.84515 1.28877 2.82041 1.29238 2.81081 1.29597C2.80121 1.29966 2.79395 1.4615 2.79237 1.47232C2.78309 1.53429 2.75936 1.61079 2.7578 1.61047C2.67764 1.62418 2.62543 1.34645 2.54181 1.43066C2.53529 1.43704 2.52628 1.60761 2.52515 1.61033C2.49914 1.6801 2.54994 1.22865 2.54714 1.07604C2.52283 1.4217 2.51913 1.3585 2.50172 1.39528C2.49331 1.41329 2.48689 1.54736 2.48521 1.56101C2.45931 1.76342 2.47213 1.5004 2.47436 1.44657C2.48257 1.24854 2.45725 1.48133 2.46265 1.34896C2.46797 1.21757 2.4936 1.02414 2.47944 1.02557C2.46607 1.14895 2.45175 1.47295 2.43714 1.52452C2.38174 1.71959 2.32698 1.46033 2.29685 1.43154C2.26681 1.40277 2.25468 1.42479 2.23936 1.37866C2.2117 1.29526 2.20564 1.536 2.1764 1.64417C2.14711 1.75232 2.20236 1.16307 2.20905 1.036C2.21579 0.908993 2.20259 1.03926 2.20424 0.969279C2.2059 0.899319 2.22042 0.813684 2.21381 0.786861C2.2072 0.760064 2.16636 0.983813 2.15316 1.1162C2.12521 1.39668 2.11332 1.69239 2.09837 1.58703C2.09753 1.58078 2.11366 1.42596 2.10982 1.4099C2.07902 1.28741 2.03747 1.27679 2.00589 1.16812C2.00154 1.15293 2.01963 0.980714 2.01725 0.969923C1.99247 0.856989 1.9821 1.14891 1.93916 1.4708C1.97613 1.04089 1.98619 0.776915 1.96109 0.772441C1.94601 0.769601 1.93426 0.957698 1.9143 1.08938C1.90829 1.12907 1.90738 0.999231 1.89867 1.08745C1.87014 1.37581 1.85559 1.69994 1.83928 1.56918C1.8386 1.56298 1.85434 1.40514 1.85111 1.39526C1.83024 1.33062 1.80412 1.63253 1.7738 1.66701C1.75003 1.69408 1.72567 1.5069 1.70328 1.47505C1.74079 0.991398 1.70901 1.10037 1.67404 1.43314C1.65907 1.41827 1.64023 1.43579 1.62832 1.38851C1.62422 1.37239 1.63841 1.23262 1.6389 1.21744C1.6468 0.979285 1.61506 1.30321 1.61064 1.31566C1.56387 1.43646 1.55221 1.18822 1.49807 1.42581C1.49614 1.43437 1.46839 1.77019 1.47759 1.52414C1.47826 1.50719 1.50177 1.35522 1.48584 1.34211C1.46991 1.32898 1.4519 1.14644 1.41679 1.30035C1.40829 1.3374 1.37319 1.60906 1.37804 1.39508C1.37873 1.36603 1.38776 1.26979 1.38966 1.216C1.39562 1.0446 1.36576 1.3839 1.37946 1.09476C1.39315 0.805625 1.39227 0.588235 1.35349 0.785481C1.3523 0.791211 1.32614 1.05995 1.31906 1.05512C1.30776 1.04719 1.29525 0.989837 1.28275 0.990644C1.27676 0.991127 1.26776 1.15855 1.2665 1.16153C1.21972 1.25216 1.20294 1.101 1.16535 1.03308C1.15848 1.0203 1.11863 1.2465 1.1173 1.06516C1.11579 0.866634 1.19562 0.0474018 1.14249 0.23997C1.12113 0.316984 1.02214 1.3565 1.03581 0.81505C0.972125 0.944606 0.943559 0.664772 0.875296 0.851497C0.87224 0.859767 0.842391 1.14972 0.837025 1.14533C0.829102 1.13826 0.83487 1.00211 0.829543 0.992705C0.807482 0.949876 0.775528 1.06429 0.752587 1.04436C0.743856 1.03709 0.757825 0.896927 0.747409 0.888236C0.73699 0.879678 0.715501 1.064 0.707403 0.973568C0.701336 0.904641 0.718955 0.525869 0.707417 0.480679C0.678333 0.853401 0.668671 0.844939 0.642918 0.941946C0.637953 0.96077 0.631786 1.0908 0.628925 1.1064C0.617065 1.17275 0.619047 1.06474 0.607072 1.13704C0.604176 1.15441 0.594364 1.2817 0.591447 1.30308C0.566271 1.48973 0.570321 1.20201 0.571066 1.15192C0.573796 0.96167 0.555633 1.12682 0.552319 1.05156C0.549015 0.976321 0.569613 0.884149 0.562552 0.838101C0.547911 0.742853 0.518275 0.761266 0.49659 0.753723C0.487886 0.751499 0.480906 0.921888 0.479358 0.925516C0.457816 0.967219 0.453187 0.785052 0.41717 1.12276C0.471466 0.246598 0.399669 1.20681 0.386968 1.02961C0.385996 1.01528 0.415042 0.60121 0.427585 0.541053C0.440124 0.480954 0.442195 0.61124 0.46039 0.517363C0.464684 0.495334 0.509204 0.108644 0.513028 0.0853065C0.542943 -0.097083 0.497876 0.521566 0.496117 0.5556C0.477591 0.922919 0.52769 0.506498 0.534701 0.477995C0.566726 0.347387 0.578672 0.435788 0.604201 0.342766C0.620842 0.282656 0.653004 -0.12238 0.661455 -0.10926C0.689557 -0.0658835 0.65722 0.500104 0.724114 0.0123284C0.738413 -0.0917021 0.766024 -0.534972 0.761973 -0.185065C0.761708 -0.163007 0.754119 0.156796 0.779261 -0.0439317C0.782425 -0.0692408 0.792258 -0.198289 0.794696 -0.209006C0.810845 -0.278302 0.810173 -0.174947 0.825682 -0.223286C0.84119 -0.271625 0.86092 -0.343948 0.870968 -0.299154C0.877038 -0.272364 0.869003 -0.0311424 0.868362 0.0280154C0.866298 0.198419 0.899255 -0.0787086 0.890301 0.127145C0.881323 0.334037 0.844038 0.646426 0.851692 0.781133C0.878001 0.445915 0.905843 0.101912 0.932699 -0.235177C0.970851 -0.220385 1.00123 -0.109015 1.04168 -0.120819C1.04672 -0.122618 1.05552 -0.303241 1.06128 -0.309816C1.08552 -0.336763 1.09493 -0.206803 1.12167 -0.256226C1.14243 -0.295171 1.17637 -0.484528 1.19852 -0.531194C1.1805 -0.146686 1.21797 -0.274819 1.23525 -0.238234C1.24131 -0.225585 1.23301 -0.123157 1.23542 -0.0893496C1.24472 0.0357134 1.26186 -0.30398 1.27108 -0.35694C1.31054 -0.582956 1.25374 0.184545 1.28115 0.16757C1.28258 0.166931 1.33067 -0.240818 1.33493 -0.266113C1.36233 -0.431086 1.32647 -0.123558 1.33336 -0.0926327C1.34592 -0.0361195 1.35011 0.0624562 1.37909 -0.0558349C1.38757 -0.0908796 1.42091 -0.344768 1.41703 -0.146712C1.41653 -0.120777 1.40537 0.014361 1.40595 0.0223688C1.41731 0.155992 1.45036 -0.268783 1.47361 -0.411722C1.49687 -0.554629 1.49334 -0.259925 1.49072 -0.17511C1.48406 0.0443091 1.47587 -0.0822572 1.47368 -0.0608432C1.44775 0.194015 1.4649 0.151107 1.47377 0.173488C1.44344 0.590144 1.46007 0.566267 1.4831 0.195014C1.48559 0.154462 1.47443 0.19268 1.47377 0.173488C1.51427 -0.234487 1.53445 -0.28559 1.52308 0.0976818C1.51776 0.277316 1.49382 0.485404 1.52515 0.411007C1.53937 0.377428 1.55683 0.0902776 1.57303 0.0128651C1.61002 -0.163757 1.61985 0.106103 1.64706 0.0657831C1.65694 0.0511447 1.66047 -0.106501 1.66763 -0.121915C1.68668 -0.163313 1.69158 -0.0444515 1.71202 -0.103585C1.71389 -0.109142 1.72295 -0.273753 1.72803 -0.275471C1.76666 -0.291715 1.79152 -0.183936 1.83034 -0.178033C1.84913 -0.175253 1.88977 -0.263315 1.90787 -0.243602C1.93921 -0.210413 1.96282 0.0317706 1.99624 -0.0240688C2.01799 -0.0597855 2.0264 -0.224481 2.04306 -0.335859C2.07528 -0.551762 2.07314 -0.160783 2.07225 -0.100284C2.07221 -0.0982826 2.05303 -0.0607717 2.05523 0.0242692C2.04682 0.200473 2.07201 -0.0995357 2.07225 -0.100284C2.07172 -0.0611984 2.10122 -0.0214102 2.11003 -0.052343C2.11483 -0.0692483 2.12479 -0.225137 2.12706 -0.231007C2.18108 -0.367064 2.22787 -0.403302 2.2662 -0.327128C2.26673 -0.323923 2.25225 -0.149808 2.25367 -0.144447C2.27319 -0.0650476 2.30573 -0.276911 2.3363 -0.401837C2.36698 -0.526699 2.38054 -0.483057 2.37014 -0.183047C2.38892 -0.219486 2.40159 -0.085533 2.40854 -0.00430959C2.41549 0.076912 2.44322 -0.26205 2.44488 -0.268666C2.49722 -0.480485 2.50268 -0.284839 2.53792 -0.251763C2.55459 -0.235459 2.59357 -0.281955 2.61557 -0.317572C2.633 -0.346287 2.63605 -0.266121 2.65386 -0.315871C2.65626 -0.322514 2.66589 -0.473645 2.66691 -0.479414C2.69625 -0.658873 2.66058 -0.290335 2.65875 -0.224168C2.65206 0.0164459 2.64949 0.144671 2.67794 0.033412C2.68454 0.0079391 2.73864 -0.522494 2.74944 -0.552932C2.76341 -0.59153 2.74473 -0.401347 2.75972 -0.446615C2.76099 -0.450315 2.76976 -0.567855 2.77644 -0.562132C2.80755 -0.537117 2.83798 -0.466009 2.87272 -0.475203C2.87743 -0.476009 2.88574 -0.662872 2.89278 -0.667103C2.92563 -0.686821 2.96023 -0.677239 2.98418 -0.587649C2.99005 -0.565008 2.97535 -0.43485 2.97403 -0.395971C2.9662 -0.160714 3.00648 -0.50033 3.00932 -0.506642C3.0777 -0.666102 3.09741 -0.354468 3.16596 -0.496889C3.16974 -0.505269 3.22158 -0.868682 3.20834 -0.554622C3.20748 -0.533726 3.19357 -0.212438 3.21961 -0.430848C3.22123 -0.444512 3.22726 -0.610003 3.23743 -0.592313C3.24758 -0.574661 3.2744 -0.683435 3.27659 -0.500934C3.27728 -0.443443 3.2648 -0.122841 3.29925 -0.376535C3.30159 -0.394251 3.36868 -0.968713 3.34658 -0.570517C3.34292 -0.504972 3.30944 -0.0843604 3.34371 -0.298709C3.35031 -0.340268 3.35129 -0.434581 3.36472 -0.492496C3.38534 -0.581761 3.3949 -0.467694 3.42598 -0.653831C3.43145 -0.686786 3.46563 -0.971398 3.45932 -0.753879C3.45832 -0.719813 3.44459 -0.579586 3.44875 -0.563458C3.46849 -0.486114 3.50224 -0.578039 3.52048 -0.478901C3.52696 -0.444061 3.50501 -0.21735 3.50983 -0.155779C3.51465 -0.0942291 3.52921 -0.034264 3.54697 -0.137276C3.56474 -0.240334 3.58158 -0.603043 3.59853 -0.630877C3.67322 -0.751684 3.72075 -0.534533 3.78287 -0.498565C3.79216 -0.493192 3.79404 -0.623296 3.80843 -0.624673C3.86172 -0.630302 3.95962 -0.744965 3.98451 -0.46631C4.00396 -0.243161 3.94561 -0.078844 3.96644 0.0129477C3.97653 0.0567465 4.02293 -0.362897 4.02715 -0.375899C4.0687 -0.508066 4.07597 -0.320054 4.10905 -0.37505C4.11584 -0.386468 4.12305 -0.557437 4.12868 -0.565271C4.14804 -0.593543 4.16014 -0.516064 4.1774 -0.528754C4.18518 -0.534839 4.19375 -0.665186 4.19966 -0.654625C4.21392 -0.630857 4.22382 -0.575038 4.22999 -0.451789C4.23055 -0.440559 4.20873 -0.279261 4.22 -0.272343C4.2385 -0.26159 4.25358 -0.139321 4.28514 -0.262002C4.29455 -0.298913 4.31746 -0.596564 4.31591 -0.38992C4.31559 -0.34676 4.28466 0.010394 4.3245 -0.297205C4.33117 -0.348317 4.39024 -0.762806 4.38317 -0.493272C4.38131 -0.422333 4.3681 -0.129153 4.37963 -0.174509C4.38127 -0.181762 4.38909 -0.341982 4.39689 -0.357075C4.42414 -0.407488 4.44708 -0.388587 4.47448 -0.436874C4.48182 -0.450085 4.48501 -0.616253 4.49554 -0.630659C4.52458 -0.670515 4.55294 -0.62599 4.57491 -0.572234C4.58285 -0.552112 4.56593 -0.415548 4.56549 -0.40058C4.55807 -0.157143 4.58942 -0.484107 4.5945 -0.502925C4.6258 -0.61554 4.63122 -0.460422 4.6549 -0.499565C4.66139 -0.509952 4.66922 -0.666393 4.6714 -0.680229C4.69343 -0.815371 4.66344 -0.535634 4.66849 -0.504164C4.68219 -0.415103 4.70756 -0.425799 4.73021 -0.444147C4.73861 -0.451111 4.74355 -0.632821 4.75093 -0.63698C4.79493 -0.665018 4.8355 -0.644518 4.86918 -0.541585C4.87538 -0.521884 4.86 -0.38284 4.85918 -0.350878C4.85329 -0.127274 4.89231 -0.429924 4.89817 -0.458591C4.92487 -0.58949 4.92197 -0.465719 4.93832 -0.487624C5.01987 -0.596673 5.10228 -0.508318 5.16692 -0.452702C5.25064 -0.381084 5.30979 -0.24324 5.39702 -0.271305C5.40248 -0.27292 5.4111 -0.458787 5.41598 -0.46256C5.47975 -0.502721 5.53169 -0.425935 5.59702 -0.474903C5.60224 -0.478602 5.60836 -0.654957 5.61716 -0.666805C5.63199 -0.687671 5.64768 -0.684095 5.65922 -0.650809C5.662 -0.643348 5.66456 -0.6344 5.66686 -0.623907C5.673 -0.596245 5.65074 -0.446191 5.65715 -0.42143C5.67203 -0.363432 5.69122 -0.349404 5.71224 -0.376177C5.7212 -0.387954 5.72253 -0.568688 5.73312 -0.569983C5.80751 -0.582361 5.88019 -0.608086 5.93612 -0.369776C5.93998 -0.353408 5.91732 0.0124189 5.93311 -0.056887C5.94143 -0.158263 5.95023 -0.277586 5.95861 -0.385979C6.06844 -0.436563 6.16143 -0.302314 6.26607 -0.275027C6.27046 -0.27392 6.27684 -0.468157 6.28537 -0.467004C6.33411 -0.460594 6.38606 -0.510792 6.42238 -0.31472C6.42591 -0.295547 6.39944 0.0450642 6.41721 -0.00547767C6.42071 -0.0146813 6.44631 -0.0585542 6.45681 -0.132163C6.45833 -0.14327 6.46562 -0.302609 6.47275 -0.306769C6.51555 -0.32805 6.55502 -0.288848 6.58706 -0.189109C6.59245 -0.172692 6.57452 -0.00369197 6.57826 0.0094707C6.60386 0.101482 6.64633 -0.0252362 6.65461 0.12951C6.65817 0.233595 6.64135 0.526674 6.63665 0.815625C6.63664 0.856411 6.63847 0.862918 6.63774 1.03102C6.63722 1.45376 6.62173 1.91649 6.62098 2.36709C6.62567 2.46426 6.65587 2.35974 6.63888 2.59426C6.64066 2.61005 6.59879 2.68749 6.58831 2.76669C6.58024 2.8215 6.58824 2.99274 6.57185 3.06273C6.5565 3.13266 6.54825 2.98896 6.52991 3.07096C6.51145 3.15396 6.50775 3.34853 6.48031 3.37019ZM2.43993 0.358756C2.43956 0.522527 2.48691 -0.073788 2.46296 0.0679173C2.46175 0.0754746 2.43992 0.350719 2.43993 0.358756ZM0.966569 0.34086C0.962313 0.605148 1.00275 0.219153 1.00711 0.0151229C1.01144 -0.188689 0.967836 0.260742 0.966569 0.34086ZM0.787625 0.52036C0.790282 0.7292 0.857899 -0.116362 0.824979 0.0530996C0.823085 0.0626732 0.787463 0.508233 0.787625 0.52036ZM6.59266 0.89584C6.59249 0.903789 6.60059 0.911996 6.60116 0.90414C6.61588 0.714682 6.60048 0.698449 6.59266 0.89584ZM0.608604 0.716994C0.605633 0.831847 0.632373 0.701046 0.636077 0.558227C0.639053 0.443333 0.612294 0.574123 0.608604 0.716994ZM3.02359 1.04361C3.02311 1.05252 3.02954 1.06106 3.03323 1.01081C3.0451 0.848951 3.03182 0.893872 3.02359 1.04361ZM0.330741 0.705531C0.369273 0.740502 0.340647 1.44106 0.30208 1.35881C0.295094 1.34393 0.336532 1.13735 0.33107 1.07357C0.321039 0.957377 0.274985 1.39509 0.273762 1.15856C0.273579 1.11527 0.328661 0.701984 0.330888 0.704563C0.330838 0.704885 0.33079 0.705208 0.330741 0.705531ZM2.39214 1.0757C2.39178 1.08361 2.40089 1.09183 2.40172 1.08402C2.42143 0.895068 2.40309 0.878402 2.39214 1.0757ZM3.40539 1.44369C3.40465 1.46054 3.42589 1.47797 3.4278 1.46254C3.46311 1.15378 3.42025 1.11762 3.40539 1.44369ZM1.70388 1.46211C1.6787 1.6518 1.66426 1.67325 1.67407 1.43339C1.68367 1.4469 1.69416 1.44958 1.70388 1.46211Z" fill="#232322"/>
</svg>
