<svg height="16" viewBox="0 0 0 16" fill="none" xmlns="http://www.w3.org/2000/svg">
<path d="M1.97966 0.150082C2.03177 0.238377 1.97605 0.354118 1.89958 0.44208C1.87587 0.469647 1.76985 0.455688 1.7487 0.474718C1.70748 0.511936 1.75948 0.54661 1.71037 0.58339C1.69358 0.595579 1.52565 0.580407 1.51189 0.593188C1.43767 0.663226 1.48045 0.729485 1.44475 0.800435C1.26863 1.14991 1.20559 1.49344 1.12908 1.84719C1.10399 1.96383 0.951589 2.10562 1.01824 2.2261C1.02617 2.24017 1.17357 2.23178 1.18572 2.23446C1.3717 2.27643 1.07413 2.26247 1.0346 2.28988C0.878492 2.39864 0.864916 2.51958 0.921802 2.62425C0.946436 2.66878 1.23921 2.62413 1.07488 2.66897C1.06378 2.67208 0.907247 2.66078 0.890552 2.673C0.853004 2.70069 0.880982 2.75323 0.86858 2.7747C0.843886 2.81606 0.845461 2.8229 0.843678 2.86203C0.839877 2.91552 0.762068 2.97913 0.797535 3.03652C0.805571 3.04877 0.96603 3.03255 0.993335 3.05209C1.0206 3.07164 1.00699 3.12337 0.969166 3.1408C0.931321 3.15825 0.805203 3.15082 0.776295 3.15391C0.532301 3.1793 0.870232 3.23914 0.87859 3.24683C1.02099 3.3872 0.828481 3.50757 0.829029 3.63933C0.829854 3.73935 0.893408 3.84631 0.884693 3.94148C0.873689 4.05488 0.786738 4.15097 0.801686 4.26113C0.803078 4.27276 0.991741 4.25913 0.993824 4.27333C1.01578 4.42419 0.995212 4.57399 0.867847 4.72419C0.854908 4.73926 0.689263 4.71984 0.666432 4.73489C0.530302 4.82703 0.203286 4.97283 0.924488 5.02755C0.896326 5.08996 0.867229 5.16574 0.721852 5.22157C0.628284 5.25758 0.447832 5.22261 0.524831 5.26683C0.541987 5.27681 0.700019 5.26384 0.713795 5.2788C0.771649 5.34177 0.720278 5.41058 0.80193 5.47288C0.818909 5.48555 0.960512 5.48209 0.986011 5.48568C1.19252 5.51586 0.851149 5.56609 0.826344 5.57704C0.641369 5.66044 0.714161 5.72133 0.709645 5.79902C0.708517 5.81705 0.898721 5.79574 0.904468 5.81308C0.931729 5.90305 0.915381 5.99625 0.830982 6.08434C0.811752 6.10394 0.649732 6.08592 0.632253 6.09528C0.557152 6.13657 0.863165 6.14572 0.797047 6.18532C0.783501 6.19367 0.6448 6.18897 0.629567 6.19049C0.390445 6.21432 0.729264 6.23503 0.736744 6.24116C0.838954 6.31871 0.485244 6.36827 0.535329 6.44318C0.541678 6.45214 0.717176 6.43193 0.724293 6.45712C0.772741 6.62495 0.72453 6.80245 0.584157 6.96857C0.562568 6.9944 0.430732 6.97596 0.41448 6.97759C0.160544 7.00408 0.500788 7.02122 0.513601 7.02964C0.605837 7.09608 0.320504 7.15815 0.725758 7.20329C0.585121 7.48467 0.812693 7.76476 0.449636 8.04382C0.44543 8.04737 0.277861 8.04101 0.270193 8.04809C0.176104 8.13332 0.436538 8.11695 0.755055 8.17335C0.835036 8.18756 0.45048 8.23077 0.422292 8.2346C0.318417 8.24853 0.0691192 8.23408 0.0490024 8.23874C-0.108964 8.27735 0.715482 8.27106 0.715748 8.32313C0.714374 8.32476 0.562624 8.31792 0.547536 8.32229C0.500166 8.33587 0.560466 8.34934 0.508229 8.36262C0.387357 8.39304 -0.0132517 8.40387 0.2199 8.45032C0.25016 8.4562 0.717821 8.44722 0.695729 8.49372C0.686525 8.51225 0.694541 8.5943 0.664235 8.6173C0.633965 8.64026 0.483261 8.62449 0.476735 8.62613C0.277456 8.68802 0.194865 8.66455 -0.100167 8.69555C-0.394086 8.72655 0.306938 8.71796 0.385183 8.7306C0.463205 8.74326 0.298787 8.78863 0.241629 8.79978C0.184446 8.81092 0.0886847 8.79702 0.0563266 8.80693C-0.15509 8.87264 0.40429 8.83577 0.515554 8.85742C0.779006 8.90846 0.259124 8.94822 0.208182 8.99495C0.194425 9.00759 0.31283 8.99727 0.323904 9.00853C0.366192 9.05312 0.203975 9.07994 0.352712 9.13067C0.37695 9.13896 0.689518 9.17997 0.460134 9.20652C0.427057 9.21028 0.297504 9.1996 0.268484 9.2186C0.224932 9.24699 0.196615 9.29814 0.23992 9.32866C0.271959 9.35119 0.485433 9.32536 0.419118 9.35372C0.389508 9.36632 0.264624 9.34297 0.219412 9.36664C0.174213 9.3902 0.1797 9.45042 0.184012 9.47333C0.188419 9.49621 0.350349 9.48369 0.361257 9.48553C0.423748 9.49672 0.501831 9.54062 0.501638 9.5445C0.521405 9.74017 0.248456 9.92061 0.338796 10.1111C0.345651 10.1261 0.51641 10.1161 0.519216 10.1184C0.59076 10.1696 0.136756 10.1292 -0.0152064 10.165C0.33131 10.1598 0.268567 10.1809 0.30657 10.217C0.325164 10.2343 0.459338 10.2249 0.473073 10.2265C0.676867 10.2522 0.413641 10.2702 0.359792 10.2748C0.161711 10.2919 0.395758 10.3104 0.263357 10.322C0.131946 10.3336 -0.0628677 10.3069 -0.0603722 10.3415C0.0636692 10.3512 0.387823 10.3255 0.440359 10.3518C0.639078 10.4508 0.384747 10.6357 0.358328 10.7154C0.331931 10.7949 0.354817 10.8205 0.309988 10.8668C0.228933 10.9505 0.469434 10.9198 0.579518 10.9718C0.68959 11.0239 0.0978429 10.9986 -0.0293665 11.0061C-0.156519 11.0134 -0.0256289 11.0214 -0.0955284 11.0306C-0.165411 11.0397 -0.251904 11.02 -0.278145 11.0414C-0.30436 11.0628 -0.0781498 11.1215 0.0548618 11.1291C0.336657 11.1452 0.632412 11.1187 0.528493 11.1755C0.522326 11.1788 0.366729 11.1682 0.351003 11.1807C0.231218 11.2799 0.223793 11.3831 0.11785 11.4822C0.103039 11.4958 -0.0700579 11.4837 -0.0806358 11.4916C-0.191352 11.5742 0.100511 11.5447 0.424734 11.59C-0.00673752 11.5798 -0.270714 11.6049 -0.273262 11.6676C-0.274945 11.7053 -0.0864997 11.6988 0.0463169 11.7232C0.0863544 11.7305 -0.0430386 11.7572 0.0455845 11.762C0.335281 11.778 0.659578 11.7528 0.530446 11.8175C0.524309 11.8203 0.365734 11.8113 0.35613 11.8211C0.29327 11.8845 0.596289 11.892 0.632985 11.9605C0.661779 12.0142 0.477002 12.1097 0.44695 12.1709C-0.0381492 12.1696 0.0729327 12.2273 0.4074 12.2507C0.393707 12.2904 0.412615 12.3333 0.366384 12.3716C0.350623 12.3848 0.210174 12.3761 0.194998 12.3778C-0.0430614 12.4033 0.282338 12.4206 0.295095 12.4291C0.419103 12.522 0.172477 12.5976 0.413503 12.6862C0.422184 12.6893 0.759149 12.6944 0.513112 12.7181C0.496153 12.7196 0.34284 12.6903 0.330984 12.732C0.319102 12.7737 0.138464 12.8523 0.294607 12.9101C0.332198 12.9241 0.605745 12.9595 0.392019 12.9879C0.362997 12.9917 0.266354 12.9876 0.212576 12.9931C0.041218 13.0107 0.381806 13.0204 0.0924593 13.0411C-0.196874 13.0619 -0.413564 13.1051 -0.213936 13.1635C-0.208132 13.1653 0.0618157 13.1791 0.0575473 13.1975C0.0505017 13.2268 -0.00573398 13.2684 -0.00397592 13.2989C-0.00303691 13.3136 0.164588 13.3042 0.167654 13.3068C0.261585 13.4052 0.112149 13.4753 0.0472934 13.5808C0.0350727 13.6001 0.263655 13.6557 0.0829379 13.6931C-0.114891 13.7342 -0.937826 13.692 -0.741767 13.7865C-0.663347 13.8246 0.380694 13.8728 -0.160225 13.9413C-0.0261892 14.0741 -0.30303 14.1969 -0.111642 14.3301C-0.103162 14.3361 0.188222 14.3551 0.184256 14.3691C0.177805 14.39 0.0416166 14.4015 0.0326451 14.4164C-0.00837694 14.479 0.108141 14.5362 0.0900179 14.5965C0.0834329 14.6194 -0.0573843 14.6114 -0.065255 14.6387C-0.072994 14.666 0.112435 14.6842 0.0228795 14.7212C-0.0453834 14.7491 -0.424396 14.777 -0.468574 14.8141C-0.09472 14.8155 -0.10242 14.841 -0.00373178 14.8862C0.0154161 14.8949 0.145537 14.8856 0.161307 14.8897C0.228372 14.9065 0.120529 14.922 0.193533 14.9379C0.211067 14.9417 0.33874 14.9419 0.360281 14.9451C0.548304 14.972 0.261115 15.0163 0.211111 15.0239C0.0212076 15.053 0.187262 15.0667 0.112479 15.089C0.0377056 15.1114 -0.0557682 15.078 -0.101144 15.1041C-0.194997 15.1581 -0.174378 15.2276 -0.180245 15.2825C-0.181798 15.3044 -0.011373 15.2895 -0.00763802 15.2926C0.0355867 15.3379 -0.145697 15.3837 0.193777 15.4089C-0.683975 15.4403 0.278915 15.4362 0.103201 15.5009C0.0889897 15.506 -0.326093 15.5125 -0.387031 15.4929C-0.447912 15.4734 -0.318163 15.4437 -0.413154 15.4165C-0.435447 15.4101 -0.824406 15.3732 -0.847967 15.3682C-1.03211 15.3288 -0.411823 15.3232 -0.377754 15.3211C-0.0100919 15.2975 -0.429122 15.2524 -0.458076 15.2406C-0.590747 15.1863 -0.503514 15.1402 -0.598212 15.0948C-0.659417 15.0651 -1.06573 15.0622 -1.05329 15.0389C-1.01218 14.9614 -0.445378 14.9344 -0.936834 14.8613C-1.04165 14.8457 -1.48574 14.8612 -1.13654 14.8051C-1.11453 14.8016 -0.795076 14.76 -0.997137 14.7359C-1.02261 14.7329 -1.15204 14.733 -1.16291 14.729C-1.23323 14.7023 -1.13013 14.6845 -1.17951 14.6554C-1.22889 14.6263 -1.30251 14.5913 -1.25861 14.558C-1.23236 14.538 -0.99123 14.5123 -0.932196 14.5028C-0.762131 14.4757 -1.04097 14.4467 -0.835028 14.4299C-0.628054 14.413 -0.313731 14.446 -0.180001 14.4017C-0.516248 14.4001 -0.861373 14.3963 -1.19953 14.3937C-1.18769 14.2965 -1.07896 14.2009 -1.09382 14.1034C-1.09599 14.0913 -1.27676 14.1037 -1.28376 14.0907C-1.31247 14.0361 -1.18361 13.9883 -1.23493 13.9316C-1.27534 13.8877 -1.46674 13.8396 -1.51496 13.7937C-1.1302 13.7657 -1.26081 13.6976 -1.22565 13.6482C-1.2135 13.6308 -1.11074 13.632 -1.07721 13.6197C-0.953225 13.5732 -1.29324 13.595 -1.34675 13.5822C-1.57511 13.5275 -0.805515 13.5229 -0.82453 13.4584C-0.825277 13.455 -1.23551 13.4132 -1.26105 13.4075C-1.42763 13.371 -1.11827 13.4014 -1.08796 13.3786C-1.03257 13.3368 -0.934597 13.3078 -1.05475 13.2588C-1.09034 13.2446 -1.34604 13.2103 -1.14826 13.1826C-1.12236 13.1789 -0.986767 13.1809 -0.978826 13.178C-0.846459 13.1248 -1.27252 13.1234 -1.41681 13.0931C-1.56108 13.0627 -1.26696 13.0158 -1.18219 13.0062C-0.962906 12.9812 -1.08848 13.0254 -1.06696 13.0267C-0.810868 13.0426 -0.854958 13.0084 -0.833319 12.9822C-0.415564 12.9784 -0.440639 12.9419 -0.812567 12.9551C-0.853192 12.9566 -0.814234 12.977 -0.833319 12.9822C-1.24319 12.9593 -1.29569 12.9191 -0.912664 12.8747C-0.733148 12.8539 -0.523839 12.8736 -0.60041 12.8105C-0.634975 12.7818 -0.922621 12.7929 -1.00104 12.7676C-1.17997 12.7098 -0.911646 12.6348 -0.953924 12.5753C-0.969273 12.5536 -1.12673 12.5747 -1.14264 12.5599C-1.18537 12.5207 -1.06723 12.4862 -1.12775 12.4468C-1.13343 12.4432 -1.29826 12.452 -1.30036 12.4397C-1.3195 12.3469 -1.21393 12.2661 -1.211 12.1692C-1.20966 12.1224 -1.30057 12.0387 -1.28229 11.9902C-1.25159 11.9062 -1.01191 11.8028 -1.07013 11.731C-1.1074 11.6842 -1.27226 11.6944 -1.38459 11.6744C-1.60232 11.6357 -1.21231 11.5671 -1.15192 11.5579C-1.14992 11.5576 -1.11106 11.5979 -1.02643 11.5764C-0.850102 11.5639 -1.15116 11.5583 -1.15192 11.5579C-1.11291 11.5518 -1.07549 11.4713 -1.107 11.4553C-1.12422 11.4467 -1.28042 11.4515 -1.28644 11.447C-1.42622 11.3394 -1.46592 11.2315 -1.39289 11.1224C-1.38973 11.1204 -1.21502 11.1233 -1.20978 11.1188C-1.1321 11.0556 -1.34583 11.0151 -1.47272 10.963C-1.59956 10.9109 -1.55708 10.8696 -1.25715 10.8387C-1.29491 10.7994 -1.16231 10.743 -1.08185 10.7105C-1.0014 10.678 -1.34149 10.6735 -1.34821 10.6707C-1.5634 10.5816 -1.36874 10.5301 -1.33844 10.4376C-1.32346 10.3937 -1.37279 10.3065 -1.40998 10.2589C-1.43994 10.2213 -1.36024 10.1987 -1.4112 10.164C-1.418 10.1593 -1.56943 10.1641 -1.57526 10.1626C-1.75643 10.124 -1.38625 10.1425 -1.32013 10.1346C-1.07971 10.1056 -0.951661 10.0877 -1.06476 10.0382C-1.09067 10.0268 -1.62368 9.99352 -1.65485 9.9727C-1.6944 9.94563 -1.50335 9.95584 -1.54963 9.9275C-1.55341 9.92507 -1.67128 9.92558 -1.66608 9.90808C-1.64351 9.82688 -1.57492 9.73834 -1.58673 9.65395C-1.5879 9.64243 -1.77485 9.6572 -1.77961 9.64055C-1.80177 9.5624 -1.79485 9.47674 -1.70734 9.4006C-1.68521 9.38186 -1.55431 9.39361 -1.51545 9.38954C-1.28028 9.36457 -1.62197 9.32915 -1.62848 9.32331C-1.79269 9.18391 -1.48345 9.07722 -1.63068 8.93514C-1.63932 8.92741 -2.00563 8.86787 -1.69147 8.84131C-1.67057 8.83949 -1.34915 8.81322 -1.56891 8.78998C-1.58266 8.78854 -1.74813 8.80491 -1.73127 8.77634C-1.71444 8.74776 -1.82494 8.70177 -1.64313 8.6625C-1.58586 8.65006 -1.26524 8.62067 -1.52082 8.58358C-1.53866 8.58116 -2.11656 8.52389 -1.71784 8.50345C-1.6522 8.50014 -1.23026 8.50361 -1.4466 8.45934C-1.48854 8.45088 -1.58265 8.46623 -1.64142 8.44395C-1.732 8.40981 -1.61899 8.36457 -1.80695 8.32259C-1.84022 8.31528 -2.12661 8.28411 -1.90924 8.25912C-1.8752 8.25521 -1.73433 8.26264 -1.71857 8.24944C-1.64295 8.18668 -1.73718 8.12095 -1.63971 8.05722C-1.60547 8.03465 -1.37774 8.04619 -1.31672 8.02266C-1.25571 7.99913 -1.19703 7.95171 -1.30109 7.92709C-1.4052 7.90246 -1.76814 7.92937 -1.79718 7.89247C-1.92332 7.73207 -1.71041 7.57317 -1.67926 7.413C-1.67461 7.38924 -1.80448 7.40894 -1.80695 7.37393C-1.81661 7.24486 -1.93838 7.02203 -1.66242 6.91003C-1.44139 6.82029 -1.27312 6.93322 -1.18317 6.86465C-1.14026 6.83156 -1.56222 6.79576 -1.5755 6.78777C-1.71044 6.70974 -1.52353 6.65551 -1.58088 6.58527C-1.59278 6.57077 -1.7638 6.58499 -1.77204 6.57265C-1.8017 6.53049 -1.72536 6.48618 -1.73932 6.44589C-1.74598 6.42781 -1.8766 6.43114 -1.86652 6.41451C-1.8439 6.37471 -1.78899 6.33952 -1.66657 6.30073C-1.65541 6.29719 -1.49292 6.32103 -1.48688 6.29159C-1.47756 6.24394 -1.35679 6.18479 -1.48151 6.12996C-1.51903 6.1137 -1.81756 6.11306 -1.61139 6.07809C-1.56833 6.07076 -1.20986 6.08012 -1.5196 6.03938C-1.57107 6.03253 -1.98884 5.96411 -1.71955 5.93053C-1.64867 5.92167 -1.35533 5.89906 -1.40143 5.8795C-1.40879 5.87685 -1.56914 5.88748 -1.58478 5.87127C-1.63711 5.81414 -1.62001 5.75426 -1.67023 5.69557C-1.68396 5.6799 -1.84989 5.70325 -1.86505 5.67989C-1.90699 5.61565 -1.86475 5.53545 -1.81281 5.47264C-1.79334 5.44948 -1.65589 5.46549 -1.64093 5.4638C-1.39763 5.43671 -1.72603 5.42068 -1.74518 5.41169C-1.85984 5.35576 -1.70558 5.31316 -1.7464 5.26161C-1.75725 5.24738 -1.91384 5.25746 -1.9278 5.25463C-2.06422 5.22526 -1.78301 5.24714 -1.75202 5.22855C-1.66425 5.17646 -1.67683 5.11839 -1.69684 5.06572C-1.70442 5.04637 -1.88598 5.06812 -1.89069 5.05075C-1.92198 4.94798 -1.9046 4.84114 -1.80451 4.74084C-1.78533 4.72196 -1.64552 4.73384 -1.61359 4.7299C-1.39018 4.70278 -1.69491 4.66302 -1.72394 4.65387C-1.85648 4.61227 -1.73285 4.59611 -1.75592 4.55938C-1.87082 4.37993 -1.78893 4.15836 -1.73835 3.98897C-1.67324 3.76824 -1.54023 3.59695 -1.57477 3.38646C-1.57679 3.37308 -1.76278 3.38657 -1.76691 3.37504C-1.81175 3.22615 -1.73907 3.07956 -1.79279 2.93037C-1.79687 2.91813 -1.97319 2.93578 -1.98566 2.91613C-2.01248 2.87582 -2.0029 2.82476 -1.9466 2.78401C-1.91947 2.76414 -1.76817 2.7908 -1.74396 2.77079C-1.68724 2.7242 -1.67468 2.67427 -1.70295 2.62641C-1.71536 2.60605 -1.89569 2.63677 -1.89777 2.6103C-1.91566 2.43 -1.94672 2.25293 -1.7132 2.07073C-1.69716 2.05824 -1.33066 2.04728 -1.40094 2.02072C-1.50266 2.01872 -1.6223 2.01883 -1.73102 2.01795C-1.78958 1.75548 -1.66253 1.49569 -1.64289 1.23248C-1.6421 1.22138 -1.83629 1.24056 -1.83576 1.21908C-1.83289 1.09473 -1.88668 0.973974 -1.69367 0.846777C-1.67479 0.834157 -1.33316 0.840632 -1.38483 0.80344C-1.39426 0.796881 -1.43982 0.740866 -1.51398 0.726384C-1.52517 0.724417 -1.68463 0.734636 -1.68927 0.716586C-1.71349 0.611693 -1.67708 0.501771 -1.57965 0.39706C-1.56363 0.38016 -1.39382 0.398157 -1.38092 0.38612C-1.29078 0.300738 -1.41987 0.207867 -1.26569 0.12628C-1.16188 0.0716684 -0.868347 0.0918871 -0.579414 0.0628673C-0.538649 0.0587627 -0.532189 0.0249458 -0.364082 0.023197C0.0586386 0.0187073 0.521516 0.0350872 0.972095 0.0283661C1.06915 0.0269462 0.964616 -0.0183436 1.19915 0.00847086C1.21484 0.0103441 1.29268 0.0431794 1.37224 0.0512667C1.42725 0.0568974 1.59821 0.0467507 1.66863 0.0582391C1.73897 0.0697265 1.59566 0.0823497 1.67839 0.101396C1.76215 0.120433 1.95664 0.112062 1.97966 0.150082ZM-0.722235 10.5643C-0.558912 10.5343 -1.1571 10.5298 -1.01398 10.5623C-1.00635 10.5639 -0.730248 10.5659 -0.722235 10.5643ZM-0.627753 14.2014C-0.36391 14.1621 -0.751865 14.1352 -0.955633 14.163C-1.15918 14.1907 -0.707734 14.2134 -0.627753 14.2014ZM-0.435127 14.609C-0.227098 14.563 -1.07535 14.5558 -0.903875 14.605C-0.894185 14.6079 -0.447206 14.6116 -0.435127 14.609ZM-0.497138 0.197446C-0.489195 0.197031 -0.481453 0.172722 -0.489326 0.172141C-0.67931 0.159197 -0.69466 0.207805 -0.497138 0.197446ZM-0.225411 15.0134C-0.110666 14.999 -0.243125 14.9577 -0.385811 14.9755C-0.500597 14.9899 -0.368147 15.0312 -0.225411 15.0134ZM-0.0838097 8.99621C-0.0748958 8.99573 -0.0668691 8.9783 -0.117257 8.97866C-0.279545 8.97984 -0.233743 9.0041 -0.0838097 8.99621ZM-0.215645 15.7007C-0.183716 15.5991 0.516985 15.5376 0.437917 15.6481C0.423612 15.6682 0.214469 15.605 0.151297 15.6305C0.0362076 15.6771 0.476162 15.7081 0.240408 15.7557C0.197257 15.7643 -0.219024 15.7065 -0.216622 15.7005C-0.216296 15.7006 -0.215971 15.7006 -0.215645 15.7007ZM-0.00373178 10.547C0.00417809 10.5464 0.0116786 10.5223 0.00383655 10.5217C-0.186071 10.5086 -0.201292 10.5573 -0.00373178 10.547ZM0.286062 7.97926C0.302918 7.97793 0.318682 7.92195 0.303152 7.92012C-0.00739871 7.89091 -0.0401906 8.0041 0.286062 7.97926ZM0.434011 12.1718C0.62506 12.1981 0.647554 12.2296 0.407644 12.2506C0.42038 12.2245 0.422256 12.1981 0.434011 12.1718Z" fill="#232322"/>
</svg>
