<svg width="7" height="3" viewBox="0 0 7 3" fill="none" xmlns="http://www.w3.org/2000/svg">
<path d="M0.301799 -1.01592C0.338844 -1.06802 0.386962 -1.01231 0.423463 -0.935837C0.434859 -0.91212 0.429055 -0.806104 0.437158 -0.784959C0.452356 -0.743738 0.467188 -0.795733 0.482313 -0.746629C0.487475 -0.729837 0.481036 -0.561907 0.486471 -0.548143C0.515252 -0.473928 0.543786 -0.516702 0.572732 -0.481005C0.705515 -0.321029 0.834856 -0.254352 0.968958 -0.186131C0.982016 -0.179246 0.995651 -0.172346 1.00984 -0.165321C1.06106 -0.140211 1.12349 0.0124403 1.18157 -0.0533799C1.18817 -0.0612185 1.18641 -0.208658 1.18782 -0.220788C1.21012 -0.40646 1.19914 -0.10902 1.21111 -0.0692803C1.26008 0.0876729 1.31384 0.102663 1.36597 0.0476156C1.38741 0.0237488 1.37748 -0.269595 1.39251 -0.104581C1.39353 -0.0934308 1.38227 0.0627805 1.38731 0.0796807C1.39863 0.117684 1.42453 0.0907682 1.43433 0.103629C1.45334 0.129207 1.4557 0.127747 1.47369 0.130417C1.49801 0.135428 1.52387 0.214762 1.55261 0.180964C1.55863 0.173277 1.56088 0.0126603 1.57153 -0.0140491C1.58218 -0.0407218 1.60565 -0.0255963 1.61139 0.0127001C1.61711 0.0510067 1.60521 0.176613 1.60472 0.205553C1.59979 0.449746 1.6508 0.114569 1.65551 0.106539C1.72987 -0.0308542 1.77355 0.165993 1.83166 0.170867C1.87818 0.174375 1.93262 0.116029 1.97536 0.129438C2.0277 0.14621 2.05859 0.237359 2.1105 0.228685C2.11597 0.227957 2.13286 0.0399459 2.13968 0.0386919C2.2125 0.0256008 2.27707 0.055021 2.3268 0.190785C2.33153 0.204533 2.29964 0.367302 2.30289 0.390831C2.32371 0.531297 2.33604 0.863858 2.47071 0.154944C2.49333 0.186931 2.52216 0.220958 2.52346 0.368436C2.52427 0.463352 2.4801 0.638996 2.51162 0.566112C2.51872 0.549889 2.5385 0.392994 2.54731 0.380474C2.58475 0.327973 2.60641 0.383673 2.64645 0.307665C2.65475 0.291853 2.67706 0.152012 2.68291 0.127142C2.73096 -0.0741559 2.69534 0.266113 2.69571 0.291358C2.70006 0.479857 2.74037 0.413083 2.77245 0.42346C2.77985 0.425944 2.80466 0.237142 2.81308 0.232823C2.85633 0.212948 2.89417 0.236578 2.91723 0.326834C2.92227 0.347358 2.88423 0.505055 2.88507 0.523003C2.88884 0.600157 2.95069 0.300425 2.95516 0.368605C2.9561 0.382581 2.92796 0.518411 2.92572 0.533493C2.89039 0.7702 2.96311 0.439167 2.96719 0.432337C3.01952 0.338366 2.97248 0.689596 3.01383 0.646751C3.0189 0.641288 3.04449 0.467437 3.05672 0.462618C3.14072 0.429968 3.20283 0.492017 3.24554 0.644588C3.25212 0.668056 3.2168 0.79533 3.21412 0.811377C3.17246 1.06213 3.25066 0.730917 3.25702 0.719174C3.30505 0.635125 3.26887 0.91924 3.37406 0.527397C3.46284 0.690678 3.62941 0.495197 3.66546 0.876701C3.666 0.881149 3.62485 1.04361 3.62608 1.05178C3.63884 1.15147 3.69192 0.896415 3.78894 0.592089C3.81341 0.515698 3.74187 0.893985 3.7368 0.921758C3.71829 1.02414 3.65433 1.26517 3.65154 1.28519C3.63022 1.44252 3.82007 0.640218 3.84196 0.645217C3.84231 0.646716 3.8039 0.793554 3.80218 0.808659C3.7967 0.856064 3.81644 0.798799 3.80969 0.850909C3.79398 0.971469 3.7038 1.36182 3.77806 1.13993C3.78767 1.11113 3.89449 0.655807 3.90898 0.682084C3.91443 0.692884 3.95204 0.69386 3.95355 0.725453C3.95562 0.757141 3.91311 0.901877 3.91222 0.908378C3.88936 1.108 3.86008 1.18584 3.80146 1.47527C3.74293 1.76358 3.90843 1.08236 3.93243 1.0077C3.95639 0.933257 3.93512 1.0974 3.92576 1.15398C3.91642 1.21059 3.88759 1.30209 3.88374 1.33448C3.85888 1.54619 3.97989 0.999847 4.0158 0.894141C4.10107 0.643913 3.99076 1.15225 3.99733 1.20646C3.99917 1.22112 4.02397 1.10526 4.03135 1.0957C4.06026 1.0594 4.03134 1.21943 4.0893 1.08072C4.09882 1.05813 4.19334 0.759674 4.14692 0.984579C4.1402 1.017 4.10373 1.1414 4.1041 1.17145C4.1046 1.21654 4.11796 1.24923 4.14109 1.21048C4.15819 1.18181 4.20122 0.972441 4.19611 1.03962C4.19379 1.0696 4.15304 1.18805 4.15126 1.2343C4.1494 1.2805 4.17512 1.28152 4.18555 1.27979C4.19596 1.27795 4.23177 1.11994 4.23527 1.10958C4.25561 1.05031 4.29346 0.979498 4.29504 0.980111C4.38269 0.982648 4.38332 1.2653 4.48445 1.19905C4.49234 1.19408 4.53286 1.02814 4.53453 1.02569C4.57424 0.962318 4.43907 1.39607 4.41383 1.54667C4.5024 1.21166 4.49458 1.27455 4.51935 1.2419C4.53137 1.2259 4.5627 1.09537 4.56695 1.08229C4.63113 0.888551 4.56944 1.14457 4.55715 1.19703C4.51206 1.39005 4.58136 1.16636 4.55128 1.29539C4.5214 1.42346 4.45907 1.60838 4.47389 1.60985C4.51064 1.4913 4.58555 1.17573 4.61033 1.12804C4.70375 0.947562 4.70967 1.21308 4.73504 1.24759C4.7602 1.28201 4.7769 1.26293 4.78374 1.3114C4.7961 1.39907 4.8486 1.16401 4.90001 1.06412C4.95159 0.964303 4.78024 1.53081 4.74877 1.6541C4.71722 1.77732 4.75609 1.65229 4.74082 1.72061C4.72553 1.78891 4.69395 1.86986 4.69554 1.89759C4.69709 1.92526 4.78139 1.71404 4.82084 1.58697C4.90419 1.31771 4.97447 1.03021 4.96877 1.13663C4.96838 1.14293 4.92158 1.29138 4.92226 1.30793C4.929 1.43439 4.96832 1.45337 4.97909 1.56673C4.9805 1.58255 4.92763 1.74746 4.92789 1.75854C4.93047 1.87452 4.99948 1.59067 5.10814 1.28458C4.98404 1.69784 4.92076 1.95433 4.94538 1.96413C4.96019 1.97019 5.01016 1.78847 5.05726 1.66385C5.0715 1.62629 5.0461 1.75367 5.07269 1.66911C5.16005 1.39282 5.24089 1.07859 5.23042 1.21005C5.22983 1.21627 5.18178 1.36744 5.18297 1.37779C5.19042 1.44546 5.27857 1.15553 5.31647 1.12841C5.34621 1.10713 5.33256 1.29575 5.34879 1.3319C5.21059 1.7969 5.26522 1.69723 5.37001 1.37945C5.38226 1.39737 5.40518 1.38446 5.40768 1.43345C5.40859 1.45017 5.36488 1.5837 5.36122 1.59844C5.30355 1.82966 5.40369 1.51997 5.41088 1.50881C5.48476 1.40146 5.44232 1.64622 5.54737 1.42616C5.55112 1.41822 5.65049 1.09623 5.58889 1.33464C5.58459 1.35106 5.52863 1.49431 5.54182 1.51068C5.55505 1.52708 5.534 1.70944 5.60266 1.56711C5.61918 1.53285 5.71318 1.27552 5.66246 1.48349C5.65553 1.51172 5.6257 1.60366 5.61223 1.65577C5.5694 1.82186 5.67265 1.49727 5.59662 1.77659C5.52061 2.0559 5.47444 2.26837 5.55646 2.08471C5.5589 2.07938 5.64359 1.823 5.64983 1.82938C5.65989 1.83983 5.65969 1.8986 5.6721 1.90058C5.6781 1.90144 5.72374 1.74011 5.72564 1.73748C5.79196 1.65962 5.77564 1.81098 5.79824 1.8859C5.80226 1.89994 5.8923 1.68856 5.85359 1.86578C5.81119 2.05978 5.54955 2.8402 5.64519 2.66467C5.68345 2.59446 6.01475 1.60416 5.88072 2.12902C5.9759 2.01841 5.93794 2.29672 6.04862 2.13104C6.05353 2.1237 6.14912 1.84833 6.15352 1.85388C6.15987 1.86267 6.12319 1.99391 6.12639 2.00434C6.13874 2.05131 6.19692 1.94756 6.21559 1.97255C6.22276 1.98175 6.17669 2.11486 6.18522 2.12585C6.19378 2.13671 6.25762 1.96245 6.2452 2.05251C6.23564 2.12113 6.13108 2.48562 6.13241 2.53245C6.24727 2.17668 6.25533 2.18735 6.30369 2.09924C6.31293 2.0821 6.34917 1.95707 6.3556 1.94258C6.38268 1.88084 6.35567 1.98543 6.38426 1.91795C6.39114 1.90174 6.43038 1.78025 6.43823 1.76015C6.50647 1.58459 6.43573 1.86354 6.42332 1.91208C6.37638 2.09648 6.43278 1.9402 6.41856 2.0142C6.40431 2.08817 6.36245 2.17287 6.3587 2.21935C6.35097 2.31549 6.38458 2.30472 6.40445 2.31734C6.41261 2.32163 6.4594 2.15764 6.46179 2.15449C6.49312 2.11922 6.45513 2.2975 6.57036 1.97801C6.31078 2.81661 6.60762 1.90061 6.5791 2.07614C6.57674 2.09032 6.45038 2.48571 6.42368 2.5411C6.39701 2.59643 6.42548 2.46924 6.38528 2.55604C6.37579 2.5764 6.24078 2.94149 6.23155 2.96326C6.15915 3.13335 6.34889 2.54279 6.35859 2.51012C6.46296 2.15744 6.31566 2.55018 6.30212 2.57623C6.23992 2.69552 6.24887 2.60672 6.20209 2.69112C6.17172 2.74562 6.04565 3.13188 6.04053 3.11716C6.02344 3.06844 6.18716 2.52569 6.00801 2.98432C5.96967 3.0821 5.83996 3.50686 5.92458 3.16727C5.92994 3.14587 6.01099 2.83638 5.93976 3.02574C5.93079 3.04962 5.89132 3.17288 5.88643 3.18273C5.85445 3.24633 5.87889 3.14589 5.85241 3.18926C5.82593 3.23264 5.78987 3.2984 5.79026 3.25245C5.79045 3.22496 5.85366 2.99202 5.86781 2.93457C5.90882 2.76915 5.81293 3.03125 5.86881 2.83292C5.92489 2.63357 6.03315 2.33816 6.05616 2.20515C5.9537 2.5254 5.84772 2.85386 5.74433 3.17582C5.71035 3.15261 5.70638 3.03731 5.66467 3.03974C5.6594 3.04036 5.60979 3.21426 5.60276 3.21938C5.57382 3.24037 5.59284 3.11127 5.55524 3.15326C5.52581 3.18639 5.44978 3.36314 5.41756 3.4036C5.52133 3.03291 5.45576 3.14928 5.44705 3.10976C5.44393 3.09606 5.47489 2.99807 5.48004 2.96457C5.49874 2.84054 5.40639 3.16789 5.3856 3.21747C5.29693 3.42906 5.52296 2.6934 5.49227 2.70381C5.49069 2.7041 5.3535 3.09108 5.34381 3.11483C5.28072 3.26969 5.3836 2.97768 5.38377 2.94601C5.38412 2.88815 5.40177 2.79107 5.34778 2.90019C5.33209 2.93259 5.24327 3.1728 5.29033 2.98036C5.29647 2.95516 5.33701 2.82576 5.33817 2.81781C5.35578 2.68477 5.23052 3.092 5.17643 3.22635C5.12239 3.36068 5.18995 3.0738 5.21088 2.99156C5.26501 2.77881 5.24573 2.90421 5.25254 2.88379C5.33353 2.64076 5.30714 2.6788 5.30314 2.65496C5.42336 2.25488 5.4015 2.27443 5.29849 2.63185C5.28726 2.6709 5.30662 2.63607 5.30314 2.65496C5.17463 3.04429 5.14393 3.08981 5.23782 2.71803C5.28182 2.54379 5.35024 2.34581 5.30323 2.41158C5.28198 2.44126 5.20299 2.71788 5.17047 2.78998C5.09635 2.95449 5.14495 2.68889 5.10987 2.7225C5.09717 2.73471 5.05994 2.88793 5.04971 2.90148C5.02232 2.93787 5.04382 2.82098 5.01042 2.87416C5.00738 2.87918 4.9636 3.03812 4.95816 3.03869C4.91601 3.04606 4.91442 2.93544 4.87747 2.92145C4.85957 2.91475 4.80148 2.99239 4.78805 2.96939C4.7644 2.93043 4.79255 2.68894 4.74834 2.73672C4.71928 2.76707 4.67735 2.92657 4.6381 3.03214C4.5622 3.23681 4.644 2.85448 4.65707 2.7954C4.65751 2.79344 4.68417 2.7607 4.69923 2.67696C4.74329 2.50614 4.65746 2.79471 4.65707 2.7954C4.66552 2.75722 4.64431 2.71215 4.62937 2.74065C4.62122 2.75622 4.57991 2.90687 4.57649 2.91215C4.49603 3.03445 4.44417 3.06092 4.42283 2.97894C4.42297 2.9757 4.47178 2.80794 4.47149 2.80241C4.46895 2.72094 4.39439 2.92197 4.33961 3.03837C4.2848 3.1547 4.28046 3.10936 4.34935 2.81718C4.32382 2.84924 4.33764 2.71542 4.34659 2.6344C4.35554 2.55337 4.26267 2.88054 4.25978 2.88672C4.16804 3.08457 4.20061 2.89161 4.17363 2.85277C4.16166 2.83393 4.11348 2.87188 4.08535 2.90277C4.06283 2.92768 4.07492 2.84838 4.04815 2.89392C4.04456 2.9 4.00676 3.04664 4.00469 3.05212C3.94245 3.22296 4.04637 2.86759 4.06056 2.80293C4.11218 2.56783 4.13844 2.44228 4.0898 2.54631C4.07857 2.57011 3.92739 3.08141 3.91152 3.10942C3.89106 3.14488 3.94439 2.96138 3.92169 3.00321C3.9198 3.00662 3.8895 3.12053 3.88428 3.11375C3.85968 3.08381 3.84433 3.00876 3.80806 3.01142C3.80331 3.01136 3.76136 3.19365 3.75374 3.19656C3.71803 3.21007 3.68737 3.1949 3.68068 3.10275C3.67918 3.0795 3.71649 2.95395 3.72472 2.91593C3.77424 2.68582 3.67514 3.01312 3.67138 3.01888C3.57905 3.16462 3.61388 2.85435 3.52334 2.98335C3.51815 2.99096 3.40654 3.3406 3.47299 3.03338C3.47743 3.01295 3.54541 2.69863 3.48339 2.90965C3.47953 2.92286 3.44558 3.08493 3.43898 3.0659C3.43233 3.0469 3.38873 3.14992 3.41788 2.96985C3.42703 2.91312 3.49304 2.59916 3.41778 2.84385C3.4124 2.86089 3.25287 3.41679 3.33991 3.02761C3.35425 2.96355 3.45568 2.55397 3.38727 2.75997C3.37409 2.79992 3.35769 2.89279 3.33526 2.94782C3.30087 3.03267 3.31025 2.91866 3.25044 3.09758C3.23984 3.12926 3.16137 3.40494 3.20292 3.19137C3.20941 3.15791 3.24504 3.0216 3.24379 3.00509C3.23796 2.92593 3.19192 3.01183 3.19105 2.91148C3.19032 2.87612 3.24698 2.65551 3.25179 2.59395C3.25658 2.5324 3.25137 2.47091 3.21818 2.57003C3.18505 2.6692 3.11286 3.02504 3.09236 3.05009C3.00307 3.15882 2.99586 2.9388 2.94013 2.89448C2.93219 2.88795 2.91138 3.01636 2.89779 3.01587C2.84687 3.01444 2.74283 3.11653 2.7569 2.83751C2.76876 2.61413 2.84598 2.45842 2.83841 2.36492C2.83442 2.32024 2.73486 2.73052 2.72931 2.74293C2.67311 2.86908 2.69173 2.68209 2.65415 2.73298C2.64628 2.74352 2.61768 2.91223 2.61142 2.91936C2.58979 2.94525 2.58842 2.86711 2.57084 2.87785C2.56289 2.88305 2.53866 3.01142 2.53459 3.00033C2.52455 2.97528 2.52255 2.91893 2.53198 2.79603C2.53281 2.78483 2.57267 2.62706 2.56306 2.61902C2.54721 2.60644 2.54966 2.48391 2.50481 2.60233C2.49161 2.63801 2.4358 2.93127 2.46118 2.72625C2.4665 2.68344 2.53628 2.3318 2.4638 2.63334C2.45147 2.68339 2.35035 3.0895 2.38745 2.82251C2.39719 2.75223 2.44197 2.46221 2.42647 2.50624C2.42419 2.5133 2.39915 2.67173 2.3905 2.68605C2.36058 2.73378 2.34274 2.71318 2.31193 2.75873C2.3038 2.77123 2.28333 2.93612 2.27225 2.94955C2.24181 2.98676 2.22097 2.94026 2.20782 2.88535C2.20302 2.86479 2.23159 2.73022 2.23352 2.71538C2.26457 2.47387 2.20415 2.79672 2.19794 2.81509C2.15999 2.92498 2.16898 2.77011 2.1441 2.80741C2.13729 2.8173 2.11573 2.97243 2.11248 2.98605C2.08037 3.11904 2.13308 2.84271 2.13145 2.81105C2.12699 2.72142 2.10444 2.73058 2.08326 2.74752C2.07545 2.75398 2.05493 2.93453 2.04834 2.93827C2.00821 2.96369 1.97347 2.94093 1.95419 2.83704C1.95055 2.81715 1.97438 2.67933 1.97757 2.64753C1.99977 2.42501 1.9432 2.72478 1.93589 2.75307C1.9029 2.88229 1.91438 2.75907 1.89847 2.78019C1.82235 2.88573 1.75924 2.79541 1.7083 2.73891C1.64234 2.66615 1.59786 2.52828 1.52431 2.55699C1.51975 2.55865 1.5094 2.7444 1.50538 2.74823C1.45583 2.78928 1.41402 2.71363 1.36376 2.76472C1.35975 2.76859 1.3557 2.94494 1.34912 2.95708C1.33545 2.98321 1.3218 2.97295 1.31166 2.91613C1.30669 2.88876 1.32185 2.73799 1.31656 2.71351C1.30415 2.65618 1.28858 2.64299 1.27276 2.67071C1.26608 2.68289 1.26896 2.86344 1.26097 2.86524C1.20381 2.88116 1.15204 2.91121 1.09027 2.67724C1.08633 2.66117 1.0844 2.29465 1.07403 2.36488C1.07275 2.46659 1.07218 2.58623 1.0713 2.69494C1.03932 2.71475 1.00518 2.71312 0.968958 2.70155C0.896909 2.67917 0.82526 2.61958 0.753137 2.60663C0.748371 2.60585 0.756593 2.80004 0.747391 2.7995C0.695979 2.79663 0.645008 2.85043 0.592238 2.65741C0.587185 2.63854 0.589701 2.29691 0.573992 2.34858C0.571101 2.358 0.548327 2.40357 0.541896 2.47773C0.541074 2.48891 0.54535 2.64837 0.537788 2.65302C0.493945 2.67723 0.448724 2.64083 0.404667 2.5434C0.39774 2.52737 0.405096 2.35756 0.400194 2.34467C0.36444 2.25453 0.326255 2.38361 0.291892 2.22944C0.269423 2.12562 0.277533 1.83209 0.265534 1.54316C0.263797 1.50239 0.249831 1.49593 0.249017 1.32783C0.247131 0.905106 0.254019 0.44223 0.251192 -0.00835007C0.250575 -0.105401 0.231749 -0.000871003 0.242908 -0.2354C0.24365 -0.251096 0.257369 -0.328935 0.260729 -0.408495C0.263072 -0.463502 0.258919 -0.634467 0.263583 -0.704881C0.26852 -0.775229 0.273518 -0.631917 0.281575 -0.714647C0.289486 -0.7984 0.285971 -0.992892 0.301799 -1.01592ZM4.38599 2.27212C4.41781 2.11146 4.25682 2.68759 4.30744 2.55309C4.31008 2.54591 4.38446 2.28001 4.38599 2.27212ZM5.84262 2.60718C5.90683 2.35077 5.77969 2.71746 5.72904 2.91515C5.67836 3.1126 5.82313 2.6849 5.84262 2.60718ZM6.06075 2.47437C6.10576 2.27037 5.84507 3.07758 5.91654 2.92039C5.92061 2.91152 6.05814 2.48622 6.06075 2.47437ZM0.321549 1.46088C0.321533 1.45294 0.311153 1.4452 0.310991 1.45307C0.305576 1.64305 0.325915 1.6584 0.321549 1.46088ZM6.28508 2.32615C6.31474 2.21515 6.25803 2.33604 6.22115 2.47407C6.19145 2.5851 6.24815 2.46422 6.28508 2.32615ZM3.92621 1.48966C3.92821 1.48097 3.92308 1.47139 3.91087 1.52028C3.87158 1.67774 3.89261 1.63582 3.92621 1.48966ZM6.56005 2.40541C6.52932 2.36172 6.72234 1.68762 6.74255 1.77745C6.74619 1.79369 6.65549 1.98406 6.64612 2.04746C6.62904 2.16298 6.77881 1.74909 6.72461 1.97943C6.71459 2.02156 6.56128 2.40937 6.55967 2.40631C6.5598 2.40601 6.55993 2.40571 6.56005 2.40541ZM4.5707 1.57773C4.57256 1.57004 4.565 1.56016 4.56268 1.56766C4.507 1.7493 4.52209 1.76926 4.5707 1.57773ZM3.60078 1.02953C3.60407 1.01298 3.58423 0.992151 3.57996 1.0071C3.49737 1.30672 3.53653 1.34955 3.60078 1.02953ZM5.34551 1.34442C5.41041 1.16439 5.42978 1.14668 5.37003 1.3792C5.363 1.36382 5.35283 1.35885 5.34551 1.34442Z" fill="#232322"/>
</svg>
