<svg width="30" height="3" viewBox="0 0 30 3" fill="none" xmlns="http://www.w3.org/2000/svg">
<path d="M26.9385 43.8064C26.6704 44.889 26.5051 43.7093 26.4146 42.097C26.3872 41.597 26.5245 39.3747 26.5098 38.9294C26.4778 38.0611 26.3648 39.1487 26.3424 38.1151C26.338 37.7618 26.5416 34.241 26.533 33.9512C26.4814 32.3881 26.3117 33.279 26.2176 32.5237C25.7575 28.7973 25.1892 27.443 24.6242 25.8055C24.4352 25.2685 24.34 22.059 24.046 23.4455C24.0123 23.6106 23.8703 26.7028 23.8526 26.9573C23.5786 30.8541 23.9209 24.6144 23.9131 23.7827C23.8755 20.4984 23.6766 20.2028 23.4181 21.3858C23.3445 21.7286 23.2179 24.5912 23.1694 25.4166C23.1455 25.8252 23.1412 25.7346 23.1727 24.5921C23.179 24.359 23.3662 21.0771 23.3622 20.7259C23.3528 19.9359 23.2276 20.5178 23.2013 20.2557C23.1517 19.7339 23.1373 19.7663 23.0661 19.7252C22.9677 19.6403 22.9417 18.0028 22.7972 18.7413C22.7662 18.9086 22.6246 22.2754 22.5596 22.8463C22.4946 23.4162 22.413 23.126 22.4206 22.331C22.4283 21.5356 22.5769 18.8913 22.602 18.2847C22.8154 13.1651 22.348 20.247 22.3247 20.4215C21.9159 23.395 21.9004 19.3463 21.6586 19.3455C21.4693 19.3532 21.2128 20.6765 21.0455 20.4847C20.8443 20.2431 20.7687 18.4109 20.5485 18.714C20.5256 18.7421 20.349 22.7001 20.3206 22.7425C20.0158 23.1886 19.771 22.7436 19.6278 20.0582C19.6145 19.7854 19.8267 16.3132 19.824 15.833C19.8036 12.9695 19.8851 6.09739 19.0113 21.2178C18.9273 20.6213 18.822 20.0041 18.8749 16.9499C18.909 14.9842 19.1663 11.2029 19.0027 12.8136C18.966 13.1725 18.8207 16.4881 18.7785 16.7756C18.6007 17.983 18.5272 16.8991 18.328 18.6058C18.2868 18.9608 18.1416 21.9309 18.1077 22.4653C17.832 26.7935 18.1055 19.6294 18.112 19.1082C18.1578 15.221 17.9648 16.7418 17.8287 16.6398C17.7972 16.6145 17.6322 20.6056 17.5947 20.7245C17.4024 21.2879 17.2493 20.9363 17.1767 19.158C17.1611 18.7528 17.3679 15.3565 17.3692 14.989C17.3732 13.4101 17.0285 19.8271 17.0278 18.4368C17.0271 18.1519 17.1841 15.2434 17.1977 14.9238C17.4105 9.90656 17.0101 17.0106 16.9909 17.1669C16.7403 19.3033 17.0282 11.8804 16.8365 12.9238C16.8132 13.0561 16.6625 16.7387 16.6084 16.8856C16.2479 17.8859 15.9771 16.8583 15.8213 13.8987C15.7975 13.4435 15.9721 10.6803 15.9866 10.3393C16.2104 5.0111 15.8149 12.1453 15.7858 12.4133C15.5661 14.3415 15.7579 8.35152 15.2409 16.8466C14.8751 13.8707 14.1187 18.6173 13.9973 10.9769C13.9953 10.8884 14.1865 7.3746 14.1817 7.21313C14.1257 5.23183 13.8768 10.6954 13.4314 17.3702C13.3197 19.0463 13.6533 10.9771 13.6765 10.3856C13.7624 8.20574 14.0558 2.97864 14.0688 2.55631C14.1678 -0.760265 13.2961 16.5312 13.2008 16.5319C13.1993 16.5029 13.3743 13.3209 13.3825 13.0041C13.4085 12.0094 13.3193 13.2728 13.3509 12.176C13.4248 9.63813 13.8341 1.23528 13.4991 6.12074C13.4559 6.75482 12.9715 16.5638 12.9097 16.0961C12.8856 15.9013 12.7254 16.0617 12.7159 15.4239C12.7066 14.7869 12.8967 11.6278 12.9007 11.4907C13.0017 7.30559 13.1328 5.5756 13.3924 -0.614885C13.6508 -6.78203 12.9154 7.92111 12.8086 9.56093C12.7019 11.1961 12.7952 7.74356 12.836 6.54376C12.8769 5.34345 13.0049 3.33638 13.0214 2.65682C13.1276 -1.7833 12.5958 9.95183 12.437 12.2833C12.0612 17.8038 12.5451 6.89678 12.5136 5.82399C12.505 5.53427 12.3972 8.01852 12.3645 8.24971C12.2366 9.13238 12.3623 5.7278 12.1104 8.8425C12.0693 9.35005 11.6597 15.9016 11.8569 11.0883C11.8855 10.3943 12.0438 7.6782 12.0402 7.06781C12.035 6.15176 11.9717 5.5531 11.8693 6.45844C11.7936 7.12829 11.6123 11.6078 11.6313 10.2144C11.6399 9.59216 11.8166 6.97522 11.8215 6.02478C11.8267 5.07464 11.71 5.18404 11.6631 5.27231C11.6162 5.36259 11.4658 8.75986 11.4507 8.98847C11.3628 10.298 11.1997 11.9315 11.1927 11.9271C10.8162 12.3235 10.7729 6.58193 10.3304 8.45894C10.2957 8.60131 10.131 12.1835 10.1238 12.2421C9.95355 13.7378 10.5138 4.21992 10.6112 1.02954C10.2494 8.29738 10.278 6.97953 10.1712 7.77317C10.1195 8.16151 9.99302 10.9764 9.9754 11.2643C9.70979 15.536 9.95891 10.0137 10.0081 8.88397C10.1891 4.72808 9.90414 9.63491 10.0247 6.85703C10.1441 4.09991 10.402 0.0166518 10.3358 0.0657401C10.185 2.66631 9.88487 9.46707 9.78028 10.5664C9.38473 14.7248 9.32143 9.3736 9.203 8.81203C9.08545 8.25097 9.01363 8.72853 8.97642 7.78399C8.91047 6.07626 8.70888 11.1231 8.49609 13.427C8.28302 15.7306 8.96338 3.32247 9.08604 0.653856C9.20887 -2.01355 9.05394 0.730808 9.11213 -0.736023C9.17037 -2.20251 9.29912 -4.01465 9.28806 -4.56699C9.27697 -5.11878 8.92721 -0.380046 8.77072 2.40885C8.43929 8.31733 8.17079 14.5226 8.17811 12.3378C8.17874 12.2082 8.36491 8.94586 8.35884 8.61489C8.30501 6.09337 8.1235 5.92797 8.05637 3.69682C8.04734 3.38492 8.25511 -0.244238 8.25195 -0.466826C8.21952 -2.79656 7.96073 3.32733 7.53035 10.1229C8.01137 1.07477 8.24848 -4.46386 8.13619 -4.52317C8.06883 -4.562 7.87878 -0.609197 7.69167 2.17403C7.63533 3.01303 7.72499 0.296819 7.62113 2.15502C7.28135 8.22923 6.98003 15.0329 6.99949 12.3186C7.00085 12.1897 7.18742 8.86477 7.17968 8.66244C7.1314 7.33819 6.7929 13.6926 6.62841 14.4558C6.49946 15.0547 6.52266 11.1705 6.44268 10.5345C6.96496 0.360792 6.73993 2.68506 6.33842 9.69751C6.28004 9.4066 6.18152 9.79915 6.1611 8.826C6.15389 8.49421 6.32026 5.54943 6.33348 5.231C6.54202 0.235889 6.16175 7.05876 6.13243 7.32552C5.82988 9.91762 5.95571 4.73814 5.53484 9.78479C5.51977 9.96655 5.14928 17.0331 5.3695 11.8709C5.38486 11.515 5.60289 8.30239 5.53909 8.04984C5.47497 7.79671 5.52535 4.00094 5.25222 7.27027C5.18634 8.05733 4.8284 13.791 5.00546 9.30597C5.02964 8.69695 5.1408 6.67049 5.18844 5.54211C5.33976 1.94663 4.95706 9.08875 5.22915 3.01844C5.50123 -3.05159 5.65437 -7.60019 5.33337 -3.41893C5.32374 -3.29738 5.00908 2.36284 4.97997 2.2716C4.93385 2.12109 4.91741 0.937761 4.85985 0.971787C4.8321 0.990114 4.66955 4.50653 4.66162 4.5706C4.38111 6.53138 4.41311 3.39076 4.28937 2.02069C4.26704 1.76258 3.92018 6.55134 4.04519 2.75772C4.18186 -1.39511 5.14122 -18.6503 4.75797 -14.5472C4.60431 -12.9061 3.39711 8.98564 3.8516 -2.36526C3.46511 0.43342 3.53586 -5.3842 3.0873 -1.38273C3.06727 -1.20546 2.72031 4.90386 2.69882 4.81937C2.6675 4.68212 2.79248 1.82482 2.7748 1.63527C2.70434 0.769084 2.47464 3.20742 2.38358 2.82168C2.34869 2.68143 2.5143 -0.271126 2.47269 -0.438754C2.43097 -0.603617 2.19885 3.28362 2.22702 1.40193C2.24892 -0.0323421 2.6041 -7.98384 2.58368 -8.91384C2.18036 -1.07327 2.14207 -1.23714 1.9535 0.828386C1.91706 1.22915 1.79465 3.95901 1.77022 4.28935C1.66769 5.69431 1.75493 3.43113 1.64758 4.96072C1.6217 5.32808 1.48452 8.00571 1.45564 8.45718C1.20489 12.398 1.4316 6.37076 1.47127 5.32133C1.62142 1.33583 1.41847 4.81714 1.45766 3.24665C1.49689 1.67637 1.65826 -0.280894 1.6591 -1.23498C1.66069 -3.2084 1.51106 -2.78247 1.41689 -2.91065C1.37849 -2.94527 1.22315 0.630384 1.21341 0.708423C1.08421 1.61072 1.19468 -2.19555 0.784834 4.92176C1.66818 -13.49 0.643581 6.70476 0.713355 3.01353C0.719244 2.715 1.15229 -5.99099 1.25346 -7.26719C1.35458 -8.54218 1.26986 -5.81823 1.42142 -7.8079C1.45709 -8.27483 1.94147 -16.4289 1.97592 -16.9226C2.24538 -20.7808 1.59072 -7.77125 1.55802 -7.05655C1.20719 0.656506 1.73864 -8.12744 1.7915 -8.73358C2.03321 -11.5109 2.0242 -9.67712 2.20886 -11.6589C2.32884 -12.9398 2.76967 -21.4609 2.79903 -21.1979C2.89686 -20.3285 2.33882 -8.43859 2.99919 -18.7389C3.14018 -20.9357 3.58773 -30.2508 3.31603 -22.922C3.29891 -22.46 3.0325 -15.7564 3.29334 -19.9919C3.32619 -20.5259 3.46474 -23.2402 3.4837 -23.4679C3.60807 -24.9403 3.53023 -22.7762 3.6365 -23.8092C3.74278 -24.8421 3.8858 -26.3827 3.89961 -25.459C3.90814 -24.9066 3.69672 -19.847 3.651 -18.608C3.51826 -15.0388 3.87025 -20.884 3.68019 -16.5634C3.48927 -12.221 3.09189 -5.63192 3.02966 -2.82309C3.39307 -9.87494 3.7699 -17.1128 4.13719 -24.2045C4.30203 -23.9472 4.36079 -21.6579 4.55543 -21.9603C4.57991 -22.0048 4.75102 -25.7972 4.78226 -25.9427C4.91321 -26.5398 4.86251 -23.8328 5.02122 -24.9037C5.14481 -25.7472 5.43793 -29.7568 5.57343 -30.7638C5.21199 -22.6917 5.47734 -25.4247 5.53025 -24.6826C5.549 -24.4262 5.43673 -22.2711 5.42338 -21.5668C5.37569 -18.9621 5.70019 -26.0951 5.7809 -27.2161C6.12583 -32.0004 5.30954 -15.8595 5.44788 -16.2523C5.45493 -16.2676 5.97098 -24.8673 6.00887 -25.4025C6.2542 -28.8928 5.86689 -22.4074 5.87619 -21.7696C5.89319 -20.604 5.84085 -18.5466 6.05949 -21.062C6.12387 -21.8071 6.46082 -27.1664 6.29973 -23.0159C6.27866 -22.4725 6.12963 -19.6289 6.12651 -19.4621C6.08214 -16.681 6.54134 -25.6164 6.75167 -28.6398C6.96197 -31.6626 6.73265 -25.4898 6.65926 -23.7111C6.46996 -19.1097 6.52378 -21.7475 6.49824 -21.2963C6.19466 -15.9268 6.30458 -16.8483 6.32922 -16.3921C5.88841 -7.63027 5.98216 -8.15274 6.35657 -15.9543C6.39736 -16.8064 6.31838 -15.9913 6.32922 -16.3921C6.81053 -24.9861 6.94029 -26.0832 6.61086 -18.0461C6.4564 -14.2792 6.19622 -9.89129 6.39351 -11.4913C6.48282 -12.2135 6.77091 -18.2473 6.90138 -19.8896C7.19928 -23.6368 7.04938 -18.0023 7.20375 -18.8834C7.25978 -19.2033 7.38998 -22.5075 7.43408 -22.8399C7.55166 -23.7324 7.48827 -21.2514 7.62509 -22.517C7.6377 -22.6358 7.79843 -26.0934 7.82305 -26.1363C8.01295 -26.5291 8.04774 -24.3075 8.22257 -24.237C8.30703 -24.2045 8.55774 -26.1032 8.62679 -25.7154C8.74759 -25.0636 8.67904 -20.0273 8.87383 -21.2416C8.99975 -22.0189 9.15756 -25.4774 9.31475 -27.8312C9.61913 -32.394 9.32665 -24.2081 9.27881 -22.9407C9.27718 -22.8988 9.16177 -22.0875 9.11044 -20.3106C8.94435 -16.6113 9.27715 -22.9247 9.27881 -22.9407C9.24811 -22.1219 9.35518 -21.3296 9.4181 -21.989C9.45241 -22.3494 9.61094 -25.6256 9.62566 -25.7516C9.97095 -28.6731 10.2132 -29.4955 10.3345 -27.9536C10.3347 -27.8873 10.1421 -24.2234 10.1448 -24.1131C10.1773 -22.478 10.4803 -26.9567 10.7114 -29.6131C10.9424 -32.2683 10.9719 -31.3735 10.7076 -25.0803C10.8204 -25.8686 10.7819 -23.0824 10.7552 -21.3919C10.7286 -19.7015 11.1013 -26.8337 11.1137 -26.9744C11.5075 -31.4792 11.393 -27.3918 11.5289 -26.7478C11.5926 -26.4294 11.8067 -27.4558 11.9336 -28.2313C12.0347 -28.8561 11.9908 -27.1824 12.1089 -28.248C12.1247 -28.3903 12.2783 -31.5666 12.2872 -31.6887C12.5521 -35.4847 12.1214 -27.7227 12.0652 -26.3354C11.8604 -21.2904 11.7559 -18.6032 11.9675 -20.9706C12.016 -21.5128 12.6478 -32.6884 12.7191 -33.3402C12.8107 -34.1671 12.5873 -30.1612 12.6891 -31.1291C12.6976 -31.2083 12.823 -33.6803 12.8496 -33.5697C12.975 -33.0886 13.0639 -31.6419 13.2307 -31.8818C13.253 -31.9051 13.4263 -35.8273 13.4618 -35.9255C13.6283 -36.383 13.7765 -36.2299 13.8234 -34.3875C13.8342 -33.9217 13.6723 -31.1775 13.6382 -30.3619C13.4321 -25.4275 13.8632 -32.5904 13.8809 -32.7264C14.3131 -36.1571 14.1728 -29.6619 14.5936 -32.7362C14.6172 -32.9167 15.1189 -40.5935 14.8309 -34.0023C14.8119 -33.5638 14.5157 -26.8204 14.7935 -31.4272C14.8109 -31.7154 14.9583 -35.1872 14.9924 -34.8309C15.0266 -34.4753 15.2288 -36.7885 15.1055 -32.9719C15.0671 -31.7696 14.7758 -25.0426 15.1186 -30.3993C15.1422 -30.7732 15.8669 -42.888 15.4773 -34.5238C15.4131 -33.1469 14.9547 -24.2981 15.2678 -28.831C15.3282 -29.7098 15.4009 -31.6851 15.5047 -32.9155C15.6644 -34.8119 15.6262 -32.4376 15.9041 -36.3757C15.9531 -37.0729 16.3167 -43.0763 16.1294 -38.5152C16.1 -37.8009 15.9356 -34.8472 15.9427 -34.5154C15.9751 -32.9237 16.198 -34.8936 16.2107 -32.8435C16.2155 -32.1232 15.9503 -27.3483 15.9282 -26.0662C15.9061 -24.7846 15.93 -23.5493 16.0865 -25.7296C16.243 -27.9107 16.5826 -35.525 16.6811 -36.1307C17.1058 -38.7613 17.1751 -34.2808 17.432 -33.6128C17.4701 -33.5131 17.5735 -36.2386 17.6397 -36.2871C17.8871 -36.4776 18.4261 -39.0106 18.3338 -33.2126C18.2629 -28.5685 17.8741 -25.05 17.9044 -23.1572C17.9196 -22.2542 18.4372 -31.1004 18.4661 -31.3782C18.7538 -34.201 18.6526 -30.2758 18.8415 -31.472C18.8805 -31.7202 19.0379 -35.3084 19.0691 -35.48C19.1763 -36.0982 19.1779 -34.493 19.2668 -34.782C19.3072 -34.9199 19.441 -37.6597 19.4608 -37.4467C19.5098 -36.9686 19.5155 -35.8138 19.4552 -33.2426C19.4497 -33.0083 19.2323 -29.6027 19.2795 -29.4732C19.3568 -29.2733 19.3339 -26.7349 19.5678 -29.3456C19.6381 -30.1309 19.9589 -36.3918 19.8028 -32.0646C19.7702 -31.1609 19.3693 -23.6436 19.7759 -30.1358C19.8437 -31.2146 20.4166 -39.97 20.1896 -34.3191C20.13 -32.8318 19.8572 -26.6776 19.9422 -27.6426C19.9549 -27.7966 20.1072 -31.1606 20.1534 -31.4872C20.3134 -32.5794 20.4028 -32.2151 20.566 -33.2629C20.6097 -33.5493 20.7442 -37.0316 20.8035 -37.3474C20.9669 -38.221 21.0684 -37.3274 21.1267 -36.2323C21.1478 -35.822 20.9717 -32.9407 20.9588 -32.6268C20.7475 -27.5217 21.1278 -34.4076 21.1646 -34.8084C21.3898 -37.2079 21.3045 -33.9685 21.4426 -34.8198C21.4804 -35.0461 21.6294 -38.331 21.6495 -38.6236C21.8494 -41.4819 21.5084 -35.5863 21.5093 -34.9345C21.5108 -33.0889 21.6298 -33.3474 21.7462 -33.7622C21.7892 -33.9194 21.9443 -37.7293 21.9806 -37.8264C22.2045 -38.4728 22.3825 -38.0984 22.4564 -35.9899C22.47 -35.586 22.299 -32.6549 22.2719 -31.9849C22.081 -27.2969 22.4816 -33.6842 22.5295 -34.2921C22.7483 -37.0679 22.6458 -34.4734 22.738 -34.954C23.1861 -37.3471 23.5075 -35.6089 23.7617 -34.5322C24.0971 -33.146 24.2685 -30.3406 24.6892 -31.0454C24.7161 -31.0865 24.8898 -34.9885 24.9156 -35.074C25.236 -36.0004 25.429 -34.4624 25.755 -35.5754C25.7813 -35.6598 25.938 -39.3593 25.9864 -39.6192C26.0873 -40.178 26.1747 -39.972 26.1886 -38.7875C26.196 -38.2167 25.9858 -35.0461 25.9965 -34.5364C26.0175 -33.5158 26.0763 -33.1718 26.1644 -33.461C26.1802 -33.5101 26.1968 -33.5775 26.2142 -33.6629C26.2656 -33.9213 26.4005 -37.7062 26.4522 -37.7474C26.8041 -38.1056 27.1521 -38.741 27.2417 -33.8263C27.2472 -33.4888 26.8768 -25.8011 26.9992 -27.2728C27.1111 -29.4058 27.2383 -31.9152 27.3556 -34.1952C27.8977 -35.3991 28.2314 -32.7107 28.693 -32.2743C28.7125 -32.2567 28.8833 -36.3313 28.922 -36.3181C29.1402 -36.2467 29.4212 -37.3637 29.4447 -33.3041C29.4476 -32.907 29.076 -25.7425 29.1966 -26.8228C29.2168 -27.02 29.3679 -27.9704 29.472 -29.5245C29.4873 -29.759 29.637 -33.1043 29.6742 -33.2002C29.8877 -33.6986 30.0441 -32.9253 30.1248 -30.8728C30.1375 -30.5351 29.9295 -26.975 29.9369 -26.7036C29.991 -24.8056 30.2873 -27.5051 30.2376 -24.2661C30.1986 -22.0855 29.8826 -15.9293 29.6393 -9.86652C29.6115 -9.01085 29.6081 -8.87524 29.4557 -5.34825C29.139 3.5233 28.683 13.2333 28.3356 22.6891C28.3254 23.708 28.3098 23.6707 28.6948 24.0025C28.797 24.0854 28.9577 24.1907 29.0688 24.339C29.191 24.4873 29.2061 24.6794 29.2052 24.9388C29.1984 25.1981 29.234 25.5244 29.145 25.9396C29.0544 26.355 28.7789 26.8568 28.5751 27.4673C28.2346 27.7886 27.9324 29.4101 27.8428 31.0788C27.7635 32.2316 27.6573 35.8207 27.5311 37.2952C27.4139 38.7688 27.506 35.7603 27.3671 37.493C27.2358 39.2476 27.0541 43.3279 26.9385 43.8064ZM10.6375 -13.8361C10.5174 -10.408 11.1665 -22.9532 10.9537 -19.9546C10.9427 -19.7948 10.6432 -14.0043 10.6375 -13.8361ZM3.87614 -12.1949C3.66542 -6.65773 4.13055 -14.7917 4.29813 -19.0678C4.46547 -23.3394 3.9399 -13.8734 3.87614 -12.1949ZM2.92367 -8.19315C2.78484 -3.82595 3.70731 -21.6154 3.43337 -18.0237C3.41775 -17.8207 2.9317 -8.44674 2.92367 -8.19315ZM29.351 -8.1505C29.3442 -7.98381 29.3786 -7.81937 29.387 -7.9845C29.6013 -11.9685 29.5352 -12.2944 29.351 -8.1505ZM1.95843 -3.8327C1.86169 -1.42485 2.07925 -4.19901 2.19958 -7.19317C2.29636 -9.60188 2.07872 -6.82792 1.95843 -3.8327ZM12.824 -0.299965C12.8154 -0.112973 12.8389 0.0570074 12.8922 -0.999789C13.0639 -4.40351 12.9702 -3.44521 12.824 -0.299965ZM0.689254 -3.69222C0.841108 -3.01306 0.202793 11.6882 0.0849733 10.0196C0.0636134 9.71772 0.403551 5.33737 0.424569 4.0101C0.462489 1.592 -0.0658384 10.8161 0.0996239 5.86727C0.130093 4.96147 0.682264 -3.76361 0.69063 -3.71268C0.690173 -3.70586 0.689711 -3.69904 0.689254 -3.69222ZM9.89915 1.23443C9.89178 1.40038 9.92779 1.55994 9.93725 1.39552C10.1646 -2.58613 10.0922 -2.90988 9.89915 1.23443ZM14.291 7.5524C14.2754 7.90603 14.361 8.24189 14.3809 7.91634C14.767 1.406 14.595 0.707687 14.291 7.5524ZM6.45479 10.263C6.20173 14.2674 6.11981 14.7362 6.33838 9.70264C6.37279 9.9722 6.41913 10.014 6.45479 10.263Z" fill="#232322"/>
</svg>
