<svg width="13" height="3" viewBox="0 0 13 3" fill="none" xmlns="http://www.w3.org/2000/svg">
<path d="M-6.25433 -38.2484C-7.18702 -39.2026 -7.02039 -38.037 -6.79609 -36.4464C-6.71926 -35.9541 -6.29498 -33.7685 -6.21962 -33.3308C-6.06965 -32.4782 -6.28109 -33.5494 -6.0859 -32.5369C-6.01861 -32.1907 -5.34768 -28.7286 -5.29164 -28.445C-4.98616 -26.9167 -5.13815 -27.8023 -4.96652 -27.072C-4.70439 -25.9629 -4.46966 -25.0781 -4.25836 -24.3391C-3.78632 -22.6775 -3.46173 -21.7471 -3.10287 -20.6858C-2.9332 -20.1829 -2.1982 -17.0669 -2.41628 -18.4513C-2.44267 -18.6159 -3.08485 -21.644 -3.13591 -21.8939C-3.91859 -25.7204 -2.63817 -19.604 -2.45116 -18.795C-1.71284 -15.6004 -1.57821 -15.3375 -1.76718 -16.5188C-1.84952 -17.0302 -3.16329 -23.0365 -2.41536 -19.6674C-2.36467 -19.4398 -1.68187 -16.2244 -1.60125 -15.8832C-1.41965 -15.1157 -1.51183 -15.6968 -1.44423 -15.445C-1.31011 -14.9434 -1.3134 -14.9765 -1.28219 -14.945C-1.23386 -14.8738 -0.848151 -13.2854 -0.971955 -14.0207C-1.00058 -14.1872 -1.72755 -17.4775 -1.83853 -18.0402C-1.94947 -18.602 -1.85903 -18.3293 -1.67944 -17.5554C-1.49959 -16.7812 -0.937193 -14.1932 -0.805535 -13.6005C0.306941 -8.59887 -1.17619 -15.5388 -1.21048 -15.711C-1.77244 -18.6492 -0.831417 -14.717 -0.752571 -14.7465C-0.696776 -14.7767 -0.926317 -16.093 -0.831038 -15.927C-0.713955 -15.7165 -0.2508 -13.9493 -0.254606 -14.2705C-0.254277 -14.3006 -1.14844 -18.1603 -1.15022 -18.2047C-1.16788 -18.6737 -0.991088 -18.2714 -0.294773 -15.6874C-0.223962 -15.4249 0.55692 -12.0351 0.675446 -11.5704C1.38001 -8.79934 3.06686 -2.14142 -0.392431 -16.8864C-0.220563 -16.3193 -0.0363184 -15.7351 0.706652 -12.7737C1.18526 -10.8679 2.04471 -7.17702 1.69697 -8.75645C1.61946 -9.10835 0.838892 -12.3339 0.780659 -12.6175C0.535403 -13.808 0.82972 -12.7692 0.464356 -14.445C0.388161 -14.7934 -0.311926 -17.6835 -0.43562 -18.2045C-1.43819 -22.4237 0.274707 -15.4625 0.405007 -14.9581C1.37029 -11.1951 1.04805 -12.69 1.11699 -12.6092C1.13349 -12.5889 0.171284 -16.4655 0.15257 -16.5852C0.0673593 -17.1537 0.199948 -16.8328 0.676875 -15.125C0.785329 -14.7358 1.59289 -11.4306 1.6868 -11.0757C2.09229 -9.55139 0.549647 -15.7898 0.907175 -14.4479C0.98072 -14.1731 1.68106 -11.3458 1.75919 -11.0356C2.98694 -6.16639 1.2811 -13.0741 1.24619 -13.2273C0.771218 -15.321 2.60431 -8.12275 2.3977 -9.15532C2.37075 -9.28603 1.45983 -12.8572 1.4385 -13.0059C1.42817 -13.0767 1.42027 -13.1378 1.4148 -13.1893C1.34022 -13.8746 1.69951 -12.8645 2.48201 -10.2347C2.61149 -9.79988 3.28751 -7.11509 3.3733 -6.78475C4.71701 -1.62414 2.95241 -8.54794 2.89063 -8.80988C2.45118 -10.6968 3.99097 -4.90589 1.89364 -13.1538C2.81966 -10.3427 1.80393 -15.0167 3.9347 -7.69338C3.95966 -7.60862 4.84688 -4.20334 4.89286 -4.04893C5.45631 -2.154 4.05796 -7.44134 2.40129 -13.9219C1.98512 -15.5492 4.06545 -7.74599 4.21863 -7.1742C4.78244 -5.06692 6.10057 -0.000305293 6.21121 0.407416C7.08192 3.60855 2.68242 -13.1365 2.71872 -13.1518C2.72724 -13.1242 3.53138 -10.0406 3.61503 -9.73498C3.87756 -8.77542 3.56592 -10.0028 3.85425 -8.94437C4.52091 -6.49506 6.66576 1.63972 5.45634 -3.10488C5.29926 -3.72063 2.79788 -13.2176 2.94983 -12.7779C3.01244 -12.5945 3.03055 -12.7733 3.20933 -12.1622C3.38775 -11.5518 4.18027 -8.48789 4.2163 -8.35566C5.32527 -4.32013 5.74869 -2.6381 7.34583 3.34822C8.93704 9.31194 5.19023 -4.92479 4.78215 -6.51647C4.37526 -8.10365 5.28639 -4.77306 5.59967 -3.61431C5.91306 -2.45506 6.41357 -0.507319 6.59359 0.147966C7.77048 4.4292 4.75889 -6.92522 4.18166 -9.1894C2.81454 -14.5505 5.61718 -3.99876 5.92351 -2.97314C6.00631 -2.69619 5.36729 -5.09921 5.3167 -5.32636C5.12478 -6.19411 6.00969 -2.90442 5.25522 -5.93568C5.13213 -6.4296 3.49818 -12.787 4.74004 -8.13271C4.91902 -7.46155 5.60095 -4.82777 5.76975 -4.24201C6.02298 -3.3629 6.21204 -2.79771 6.00471 -3.68347C5.85131 -4.33883 4.6959 -8.67037 5.07039 -7.32887C5.23753 -6.72984 5.88411 -4.18818 6.14257 -3.27439C6.40076 -2.36083 6.41629 -2.48399 6.41064 -2.57611C6.40437 -2.67013 5.53457 -5.95755 5.47798 -6.17953C5.15435 -7.45133 4.77331 -9.04656 4.77737 -9.04344C4.82461 -9.48484 6.40714 -3.97388 6.0755 -5.84779C6.0509 -5.99013 5.14285 -9.45918 5.12981 -9.51668C4.79291 -10.9814 7.15468 -1.74445 7.98243 1.33765C6.15261 -5.70537 6.49957 -4.43417 6.32678 -5.2138C6.24214 -5.59524 5.52863 -8.32107 5.45753 -8.60061C4.40501 -12.7489 5.80438 -7.40117 6.091 -6.30728C7.14587 -2.28353 5.92935 -7.0456 6.63435 -4.35603C7.33377 -1.68649 8.33787 2.27952 8.35031 2.22218C7.70592 -0.301744 5.98284 -6.88731 5.72723 -7.96075C4.76277 -12.0217 6.24135 -6.88727 6.44052 -6.36559C6.64028 -5.84456 6.54037 -6.31508 6.80976 -5.41228C7.29615 -3.77974 6.02125 -8.66675 5.49109 -10.9173C4.96182 -13.1678 8.01334 -1.12163 8.67964 1.46534C9.34512 4.05129 8.67171 1.38636 9.04123 2.807C9.41046 4.22735 9.84504 5.99101 9.99647 6.52108C10.1473 7.05076 9.01691 2.43659 8.3343 -0.27197C6.88745 -6.01008 5.33548 -12.024 5.91877 -9.92053C5.95324 -9.79566 6.74989 -6.62671 6.84101 -6.30914C7.53804 -3.89083 7.65547 -3.75973 8.27526 -1.62157C8.36167 -1.3226 9.242 2.20424 9.30224 2.41814C9.93159 4.65726 8.4106 -1.28018 6.7838 -7.89177C8.98816 0.896896 10.3612 6.26772 10.4177 6.30868C10.4529 6.33626 9.48434 2.49928 8.82353 -0.210527C8.62446 -1.02743 9.30536 1.60321 8.8563 -0.20289C7.38912 -6.10696 5.7135 -12.7079 6.42492 -10.0905C6.45848 -9.96608 7.26012 -6.73392 7.31684 -6.54022C7.68683 -5.27204 6.14983 -11.447 6.01965 -12.2088C5.91754 -12.8065 6.93258 -9.06047 7.13304 -8.45998C9.58612 1.42735 9.06623 -0.847106 7.39703 -7.66971C7.49729 -7.3983 7.436 -7.79217 7.69901 -6.85712C7.78873 -6.53834 8.48863 -3.67314 8.56631 -3.36407C9.78332 1.48482 8.15981 -5.15291 8.10274 -5.41477C7.55412 -7.96164 8.8477 -2.94628 7.7126 -7.87942C7.67158 -8.05706 5.99392 -14.9316 7.24106 -9.91753C7.32675 -9.57184 8.06875 -6.43885 8.1607 -6.20503C8.25344 -5.97083 9.21275 -2.30022 8.48211 -5.49711C8.30585 -6.26666 6.97805 -11.8557 8.06004 -7.49973C8.20682 -6.9082 8.68239 -4.93521 8.95303 -3.83877C9.81508 -0.345002 8.13658 -7.29761 9.5844 -1.39632C11.0323 4.50468 12.1315 8.92049 11.1884 4.83555C11.161 4.71677 9.84013 -0.796109 9.87532 -0.712394C9.93268 -0.574033 10.2398 0.566706 10.2538 0.525358C10.2601 0.503574 9.42955 -2.91719 9.41638 -2.98024C9.03072 -4.91629 9.81884 -1.87815 10.2142 -0.572312C10.2876 -0.325984 9.21717 -5.00554 10.1249 -1.32053C11.1173 2.71373 15.0869 19.5333 14.196 15.5131C13.8372 13.9057 8.82167 -7.43782 11.4879 3.6043C10.9384 0.841842 12.3585 6.48016 11.5377 2.54452C11.5014 2.37015 10.1234 -3.59176 10.1534 -3.51324C10.2003 -3.38508 10.8588 -0.601948 10.9127 -0.421059C11.1548 0.407063 10.6437 -1.98626 10.7763 -1.62632C10.825 -1.49566 11.4871 1.38644 11.5443 1.54284C11.6007 1.69661 10.7366 -2.10036 11.188 -0.274447C11.5321 1.11734 13.3422 8.86806 13.5756 9.76635C11.8132 2.11579 11.8679 2.26911 11.4371 0.241618C11.3536 -0.151763 10.734 -2.81316 10.663 -3.13662C10.3604 -4.51216 10.8796 -2.30777 10.5487 -3.80476C10.4693 -4.16431 9.86939 -6.77748 9.77069 -7.21894C8.90928 -11.0724 10.2933 -5.20225 10.5329 -4.17987C11.4455 -0.29763 10.6774 -3.69916 11.0448 -2.17217C11.4115 -0.645268 11.8242 1.27399 12.0557 2.19852C12.5342 4.11089 12.4877 3.67739 12.5553 3.78838C12.5785 3.81655 11.7743 0.32913 11.7592 0.252129C11.5927 -0.640908 12.4682 3.06416 10.9117 -3.89282C15.0067 14.0794 10.5372 -5.64117 11.4017 -2.05351C11.4715 -1.76331 13.3965 6.73821 13.665 7.9895C13.9335 9.23957 13.3115 6.58671 13.7331 8.53655C13.8316 8.99424 15.6129 16.9658 15.7195 17.449C16.5503 21.2257 13.6622 8.52395 13.5021 7.82666C11.7745 0.30148 13.6922 8.88969 13.8198 9.48423C14.4013 12.2092 13.9629 10.4303 14.3754 12.376C14.6418 13.6335 16.5435 21.9514 16.4712 21.7C16.2337 20.8688 13.547 9.27306 15.8138 19.3418C16.2975 21.4892 18.4005 30.5747 16.7207 23.4365C16.6153 22.9864 15.0807 16.4558 16.0203 20.5937C16.1389 21.1154 16.7507 23.7635 16.7998 23.9865C17.1166 25.4291 16.6182 23.322 16.8348 24.3363C17.0517 25.3505 17.3804 26.8612 17.1525 25.9678C17.0164 25.4335 15.8544 20.5048 15.5674 19.2988C14.7408 15.8244 16.0504 21.5316 15.0586 17.3221C14.0606 13.0918 12.5855 6.65791 11.916 3.93034C13.5188 10.8072 15.1627 17.866 16.7746 24.7819C16.6617 24.5529 16.083 22.3434 16.0949 22.661C16.0981 22.7073 16.9749 26.4008 17.001 26.5455C17.1079 27.1399 16.4588 24.5126 16.6734 25.5693C16.8429 26.4013 17.7414 30.319 17.9504 31.3101C16.0687 23.4522 16.6614 26.1307 16.4622 25.4192C16.3929 25.1734 15.8931 23.0741 15.7223 22.391C15.0898 19.865 16.7607 26.807 17.0144 27.9017C18.0986 32.5734 14.3376 16.8556 14.388 17.2541C14.3889 17.27 16.372 25.6535 16.4944 26.1758C17.2897 29.5825 15.7911 23.261 15.6288 22.6454C15.3322 21.5203 14.8322 19.5245 15.3934 21.9848C15.5594 22.7136 16.799 27.9381 15.8078 23.9048C15.6779 23.3767 15.0107 20.6085 14.9698 20.4468C14.2834 17.7529 16.385 26.4499 17.081 29.3991C17.7773 32.3476 16.2963 26.3513 15.8703 24.6229C14.7692 20.1514 15.4178 22.7076 15.3121 22.2682C14.0545 17.0393 14.2512 17.9444 14.1274 17.5068C12.055 8.98225 12.1539 9.50012 14.0073 17.0875C14.2097 17.9163 14.0294 17.1182 14.1274 17.5068C16.1433 25.8748 16.3843 26.9507 14.4533 19.1424C13.5479 15.4828 12.5201 11.2092 12.8585 12.7818C13.0113 13.4917 14.451 19.3582 14.826 20.9618C15.6829 24.6205 14.2979 19.1583 14.4716 20.0299C14.5351 20.3462 15.3367 23.5542 15.4074 23.881C15.5979 24.7582 14.9842 22.3542 15.2641 23.5941C15.2906 23.7105 16.1237 27.0701 16.1271 27.1147C16.1694 27.5182 15.5913 25.3774 15.5175 25.3324C15.4823 25.3122 15.8937 27.177 15.7728 26.8116C15.5691 26.1979 14.2825 21.3314 14.5351 22.5286C14.6968 23.295 15.5463 26.6511 16.1094 28.9418C17.2025 33.3816 15.164 25.4491 14.8475 24.221C14.837 24.1804 14.6627 23.3827 14.2153 21.6627C13.303 18.0739 14.8438 24.2054 14.8475 24.221C14.6438 23.4275 14.4014 22.6781 14.5536 23.3223C14.6368 23.6743 15.4431 26.8537 15.4714 26.9771C16.1265 29.8392 16.27 30.6628 15.8271 29.193C15.8097 29.1291 14.9066 25.573 14.8767 25.4671C14.4353 23.8961 15.5183 28.2519 16.1468 30.8416C16.7749 33.4303 16.5313 32.5717 14.9501 26.4749C15.1228 27.2493 14.3972 24.5607 13.9557 22.9296C13.5145 21.2985 15.2883 28.2166 15.3217 28.3538C16.3918 32.7447 15.3438 28.7933 15.1265 28.1923C15.0201 27.8947 15.2243 28.9119 15.3904 29.6756C15.5246 30.2908 15.091 28.6741 15.3374 29.7159C15.3703 29.855 16.1712 32.9324 16.201 33.0512C17.1318 36.7402 15.1922 29.2122 14.8386 27.8696C13.5526 22.9872 12.8645 20.3877 13.4285 22.6951C13.5573 23.2236 16.3507 34.0628 16.5029 34.6996C16.6951 35.5078 15.6918 31.6231 15.9185 32.5683C15.937 32.6457 16.5605 35.041 16.5221 34.9382C16.3516 34.4928 15.9315 33.1139 15.9396 33.3682C15.9384 33.3937 16.9395 37.1899 16.9542 37.2893C17.0213 37.7528 16.9293 37.6266 16.4138 35.862C16.2838 35.4157 15.5954 32.7544 15.386 31.9655C14.1185 27.1924 15.9116 34.1404 15.9425 34.2736C16.7227 37.6338 15.0019 31.3717 15.6856 34.3887C15.726 34.5657 17.6382 42.0168 15.943 35.641C15.8302 35.2168 14.0964 28.6935 15.2518 33.1615C15.3241 33.441 16.2188 36.7987 16.1081 36.4617C15.9975 36.1253 16.5534 38.3785 15.5544 34.6935C15.2396 33.5327 13.5075 27.0262 14.8431 32.2246C14.9366 32.5874 17.9766 44.3365 15.8337 36.2422C15.481 34.9098 13.2326 26.339 14.3531 30.7418C14.5704 31.5954 15.0842 33.5039 15.3807 34.702C15.8376 36.5486 15.2006 34.2622 16.1696 38.0888C16.3413 38.7662 17.8433 44.5898 16.6645 40.1798C16.48 39.4891 15.735 36.6263 15.6405 36.3088C15.1877 34.7859 15.6374 36.7136 15.0658 34.7475C14.865 34.0567 13.6624 29.4281 13.3186 28.1934C12.975 26.9591 12.6249 25.7768 13.1581 27.8963C13.6914 30.0166 15.643 37.3843 15.7662 37.9825C16.2988 40.5811 15.0271 36.2921 14.7171 35.6969C14.6707 35.608 15.3739 38.2431 15.3538 38.3018C15.2862 38.529 15.6961 41.0641 14.1432 35.4795C12.9032 31.0056 12.1386 27.5537 11.6049 25.7406C11.3516 24.8753 13.5073 33.4702 13.5673 33.7428C14.1868 36.5093 13.1622 32.7196 13.3848 33.9055C13.4306 34.1517 14.3263 37.6297 14.3553 37.8009C14.4218 38.1862 14.2735 37.7262 14.1603 37.4006C14.0926 37.206 14.0374 37.0594 14.0475 37.17C14.0618 37.3105 14.7339 39.97 14.6636 39.7693C14.5032 39.3199 14.1831 38.2114 13.518 35.7276C13.4576 35.5012 12.655 32.1846 12.5936 32.0691C12.4958 31.8918 11.8231 29.4457 12.3976 32.0017C12.5708 32.7705 14.0777 38.8559 12.9993 34.6626C12.7739 33.7869 10.9762 26.4768 12.4955 32.8014C12.7495 33.8521 14.7738 42.389 13.3845 36.907C13.0188 35.4641 11.5249 29.4879 11.7363 30.4328C11.7703 30.5835 12.5845 33.851 12.6457 34.1742C12.8474 35.2563 12.6973 34.9232 12.8845 35.9631C12.9358 36.2474 13.7861 39.6267 13.8356 39.9424C13.9731 40.8154 13.6724 39.9754 13.3481 38.9316C13.2269 38.5404 12.5674 35.7302 12.4918 35.4253C11.2655 30.4653 12.8652 37.1736 12.9491 37.567C13.4508 39.9228 12.6475 36.7841 12.7921 37.631C12.8297 37.8563 13.6056 41.0517 13.6707 41.3376C14.3042 44.1318 12.9553 38.3825 12.7839 37.7542C12.2997 35.9749 12.2991 36.2467 12.3398 36.6689C12.3558 36.8287 13.2595 40.5329 13.2632 40.6336C13.3014 41.2998 13.0964 40.9732 12.5077 38.9522C12.3953 38.565 11.7393 35.7032 11.5822 35.0512C10.4855 30.4895 11.9008 36.7306 12.0287 37.3267C12.6159 40.0478 12.0094 37.5232 12.0795 38.0045C12.431 40.3999 11.7982 38.7808 11.3842 37.7854C10.8446 36.5057 10.058 33.8196 9.99781 34.5758C9.99303 34.6203 10.8505 38.4308 10.8569 38.5182C10.8997 39.473 10.4149 38.0168 10.4952 39.1537C10.5 39.2403 11.3043 42.8547 11.3378 43.1154C11.4119 43.6757 11.3125 43.4912 11.0183 42.3452C10.8762 41.7931 10.2362 38.6809 10.1074 38.1885C9.80616 37.0348 9.69948 36.788 9.773 37.3793C9.80556 37.6389 10.6317 41.3348 10.6116 41.3838C10.4948 41.793 10.426 42.4741 9.22789 37.7147C9.14575 37.3878 7.56143 29.8561 7.83626 31.3065C8.27018 33.398 8.78305 35.8577 9.24804 38.0928C9.2173 39.3555 8.40224 36.7989 8.05515 36.448C8.04079 36.4341 8.86575 40.4278 8.84161 40.4213C8.80367 40.4128 8.78328 40.4839 8.75777 40.5227C8.68316 40.6327 8.55178 40.4887 7.86212 37.5741C7.77031 37.1882 6.38384 30.1493 6.55423 31.2216C6.5868 31.417 6.70669 32.3686 6.98969 33.9001C7.03253 34.1311 7.69101 37.4144 7.68745 37.5145C7.64989 38.0401 7.3436 37.321 6.74068 35.3526C6.64273 35.0285 6.02206 31.5167 5.94793 31.2552C5.41528 29.4278 5.7314 32.1317 4.50051 29.0496C3.57874 26.9838 2.87197 20.8561 1.78839 14.8775C1.70775 14.0303 0.935422 13.9629 0.691906 10.4339C0.371897 1.56092 -0.476254 -8.12617 -0.915308 -17.5792C-0.972932 -18.599 -0.214129 -18.5973 0.144573 -18.9175C0.31175 -19.0794 0.310837 -19.3299 0.309852 -19.8487C0.285345 -20.367 0.408037 -21.1545 0.0861149 -22.3838C0.0726314 -22.5484 -0.541286 -23.036 -1.23079 -23.6539C-1.90012 -24.2739 -2.41105 -25.05 -2.64352 -25.8661C-2.98914 -26.9908 -2.95434 -30.6061 -3.59169 -32.0237C-4.23571 -33.4369 -4.15664 -30.4103 -4.70057 -32.0868C-5.22915 -33.7864 -5.78597 -37.8338 -6.25433 -38.2484ZM11.9793 15.6402C11.1036 12.324 14.2338 24.4897 13.5052 21.5738C13.4663 21.4184 12.0223 15.8028 11.9793 15.6402ZM13.9189 13.1185C12.626 7.73064 14.4711 15.666 15.4675 19.8276C16.4613 23.985 14.3101 14.7519 13.9189 13.1185ZM13.2766 9.11454C12.2565 4.86658 16.2806 22.2195 15.4974 18.7045C15.4532 18.5058 13.3358 9.36122 13.2766 9.11454ZM2.22832 13.0676C2.19899 12.9034 2.11487 12.7527 2.1388 12.9163C2.75794 16.858 2.96371 17.15 2.22832 13.0676ZM12.5724 4.75734C12.024 2.41092 12.6154 5.12914 13.2984 8.04669C13.8475 10.3939 13.2542 7.67626 12.5724 4.75734ZM7.48127 2.9575C7.43339 2.77654 7.37768 2.61689 7.64662 3.64028C8.51283 6.93642 8.28648 6.00141 7.48127 2.9575ZM13.0217 4.44512C12.8037 3.80687 9.51621 -10.536 9.97097 -8.9364C10.0527 -8.64687 10.9671 -4.35081 11.2785 -3.06111C11.844 -0.711049 9.8436 -9.73096 10.9658 -4.90883C11.1702 -4.02599 13.0407 4.51357 13.0261 4.46516C13.0246 4.45848 13.0232 4.4518 13.0217 4.44512ZM8.20534 1.03118C8.16348 0.870438 8.10633 0.722506 8.14699 0.882092C9.1324 4.74651 9.24721 5.04701 8.20534 1.03118ZM4.75825 -4.35817C4.66758 -4.70033 4.54328 -5.01 4.62455 -4.69415C6.25374 1.62068 6.512 2.26491 4.75825 -4.35817ZM7.19926 -8.19644C6.25406 -12.0956 6.16792 -12.5609 7.3957 -7.67467C7.31045 -7.92909 7.27978 -7.96207 7.19926 -8.19644Z" fill="#232322"/>
</svg>
