<svg height="10" viewBox="0 0 0 10" fill="none" xmlns="http://www.w3.org/2000/svg">
<path d="M1.97966 0.0869383C2.03177 0.138085 1.97605 0.205131 1.89958 0.256084C1.87587 0.272053 1.76985 0.263967 1.7487 0.274991C1.70748 0.29655 1.75948 0.316636 1.71037 0.337942C1.69358 0.345002 1.52565 0.336213 1.51189 0.343617C1.43767 0.384188 1.48045 0.42257 1.44475 0.46367C1.26863 0.666112 1.20559 0.865107 1.12908 1.07003C1.10399 1.13759 0.951589 1.21973 1.01824 1.28952C1.02617 1.29767 1.17357 1.29281 1.18572 1.29436C1.3717 1.31867 1.07413 1.31059 1.0346 1.32646C0.878492 1.38946 0.864916 1.45952 0.921802 1.52015C0.946436 1.54595 1.23921 1.52009 1.07488 1.54606C1.06378 1.54786 0.907247 1.54132 0.890552 1.54839C0.853004 1.56443 0.880982 1.59487 0.86858 1.6073C0.843886 1.63127 0.845461 1.63523 0.843678 1.65789C0.839877 1.68888 0.762068 1.72573 0.797535 1.75897C0.805571 1.76607 0.96603 1.75667 0.993335 1.76799C1.0206 1.77932 1.00699 1.80928 0.969166 1.81938C0.931321 1.82949 0.805203 1.82518 0.776295 1.82697C0.532301 1.84168 0.870232 1.87634 0.87859 1.8808C1.02099 1.96211 0.828481 2.03184 0.829029 2.10816C0.829854 2.1661 0.893408 2.22806 0.884693 2.28319C0.873689 2.34888 0.786738 2.40454 0.801686 2.46835C0.803078 2.47509 0.991741 2.4672 0.993824 2.47542C1.01578 2.56281 0.995212 2.64958 0.867847 2.73659C0.854908 2.74532 0.689263 2.73407 0.666432 2.74279C0.530302 2.79616 0.203286 2.88062 0.924488 2.91232C0.896326 2.94847 0.867229 2.99237 0.721852 3.02471C0.628284 3.04557 0.447832 3.02531 0.524831 3.05093C0.541987 3.05671 0.700019 3.04919 0.713795 3.05786C0.771649 3.09434 0.720278 3.1342 0.80193 3.17029C0.818909 3.17763 0.960512 3.17562 0.986011 3.1777C1.19252 3.19518 0.851149 3.22428 0.826344 3.23063C0.641369 3.27893 0.714161 3.31421 0.709645 3.35921C0.708517 3.36965 0.898721 3.35731 0.904468 3.36736C0.931729 3.41947 0.915381 3.47346 0.830982 3.52449C0.811752 3.53584 0.649732 3.5254 0.632253 3.53083C0.557152 3.55474 0.863165 3.56005 0.797047 3.58298C0.783501 3.58782 0.6448 3.5851 0.629567 3.58598C0.390445 3.59978 0.729264 3.61178 0.736744 3.61533C0.838954 3.66025 0.485244 3.68896 0.535329 3.73235C0.541678 3.73755 0.717176 3.72584 0.724293 3.74043C0.772741 3.83765 0.72453 3.94047 0.584157 4.0367C0.562568 4.05166 0.430732 4.04098 0.41448 4.04192C0.160544 4.05727 0.500788 4.0672 0.513601 4.07207C0.605837 4.11056 0.320504 4.14651 0.725758 4.17266C0.585121 4.33566 0.812693 4.49791 0.449636 4.65956C0.44543 4.66161 0.277861 4.65793 0.270193 4.66203C0.176104 4.7114 0.436538 4.70192 0.755055 4.73459C0.835036 4.74282 0.45048 4.76786 0.422292 4.77007C0.318417 4.77814 0.0691192 4.76977 0.0490024 4.77247C-0.108964 4.79484 0.715482 4.79119 0.715748 4.82136C0.714374 4.8223 0.562624 4.81834 0.547536 4.82087C0.500166 4.82874 0.560466 4.83654 0.508229 4.84423C0.387357 4.86185 -0.0132517 4.86813 0.2199 4.89503C0.25016 4.89844 0.717821 4.89324 0.695729 4.92017C0.686525 4.93091 0.694541 4.97844 0.664235 4.99176C0.633965 5.00506 0.483261 4.99593 0.476735 4.99688C0.277456 5.03273 0.194865 5.01913 -0.100167 5.03709C-0.394086 5.05505 0.306938 5.05007 0.385183 5.05739C0.463205 5.06472 0.298787 5.09101 0.241629 5.09747C0.184446 5.10392 0.0886847 5.09587 0.0563266 5.10161C-0.15509 5.13967 0.40429 5.11831 0.515554 5.13086C0.779006 5.16042 0.259124 5.18345 0.208182 5.21052C0.194425 5.21784 0.31283 5.21187 0.323904 5.21839C0.366192 5.24422 0.203975 5.25975 0.352712 5.28914C0.37695 5.29395 0.689518 5.3177 0.460134 5.33308C0.427057 5.33526 0.297504 5.32907 0.268484 5.34008C0.224932 5.35652 0.196615 5.38615 0.23992 5.40383C0.271959 5.41688 0.485433 5.40192 0.419118 5.41835C0.389508 5.42565 0.264624 5.41212 0.219412 5.42584C0.174213 5.43948 0.1797 5.47436 0.184012 5.48764C0.188419 5.50089 0.350349 5.49363 0.361257 5.49471C0.423748 5.50118 0.501831 5.52662 0.501638 5.52886C0.521405 5.64221 0.248456 5.74673 0.338796 5.85709C0.345651 5.86575 0.51641 5.85998 0.519216 5.8613C0.59076 5.89095 0.136756 5.86758 -0.0152064 5.88829C0.33131 5.88529 0.268567 5.89752 0.30657 5.91841C0.325164 5.92847 0.459338 5.92299 0.473073 5.92391C0.676867 5.93883 0.413641 5.94922 0.359792 5.9519C0.161711 5.96179 0.395758 5.97254 0.263357 5.97927C0.131946 5.98599 -0.0628677 5.97052 -0.0603722 5.99055C0.0636692 5.99617 0.387823 5.9813 0.440359 5.9965C0.639078 6.05388 0.384747 6.16098 0.358328 6.20712C0.331931 6.25316 0.354817 6.26803 0.309988 6.29486C0.228933 6.34332 0.469434 6.32556 0.579518 6.35565C0.68959 6.38583 0.0978429 6.37116 -0.0293665 6.3755C-0.156519 6.37976 -0.0256289 6.38441 -0.0955284 6.3897C-0.165411 6.39498 -0.251904 6.38355 -0.278145 6.39597C-0.30436 6.40839 -0.0781498 6.44237 0.0548618 6.44677C0.336657 6.45608 0.632412 6.44077 0.528493 6.47365C0.522326 6.47554 0.366729 6.46941 0.351003 6.47664C0.231218 6.53415 0.223793 6.59389 0.11785 6.65133C0.103039 6.65922 -0.0700579 6.65216 -0.0806358 6.65676C-0.191352 6.70463 0.100511 6.68752 0.424734 6.71376C-0.00673752 6.70786 -0.270714 6.72237 -0.273262 6.75871C-0.274945 6.78055 -0.0864997 6.77679 0.0463169 6.79091C0.0863544 6.79515 -0.0430386 6.81061 0.0455845 6.8134C0.335281 6.82264 0.659578 6.80808 0.530446 6.84554C0.524309 6.84718 0.365734 6.84195 0.35613 6.84763C0.29327 6.88434 0.596289 6.88873 0.632985 6.92841C0.661779 6.95951 0.477002 7.01482 0.44695 7.05024C-0.0381492 7.04949 0.0729327 7.08294 0.4074 7.09651C0.393707 7.11949 0.412615 7.14432 0.366384 7.16653C0.350623 7.17417 0.210174 7.16915 0.194998 7.17012C-0.0430614 7.1849 0.282338 7.19489 0.295095 7.19985C0.419103 7.25362 0.172477 7.29742 0.413503 7.34873C0.422184 7.35055 0.759149 7.3535 0.513112 7.36722C0.496153 7.36811 0.34284 7.35116 0.330984 7.3753C0.319102 7.39944 0.138464 7.44495 0.294607 7.47846C0.332198 7.48657 0.605745 7.50709 0.392019 7.52355C0.362997 7.52575 0.266354 7.52335 0.212576 7.52651C0.041218 7.53675 0.381806 7.54234 0.0924593 7.55437C-0.196874 7.5664 -0.413564 7.59142 -0.213936 7.62522C-0.208132 7.6263 0.0618157 7.6343 0.0575473 7.64493C0.0505017 7.6619 -0.00573398 7.68599 -0.00397592 7.7037C-0.00303691 7.71219 0.164588 7.70676 0.167654 7.70823C0.261585 7.76527 0.112149 7.80586 0.0472934 7.86696C0.0350727 7.87816 0.263655 7.91036 0.0829379 7.93204C-0.114891 7.95585 -0.937826 7.93138 -0.741767 7.98611C-0.663347 8.00819 0.380694 8.03613 -0.160225 8.0758C-0.0261892 8.15274 -0.30303 8.22389 -0.111642 8.30104C-0.103162 8.30451 0.188222 8.31548 0.184256 8.32364C0.177805 8.33575 0.0416166 8.34239 0.0326451 8.35104C-0.00837694 8.38727 0.108141 8.42042 0.0900179 8.45535C0.0834329 8.46862 -0.0573843 8.46398 -0.065255 8.4798C-0.072994 8.4956 0.112435 8.50615 0.0228795 8.52757C-0.0453834 8.54375 -0.424396 8.55992 -0.468574 8.5814C-0.09472 8.58221 -0.10242 8.59696 -0.00373178 8.62318C0.0154161 8.62822 0.145537 8.62281 0.161307 8.6252C0.228372 8.6349 0.120529 8.64388 0.193533 8.65309C0.211067 8.65533 0.33874 8.65543 0.360281 8.65726C0.548304 8.67284 0.261115 8.6985 0.211111 8.70291C0.0212076 8.7198 0.187262 8.7277 0.112479 8.74065C0.0377056 8.75359 -0.0557682 8.73425 -0.101144 8.74936C-0.194997 8.78068 -0.174378 8.82092 -0.180245 8.85273C-0.181798 8.86543 -0.011373 8.85677 -0.00763802 8.85858C0.0355867 8.88483 -0.145697 8.91137 0.193777 8.92592C-0.683975 8.94412 0.278915 8.94175 0.103201 8.97926C0.0889897 8.98222 -0.326093 8.98598 -0.387031 8.97463C-0.447912 8.96329 -0.318163 8.94608 -0.413154 8.93034C-0.435447 8.92661 -0.824406 8.90526 -0.847967 8.90235C-1.03211 8.87953 -0.411823 8.8763 -0.377754 8.87509C-0.0100919 8.86139 -0.429122 8.8353 -0.458076 8.82843C-0.590747 8.797 -0.503514 8.77029 -0.598212 8.744C-0.659417 8.7268 -1.06573 8.72512 -1.05329 8.71162C-1.01218 8.66673 -0.445378 8.65106 -0.936834 8.60876C-1.04165 8.5997 -1.48574 8.60871 -1.13654 8.57621C-1.11453 8.57417 -0.795076 8.55004 -0.997137 8.5361C-1.02261 8.53435 -1.15204 8.5344 -1.16291 8.53209C-1.23323 8.51662 -1.13013 8.5063 -1.17951 8.48944C-1.22889 8.47259 -1.30251 8.45232 -1.25861 8.43307C-1.23236 8.42147 -0.99123 8.40659 -0.932196 8.40104C-0.762131 8.38536 -1.04097 8.36855 -0.835028 8.35884C-0.628054 8.34904 -0.313731 8.36819 -0.180001 8.34251C-0.516248 8.34156 -0.861373 8.33937 -1.19953 8.33784C-1.18769 8.28156 -1.07896 8.22618 -1.09382 8.16971C-1.09599 8.16271 -1.27676 8.16987 -1.28376 8.16236C-1.31247 8.13069 -1.18361 8.10304 -1.23493 8.0702C-1.27534 8.04478 -1.46674 8.0169 -1.51496 7.99032C-1.1302 7.97409 -1.26081 7.93465 -1.22565 7.906C-1.2135 7.89596 -1.11074 7.89663 -1.07721 7.88949C-0.953225 7.86256 -1.29324 7.87518 -1.34675 7.8678C-1.57511 7.83613 -0.805515 7.83342 -0.82453 7.79607C-0.825277 7.7941 -1.23551 7.76992 -1.26105 7.76658C-1.42763 7.74542 -1.11827 7.76308 -1.08796 7.74984C-1.03257 7.72566 -0.934597 7.70885 -1.05475 7.68048C-1.09034 7.67221 -1.34604 7.65236 -1.14826 7.63629C-1.12236 7.63418 -0.986767 7.63535 -0.978826 7.63365C-0.846459 7.60286 -1.27252 7.60205 -1.41681 7.58445C-1.56108 7.56685 -1.26696 7.53967 -1.18219 7.53414C-0.962906 7.51967 -1.08848 7.54523 -1.06696 7.54601C-0.810868 7.55522 -0.854958 7.53539 -0.833319 7.52025C-0.415564 7.51805 -0.440639 7.49687 -0.812567 7.50454C-0.853192 7.50542 -0.814234 7.5172 -0.833319 7.52025C-1.24319 7.50695 -1.29569 7.48367 -0.912664 7.45796C-0.733148 7.44592 -0.523839 7.4573 -0.60041 7.42074C-0.634975 7.40414 -0.922621 7.41055 -1.00104 7.39591C-1.17997 7.36246 -0.911646 7.31898 -0.953924 7.28449C-0.969273 7.27198 -1.12673 7.28417 -1.14264 7.27561C-1.18537 7.25291 -1.06723 7.23289 -1.12775 7.21009C-1.13343 7.20802 -1.29826 7.21307 -1.30036 7.20598C-1.3195 7.15222 -1.21393 7.10542 -1.211 7.0493C-1.20966 7.02218 -1.30057 6.9737 -1.28229 6.94561C-1.25159 6.89692 -1.01191 6.83703 -1.07013 6.79544C-1.1074 6.76831 -1.27226 6.77426 -1.38459 6.76264C-1.60232 6.74021 -1.21231 6.70051 -1.15192 6.69516C-1.14992 6.695 -1.11106 6.71834 -1.02643 6.70589C-0.850102 6.69864 -1.15116 6.69543 -1.15192 6.69516C-1.11291 6.69165 -1.07549 6.64502 -1.107 6.63576C-1.12422 6.63073 -1.28042 6.63355 -1.28644 6.63092C-1.42622 6.56857 -1.46592 6.50611 -1.39289 6.44287C-1.38973 6.44176 -1.21502 6.44343 -1.20978 6.44082C-1.1321 6.4042 -1.34583 6.38076 -1.47272 6.35057C-1.59956 6.32038 -1.55708 6.29644 -1.25715 6.27856C-1.29491 6.25578 -1.16231 6.2231 -1.08185 6.2043C-1.0014 6.18549 -1.34149 6.18287 -1.34821 6.18121C-1.5634 6.1296 -1.36874 6.09977 -1.33844 6.04622C-1.32346 6.02077 -1.37279 5.97027 -1.40998 5.94271C-1.43994 5.92093 -1.36024 5.9078 -1.4112 5.88773C-1.418 5.88502 -1.56943 5.88776 -1.57526 5.88693C-1.75643 5.86453 -1.38625 5.8753 -1.32013 5.87067C-1.07971 5.8539 -0.951661 5.84354 -1.06476 5.81486C-1.09067 5.80824 -1.62368 5.78897 -1.65485 5.77691C-1.6944 5.76122 -1.50335 5.76714 -1.54963 5.75072C-1.55341 5.74932 -1.67128 5.74961 -1.66608 5.73948C-1.64351 5.69244 -1.57492 5.64115 -1.58673 5.59227C-1.5879 5.58559 -1.77485 5.59415 -1.77961 5.5845C-1.80177 5.53923 -1.79485 5.48961 -1.70734 5.44551C-1.68521 5.43465 -1.55431 5.44146 -1.51545 5.4391C-1.28028 5.42463 -1.62197 5.40412 -1.62848 5.40073C-1.79269 5.31998 -1.48345 5.25818 -1.63068 5.17588C-1.63932 5.1714 -2.00563 5.13691 -1.69147 5.12153C-1.67057 5.12047 -1.34915 5.10525 -1.56891 5.09179C-1.58266 5.09095 -1.74813 5.10044 -1.73127 5.08389C-1.71444 5.06733 -1.82494 5.0407 -1.64313 5.01794C-1.58586 5.01074 -1.26524 4.99371 -1.52082 4.97223C-1.53866 4.97083 -2.11656 4.93765 -1.71784 4.92581C-1.6522 4.92389 -1.23026 4.9259 -1.4466 4.90026C-1.48854 4.89536 -1.58265 4.90425 -1.64142 4.89134C-1.732 4.87157 -1.61899 4.84536 -1.80695 4.82105C-1.84022 4.81681 -2.12661 4.79876 -1.90924 4.78428C-1.8752 4.78201 -1.73433 4.78632 -1.71857 4.77867C-1.64295 4.74231 -1.73718 4.70424 -1.63971 4.66732C-1.60547 4.65425 -1.37774 4.66093 -1.31672 4.6473C-1.25571 4.63367 -1.19703 4.60621 -1.30109 4.59194C-1.4052 4.57768 -1.76814 4.59326 -1.79718 4.57189C-1.92332 4.47897 -1.71041 4.38693 -1.67926 4.29414C-1.67461 4.28038 -1.80448 4.29179 -1.80695 4.27151C-1.81661 4.19675 -1.93838 4.06766 -1.66242 4.00279C-1.44139 3.9508 -1.27312 4.01622 -1.18317 3.9765C-1.14026 3.95733 -1.56222 3.93659 -1.5755 3.93197C-1.71044 3.88676 -1.52353 3.85535 -1.58088 3.81466C-1.59278 3.80626 -1.7638 3.8145 -1.77204 3.80735C-1.8017 3.78293 -1.72536 3.75726 -1.73932 3.73392C-1.74598 3.72345 -1.8766 3.72538 -1.86652 3.71575C-1.8439 3.69269 -1.78899 3.67231 -1.66657 3.64984C-1.65541 3.64779 -1.49292 3.6616 -1.48688 3.64454C-1.47756 3.61694 -1.35679 3.58268 -1.48151 3.55092C-1.51903 3.5415 -1.81756 3.54112 -1.61139 3.52087C-1.56833 3.51662 -1.20986 3.52204 -1.5196 3.49845C-1.57107 3.49448 -1.98884 3.45484 -1.71955 3.43539C-1.64867 3.43026 -1.35533 3.41716 -1.40143 3.40583C-1.40879 3.40429 -1.56914 3.41045 -1.58478 3.40106C-1.63711 3.36797 -1.62001 3.33328 -1.67023 3.29929C-1.68396 3.29021 -1.84989 3.30373 -1.86505 3.2902C-1.90699 3.25299 -1.86475 3.20653 -1.81281 3.17015C-1.79334 3.15673 -1.65589 3.166 -1.64093 3.16503C-1.39763 3.14933 -1.72603 3.14005 -1.74518 3.13484C-1.85984 3.10244 -1.70558 3.07777 -1.7464 3.0479C-1.75725 3.03966 -1.91384 3.0455 -1.9278 3.04386C-2.06422 3.02685 -1.78301 3.03952 -1.75202 3.02875C-1.66425 2.99858 -1.67683 2.96494 -1.69684 2.93443C-1.70442 2.92322 -1.88598 2.93582 -1.89069 2.92576C-1.92198 2.86623 -1.9046 2.80434 -1.80451 2.74624C-1.78533 2.7353 -1.64552 2.74218 -1.61359 2.7399C-1.39018 2.72419 -1.69491 2.70116 -1.72394 2.69586C-1.85648 2.67176 -1.73285 2.6624 -1.75592 2.64112C-1.87082 2.53717 -1.78893 2.40882 -1.73835 2.3107C-1.67324 2.18283 -1.54023 2.08361 -1.57477 1.96168C-1.57679 1.95393 -1.76278 1.96175 -1.76691 1.95507C-1.81175 1.86882 -1.73907 1.7839 -1.79279 1.69748C-1.79687 1.69039 -1.97319 1.70061 -1.98566 1.68923C-2.01248 1.66588 -2.0029 1.63631 -1.9466 1.6127C-1.91947 1.60119 -1.76817 1.61663 -1.74396 1.60504C-1.68724 1.57805 -1.67468 1.54913 -1.70295 1.52141C-1.71536 1.50961 -1.89569 1.52741 -1.89777 1.51208C-1.91566 1.40763 -1.94672 1.30506 -1.7132 1.19951C-1.69716 1.19228 -1.33066 1.18593 -1.40094 1.17055C-1.50266 1.16939 -1.6223 1.16945 -1.73102 1.16894C-1.78958 1.0169 -1.66253 0.866411 -1.64289 0.713942C-1.6421 0.707513 -1.83629 0.718623 -1.83576 0.706178C-1.83289 0.634145 -1.88668 0.564196 -1.69367 0.490514C-1.67479 0.483204 -1.33316 0.486955 -1.38483 0.465411C-1.39426 0.461611 -1.43982 0.429163 -1.51398 0.420774C-1.52517 0.419634 -1.68463 0.425554 -1.68927 0.415099C-1.71349 0.354337 -1.67708 0.290662 -1.57965 0.230006C-1.56363 0.220216 -1.39382 0.230641 -1.38092 0.223669C-1.29078 0.174209 -1.41987 0.120411 -1.26569 0.0731503C-1.16188 0.0415155 -0.868347 0.0532276 -0.579414 0.0364173C-0.538649 0.0340396 -0.532189 0.0144504 -0.364082 0.0134374C0.0586386 0.0108366 0.521516 0.020325 0.972095 0.0164317C1.06915 0.0156092 0.964616 -0.0106259 1.19915 0.00490693C1.21484 0.00599207 1.29268 0.0250126 1.37224 0.0296974C1.42725 0.0329591 1.59821 0.0270814 1.66863 0.0337363C1.73897 0.0403906 1.59566 0.0477029 1.67839 0.0587357C1.76215 0.0697635 1.95664 0.0649145 1.97966 0.0869383ZM-0.722235 6.11962C-0.558912 6.10221 -1.1571 6.09964 -1.01398 6.11847C-1.00635 6.11938 -0.730248 6.12052 -0.722235 6.11962ZM-0.627753 8.2265C-0.36391 8.20373 -0.751865 8.18815 -0.955633 8.20421C-1.15918 8.22027 -0.707734 8.23343 -0.627753 8.2265ZM-0.435127 8.46256C-0.227098 8.43596 -1.07535 8.43177 -0.903875 8.46026C-0.894185 8.46192 -0.447206 8.46412 -0.435127 8.46256ZM-0.497138 0.114375C-0.489195 0.114135 -0.481453 0.100053 -0.489326 0.0997165C-0.67931 0.0922184 -0.69466 0.120376 -0.497138 0.114375ZM-0.225411 8.69682C-0.110666 8.68851 -0.243125 8.6646 -0.385811 8.67492C-0.500597 8.68323 -0.368147 8.70716 -0.225411 8.69682ZM-0.0838097 5.21125C-0.0748958 5.21098 -0.0668691 5.20088 -0.117257 5.20108C-0.279545 5.20177 -0.233743 5.21582 -0.0838097 5.21125ZM-0.215645 9.09496C-0.183716 9.03614 0.516985 9.00047 0.437917 9.06453C0.423612 9.07613 0.214469 9.03953 0.151297 9.0543C0.0362076 9.08131 0.476162 9.09925 0.240408 9.12682C0.197257 9.13181 -0.219024 9.09832 -0.216622 9.09486C-0.216296 9.09489 -0.215971 9.09493 -0.215645 9.09496ZM-0.00373178 6.10959C0.00417809 6.10924 0.0116786 6.09527 0.00383655 6.09493C-0.186071 6.08737 -0.201292 6.11552 -0.00373178 6.10959ZM0.286062 4.62216C0.302918 4.62139 0.318682 4.58896 0.303152 4.5879C-0.00739871 4.57098 -0.0401906 4.63655 0.286062 4.62216ZM0.434011 7.05079C0.62506 7.06604 0.647554 7.08428 0.407644 7.09644C0.42038 7.08129 0.422256 7.06603 0.434011 7.05079Z" fill="#232322"/>
</svg>
