<svg width="9" height="28" viewBox="0 0 9 28" fill="none" xmlns="http://www.w3.org/2000/svg">
<path d="M6.62856 10.141C6.54552 9.77979 6.55866 9.29941 6.60031 8.93181C6.61309 8.81622 6.72412 8.86358 6.73756 8.78261C6.76399 8.6276 6.69794 8.48826 6.73163 8.33417C6.74329 8.2829 6.91665 8.32766 6.92503 8.27415C6.9693 7.97759 6.89781 7.7121 6.90045 7.41866C6.91118 5.97365 6.78145 4.56122 6.54077 3.17845C6.46125 2.7258 6.4603 2.14747 6.23988 1.75881C6.21439 1.71446 6.08767 1.79572 6.07293 1.79122C5.8482 1.72816 6.1414 1.66057 6.14063 1.55679C6.13981 1.32688 6.0729 1.10767 5.98701 0.979689C6.01734 1.0178 6.10074 1.05949 6.06741 1.07347C6.03078 1.09496 6.05218 1.38932 6.02316 1.22432C6.01833 1.21328 6.03418 1.05651 6.01433 1.04012C5.9696 1.00127 5.83616 1.04975 5.7708 1.05415C5.64467 1.0601 5.62196 1.06898 5.49631 1.10929C5.32436 1.16413 5.07442 1.18595 4.89074 1.31383C4.85201 1.34142 4.97699 1.45917 4.92278 1.51585C4.86885 1.57191 4.68692 1.64976 4.60899 1.64875C4.53122 1.64721 4.49724 1.52249 4.47293 1.50268C4.26785 1.33504 4.2192 1.74897 4.19783 1.77106C4.07185 1.89136 3.93732 1.98436 3.79635 2.06368C3.48809 2.23682 3.16663 2.33582 2.9077 2.54545C2.62654 2.77286 2.41978 3.08038 2.22554 3.33432C1.99372 3.63583 1.76021 3.89643 1.63024 4.27625C1.6167 4.31611 1.81039 4.33689 1.79484 4.38456C1.75192 4.51741 1.71115 4.65266 1.67057 4.79081C1.55923 5.17115 1.44732 5.5748 1.30157 5.98633C1.28158 6.04283 1.12638 5.94737 1.09656 6.0034C0.914349 6.33908 0.556352 6.9388 1.27945 7.15663C1.24861 7.39504 1.22942 7.6782 1.10365 7.89852C1.02332 8.04128 0.830002 7.92796 0.925225 8.08884C0.946762 8.12392 1.09779 8.05751 1.11817 8.10956C1.2027 8.32598 1.20755 8.58539 1.33864 8.68596C1.36465 8.70405 1.49096 8.63883 1.51635 8.63329C1.70246 8.59162 1.45044 8.65552 1.35311 8.67702C1.34195 8.67857 1.33336 8.67941 1.32805 8.67867C1.09864 8.63481 0.996481 8.73684 1.04969 8.72008C1.08802 8.71249 1.16595 8.65005 1.26465 8.57856C1.31076 8.54521 1.14316 8.43363 1.18147 8.39711C1.38536 8.20518 1.65507 7.95489 1.98176 7.74813C2.05623 7.7013 2.11439 7.87184 2.15564 7.85555C2.33709 7.78274 2.15005 7.53506 2.34814 7.44619C2.39011 7.42747 2.46238 7.54855 2.47831 7.55486C2.71906 7.66093 2.61808 7.31648 2.66819 7.27706C2.69886 7.2511 2.73358 7.22617 2.77331 7.20313C2.87257 7.14998 2.99088 7.09413 3.20919 7.09379C3.42106 7.08786 3.69653 7.22063 3.81408 7.3666C4.04381 7.65549 4.00099 7.80352 4.00367 7.91883C3.98166 8.14045 3.91348 8.2822 3.94791 8.40784C3.95636 8.43187 4.12701 8.37173 4.13912 8.42329C4.14085 8.42766 4.14374 8.42973 4.1385 8.40094C4.13591 8.38814 4.13057 8.36194 4.11242 8.31677C4.08393 8.26571 4.07735 8.18194 3.87714 8.02602C3.78822 7.95895 3.61807 7.89471 3.47538 7.8976C3.33735 7.89839 3.25412 7.92854 3.18416 7.95864C3.07152 8.01131 3.0327 8.0534 3.01053 8.07158C2.96441 8.11489 2.96228 8.12172 2.9576 8.12563C3.28185 7.64216 3.65588 7.13014 4.06725 6.6704C4.13984 6.58853 4.21536 6.72093 4.23277 6.72332C4.5082 6.75474 4.24853 6.52362 4.25485 6.48693C4.31207 6.20206 4.68713 6.11685 4.42555 5.75428C5.11923 4.80141 5.48438 3.63878 6.41593 2.80767C6.42737 2.79699 6.55638 2.90727 6.57853 2.88571C6.84773 2.62755 6.5891 2.55149 6.45098 2.17435C6.4172 2.07823 6.84104 2.13158 6.87349 2.1338C6.99316 2.14077 7.16759 2.32935 7.19535 2.32372C7.41682 2.27506 6.71386 1.84221 6.84245 1.6524C6.84758 1.64733 6.95608 1.75753 6.97927 1.75033C7.05157 1.72846 7.03504 1.64628 7.11067 1.62918C7.28539 1.59061 7.63733 1.78583 7.56412 1.49095C7.55501 1.45268 7.15397 1.20675 7.29557 1.05504C7.35022 0.995751 7.56996 0.703658 7.66155 0.64348C7.75066 0.584024 7.82081 0.735105 7.83062 0.733517C8.15682 0.657153 8.15483 0.787799 8.46123 0.886176C8.764 0.989152 8.22186 0.543984 8.20276 0.449126C8.18453 0.35303 8.44069 0.324302 8.51635 0.330667C8.59105 0.337108 8.61581 0.447382 8.66869 0.440578C8.80913 0.42277 8.80946 0.367242 8.76184 0.293159C8.82511 0.228038 8.91134 0.263765 8.92627 0.353329C9.05481 0.360871 9.27397 0.301655 9.34601 0.348818C9.63283 0.538716 9.13206 0.768489 9.09632 0.965247C9.08668 1.01945 9.20144 0.966972 9.21606 1.01383C9.27195 1.19977 9.11734 1.32838 9.27579 1.53347C9.3017 1.56645 9.6213 1.73189 9.39513 1.85454C9.36251 1.87167 9.23178 1.82952 9.20498 1.91188C9.16485 2.03389 9.13982 2.24825 9.18345 2.37872C9.21578 2.47495 9.42906 2.36361 9.36285 2.48595C9.33318 2.54003 9.20845 2.44034 9.16306 2.54068C9.11794 2.63899 9.12021 2.89296 9.12202 2.99093C9.1242 3.08841 9.28729 3.03906 9.29802 3.04714C9.35952 3.09757 9.43202 3.28474 9.43109 3.30185C9.42164 4.14214 9.08775 4.88356 9.08825 5.69281C9.08798 5.75633 9.26236 5.73376 9.26407 5.74365C9.31033 5.96785 8.87898 5.74585 8.71054 5.87746C9.05716 5.89662 8.98462 5.97773 9.00338 6.13459C9.01273 6.20961 9.1508 6.18675 9.1636 6.1951C9.35216 6.32892 9.0811 6.37111 9.02521 6.38323C8.81948 6.42871 9.041 6.53747 8.90313 6.56851C8.76629 6.5992 8.58856 6.46154 8.57123 6.6058C8.68846 6.66349 9.02454 6.60001 9.06121 6.71784C9.20171 7.16224 8.82539 7.90057 8.73976 8.22536C8.65532 8.5509 8.65714 8.6632 8.57702 8.84619C8.43099 9.17739 8.69145 9.09591 8.75673 9.33385C8.82118 9.57261 8.26222 9.34986 8.13131 9.35575C8.00059 9.36066 8.12219 9.41959 8.04604 9.44314C7.96994 9.46644 7.90171 9.36846 7.85807 9.45078C7.81465 9.53282 7.98568 9.81907 8.10892 9.87837C8.37036 10.0033 8.68314 9.95604 8.53094 10.1691C8.52199 10.1813 8.37939 10.1046 8.35285 10.1529C8.14701 10.5368 8.04257 10.9585 7.84163 11.3392C7.81378 11.3914 7.65756 11.3009 7.63946 11.3308C7.44992 11.6408 7.76273 11.5896 8.03128 11.8535C7.6229 11.7075 7.34189 11.7455 7.27465 11.9985C7.23389 12.1506 7.42307 12.1713 7.52592 12.3037C7.55694 12.3436 7.40344 12.419 7.48397 12.4611C7.74694 12.5997 8.08795 12.5799 7.89259 12.8117C7.88356 12.8217 7.74024 12.7438 7.72025 12.7814C7.59007 13.0234 7.87438 13.1329 7.83195 13.4233C7.79869 13.6512 7.51005 13.9888 7.40795 14.2282C6.94405 14.0865 6.98235 14.3487 7.27395 14.54C7.21246 14.6971 7.17765 14.8759 7.08573 15.0163C7.05423 15.0647 6.93089 14.9882 6.91433 14.9904C6.65544 15.0214 6.94401 15.1886 6.94534 15.2269C6.94591 15.6383 6.61266 15.8659 6.72347 16.2948C6.72751 16.3101 7.04029 16.4374 6.77484 16.4547C6.75671 16.4554 6.65106 16.289 6.58335 16.4525C6.51537 16.6169 6.2381 16.8677 6.30342 17.1511C6.3193 17.2191 6.5268 17.4522 6.28523 17.4922C6.25254 17.4973 6.16754 17.4481 6.10912 17.4516C5.92254 17.4639 6.22879 17.6185 5.92686 17.602C5.62464 17.5862 5.361 17.6765 5.46176 17.976C5.46447 17.9853 5.69667 18.1349 5.66529 18.2057C5.61481 18.3192 5.5013 18.4581 5.45553 18.5807C5.43398 18.6386 5.60453 18.6626 5.6035 18.6737C5.54707 19.0491 5.34082 19.2671 5.13546 19.5782C5.10867 19.617 5.08267 19.6552 5.05679 19.6955C5.01224 19.7642 5.12303 20.0719 4.89274 20.1392C4.64072 20.2124 3.96879 19.7067 3.98066 20.1444C3.98511 20.3195 4.84165 20.9512 4.22917 20.9766C4.10808 21.5368 3.63182 21.8727 3.54641 22.4543C3.54247 22.4803 3.76445 22.6852 3.73343 22.7361C3.68696 22.8111 3.54391 22.7905 3.50679 22.8418C3.34826 23.0545 3.3371 23.3214 3.19931 23.5352C3.14723 23.6164 3.04005 23.5191 2.97786 23.6154C2.91582 23.7114 3.04047 23.8688 2.88613 23.9602C2.76902 24.0288 2.38192 23.9429 2.26723 24.0532C2.58809 24.2451 2.5284 24.3337 2.51755 24.547C2.51551 24.5883 2.64756 24.6204 2.65236 24.6433C2.67427 24.7384 2.54818 24.7396 2.57667 24.8344C2.5834 24.8574 2.69265 24.9235 2.70429 24.946C2.80715 25.1408 2.4636 25.1534 2.40445 25.1542C2.17826 25.1603 2.28973 25.2958 2.17652 25.3364C2.0634 25.3767 2.05814 25.2082 1.96179 25.2771C1.76274 25.4193 1.62436 25.6739 1.49335 25.862C1.44191 25.9372 1.61835 25.9792 1.6143 25.9922C1.54513 26.1756 1.28809 26.2316 1.50828 26.5107C0.710547 26.1213 1.51379 26.6543 1.21202 26.7776C1.18782 26.7872 0.833998 26.5687 0.830928 26.4674C0.82745 26.3668 1.00455 26.3399 0.989873 26.1935C0.986905 26.1586 0.750577 25.8147 0.742182 25.7849C0.678549 25.55 1.20679 25.8752 1.24014 25.8867C1.60124 26.0081 1.35415 25.6206 1.35605 25.5643C1.36649 25.3045 1.54147 25.191 1.56022 24.9817C1.57278 24.8454 1.23292 24.6223 1.29303 24.5481C1.4912 24.3022 2.03678 24.4938 1.76455 23.9864C1.70631 23.878 1.29055 23.7104 1.70692 23.6877C1.73294 23.6868 2.0953 23.6972 1.96815 23.5114C1.95207 23.4881 1.83924 23.4247 1.83776 23.4052C1.82994 23.2761 1.95554 23.2629 1.97002 23.1353C1.98453 23.0075 1.9886 22.8474 2.09177 22.7494C2.15379 22.6903 2.41585 22.7123 2.48656 22.7053C2.68923 22.6874 2.49909 22.4509 2.71329 22.4863C2.92901 22.521 3.14274 22.7897 3.34734 22.6881C3.05288 22.5257 2.75458 22.3514 2.46013 22.1848C2.65513 21.8384 2.93014 21.5378 3.09506 21.1715C3.11517 21.126 2.93064 21.0913 2.94794 21.0406C3.0214 20.827 3.22316 20.7072 3.27804 20.4746C3.3198 20.2944 3.23167 20.0339 3.26796 19.8431C3.66521 19.9026 3.66552 19.5926 3.78236 19.4219C3.82317 19.3621 3.91461 19.4092 3.96625 19.3769C4.15891 19.2532 3.812 19.1944 3.78506 19.1244C3.75554 19.0474 3.78036 19.0102 3.83522 18.993L3.81839 19.0318C3.97409 18.9795 4.38669 19.0839 4.44811 18.895C4.4528 18.8816 4.13704 18.5674 4.12151 18.5372C4.02146 18.3383 4.2632 18.5675 4.32571 18.4923C4.43966 18.355 4.57554 18.2768 4.53554 18.0463C4.52333 17.979 4.33415 17.7579 4.55936 17.7212C4.58889 17.7163 4.71282 17.7719 4.72453 17.7634C4.92615 17.6033 4.52835 17.4498 4.43588 17.2841C4.34323 17.1188 4.68519 17.0389 4.77843 17.0301C5.01982 17.0073 4.83961 17.1365 4.85792 17.149C5.07605 17.2985 5.08341 17.1494 5.14018 17.0553C5.53857 17.1821 5.566 17.0308 5.19727 16.9575C5.15693 16.9497 5.16544 17.0415 5.14018 17.0553C4.78637 16.8279 4.79138 16.6579 5.21363 16.6109C5.41129 16.5892 5.58315 16.7331 5.59585 16.4622C5.60173 16.3389 5.31481 16.2888 5.27429 16.1648C5.18214 15.8812 5.53365 15.6753 5.57001 15.4268C5.58311 15.3369 5.40641 15.3712 5.41014 15.3082C5.41928 15.1415 5.57479 15.0432 5.56604 14.8699C5.56503 14.8542 5.39708 14.8387 5.4102 14.7901C5.50624 14.4211 5.7043 14.1337 5.81936 13.7536C5.87529 13.569 5.88288 13.2138 5.95399 13.0272C6.07704 12.7032 6.41913 12.3551 6.43734 12.0537C6.44978 11.8577 6.27941 11.8574 6.19112 11.7499C6.01967 11.5428 6.46573 11.3662 6.53349 11.3433C6.53577 11.3426 6.53345 11.5128 6.63694 11.4474C6.82051 11.4399 6.53379 11.3452 6.53349 11.3433C6.57755 11.3286 6.69243 11.0156 6.67682 10.9443C6.66838 10.9055 6.51181 10.8887 6.51026 10.8692C6.47669 10.4076 6.53466 9.97094 6.69856 9.55029C6.70327 9.54325 6.87173 9.5911 6.88069 9.57405C7.01038 9.33605 6.83403 9.13083 6.751 8.89785C6.66794 8.66473 6.74068 8.50952 7.05866 8.44114C7.05125 8.27627 7.22272 8.07309 7.32481 7.95617C7.42698 7.83912 7.09478 7.76322 7.09017 7.75058C6.93911 7.35615 7.16398 7.18473 7.24987 6.81618C7.29118 6.64275 7.29148 6.28414 7.27875 6.08956C7.26833 5.93612 7.35877 5.85417 7.32475 5.70896C7.32022 5.68936 7.16759 5.69053 7.16248 5.68411C7.00064 5.50893 7.3596 5.6258 7.42901 5.60138C7.68116 5.51231 7.81668 5.45533 7.72533 5.2412C7.7045 5.19151 7.18762 5.00464 7.1643 4.92003C7.13502 4.80933 7.32154 4.86733 7.28562 4.75099C7.28269 4.74106 7.16517 4.73269 7.17645 4.66334C7.22714 4.34254 7.32044 3.99617 7.32552 3.66336C7.32664 3.61819 7.13704 3.66639 7.13551 3.60141C7.12867 3.29143 7.14548 2.96142 7.23553 2.66599C7.25825 2.59374 7.38877 2.64011 7.42776 2.62462C7.66374 2.5291 7.32168 2.38755 7.31497 2.36585C7.14675 1.83379 7.4387 1.40526 7.24377 0.882283C7.23329 0.853973 6.896 0.694911 7.09555 0.569094L10.0209 1.63956C10.0062 1.63255 9.98992 1.62341 9.97179 1.61186C9.95499 1.59888 9.67059 1.42553 9.77106 1.63648C9.77792 1.64917 9.93111 1.72935 9.85622 1.78139C9.78042 1.83461 9.7622 2.01648 9.53689 1.99941C9.46654 1.99314 9.15239 1.86676 9.26495 2.13409C9.27157 2.15358 9.60148 2.66769 9.24192 2.48282C9.18263 2.45267 8.85382 2.18648 8.92731 2.45025C8.94224 2.50069 9.05171 2.51065 9.05017 2.61202C9.04974 2.76576 8.85845 2.84014 8.92408 3.07748C8.93526 3.11999 9.10826 3.37504 8.87515 3.3335C8.83853 3.32717 8.73683 3.22554 8.69569 3.25922C8.49948 3.41928 8.44191 3.68661 8.22727 3.85047C8.15146 3.90883 7.98096 3.75099 7.87971 3.80014C7.77813 3.84979 7.62968 3.98377 7.66829 4.12335C7.7074 4.26209 8.07508 4.35271 8.02532 4.49493C7.80953 5.11337 7.30813 5.57903 6.95533 6.15227C6.90304 6.23717 7.05666 6.22779 6.98774 6.35743C6.73553 6.83487 6.3718 7.73551 5.87832 8.0229C5.48529 8.25074 5.59568 7.73741 5.36439 7.94902C5.25425 8.04927 5.52986 8.40648 5.52233 8.44378C5.45056 8.81524 5.15882 8.92219 5.01931 9.22589C4.99046 9.28836 5.16935 9.33061 5.142 9.38433C5.10144 9.46499 5.04275 9.53506 4.9808 9.60124C4.90328 9.69017 4.87263 9.76584 4.57694 10.0049C4.47972 10.0755 4.40941 10.1319 4.19334 10.2304C3.9631 10.3224 3.69967 10.4236 3.2057 10.3598C2.73596 10.2895 2.38054 10.0339 2.18834 9.82723C1.9853 9.60432 1.93886 9.4957 1.87421 9.37114C1.70071 8.97164 1.72724 8.89246 1.70469 8.79476C1.69247 8.70518 1.68804 8.65315 1.68212 8.60889C1.66582 8.48616 1.53803 8.51911 1.54357 8.45097C1.5511 8.38308 1.56509 8.35747 1.60467 8.4031C1.6261 8.42888 1.65085 8.47109 1.71143 8.57418C1.77996 8.67318 1.85241 8.86297 2.20526 9.14216C2.26917 9.19096 2.12178 9.00378 2.12268 8.93201C2.11838 8.89412 2.13159 8.87832 2.1879 8.91648C2.24778 8.948 2.34095 9.07286 2.67353 9.22402C2.94514 9.34149 3.23607 9.34477 3.41582 9.30945C3.59101 9.276 3.68732 9.22631 3.75538 9.18787C3.91285 9.08414 3.85142 9.08426 3.82773 9.10543C3.79493 9.12898 3.75343 9.18424 3.7343 9.26794C3.71886 9.33532 3.92944 9.54652 3.68646 9.49738C3.63482 9.48807 3.41068 9.20525 3.50778 9.54604C3.52674 9.59994 3.59977 10.1173 3.28556 10.0421C3.20386 10.0218 2.92266 9.88284 2.87734 9.98421C2.87144 9.99917 3.0209 10.0814 2.96527 10.151C2.75108 10.3945 2.50463 10.6194 1.93565 10.9189C1.76668 10.997 2.10377 11.0526 1.81578 11.1687C1.60227 11.2457 1.29948 11.3259 0.88319 11.2949C0.471827 11.2707 -0.0282865 11.0698 -0.345024 10.7966C-0.90785 10.2966 -0.986758 9.93287 -1.08048 9.67831C-1.13588 9.4849 -0.956529 9.56509 -0.948686 9.5446C-0.794564 9.26458 -1.12955 9.2724 -1.16762 9.20995C-1.37695 8.86974 -1.25923 8.60097 -1.33343 8.32874C-1.35289 8.25293 -1.50238 8.32474 -1.51798 8.31087C-1.67068 8.16287 -1.37859 8.25429 -1.35733 8.1526C-1.29557 7.86961 -1.32003 7.58235 -1.3419 7.32167C-1.35 7.22584 -1.53109 7.33501 -1.53607 7.24784C-1.56797 6.73398 -1.51689 6.21079 -1.36013 5.73713C-1.33015 5.64804 -1.19824 5.72243 -1.16426 5.70734C-0.927336 5.60696 -1.20217 5.37796 -1.22366 5.32791C-1.32339 5.10589 -1.18741 5.04636 -1.17638 4.86424C-1.15989 4.601 -1.11354 4.31832 -1.03584 4.02345C-0.854009 3.31475 -0.468479 2.56719 -0.0505109 2.01372C0.726148 0.980287 1.61472 0.496233 2.45004 -0.050593C2.50405 -0.0851897 2.3531 -0.211744 2.39896 -0.243817C2.40762 -0.249711 2.41629 -0.255566 2.42497 -0.261384C2.96006 -0.621853 3.56682 -0.895725 4.27479 -1.24639C4.33522 -1.27526 4.1783 -1.4022 4.27571 -1.45466C4.47575 -1.56351 4.77487 -1.65796 5.06313 -1.67095C5.20201 -1.6767 5.06084 -1.48731 5.19801 -1.49489C5.52149 -1.50708 5.89338 -1.56429 6.41438 -1.52824C6.64664 -1.50467 6.31684 -1.74246 6.63357 -1.68883C7.14914 -1.60582 7.84604 -1.23379 8.22214 -0.710167C8.85541 0.170263 8.99731 0.815607 9.04036 1.52002C9.04282 1.58409 8.70596 1.73632 8.80676 1.83398C8.90715 1.81519 9.02216 1.78223 9.12791 1.75667C9.51715 2.94081 9.58199 4.0852 9.73067 5.22056C9.73683 5.26843 9.917 5.15781 9.92992 5.25059C10.0045 5.78708 10.1244 6.30055 9.99608 6.86664C9.98358 6.92285 9.64099 6.93324 9.71052 7.08666C9.72323 7.11416 9.79495 7.3456 9.87536 7.39978C9.8874 7.40701 10.0411 7.34583 10.0542 7.42281C10.1269 7.8672 10.1374 8.33872 10.0818 8.79171C10.0726 8.86599 9.8963 8.80432 9.88828 8.8572C9.83197 9.22482 9.99504 9.60715 9.87055 9.96356C9.78669 10.2033 9.48704 10.1437 9.20917 10.2871C9.16973 10.3045 9.17573 10.453 9.00867 10.4726C8.58901 10.5267 8.12201 10.4971 7.67538 10.5629C7.57928 10.5784 7.69882 10.7524 7.45602 10.6639C7.4398 10.6584 7.35075 10.5283 7.26844 10.4989C7.2116 10.4794 7.04485 10.5366 6.97062 10.4942C6.89663 10.4539 7.03511 10.3905 6.94586 10.3169C6.85551 10.2426 6.66483 10.2953 6.62856 10.141ZM7.77929 7.42328C7.96023 7.3267 7.37224 7.2152 7.49257 7.36879C7.49908 7.37633 7.77037 7.42831 7.77929 7.42328ZM3.33082 21.7421C3.64006 21.7149 3.34282 21.4413 3.10935 21.4527C2.87638 21.4633 3.23713 21.7501 3.33082 21.7421ZM2.71394 23.3281C2.98839 23.2602 2.25734 22.8289 2.31102 23.088C2.31388 23.1029 2.69799 23.332 2.71394 23.3281ZM9.07921 9.73073C9.07143 9.73291 9.07242 9.83437 9.08055 9.83718C9.27452 9.87516 9.27224 9.67012 9.07921 9.73073ZM2.05452 24.8896C2.18375 24.8981 2.15921 24.6819 1.99862 24.6721C1.86975 24.6639 1.89416 24.8785 2.05452 24.8896ZM8.80561 0.993032C8.81438 0.990368 8.81666 0.917845 8.76653 0.92345C8.60525 0.941481 8.65863 1.03676 8.80561 0.993032ZM0.460447 27.2625C0.738555 26.9488 1.46006 27.1453 1.11539 27.4797C1.05302 27.5395 1.04591 27.1987 0.930489 27.2481C0.721388 27.3364 0.991381 27.7083 0.680564 27.7238C0.624923 27.7253 0.444 27.2791 0.460127 27.2613C0.460233 27.2617 0.46034 27.2621 0.460447 27.2625ZM8.5001 7.46626C8.50834 7.46501 8.53152 7.36661 8.52413 7.36297C8.34503 7.27975 8.29837 7.47716 8.5001 7.46626ZM6.41424 3.12682C6.39682 3.12273 6.26214 3.3187 6.27175 3.33334C6.47673 3.59644 6.74737 3.20459 6.41424 3.12682ZM7.39439 14.2284C7.54624 14.3891 7.5297 14.5234 7.27433 14.5396C7.31839 14.4372 7.3517 14.3318 7.39439 14.2284Z" fill="#232322"/>
</svg>
