<svg width="14" viewBox="0 0 14 0" fill="none" xmlns="http://www.w3.org/2000/svg">
<path d="M0.128185 -41.5729C0.203599 -42.6671 0.302453 -41.4971 0.377581 -39.8912C0.401127 -39.3932 0.389204 -37.1668 0.405457 -36.7228C0.437246 -35.8572 0.466861 -36.949 0.498275 -35.9179C0.508686 -35.5652 0.495727 -32.0387 0.506643 -31.7497C0.566463 -30.1911 0.623055 -31.0894 0.683654 -30.3398C0.982143 -26.6412 1.27555 -25.3174 1.57769 -23.7106C1.67731 -23.1838 1.79842 -19.9834 1.90132 -21.383C1.91333 -21.5495 1.90617 -24.6449 1.90846 -24.9001C1.9443 -28.8057 1.93238 -22.5567 1.95579 -21.7265C2.04868 -18.4483 2.15198 -18.1632 2.24138 -19.3578C2.27941 -19.8751 2.24128 -26.0234 2.27957 -22.5724C2.28223 -22.3393 2.27258 -19.0522 2.28301 -18.7016C2.30667 -17.9131 2.35154 -18.5006 2.36987 -18.2402C2.4052 -17.7216 2.41105 -17.7547 2.44447 -17.7172C2.49015 -17.6374 2.54448 -16.0034 2.5935 -16.7482C2.60396 -16.917 2.59011 -20.2866 2.6068 -20.86C2.6235 -21.4325 2.66768 -21.1468 2.68257 -20.3525C2.69747 -19.5577 2.69112 -16.9093 2.69376 -16.3022C2.71545 -11.1783 2.76656 -18.2749 2.77313 -18.4504C2.89302 -21.4407 2.99582 -17.3981 3.10836 -17.4096C3.19379 -17.4269 3.28514 -18.7616 3.36643 -18.5786C3.46328 -18.3475 3.54536 -16.5215 3.63944 -16.8354C3.64937 -16.8646 3.63774 -20.8266 3.64986 -20.8703C3.77871 -21.3313 3.90666 -20.8995 4.03494 -18.2248C4.04781 -17.9531 4.03123 -14.4745 4.04408 -13.9951C4.12278 -11.1363 4.2473 -4.269 4.29404 -19.4142C4.34735 -18.8228 4.41207 -18.2118 4.45976 -15.1589C4.49051 -13.194 4.46064 -9.40446 4.49842 -11.0215C4.50693 -11.3817 4.49586 -14.7004 4.50863 -14.9897C4.56242 -16.2046 4.62119 -15.1258 4.6744 -16.8405C4.68522 -17.1971 4.68227 -20.1708 4.68533 -20.7062C4.71111 -25.0429 4.75401 -17.8741 4.76337 -17.3532C4.83459 -13.4688 4.88661 -14.9974 4.95296 -14.9025C4.96835 -14.8789 4.95015 -18.8731 4.96497 -18.9938C5.04181 -19.5663 5.12141 -19.223 5.19665 -17.4506C5.21339 -17.0468 5.198 -13.6444 5.206 -13.2773C5.24126 -11.7002 5.24908 -18.1265 5.2829 -16.738C5.29003 -16.4535 5.28601 -13.5408 5.28731 -13.2209C5.30767 -8.19934 5.32536 -15.3146 5.33059 -15.4716C5.39682 -17.618 5.43915 -10.1901 5.50314 -11.2419C5.51079 -11.3752 5.49353 -15.0607 5.51505 -15.2102C5.65839 -16.2276 5.80999 -15.2151 5.95187 -12.2673C5.97393 -11.8139 5.95819 -9.04537 5.95957 -8.70407C5.9822 -3.37143 5.99684 -10.5165 6.00403 -10.7856C6.06078 -12.7226 6.11379 -6.73057 6.15235 -15.2409C6.39268 -12.2875 6.6319 -17.0666 6.87025 -9.44235C6.87328 -9.35404 6.86785 -5.83507 6.87389 -5.67406C6.94669 -3.69819 6.93271 -9.1673 6.98088 -15.8562C6.99301 -17.5358 7.02992 -9.46009 7.03319 -8.86814C7.04509 -6.68676 7.03275 -1.4515 7.03673 -1.02905C7.0697 2.28825 7.06433 -15.0251 7.10881 -15.0307C7.1102 -15.0018 7.10436 -11.8151 7.10809 -11.4983C7.11969 -10.5035 7.13119 -11.7698 7.14254 -10.6728C7.16851 -8.13451 7.17776 0.278286 7.21744 -4.61791C7.22246 -5.25336 7.21479 -15.0742 7.2545 -14.6103C7.27033 -14.417 7.34041 -14.5854 7.36005 -13.9489C7.37967 -13.3133 7.3662 -10.1485 7.3676 -10.0114C7.42045 -5.82658 7.40041 -4.09216 7.42689 2.10351C7.45337 8.27581 7.44603 -6.44571 7.45682 -8.08884C7.46764 -9.72731 7.50639 -6.27452 7.51591 -5.0742C7.52543 -3.87337 7.51356 -1.86238 7.52202 -1.18286C7.57814 3.2569 7.54665 -8.49009 7.56514 -10.8266C7.60874 -16.3591 7.64269 -5.4416 7.6826 -4.37181C7.6934 -4.08292 7.68459 -6.56943 7.69421 -6.80198C7.73229 -7.69003 7.75519 -4.28346 7.79852 -7.40696C7.80561 -7.91595 7.84064 -14.4799 7.86331 -9.66281C7.86652 -8.9682 7.8574 -6.24758 7.87363 -5.63817C7.89788 -4.72357 7.94156 -4.12892 7.96763 -5.03832C7.98687 -5.71115 7.96482 -10.1941 7.98904 -8.80149C7.9998 -8.17966 7.97985 -5.55711 8.00007 -4.60765C8.02019 -3.65848 8.07162 -3.7737 8.0912 -3.86425C8.11073 -3.95679 8.10004 -7.35732 8.10162 -7.5864C8.11117 -8.89871 8.14867 -10.5384 8.15198 -10.5344C8.3191 -10.9495 8.47322 -5.21758 8.63594 -7.11472C8.6487 -7.25868 8.6402 -10.8446 8.64215 -10.9035C8.68586 -12.406 8.6514 -2.87187 8.68193 0.319333C8.67752 -6.95751 8.69555 -5.63991 8.72634 -6.43797C8.74118 -6.82845 8.7331 -9.6461 8.73445 -9.93454C8.75646 -14.2142 8.77178 -8.68645 8.77573 -7.55564C8.7903 -3.39594 8.80616 -8.31091 8.81608 -5.5305C8.82599 -2.77087 8.80318 1.32022 8.83271 1.26782C8.84099 -1.33705 8.81907 -8.14428 8.84149 -9.24753C8.92609 -13.4206 9.08401 -8.07968 9.15203 -7.52488C9.21991 -6.97055 9.24184 -7.45115 9.2814 -6.50975C9.35285 -4.8076 9.32666 -9.85811 9.37103 -12.1699C9.41553 -14.4814 9.3939 -2.0547 9.40029 0.616696C9.40657 3.28689 9.41343 0.538206 9.42124 2.0061C9.42902 3.47364 9.41217 5.28999 9.43048 5.84104C9.4488 6.39156 9.49889 1.64115 9.50538 -1.1521C9.51911 -7.06979 9.49654 -13.2807 9.54501 -11.0984C9.5478 -10.9688 9.53876 -7.7013 9.54943 -7.37107C9.63422 -4.85559 9.7223 -4.69966 9.80699 -2.47485C9.81863 -2.16381 9.80822 1.47122 9.815 1.69335C9.88558 4.0184 9.86035 -2.11072 9.89904 -8.91941C9.89035 0.141488 9.91174 5.685 9.96531 5.73851C9.99752 5.77385 9.99197 1.81649 10.0128 -0.972655C10.019 -1.81344 10.0418 0.903811 10.046 -0.957274C10.0596 -7.0409 10.0381 -13.8511 10.0933 -11.1394C10.0958 -11.0105 10.0881 -7.68041 10.0964 -7.47874C10.1505 -6.15868 10.157 -12.5221 10.2155 -13.2927C10.2614 -13.8974 10.3429 -10.017 10.3952 -9.38596C10.3941 0.801132 10.4434 -1.53159 10.4634 -8.55539C10.4973 -8.26784 10.5339 -8.66491 10.5666 -7.69407C10.5779 -7.36308 10.5705 -4.41364 10.5719 -4.09496C10.5937 0.904288 10.6084 -5.9291 10.6158 -6.197C10.695 -8.80117 10.7596 -3.62202 10.8353 -8.68357C10.838 -8.86587 10.8423 -15.9421 10.8625 -10.7754C10.8638 -10.4192 10.8389 -7.19963 10.8744 -6.95066C10.91 -6.70114 10.9771 -2.90774 11.0266 -6.18675C11.0385 -6.97615 11.0688 -12.7206 11.093 -8.2324C11.0963 -7.62293 11.0927 -5.59344 11.0974 -4.4641C11.1125 -0.865579 11.1207 -8.01793 11.1385 -1.94165C11.1562 4.13436 11.1931 8.68485 11.2429 4.49266C11.2445 4.37077 11.2563 -1.29813 11.272 -1.20849C11.297 -1.06054 11.3325 0.120414 11.3587 0.0834944C11.3712 0.0637751 11.3632 -3.45636 11.3653 -3.52074C11.4494 -5.49329 11.5093 -2.35513 11.5994 -0.993162C11.6159 -0.736527 11.6633 -5.53674 11.6953 -1.7417C11.7304 2.4127 11.6944 19.6943 11.775 15.5771C11.8076 13.9303 11.8488 -7.99458 11.9073 3.36473C12.0207 0.549972 12.1256 6.36362 12.2394 2.34447C12.2445 2.16641 12.2607 -3.95266 12.2727 -3.86937C12.2906 -3.7339 12.3004 -0.873949 12.3131 -0.685546C12.3665 0.175916 12.4154 -2.27097 12.4669 -1.89038C12.4865 -1.75209 12.4796 1.20507 12.503 1.37036C12.5263 1.53287 12.5418 -2.36115 12.5734 -0.480469C12.5972 0.953052 12.6211 8.91231 12.6528 9.84006C12.654 1.98912 12.6757 2.15082 12.7144 0.0783675C12.7218 -0.323738 12.7138 -3.05628 12.7173 -3.38744C12.7316 -4.7958 12.7449 -2.53112 12.7585 -4.0642C12.7618 -4.4324 12.7619 -7.11354 12.7646 -7.5659C12.7876 -11.5144 12.8254 -5.48342 12.8319 -4.43334C12.8568 -0.445361 12.8685 -3.9325 12.8876 -2.36205C12.9066 -0.791817 12.8781 1.17113 12.9004 2.12402C12.9466 4.09494 13.0059 3.66193 13.0528 3.78514C13.0715 3.81775 13.0588 0.238833 13.0615 0.160398C13.1002 -0.747321 13.1393 3.05963 13.1607 -4.06932C13.1876 14.3635 13.1841 -5.85721 13.2394 -2.16723C13.2437 -1.86878 13.2493 6.84796 13.2326 8.12766C13.2158 9.40615 13.1905 6.68142 13.1673 8.67624C13.1618 9.14438 13.1303 17.3125 13.126 17.8073C13.0923 21.6743 13.0876 8.64828 13.0858 7.93283C13.0656 0.21193 13.0271 9.01155 13.017 9.6196C12.9707 12.4057 12.9313 10.5738 12.8925 12.5625C12.8672 13.8478 12.8647 22.3803 12.8448 22.1191C12.7786 21.2558 12.7555 9.35293 12.6931 19.6735C12.6797 21.8747 12.693 31.2005 12.6451 23.8674C12.6421 23.4051 12.6065 16.6966 12.586 20.9399C12.5834 21.4749 12.5835 24.1927 12.5801 24.4211C12.5573 25.8979 12.542 23.7327 12.5172 24.7697C12.4923 25.8067 12.4624 27.3527 12.4341 26.4308C12.417 25.8796 12.395 20.8158 12.3868 19.5761C12.3637 16.0048 12.3389 21.8603 12.3246 17.5356C12.3102 13.1891 12.3384 6.58836 12.3005 3.78002C12.2991 10.8412 12.2959 18.0888 12.2937 25.1901C12.2107 24.9415 12.129 22.6582 12.0458 22.9701C12.0354 23.0159 12.046 26.812 12.0349 26.9589C11.9882 27.562 11.9474 24.8558 11.899 25.9335C11.8615 26.7822 11.8205 30.8015 11.7813 31.8141C11.7573 23.7341 11.6992 26.4771 11.6569 25.7387C11.6421 25.4835 11.6431 23.3255 11.6326 22.6215C11.5929 20.0177 11.6115 27.158 11.6006 28.2816C11.5539 33.0774 11.5499 16.9158 11.4949 17.3151C11.4919 17.3308 11.4563 25.9456 11.4514 26.4821C11.4202 29.9803 11.4462 23.4836 11.4267 22.8471C11.391 21.6839 11.3662 19.6265 11.3244 22.1498C11.3122 22.8972 11.283 28.2667 11.2593 24.1134C11.2561 23.5696 11.2579 20.7221 11.2554 20.5554C11.21 17.7756 11.2088 26.7229 11.1828 29.7531C11.1569 32.7826 11.1168 26.6062 11.1086 24.8261C11.0873 20.221 11.125 22.8581 11.1261 22.4062C11.1397 17.0282 11.1105 17.9541 11.0882 17.4997C11.0849 8.72684 11.0537 9.25341 11.065 17.0639C11.0663 17.917 11.0837 17.0989 11.0882 17.4997C11.0686 26.1071 11.0342 27.2094 10.9963 19.166C10.9786 15.3961 10.9953 11.0006 10.9414 12.6086C10.917 13.3345 10.9264 19.375 10.9048 21.0219C10.8555 24.7794 10.7914 19.1446 10.7406 20.0324C10.7221 20.3547 10.7401 23.6613 10.7275 23.9955C10.694 24.8929 10.6645 22.4119 10.6308 23.6828C10.6278 23.8021 10.6352 27.2634 10.6248 27.3075C10.5455 27.7095 10.4765 25.4925 10.3938 25.4311C10.3538 25.403 10.2823 27.3119 10.2409 26.9281C10.1691 26.2834 10.0808 21.2501 10.0195 22.4728C9.97948 23.2555 9.98825 26.7175 9.97111 29.0763C9.93804 33.6487 9.8795 25.4586 9.87162 24.1904C9.87138 24.1484 9.9058 23.3322 9.88743 21.5551C9.87675 17.8521 9.87201 24.1743 9.87162 24.1904C9.86644 23.3711 9.79769 22.5852 9.78404 23.247C9.77662 23.6087 9.78077 26.8887 9.7769 27.0153C9.68497 29.9506 9.59288 30.7843 9.49963 29.2506C9.49799 29.1844 9.50046 25.5154 9.4966 25.4054C9.44262 23.7741 9.40806 28.2624 9.36354 30.9271C9.31902 33.5907 9.28372 32.6986 9.25737 26.4001C9.22379 27.1931 9.1756 24.4085 9.14787 22.7189C9.12014 21.0293 9.11627 28.1712 9.11383 28.3124C9.03774 32.8314 8.99375 28.7435 8.9148 28.1073C8.87727 27.7926 8.80281 28.8285 8.76217 29.6095C8.73006 30.2387 8.71071 28.565 8.68111 29.6352C8.67711 29.7781 8.68115 32.958 8.67993 33.0805C8.6469 36.8851 8.66278 29.1112 8.65596 27.7228C8.63123 22.6739 8.61596 19.9849 8.57366 22.36C8.56391 22.904 8.53549 34.0972 8.51771 34.7518C8.49458 35.5824 8.50331 31.5703 8.4791 32.5421C8.47703 32.6216 8.47746 35.0968 8.46252 34.9877C8.39316 34.5136 8.31754 33.0734 8.24547 33.3214C8.23562 33.3458 8.24824 37.2718 8.23402 37.3717C8.16727 37.8371 8.09411 37.6918 8.02908 35.8541C8.01307 35.3895 8.02311 32.6406 8.01963 31.8244C7.9983 26.8858 7.96805 34.0614 7.96306 34.1981C7.844 37.6464 7.75288 31.1525 7.63152 34.2443C7.62492 34.4258 7.57407 42.1182 7.55139 35.5209C7.54983 35.082 7.52739 28.3322 7.50754 32.9472C7.50631 33.2359 7.5203 36.7107 7.49589 36.3566C7.47148 36.0032 7.43221 38.3237 7.39866 34.5057C7.38804 33.303 7.36293 26.57 7.33125 31.9372C7.32919 32.3118 7.28028 44.4478 7.26282 36.0746C7.25999 34.6963 7.26295 25.8355 7.22514 30.3786C7.21791 31.2593 7.23103 33.2357 7.212 34.4699C7.18283 36.3719 7.1442 33.9987 7.10835 37.9459C7.1021 38.6447 7.07548 44.6588 7.05413 40.0941C7.05079 39.3792 7.05714 36.421 7.04587 36.09C6.99226 34.502 6.93613 36.4807 6.88169 34.434C6.86241 33.7148 6.87227 28.9326 6.85217 27.651C6.83207 26.3699 6.79158 25.1376 6.77055 27.3229C6.74951 29.5092 6.77249 37.1309 6.74098 37.7408C6.60398 40.3897 6.46826 35.9186 6.33146 35.2645C6.31117 35.1669 6.32799 37.8941 6.29809 37.9459C6.18785 38.1488 5.99753 40.7059 5.90187 34.9108C5.82523 30.2692 5.92168 26.7354 5.86311 24.8466C5.83485 23.9456 5.80427 32.8066 5.79745 33.0856C5.7308 35.9193 5.68448 31.9941 5.6245 33.1984C5.61211 33.4483 5.62426 37.0398 5.61372 37.2128C5.5777 37.8356 5.53986 36.2325 5.50545 36.5258C5.49001 36.6656 5.49285 39.4086 5.47865 39.1969C5.44466 38.7219 5.4146 37.5689 5.38147 34.9979C5.37845 34.7637 5.39881 31.3514 5.37366 31.2245C5.33296 31.0288 5.28244 28.4926 5.23562 31.1117C5.22172 31.8996 5.22118 38.1688 5.19131 33.8392C5.18505 32.935 5.19304 25.4071 5.15825 31.9115C5.1524 32.9924 5.09396 41.7657 5.06528 36.1105C5.05771 34.6221 5.0384 28.462 5.0217 29.4301C5.01943 29.5846 5.02851 32.952 5.01466 33.2804C4.96587 34.3794 4.91473 34.0201 4.8646 35.0748C4.85122 35.3631 4.87116 38.8477 4.8512 39.1661C4.79634 40.0469 4.72784 39.1597 4.67419 38.069C4.65441 37.6602 4.66809 34.7737 4.66665 34.4596C4.6435 29.3503 4.62982 36.2467 4.62214 36.6488C4.57436 39.0567 4.53799 35.8172 4.49395 36.6744C4.4818 36.9023 4.49041 40.1905 4.48799 40.4838C4.46291 43.3486 4.4816 37.4433 4.46571 36.7924C4.42123 34.9492 4.37163 35.2135 4.32664 35.6337C4.31012 35.7928 4.32869 39.6057 4.31386 39.7045C4.22608 40.3615 4.13483 39.9966 4.04916 37.8947C4.03303 37.492 4.04318 34.556 4.03982 33.8854C4.01665 29.1938 3.98269 35.5932 3.97488 36.2028C3.93935 38.9861 3.92555 36.3898 3.89418 36.8744C3.74091 39.2872 3.55166 37.5676 3.40699 36.5053C3.21846 35.138 3.07217 32.3449 2.89238 33.0702C2.88096 33.1126 2.89248 37.0184 2.88263 37.1051C2.75546 38.0467 2.63026 36.5205 2.50284 37.6486C2.49238 37.7342 2.50745 41.4369 2.49067 41.6988C2.45625 42.2621 2.41264 42.0608 2.37783 40.8785C2.36085 40.3089 2.38363 37.1316 2.36654 36.6232C2.32675 35.432 2.2841 35.1683 2.24323 35.7618C2.22583 36.0225 2.25207 39.8094 2.22947 39.8531C2.07547 40.2288 1.92423 40.881 1.76861 35.9772C1.75794 35.6404 1.74858 27.9439 1.7259 29.4198C1.72419 31.5558 1.72429 34.0684 1.72354 36.3514C1.49936 37.5813 1.27747 34.9131 1.05267 34.5006C1.04319 34.4841 1.05957 38.5621 1.04122 38.5509C0.935009 38.4906 0.831874 39.6203 0.723234 35.567C0.712455 35.1706 0.717986 27.9964 0.68622 29.0814C0.680618 29.2794 0.632775 30.2362 0.620406 31.7936C0.618726 32.0285 0.627455 35.3771 0.612038 35.4747C0.522449 35.9832 0.428564 35.2188 0.33913 33.1727C0.324696 32.8361 0.340067 29.2701 0.329786 28.9994C0.256861 27.1064 0.177539 29.8172 0.107856 26.5795C0.0612121 24.3994 0.078481 18.2353 0.0536951 12.1677C0.0501894 11.3116 0.0213062 11.176 0.0198126 7.64573C0.015978 -1.23141 0.0299681 -10.9518 0.0242276 -20.414C0.0230148 -22.4521 -0.0156673 -20.2569 0.00723498 -25.1821C0.00883495 -25.5117 0.0368796 -27.1463 0.043787 -28.817C0.0485962 -29.9722 0.0399299 -33.5625 0.0497422 -35.0411C0.0595536 -36.5185 0.070335 -33.5089 0.0866022 -35.2462C0.102862 -37.0051 0.0957126 -41.0894 0.128185 -41.5729ZM9.02302 15.1669C8.99734 11.7371 8.99356 24.2991 9.02132 21.2936C9.02267 21.1335 9.02434 15.3352 9.02302 15.1669ZM12.1295 13.1828C12.0959 7.64211 12.0729 15.7892 12.0966 20.0683C12.1203 24.3428 12.1397 14.8624 12.1295 13.1828ZM12.4775 9.13766C12.4383 4.76907 12.4321 22.5824 12.4742 18.9814C12.4766 18.7779 12.4798 9.39133 12.4775 9.13766ZM0.168639 10.4399C0.168285 10.2731 0.147522 10.1105 0.147026 10.2758C0.135971 14.2655 0.177487 14.5879 0.168639 10.4399ZM12.8229 4.73363C12.8107 2.32398 12.7754 5.10563 12.7907 8.10202C12.8029 10.5125 12.8382 7.73109 12.8229 4.73363ZM7.68368 1.76C7.68328 1.57281 7.66839 1.40425 7.66869 2.46239C7.6697 5.87044 7.69042 4.9086 7.68368 1.76ZM13.41 4.52855C13.3233 3.85803 13.2707 -10.8567 13.3651 -9.19626C13.3822 -8.89584 13.3283 -4.50386 13.35 -3.17724C13.3899 -0.76036 13.4163 -9.9994 13.457 -5.04857C13.4643 -4.1424 13.4149 4.5995 13.4098 4.54906C13.4099 4.54222 13.4099 4.53538 13.41 4.52855ZM9.00823 0.0783675C9.00772 -0.0877398 8.98711 -0.245251 8.98662 -0.0805676C8.97546 3.9075 9.01697 4.22714 9.00823 0.0783675ZM6.81511 -6.00731C6.81397 -6.36128 6.76615 -6.69233 6.76459 -6.36619C6.73965 0.155373 6.83632 0.844002 6.81511 -6.00731ZM10.396 -9.11423C10.4185 -13.1263 10.4454 -13.5986 10.4633 -8.56052C10.4409 -8.82797 10.4184 -8.86737 10.396 -9.11423Z" fill="#232322"/>
</svg>
