<svg height="5" viewBox="0 0 0 5" fill="none" xmlns="http://www.w3.org/2000/svg">
<path d="M1.97966 0.042821C2.03177 0.0680133 1.97605 0.101036 1.89958 0.126133C1.87587 0.133999 1.76985 0.130016 1.7487 0.135445C1.70748 0.146064 1.75948 0.155958 1.71037 0.166452C1.69358 0.169929 1.52565 0.1656 1.51189 0.169247C1.43767 0.18923 1.48045 0.208135 1.44475 0.228378C1.26863 0.32809 1.20559 0.426105 1.12908 0.527036C1.10399 0.560316 0.951589 0.600772 1.01824 0.635147C1.02617 0.639159 1.17357 0.636767 1.18572 0.63753C1.3717 0.649505 1.07413 0.645524 1.0346 0.653342C0.878492 0.684374 0.864916 0.718881 0.921802 0.748745C0.946436 0.76145 1.23921 0.748711 1.07488 0.761504C1.06378 0.762392 0.907247 0.759169 0.890552 0.762653C0.853004 0.770555 0.880982 0.785546 0.86858 0.79167C0.843886 0.803472 0.845461 0.805425 0.843678 0.816588C0.839877 0.831849 0.762068 0.849999 0.797535 0.866373C0.805571 0.869868 0.96603 0.865241 0.993335 0.870815C1.0206 0.876393 1.00699 0.891152 0.969166 0.896127C0.931321 0.901104 0.805203 0.898985 0.776295 0.899866C0.532301 0.907112 0.870232 0.924183 0.87859 0.926379C1.02099 0.966428 0.828481 1.00077 0.829029 1.03836C0.829854 1.0669 0.893408 1.09742 0.884693 1.12458C0.873689 1.15693 0.786738 1.18435 0.801686 1.21578C0.803078 1.21909 0.991741 1.21521 0.993824 1.21926C1.01578 1.2623 0.995212 1.30504 0.867847 1.3479C0.854908 1.35219 0.689263 1.34665 0.666432 1.35095C0.530302 1.37724 0.203286 1.41884 0.924488 1.43445C0.896326 1.45226 0.867229 1.47388 0.721852 1.48981C0.628284 1.50008 0.447832 1.4901 0.524831 1.50272C0.541987 1.50557 0.700019 1.50187 0.713795 1.50613C0.771649 1.5241 0.720278 1.54373 0.80193 1.56151C0.818909 1.56513 0.960512 1.56414 0.986011 1.56516C1.19252 1.57377 0.851149 1.5881 0.826344 1.59123C0.641369 1.61502 0.714161 1.6324 0.709645 1.65456C0.708517 1.65971 0.898721 1.65363 0.904468 1.65858C0.931729 1.68425 0.915381 1.71084 0.830982 1.73597C0.811752 1.74156 0.649732 1.73642 0.632253 1.73909C0.557152 1.75087 0.863165 1.75348 0.797047 1.76478C0.783501 1.76716 0.6448 1.76582 0.629567 1.76626C0.390445 1.77306 0.729264 1.77897 0.736744 1.78071C0.838954 1.80284 0.485244 1.81698 0.535329 1.83835C0.541678 1.84091 0.717176 1.83514 0.724293 1.84233C0.772741 1.89022 0.72453 1.94086 0.584157 1.98826C0.562568 1.99563 0.430732 1.99037 0.41448 1.99083C0.160544 1.99839 0.500788 2.00328 0.513601 2.00568C0.605837 2.02464 0.320504 2.04235 0.725758 2.05523C0.585121 2.13551 0.812693 2.21542 0.449636 2.29504C0.44543 2.29606 0.277861 2.29424 0.270193 2.29626C0.176104 2.32058 0.436538 2.31591 0.755055 2.332C0.835036 2.33605 0.45048 2.34839 0.422292 2.34948C0.318417 2.35345 0.0691192 2.34933 0.0490024 2.35066C-0.108964 2.36167 0.715482 2.35988 0.715748 2.37474C0.714374 2.3752 0.562624 2.37325 0.547536 2.3745C0.500166 2.37837 0.560466 2.38221 0.508229 2.386C0.387357 2.39468 -0.0132517 2.39777 0.2199 2.41103C0.25016 2.4127 0.717821 2.41014 0.695729 2.42341C0.686525 2.4287 0.694541 2.45211 0.664235 2.45867C0.633965 2.46522 0.483261 2.46072 0.476735 2.46119C0.277456 2.47884 0.194865 2.47215 -0.100167 2.481C-0.394086 2.48984 0.306938 2.48739 0.385183 2.49099C0.463205 2.49461 0.298787 2.50755 0.241629 2.51073C0.184446 2.51391 0.0886847 2.50995 0.0563266 2.51277C-0.15509 2.53152 0.40429 2.521 0.515554 2.52718C0.779006 2.54174 0.259124 2.55308 0.208182 2.56642C0.194425 2.57002 0.31283 2.56708 0.323904 2.57029C0.366192 2.58302 0.203975 2.59067 0.352712 2.60514C0.37695 2.60751 0.689518 2.61921 0.460134 2.62678C0.427057 2.62786 0.297504 2.62481 0.268484 2.63023C0.224932 2.63833 0.196615 2.65292 0.23992 2.66163C0.271959 2.66806 0.485433 2.66069 0.419118 2.66878C0.389508 2.67238 0.264624 2.66571 0.219412 2.67247C0.174213 2.67919 0.1797 2.69637 0.184012 2.70291C0.188419 2.70944 0.350349 2.70586 0.361257 2.70639C0.423748 2.70958 0.501831 2.72211 0.501638 2.72321C0.521405 2.77904 0.248456 2.83053 0.338796 2.88488C0.345651 2.88915 0.51641 2.88631 0.519216 2.88696C0.59076 2.90156 0.136756 2.89005 -0.0152064 2.90025C0.33131 2.89877 0.268567 2.9048 0.30657 2.91508C0.325164 2.92004 0.459338 2.91734 0.473073 2.91779C0.676867 2.92514 0.413641 2.93026 0.359792 2.93158C0.161711 2.93645 0.395758 2.94175 0.263357 2.94506C0.131946 2.94837 -0.0628677 2.94075 -0.0603722 2.95062C0.0636692 2.95338 0.387823 2.94606 0.440359 2.95355C0.639078 2.98181 0.384747 3.03456 0.358328 3.05729C0.331931 3.07996 0.354817 3.08729 0.309988 3.1005C0.228933 3.12437 0.469434 3.11562 0.579518 3.13045C0.68959 3.14531 0.0978429 3.13808 -0.0293665 3.14022C-0.156519 3.14232 -0.0256289 3.14461 -0.0955284 3.14722C-0.165411 3.14982 -0.251904 3.14419 -0.278145 3.15031C-0.30436 3.15643 -0.0781498 3.17316 0.0548618 3.17533C0.336657 3.17991 0.632412 3.17237 0.528493 3.18857C0.522326 3.1895 0.366729 3.18647 0.351003 3.19004C0.231218 3.21836 0.223793 3.24779 0.11785 3.27608C0.103039 3.27997 -0.0700579 3.27649 -0.0806358 3.27875C-0.191352 3.30233 0.100511 3.29391 0.424734 3.30683C-0.00673752 3.30393 -0.270714 3.31107 -0.273262 3.32897C-0.274945 3.33973 -0.0864997 3.33787 0.0463169 3.34483C0.0863544 3.34692 -0.0430386 3.35453 0.0455845 3.35591C0.335281 3.36046 0.659578 3.35329 0.530446 3.37174C0.524309 3.37255 0.365734 3.36997 0.35613 3.37277C0.29327 3.39085 0.596289 3.39301 0.632985 3.41255C0.661779 3.42787 0.477002 3.45512 0.44695 3.47256C-0.0381492 3.47219 0.0729327 3.48867 0.4074 3.49535C0.393707 3.50667 0.412615 3.5189 0.366384 3.52984C0.350623 3.53361 0.210174 3.53113 0.194998 3.53161C-0.0430614 3.53889 0.282338 3.54381 0.295095 3.54625C0.419103 3.57273 0.172477 3.59431 0.413503 3.61958C0.422184 3.62048 0.759149 3.62193 0.513112 3.62869C0.496153 3.62913 0.34284 3.62078 0.330984 3.63267C0.319102 3.64456 0.138464 3.66698 0.294607 3.68348C0.332198 3.68748 0.605745 3.69758 0.392019 3.70569C0.362997 3.70677 0.266354 3.70559 0.212576 3.70715C0.041218 3.71219 0.381806 3.71494 0.0924593 3.72087C-0.196874 3.72679 -0.413564 3.73912 -0.213936 3.75577C-0.208132 3.7563 0.0618157 3.76024 0.0575473 3.76547C0.0505017 3.77383 -0.00573398 3.7857 -0.00397592 3.79442C-0.00303691 3.7986 0.164588 3.79593 0.167654 3.79665C0.261585 3.82475 0.112149 3.84474 0.0472934 3.87484C0.0350727 3.88035 0.263655 3.89621 0.0829379 3.90689C-0.114891 3.91862 -0.937826 3.90656 -0.741767 3.93352C-0.663347 3.94439 0.380694 3.95816 -0.160225 3.9777C-0.0261892 4.01559 -0.30303 4.05064 -0.111642 4.08864C-0.103162 4.09035 0.188222 4.09575 0.184256 4.09977C0.177805 4.10573 0.0416166 4.10901 0.0326451 4.11327C-0.00837694 4.13111 0.108141 4.14744 0.0900179 4.16465C0.0834329 4.17118 -0.0573843 4.16889 -0.065255 4.17668C-0.072994 4.18447 0.112435 4.18966 0.0228795 4.20021C-0.0453834 4.20818 -0.424396 4.21615 -0.468574 4.22673C-0.09472 4.22713 -0.10242 4.23439 -0.00373178 4.24731C0.0154161 4.24979 0.145537 4.24713 0.161307 4.2483C0.228372 4.25308 0.120529 4.2575 0.193533 4.26204C0.211067 4.26314 0.33874 4.26319 0.360281 4.26409C0.548304 4.27177 0.261115 4.28441 0.211111 4.28658C0.0212076 4.2949 0.187262 4.29879 0.112479 4.30517C0.0377056 4.31154 -0.0557682 4.30201 -0.101144 4.30945C-0.194997 4.32488 -0.174378 4.3447 -0.180245 4.36037C-0.181798 4.36662 -0.011373 4.36236 -0.00763802 4.36325C0.0355867 4.37618 -0.145697 4.38925 0.193777 4.39642C-0.683975 4.40538 0.278915 4.40421 0.103201 4.42269C0.0889897 4.42415 -0.326093 4.426 -0.387031 4.42041C-0.447912 4.41482 -0.318163 4.40635 -0.413154 4.3986C-0.435447 4.39676 -0.824406 4.38624 -0.847967 4.38481C-1.03211 4.37357 -0.411823 4.37198 -0.377754 4.37138C-0.0100919 4.36464 -0.429122 4.35179 -0.458076 4.3484C-0.590747 4.33292 -0.503514 4.31976 -0.598212 4.30681C-0.659417 4.29834 -1.06573 4.29752 -1.05329 4.29086C-1.01218 4.26876 -0.445378 4.26104 -0.936834 4.24021C-1.04165 4.23574 -1.48574 4.24018 -1.13654 4.22417C-1.11453 4.22317 -0.795076 4.21128 -0.997137 4.20441C-1.02261 4.20355 -1.15204 4.20358 -1.16291 4.20244C-1.23323 4.19482 -1.13013 4.18974 -1.17951 4.18143C-1.22889 4.17313 -1.30251 4.16315 -1.25861 4.15367C-1.23236 4.14796 -0.99123 4.14063 -0.932196 4.13789C-0.762131 4.13017 -1.04097 4.12189 -0.835028 4.11711C-0.628054 4.11228 -0.313731 4.12171 -0.180001 4.10906C-0.516248 4.1086 -0.861373 4.10752 -1.19953 4.10677C-1.18769 4.07904 -1.07896 4.05176 -1.09382 4.02395C-1.09599 4.0205 -1.27676 4.02403 -1.28376 4.02033C-1.31247 4.00474 -1.18361 3.99111 -1.23493 3.97494C-1.27534 3.96242 -1.46674 3.94869 -1.51496 3.9356C-1.1302 3.9276 -1.26081 3.90817 -1.22565 3.89406C-1.2135 3.88912 -1.11074 3.88945 -1.07721 3.88593C-0.953225 3.87267 -1.29324 3.87888 -1.34675 3.87525C-1.57511 3.85965 -0.805515 3.85831 -0.82453 3.83992C-0.825277 3.83895 -1.23551 3.82703 -1.26105 3.82539C-1.42763 3.81497 -1.11827 3.82367 -1.08796 3.81715C-1.03257 3.80523 -0.934597 3.79696 -1.05475 3.78298C-1.09034 3.77891 -1.34604 3.76913 -1.14826 3.76122C-1.12236 3.76018 -0.986767 3.76076 -0.978826 3.75992C-0.846459 3.74475 -1.27252 3.74435 -1.41681 3.73569C-1.56108 3.72702 -1.26696 3.71363 -1.18219 3.7109C-0.962906 3.70378 -1.08848 3.71637 -1.06696 3.71675C-0.810868 3.72129 -0.854958 3.71152 -0.833319 3.70406C-0.415564 3.70298 -0.440639 3.69255 -0.812567 3.69633C-0.853192 3.69676 -0.814234 3.70256 -0.833319 3.70406C-1.24319 3.69751 -1.29569 3.68605 -0.912664 3.67338C-0.733148 3.66745 -0.523839 3.67306 -0.60041 3.65505C-0.634975 3.64688 -0.922621 3.65003 -1.00104 3.64282C-1.17997 3.62634 -0.911646 3.60493 -0.953924 3.58794C-0.969273 3.58178 -1.12673 3.58778 -1.14264 3.58357C-1.18537 3.57239 -1.06723 3.56252 -1.12775 3.55129C-1.13343 3.55028 -1.29826 3.55276 -1.30036 3.54927C-1.3195 3.52279 -1.21393 3.49974 -1.211 3.4721C-1.20966 3.45874 -1.30057 3.43486 -1.28229 3.42103C-1.25159 3.39705 -1.01191 3.36755 -1.07013 3.34706C-1.1074 3.3337 -1.27226 3.33663 -1.38459 3.33091C-1.60232 3.31986 -1.21231 3.3003 -1.15192 3.29767C-1.14992 3.29759 -1.11106 3.30909 -1.02643 3.30295C-0.850102 3.29939 -1.15116 3.2978 -1.15192 3.29767C-1.11291 3.29594 -1.07549 3.27297 -1.107 3.26841C-1.12422 3.26594 -1.28042 3.26732 -1.28644 3.26603C-1.42622 3.23532 -1.46592 3.20455 -1.39289 3.17341C-1.38973 3.17286 -1.21502 3.17368 -1.20978 3.17239C-1.1321 3.15436 -1.34583 3.14281 -1.47272 3.12794C-1.59956 3.11307 -1.55708 3.10128 -1.25715 3.09248C-1.29491 3.08126 -1.16231 3.06516 -1.08185 3.0559C-1.0014 3.04663 -1.34149 3.04534 -1.34821 3.04453C-1.5634 3.01911 -1.36874 3.00441 -1.33844 2.97804C-1.32346 2.9655 -1.37279 2.94063 -1.40998 2.92705C-1.43994 2.91632 -1.36024 2.90986 -1.4112 2.89997C-1.418 2.89864 -1.56943 2.89999 -1.57526 2.89958C-1.75643 2.88855 -1.38625 2.89385 -1.32013 2.89157C-1.07971 2.88331 -0.951661 2.87821 -1.06476 2.86408C-1.09067 2.86082 -1.62368 2.85133 -1.65485 2.84539C-1.6944 2.83766 -1.50335 2.84058 -1.54963 2.83249C-1.55341 2.8318 -1.67128 2.83194 -1.66608 2.82695C-1.64351 2.80378 -1.57492 2.77852 -1.58673 2.75444C-1.5879 2.75115 -1.77485 2.75537 -1.77961 2.75062C-1.80177 2.72832 -1.79485 2.70388 -1.70734 2.68216C-1.68521 2.67681 -1.55431 2.68016 -1.51545 2.679C-1.28028 2.67188 -1.62197 2.66177 -1.62848 2.6601C-1.79269 2.62033 -1.48345 2.58989 -1.63068 2.54935C-1.63932 2.54715 -2.00563 2.53016 -1.69147 2.52258C-1.67057 2.52206 -1.34915 2.51457 -1.56891 2.50794C-1.58266 2.50753 -1.74813 2.5122 -1.73127 2.50404C-1.71444 2.49589 -1.82494 2.48277 -1.64313 2.47156C-1.58586 2.46802 -1.26524 2.45963 -1.52082 2.44905C-1.53866 2.44836 -2.11656 2.43202 -1.71784 2.42619C-1.6522 2.42524 -1.23026 2.42623 -1.4466 2.4136C-1.48854 2.41119 -1.58265 2.41557 -1.64142 2.40921C-1.732 2.39947 -1.61899 2.38656 -1.80695 2.37458C-1.84022 2.37249 -2.12661 2.3636 -1.90924 2.35647C-1.8752 2.35536 -1.73433 2.35748 -1.71857 2.35371C-1.64295 2.3358 -1.73718 2.31705 -1.63971 2.29887C-1.60547 2.29243 -1.37774 2.29572 -1.31672 2.28901C-1.25571 2.28229 -1.19703 2.26877 -1.30109 2.26174C-1.4052 2.25471 -1.76814 2.26239 -1.79718 2.25186C-1.92332 2.20609 -1.71041 2.16076 -1.67926 2.11506C-1.67461 2.10828 -1.80448 2.1139 -1.80695 2.10391C-1.81661 2.06709 -1.93838 2.00351 -1.66242 1.97155C-1.44139 1.94595 -1.27312 1.97817 -1.18317 1.95861C-1.14026 1.94916 -1.56222 1.93895 -1.5755 1.93667C-1.71044 1.91441 -1.52353 1.89893 -1.58088 1.87889C-1.59278 1.87476 -1.7638 1.87882 -1.77204 1.87529C-1.8017 1.86326 -1.72536 1.85062 -1.73932 1.83913C-1.74598 1.83397 -1.8766 1.83492 -1.86652 1.83017C-1.8439 1.81882 -1.78899 1.80878 -1.66657 1.79771C-1.65541 1.7967 -1.49292 1.8035 -1.48688 1.7951C-1.47756 1.78151 -1.35679 1.76463 -1.48151 1.74899C-1.51903 1.74435 -1.81756 1.74416 -1.61139 1.73419C-1.56833 1.73209 -1.20986 1.73477 -1.5196 1.72314C-1.57107 1.72119 -1.98884 1.70167 -1.71955 1.69209C-1.64867 1.68956 -1.35533 1.68311 -1.40143 1.67753C-1.40879 1.67677 -1.56914 1.6798 -1.58478 1.67518C-1.63711 1.65888 -1.62001 1.64179 -1.67023 1.62505C-1.68396 1.62058 -1.84989 1.62724 -1.86505 1.62057C-1.90699 1.60224 -1.86475 1.57936 -1.81281 1.56144C-1.79334 1.55483 -1.65589 1.5594 -1.64093 1.55892C-1.39763 1.55119 -1.72603 1.54662 -1.74518 1.54405C-1.85984 1.52809 -1.70558 1.51594 -1.7464 1.50123C-1.75725 1.49717 -1.91384 1.50005 -1.9278 1.49924C-2.06422 1.49086 -1.78301 1.4971 -1.75202 1.4918C-1.66425 1.47694 -1.67683 1.46037 -1.69684 1.44534C-1.70442 1.43982 -1.88598 1.44602 -1.89069 1.44107C-1.92198 1.41175 -1.9046 1.38126 -1.80451 1.35265C-1.78533 1.34726 -1.64552 1.35065 -1.61359 1.34952C-1.39018 1.34178 -1.69491 1.33044 -1.72394 1.32783C-1.85648 1.31596 -1.73285 1.31135 -1.75592 1.30087C-1.87082 1.24967 -1.78893 1.18645 -1.73835 1.13812C-1.67324 1.07514 -1.54023 1.02627 -1.57477 0.966217C-1.57679 0.9624 -1.76278 0.966249 -1.76691 0.962959C-1.81175 0.920477 -1.73907 0.878654 -1.79279 0.836087C-1.79687 0.832594 -1.97319 0.837629 -1.98566 0.832022C-2.01248 0.820523 -2.0029 0.805955 -1.9466 0.794328C-1.91947 0.788657 -1.76817 0.796264 -1.74396 0.790555C-1.68724 0.777263 -1.67468 0.763015 -1.70295 0.749362C-1.71536 0.743552 -1.89569 0.752318 -1.89777 0.744766C-1.91566 0.693323 -1.94672 0.642801 -1.7132 0.590815C-1.69716 0.587251 -1.33066 0.584124 -1.40094 0.576547C-1.50266 0.575976 -1.6223 0.576007 -1.73102 0.575758C-1.78958 0.50087 -1.66253 0.426747 -1.64289 0.351649C-1.6421 0.348482 -1.83629 0.353954 -1.83576 0.347824C-1.83289 0.312345 -1.88668 0.277892 -1.69367 0.241601C-1.67479 0.238 -1.33316 0.239847 -1.38483 0.229236C-1.39426 0.227364 -1.43982 0.211382 -1.51398 0.20725C-1.52517 0.206689 -1.68463 0.209605 -1.68927 0.204455C-1.71349 0.174527 -1.67708 0.143164 -1.57965 0.113288C-1.56363 0.108466 -1.39382 0.113601 -1.38092 0.110167C-1.29078 0.085806 -1.41987 0.059308 -1.26569 0.0360298C-1.16188 0.0204483 -0.868347 0.026217 -0.579414 0.0179372C-0.538649 0.0167661 -0.532189 0.00711747 -0.364082 0.00661851C0.0586386 0.00533753 0.521516 0.010011 0.972095 0.00809336C1.06915 0.00768822 0.964616 -0.00523374 1.19915 0.00241689C1.21484 0.00295136 1.29268 0.0123198 1.37224 0.0146273C1.42725 0.0162338 1.59821 0.0133388 1.66863 0.0166166C1.73897 0.0198942 1.59566 0.0234958 1.67839 0.02893C1.76215 0.0343617 1.95664 0.0319733 1.97966 0.042821ZM-0.722235 3.01419C-0.558912 3.00561 -1.1571 3.00435 -1.01398 3.01362C-1.00635 3.01407 -0.730248 3.01463 -0.722235 3.01419ZM-0.627753 4.05192C-0.36391 4.04071 -0.751865 4.03304 -0.955633 4.04095C-1.15918 4.04885 -0.707734 4.05534 -0.627753 4.05192ZM-0.435127 4.16819C-0.227098 4.15509 -1.07535 4.15303 -0.903875 4.16706C-0.894185 4.16788 -0.447206 4.16896 -0.435127 4.16819ZM-0.497138 0.0563348C-0.489195 0.0562164 -0.481453 0.0492806 -0.489326 0.0491149C-0.67931 0.0454217 -0.69466 0.0592904 -0.497138 0.0563348ZM-0.225411 4.28358C-0.110666 4.27949 -0.243125 4.26771 -0.385811 4.27279C-0.500597 4.27688 -0.368147 4.28867 -0.225411 4.28358ZM-0.0838097 2.56678C-0.0748958 2.56664 -0.0668691 2.56167 -0.117257 2.56177C-0.279545 2.56211 -0.233743 2.56903 -0.0838097 2.56678ZM-0.215645 4.47968C-0.183716 4.45071 0.516985 4.43314 0.437917 4.46469C0.423612 4.47041 0.214469 4.45238 0.151297 4.45965C0.0362076 4.47296 0.476162 4.48179 0.240408 4.49537C0.197257 4.49783 -0.219024 4.48133 -0.216622 4.47963C-0.216296 4.47965 -0.215971 4.47966 -0.215645 4.47968ZM-0.00373178 3.00925C0.00417809 3.00908 0.0116786 3.0022 0.00383655 3.00203C-0.186071 2.9983 -0.201292 3.01217 -0.00373178 3.00925ZM0.286062 2.27663C0.302918 2.27625 0.318682 2.26027 0.303152 2.25975C-0.00739871 2.25142 -0.0401906 2.28371 0.286062 2.27663ZM0.434011 3.47284C0.62506 3.48035 0.647554 3.48933 0.407644 3.49532C0.42038 3.48785 0.422256 3.48034 0.434011 3.47284Z" fill="#232322"/>
</svg>
