<svg width="3" height="12" viewBox="0 0 3 12" fill="none" xmlns="http://www.w3.org/2000/svg">
<path d="M-1.05058 10.9985C-1.1021 10.9348 -1.04553 10.8542 -0.968413 10.7945C-0.94449 10.7756 -0.838583 10.7863 -0.817295 10.7731C-0.775804 10.7484 -0.827529 10.7235 -0.778145 10.6983C-0.761258 10.6898 -0.593458 10.7025 -0.579594 10.6935C-0.504858 10.6465 -0.547106 10.5992 -0.510867 10.5509C-0.402508 10.4056 -0.335663 10.2619 -0.28214 10.1153C-0.247353 10.0214 -0.218181 9.9258 -0.186734 9.82798C-0.160591 9.74764 -0.00672662 9.64858 -0.0719872 9.5644C-0.0797534 9.55436 -0.227231 9.55783 -0.239347 9.55574C-0.424808 9.52288 -0.127444 9.53775 -0.0875818 9.5189C0.0697879 9.44604 0.0849612 9.36164 0.0296353 9.28624C0.00566083 9.25453 -0.287706 9.2796 -0.122749 9.2518C-0.111602 9.24987 0.0447226 9.26107 0.0615945 9.25292C0.0995424 9.2345 0.0723854 9.19695 0.0851312 9.18197C0.110488 9.15302 0.109016 9.1486 0.111442 9.12132C0.116116 9.08436 0.195039 9.04016 0.160602 8.99994C0.15279 8.99118 -0.00790936 8.99837 -0.0348501 8.98398C-0.0617493 8.9696 -0.0471747 8.93342 -0.00902253 8.92204C0.0291455 8.91069 0.155073 8.91942 0.18403 8.91802C0.428429 8.90639 0.0917866 8.85594 0.0835977 8.85006C-0.0558934 8.74671 0.13919 8.6678 0.141775 8.57558C0.143348 8.50507 0.0825554 8.4279 0.0938634 8.36077C0.10793 8.28155 0.197614 8.21664 0.186005 8.13922C0.184968 8.13099 -0.00393331 8.13239 -0.00557828 8.12229C-0.0228512 8.01438 0.00271142 7.90892 0.135277 7.80992C0.14874 7.79996 0.313474 7.82205 0.336815 7.81264C0.476083 7.75404 0.808034 7.67189 0.0901694 7.5926C0.120766 7.54985 0.152888 7.49843 0.300363 7.46757C0.395279 7.44775 0.573934 7.48317 0.49894 7.44746C0.482239 7.43941 0.323941 7.43904 0.310828 7.42764C0.255752 7.37996 0.310027 7.33488 0.231365 7.28561C0.214994 7.27556 0.0735264 7.26893 0.0482435 7.26474C-0.156446 7.22977 0.186515 7.21661 0.211775 7.21059C0.400214 7.16426 0.330538 7.11613 0.338853 7.06207C0.340868 7.04949 0.150078 7.05114 0.145206 7.0385C0.122486 6.97309 0.143656 6.90776 0.232518 6.85213C0.252744 6.83975 0.413332 6.86474 0.431262 6.85947C0.508352 6.83624 0.203738 6.8063 0.27184 6.78334C0.285806 6.77848 0.423827 6.7926 0.439098 6.7927C0.678803 6.79455 0.34216 6.75363 0.335049 6.74866C0.237491 6.68589 0.592881 6.67955 0.547324 6.62298C0.541522 6.61614 0.365442 6.61581 0.359832 6.59746C0.321401 6.47542 0.38065 6.35365 0.53148 6.25025C0.554692 6.23419 0.684707 6.25961 0.700995 6.26C0.955537 6.26568 0.617986 6.22138 0.605806 6.21419C0.518497 6.15859 0.806736 6.14335 0.406679 6.07132C0.539456 5.91866 0.420795 5.73939 0.597569 5.59422C0.633523 5.56479 0.681688 5.53696 0.746642 5.51144C0.751119 5.50947 0.916911 5.53422 0.925122 5.53024C1.02577 5.4826 0.76588 5.46233 0.454819 5.38289C0.376734 5.36275 0.762098 5.38066 0.790388 5.38167C0.894665 5.38511 1.14068 5.42667 1.16105 5.42598C1.32112 5.41955 0.5028 5.31909 0.507303 5.28221C0.508814 5.28124 0.658681 5.30556 0.674041 5.30444C0.722249 5.30104 0.663681 5.28383 0.716693 5.2813C0.83934 5.27564 1.23746 5.32075 1.01059 5.25805C0.981139 5.24997 0.51671 5.1946 0.542995 5.16476C0.55385 5.15296 0.553734 5.0942 0.585992 5.08219C0.618196 5.0702 0.765969 5.10182 0.772593 5.10155C0.975943 5.08574 1.0555 5.11341 1.35067 5.13281C1.64471 5.15237 0.949629 5.06113 0.873374 5.04147C0.797343 5.0218 0.964602 5.01322 1.02228 5.01362C1.07999 5.01398 1.17344 5.03702 1.20644 5.03477C1.42216 5.01962 0.864803 4.96574 0.756815 4.93491C0.501179 4.86165 1.01974 4.90831 1.07484 4.88374C1.08973 4.87702 0.971535 4.86693 0.961724 4.85753C0.924446 4.82043 1.08763 4.82586 0.945794 4.76876C0.922669 4.75953 0.617917 4.68422 0.847519 4.70013C0.880616 4.7025 1.00758 4.72933 1.03826 4.72058C1.0843 4.70754 1.11768 4.67668 1.07814 4.64904C1.04889 4.6286 0.835168 4.61374 0.903748 4.60426C0.934362 4.6001 1.05526 4.63539 1.10247 4.62603C1.14965 4.61677 1.15072 4.57456 1.14896 4.55814C1.14709 4.54173 0.985794 4.52499 0.975219 4.52202C0.914715 4.50454 0.842451 4.46181 0.843077 4.45913C0.845339 4.31976 1.13527 4.24021 1.06869 4.09421C1.06371 4.08275 0.894242 4.06065 0.891746 4.0586C0.827341 4.01106 1.26994 4.11604 1.4239 4.1175C1.08185 4.06197 1.14617 4.05818 1.11304 4.0269C1.0968 4.01177 0.96349 3.99523 0.950147 3.99178C0.752492 3.93894 1.01397 3.97181 1.06756 3.97797C1.26472 4.00047 1.03644 3.94723 1.16824 3.96219C1.29906 3.97707 1.48771 4.02907 1.4894 4.00511C1.36842 3.9769 1.04609 3.93818 0.997548 3.91097C0.813925 3.80781 1.08735 3.72495 1.12337 3.67539C1.15936 3.62562 1.14015 3.60382 1.19013 3.58029C1.2805 3.53789 1.04018 3.51469 0.938717 3.45853C0.837327 3.40219 1.41551 3.52945 1.54148 3.54791C1.66736 3.56653 1.53978 3.53677 1.60963 3.54356C1.67947 3.55039 1.76192 3.57982 1.79045 3.57022C1.81893 3.56066 1.60426 3.47876 1.47461 3.44856C1.19992 3.38472 0.90595 3.34732 1.01549 3.32781C1.02198 3.32673 1.1734 3.36329 1.19049 3.35769C1.32116 3.31232 1.34212 3.2434 1.45935 3.19632C1.47571 3.18991 1.64392 3.23161 1.65536 3.22827C1.77502 3.19371 1.48472 3.15729 1.17282 3.06329C1.59468 3.15413 1.85696 3.18849 1.86788 3.14676C1.87461 3.12166 1.68895 3.08912 1.56203 3.04648C1.52377 3.03364 1.65426 3.04099 1.56804 3.02026C1.2862 2.95234 0.964803 2.90558 1.10033 2.88674C1.10673 2.88601 1.26093 2.92353 1.2717 2.91874C1.34204 2.88798 1.0461 2.82267 1.01971 2.7683C0.999008 2.72563 1.19343 2.69734 1.23148 2.66175C1.70638 2.76068 1.60565 2.69923 1.2815 2.61524C1.30052 2.59094 1.2881 2.55788 1.33881 2.54121C1.35612 2.53545 1.49236 2.57011 1.50745 2.57208C1.74408 2.60353 1.42804 2.52514 1.41679 2.51667C1.30871 2.42789 1.56085 2.42759 1.33789 2.31727C1.32985 2.31334 1.00102 2.23968 1.2451 2.27477C1.26191 2.27728 1.40761 2.32912 1.42525 2.30325C1.44293 2.2773 1.63094 2.26194 1.48674 2.18987C1.45202 2.17249 1.18982 2.09071 1.40291 2.11645C1.43184 2.12 1.52569 2.14321 1.57906 2.15086C1.74914 2.17508 1.41767 2.09652 1.70351 2.14365C1.98935 2.19077 2.20738 2.20777 2.02086 2.12604C2.01546 2.12356 1.75372 2.05682 1.7606 2.0453C1.7718 2.02699 1.83289 2.01084 1.83569 1.98983C1.83693 1.97974 1.6718 1.95022 1.66918 1.94785C1.59202 1.8611 1.74845 1.84557 1.82752 1.78838C1.84233 1.778 1.62749 1.69093 1.80954 1.70476C2.00883 1.71989 2.80585 1.92682 2.62855 1.82094C2.55766 1.77851 1.54598 1.51842 2.08422 1.59017C1.97348 1.47123 2.26219 1.44925 2.09577 1.3174C2.08841 1.3115 1.80709 1.23447 1.81311 1.22582C1.8226 1.21312 1.95718 1.23544 1.96821 1.22735C2.01777 1.19421 1.9129 1.12981 1.93982 1.09314C1.94975 1.07915 2.08584 1.11576 2.0977 1.0991C2.10943 1.08242 1.93141 1.029 2.02442 1.02391C2.09527 1.0202 2.4691 1.0856 2.51785 1.0705C2.15357 0.986436 2.16499 0.971001 2.07574 0.918528C2.05841 0.9084 1.93012 0.885735 1.91538 0.87945C1.85257 0.853222 1.9601 0.866767 1.89138 0.83978C1.87488 0.833264 1.75044 0.804713 1.72993 0.797778C1.55078 0.737733 1.8376 0.771759 1.88751 0.777801C2.07713 0.80047 1.91736 0.754265 1.99371 0.755857C2.07004 0.757478 2.15601 0.800835 2.20427 0.793375C2.30409 0.777886 2.29472 0.726413 2.30892 0.690734C2.31382 0.676325 2.14539 0.648319 2.14224 0.645372C2.1071 0.605182 2.29088 0.614823 1.96388 0.52199C2.82428 0.697039 1.88513 0.484534 2.06642 0.480116C2.08106 0.47985 2.48663 0.568308 2.543 0.595144C2.59931 0.621965 2.46825 0.612978 2.55663 0.652528C2.57737 0.661854 2.95079 0.773625 2.97298 0.782271C3.14638 0.849932 2.54092 0.715079 2.50739 0.708874C2.14538 0.642653 2.54687 0.766581 2.57326 0.781049C2.6942 0.847244 2.60206 0.858813 2.68739 0.910481C2.74248 0.944106 3.13811 1.03665 3.12241 1.04953C3.07045 1.09235 2.51369 0.984466 2.98163 1.14288C3.08142 1.17671 3.51677 1.26503 3.16774 1.225C3.14574 1.22246 2.8279 1.17941 3.02123 1.24048C3.04561 1.24817 3.17182 1.27684 3.18181 1.28193C3.2463 1.31546 3.14304 1.30453 3.18676 1.33499C3.23047 1.36545 3.29693 1.40519 3.24908 1.4177C3.22044 1.42528 2.98139 1.38911 2.92235 1.3825C2.75238 1.36307 3.0199 1.44417 2.81651 1.40992C2.61207 1.37557 2.31055 1.28389 2.17336 1.28423C2.50106 1.35957 2.83709 1.43829 3.16651 1.5147C3.14026 1.57707 3.01975 1.61715 3.01959 1.68563C3.01989 1.69419 3.19812 1.72557 3.203 1.73575C3.22283 1.77851 3.08993 1.78222 3.13154 1.8313C3.16442 1.86944 3.34406 1.94321 3.38433 1.98419C3.00462 1.91915 3.12199 1.99307 3.08037 2.01839C3.06594 2.02731 2.96579 2.00431 2.93123 2.00528C2.8033 2.00952 3.1385 2.06845 3.18887 2.08849C3.40382 2.17411 2.65165 2.01125 2.66069 2.05857C2.66091 2.06105 3.05542 2.17707 3.07954 2.18635C3.2369 2.24641 2.9392 2.15973 2.90624 2.16848C2.84603 2.18443 2.74608 2.18287 2.85632 2.24121C2.889 2.25837 3.13385 2.33564 2.93659 2.31199C2.91076 2.30891 2.77856 2.27871 2.77037 2.27898C2.6333 2.28634 3.04944 2.37779 3.18609 2.42851C3.32271 2.4792 3.02853 2.44803 2.94429 2.43654C2.72635 2.40687 2.85545 2.40398 2.83461 2.39853C2.5866 2.33377 2.62475 2.36596 2.59982 2.37888C2.19093 2.29326 2.21013 2.32315 2.57563 2.39263C2.61556 2.40019 2.58041 2.37837 2.59982 2.37888C2.99715 2.48075 3.04277 2.51824 2.66193 2.46741C2.48343 2.44359 2.28159 2.38655 2.3474 2.44491C2.37709 2.47134 2.65996 2.52408 2.73305 2.55733C2.89982 2.63313 2.62676 2.6272 2.65971 2.67571C2.67169 2.69328 2.8287 2.71183 2.8422 2.72494C2.87851 2.75977 2.75806 2.75842 2.81179 2.79703C2.81686 2.80056 2.97937 2.82866 2.97973 2.8372C2.98557 2.90255 2.87108 2.93449 2.85494 2.99816C2.84721 3.02895 2.92489 3.10257 2.90045 3.13097C2.85903 3.18031 2.61025 3.20138 2.65777 3.2606C2.68809 3.29899 2.85112 3.32449 2.95862 3.35972C3.16707 3.42773 2.77561 3.39677 2.71514 3.39128C2.71314 3.39109 2.6803 3.35684 2.59447 3.35464C2.41985 3.32868 2.71444 3.39084 2.71514 3.39128C2.67607 3.3877 2.62882 3.43384 2.65768 3.45051C2.67345 3.45958 2.82735 3.48643 2.83268 3.49058C2.95592 3.58848 2.98124 3.66652 2.89582 3.72455C2.89248 3.72522 2.72123 3.69056 2.71551 3.69256C2.63125 3.71977 2.83616 3.78642 2.95444 3.84399C3.07267 3.90159 3.02593 3.92051 2.72727 3.88601C2.75958 3.91878 2.62234 3.93181 2.53926 3.93879C2.45618 3.94579 2.79017 4.00999 2.79644 4.01306C2.99747 4.11009 2.79988 4.10882 2.7592 4.16429C2.73928 4.19051 2.77774 4.25631 2.80895 4.29384C2.83416 4.32358 2.75306 4.32476 2.79935 4.35614C2.80552 4.36036 2.95527 4.38308 2.96085 4.38501C3.13504 4.44098 2.77233 4.36594 2.70628 4.35993C2.46608 4.33805 2.3378 4.32844 2.44371 4.3802C2.46794 4.3922 2.98972 4.50326 3.01819 4.52185C3.05423 4.54598 2.86695 4.50759 2.90948 4.53372C2.91295 4.53592 3.02924 4.55514 3.02221 4.56561C2.99113 4.61446 2.91396 4.66083 2.91674 4.71752C2.91667 4.72518 3.10277 4.74554 3.10572 4.75704C3.11943 4.81099 3.10385 4.86488 3.00971 4.90048C2.98596 4.90916 2.85781 4.88137 2.819 4.87801C2.58409 4.85805 2.91815 4.93363 2.92402 4.93831C3.07245 5.05308 2.75629 5.07606 2.88854 5.18952C2.89634 5.19593 3.25339 5.28625 2.93999 5.25869C2.91914 5.25683 2.5985 5.22856 2.81394 5.27454C2.82742 5.27738 2.99274 5.2901 2.97344 5.30609C2.95417 5.32218 3.05948 5.36685 2.8759 5.36714C2.81808 5.36719 2.49778 5.34271 2.74772 5.40144C2.76514 5.40567 3.33285 5.51978 2.93596 5.47955C2.87063 5.4729 2.45272 5.41456 2.6633 5.47203C2.70415 5.48304 2.79875 5.48557 2.8551 5.50768C2.94197 5.5415 2.82608 5.55597 3.009 5.60707C3.04137 5.61612 3.32287 5.67242 3.10524 5.66062C3.07115 5.65879 2.93203 5.63615 2.91531 5.64261C2.83515 5.67339 2.92337 5.72722 2.82162 5.7562C2.78586 5.76655 2.56072 5.73148 2.49828 5.73942C2.43586 5.74734 2.37385 5.77145 2.47528 5.7998C2.566 5.82509 2.8653 5.84805 2.94636 5.87195C2.95597 5.87479 2.96252 5.87764 2.96528 5.8805C3.07849 5.99746 2.8556 6.07517 2.81365 6.1758C2.80741 6.19069 2.9379 6.19156 2.93799 6.21439C2.93878 6.29885 3.04589 6.45363 2.76441 6.50061C2.53887 6.53888 2.37822 6.44909 2.28445 6.48606C2.23968 6.50418 2.65774 6.56615 2.67051 6.57248C2.80029 6.63546 2.61098 6.65438 2.66412 6.70552C2.67516 6.71604 2.84635 6.72143 2.85386 6.73018C2.88105 6.76015 2.80255 6.78249 2.81428 6.80995C2.81993 6.82235 2.95028 6.83097 2.93934 6.84097C2.91465 6.86505 2.85807 6.88347 2.73399 6.89906C2.72269 6.9005 2.56198 6.8718 2.5544 6.89069C2.54261 6.92118 2.41912 6.95098 2.54069 6.99687C2.57727 7.01051 2.87491 7.03358 2.66759 7.04091C2.62429 7.04246 2.26729 7.00939 2.57414 7.05948C2.6251 7.06802 3.03843 7.14334 2.76825 7.14581C2.69714 7.14646 2.40348 7.14027 2.44853 7.15659C2.45574 7.15887 2.61619 7.16334 2.63102 7.17515C2.68052 7.2166 2.66073 7.25442 2.70817 7.29681C2.72117 7.30808 2.88776 7.304 2.90185 7.32037C2.94082 7.36546 2.89524 7.41455 2.84075 7.45284C2.82035 7.46687 2.68385 7.44756 2.66885 7.44771C2.4249 7.45023 2.75197 7.48165 2.77071 7.48873C2.88283 7.53276 2.72716 7.55089 2.76585 7.58758C2.77611 7.59765 2.93282 7.60036 2.94664 7.60307C3.08166 7.63057 2.80182 7.59935 2.77014 7.60979C2.68048 7.63904 2.6908 7.67821 2.70882 7.71394C2.71567 7.72713 2.89775 7.72302 2.9018 7.73478C2.92919 7.8047 2.90812 7.87302 2.80474 7.93469C2.78495 7.9462 2.64573 7.93122 2.6137 7.9322C2.38966 7.93893 2.69268 7.98067 2.72138 7.98806C2.85241 8.02191 2.72839 8.02673 2.75026 8.05228C2.85929 8.1761 2.77111 8.31966 2.71619 8.42995C2.6454 8.57456 2.50854 8.68436 2.53873 8.82642C2.54048 8.83534 2.72665 8.83208 2.73055 8.83982C2.77233 8.94126 2.69702 9.03645 2.74827 9.13794C2.75215 9.14626 2.9287 9.13875 2.94085 9.1522C2.967 9.17997 2.95665 9.21276 2.89973 9.23924C2.87231 9.25204 2.72146 9.23061 2.69695 9.24359C2.63953 9.27386 2.62625 9.30688 2.65385 9.33935C2.66597 9.35347 2.84669 9.33632 2.8484 9.35434C2.8638 9.47522 2.89276 9.59497 2.65742 9.71441C2.64126 9.72262 2.27469 9.72465 2.3447 9.74358C2.44639 9.74642 2.56602 9.74809 2.67472 9.75025C2.71644 9.88338 2.65535 10.0147 2.61257 10.1486C2.59795 10.1958 2.58549 10.2407 2.57996 10.2872C2.57908 10.2947 2.77341 10.2839 2.77271 10.2985C2.76886 10.3846 2.8217 10.4686 2.62771 10.5542C2.60874 10.5627 2.26719 10.5537 2.31856 10.5805C2.32793 10.5857 2.37307 10.6237 2.44711 10.6351C2.45828 10.6366 2.61781 10.6312 2.62231 10.6439C2.64572 10.717 2.60849 10.7912 2.51029 10.863C2.49414 10.8744 2.32447 10.8603 2.31149 10.8683C2.22074 10.9256 2.34914 10.9913 2.19449 11.0444C2.09037 11.0795 1.79697 11.0636 1.5079 11.0808C1.46711 11.0835 1.46054 11.1048 1.29244 11.1053C0.869712 11.1076 0.406876 11.094 -0.0437174 11.0975C-0.140797 11.0991 -0.0362753 11.1346 -0.270799 11.1139C-0.286513 11.1127 -0.364261 11.0832 -0.443769 11.0769C-0.498747 11.072 -0.669759 11.079 -0.740115 11.0696C-0.810401 11.0597 -0.667025 11.0513 -0.749636 11.0366C-0.833265 11.0216 -1.02781 11.0262 -1.05058 10.9985ZM2.16777 3.97144C2.00341 3.96254 2.59157 4.07162 2.45462 4.02468C2.4473 4.02229 2.17584 3.97184 2.16777 3.97144ZM2.57968 1.5176C2.31633 1.48605 2.69076 1.58929 2.89374 1.61544C3.09649 1.6416 2.65952 1.52715 2.57968 1.5176ZM2.45381 1.20112C2.24393 1.18596 3.07003 1.37864 2.9103 1.30767C2.90129 1.3036 2.466 1.202 2.45381 1.20112ZM1.42642 10.9889C1.41847 10.9891 1.41057 11.0056 1.41844 11.0062C1.60833 11.0169 1.624 10.9837 1.42642 10.9889ZM2.31143 0.882176C2.19736 0.866265 2.32013 0.92362 2.46198 0.943392C2.57609 0.959298 2.45333 0.901965 2.31143 0.882176ZM1.36386 4.9253C1.35499 4.92433 1.3453 4.93507 1.39519 4.94212C1.55589 4.96483 1.51298 4.94174 1.36386 4.9253ZM2.40808 0.416813C2.36125 0.478143 1.66878 0.362891 1.76296 0.306017C1.78 0.295712 1.97406 0.385111 2.03958 0.382057C2.15897 0.376361 1.73496 0.257035 1.97211 0.27767C2.0155 0.281514 2.41227 0.413666 2.40901 0.417154C2.4087 0.417039 2.40839 0.416928 2.40808 0.416813ZM1.45861 3.85535C1.45075 3.85435 1.4404 3.86945 1.44805 3.87124C1.63336 3.91374 1.65427 3.88352 1.45861 3.85535ZM0.903572 5.5761C0.88672 5.575 0.86641 5.61207 0.881688 5.61517C1.18768 5.67185 1.22952 5.59804 0.903572 5.5761ZM1.24428 2.66371C1.06089 2.6071 1.04336 2.58083 1.28124 2.61527C1.26506 2.63054 1.2595 2.64813 1.24428 2.66371Z" fill="#232322"/>
</svg>
