<svg width="2" height="13" viewBox="0 0 2 13" fill="none" xmlns="http://www.w3.org/2000/svg">
<path d="M-1.16435 12.5733C-1.21646 12.5045 -1.16074 12.4144 -1.08427 12.3459C-1.06056 12.3242 -0.954541 12.3353 -0.933396 12.3198C-0.892176 12.2924 -0.944171 12.2629 -0.895066 12.2357C-0.878274 12.2263 -0.710344 12.2381 -0.696581 12.2281C-0.622366 12.1726 -0.665139 12.1223 -0.629442 12.0661C-0.453322 11.7944 -0.390283 11.5242 -0.31377 11.2503C-0.288685 11.1573 -0.136281 11.0468 -0.20293 10.9548C-0.210861 10.9439 -0.358261 10.9504 -0.37041 10.9483C-0.556393 10.9154 -0.258823 10.9263 -0.219287 10.9047C-0.199678 10.8938 -0.182317 10.8827 -0.167062 10.8715C-0.0608876 10.7987 -0.0567482 10.7123 -0.106422 10.6433C-0.13102 10.6085 -0.423831 10.6432 -0.259461 10.6081C-0.248355 10.6057 -0.0918372 10.6147 -0.0751312 10.6051C-0.037558 10.5834 -0.0654678 10.5413 -0.0530298 10.524C-0.0282711 10.4923 -0.0298336 10.487 -0.0279699 10.4564C-0.0240589 10.4149 0.0539285 10.3632 0.0186621 10.3183C0.0106689 10.3088 -0.149845 10.3206 -0.177082 10.3054C-0.204276 10.2901 -0.190464 10.2496 -0.152559 10.2359C-0.114638 10.2223 0.0114458 10.2289 0.0403669 10.2267C0.284466 10.2081 -0.0531498 10.1582 -0.0614594 10.1518C-0.203106 10.042 -0.009664 9.94364 -0.00899905 9.84246C-0.00888127 9.76357 -0.0711976 9.67648 -0.0612575 9.60228C-0.048763 9.5121 0.0396191 9.43736 0.0265161 9.35043C0.0253209 9.34118 -0.163531 9.34797 -0.16537 9.33661C-0.184669 9.21339 -0.161229 9.09908 -0.0304039 8.98028C-0.0171272 8.96875 0.14801 8.98873 0.17117 8.97769C0.309279 8.91003 0.639763 8.80652 -0.0795101 8.73797C-0.0496716 8.68852 -0.0185286 8.63126 0.128393 8.59211C0.222952 8.56708 0.402249 8.60146 0.32661 8.56363C0.309763 8.55509 0.151455 8.55944 0.138137 8.54703C0.0822125 8.4948 0.135748 8.44089 0.0561359 8.38951C0.0395779 8.37889 -0.102016 8.37577 -0.127377 8.3719C-0.332732 8.33956 0.0100231 8.31394 0.0351766 8.30639C0.222791 8.24861 0.152313 8.19521 0.159617 8.13502C0.161397 8.121 -0.0293766 8.12883 -0.0344859 8.11498C-0.0584353 8.04319 -0.0384859 7.96975 0.0494155 7.90327C0.0694255 7.88851 0.230494 7.91125 0.248335 7.90464C0.325045 7.87519 0.019785 7.85278 0.0874466 7.82513C0.101318 7.81931 0.239632 7.8303 0.254907 7.82991C0.494674 7.82398 0.157197 7.78983 0.149988 7.78456C0.0512064 7.71799 0.40655 7.6982 0.359916 7.63593C0.353984 7.62842 0.177849 7.6346 0.171892 7.61405C0.13107 7.47891 0.187831 7.34084 0.336472 7.21904C0.359331 7.20034 0.489945 7.22332 0.506246 7.22311C0.760981 7.2192 0.422357 7.18352 0.410011 7.17605C0.321429 7.11787 0.609424 7.08854 0.207605 7.02485C0.363213 6.81292 0.153149 6.57362 0.533017 6.38428C0.537439 6.38183 0.704031 6.40058 0.712131 6.39564C0.811449 6.33629 0.55084 6.32775 0.23723 6.25597C0.158491 6.23784 0.544504 6.23699 0.572844 6.23643C0.677263 6.23447 0.924705 6.26684 0.945057 6.26495C1.10499 6.24873 0.283128 6.1832 0.286395 6.14231C0.287875 6.14116 0.438595 6.1596 0.453923 6.15748C0.502034 6.15097 0.442875 6.13522 0.495822 6.12935C0.618322 6.11599 1.01811 6.14277 0.789076 6.08596C0.759346 6.07867 0.292867 6.04455 0.318154 6.00966C0.328617 5.99584 0.326513 5.92988 0.358382 5.91423C0.390199 5.89865 0.53913 5.92494 0.545748 5.92422C0.748589 5.89439 0.829167 5.92019 1.12515 5.92343C1.42001 5.92674 0.721368 5.8687 0.644368 5.85165C0.567589 5.83461 0.734594 5.81458 0.792316 5.81127C0.850061 5.80797 0.94439 5.82771 0.977327 5.82305C1.19261 5.79199 0.633014 5.76797 0.523845 5.74056C0.265377 5.67552 0.785913 5.69357 0.840157 5.66191C0.854813 5.65329 0.736173 5.64999 0.726011 5.64005C0.687319 5.60097 0.85093 5.59464 0.706728 5.54139C0.683233 5.53267 0.375356 5.4699 0.605674 5.47201C0.638878 5.47239 0.766961 5.49355 0.79731 5.48172C0.842844 5.46407 0.875021 5.42725 0.834364 5.39908C0.80428 5.37826 0.589849 5.37678 0.658087 5.36132C0.688552 5.35447 0.810922 5.38542 0.857791 5.37153C0.904628 5.35777 0.90403 5.3101 0.90162 5.29163C0.899104 5.27322 0.737024 5.26627 0.726324 5.26369C0.665081 5.24843 0.591059 5.20555 0.591579 5.20248C0.587905 5.04826 0.874694 4.93642 0.801763 4.77752C0.796258 4.76521 0.625716 4.75366 0.623127 4.75159C0.556539 4.70388 1.0041 4.78633 1.15821 4.77603C0.813473 4.74076 0.877661 4.7316 0.84311 4.69933C0.826184 4.68374 0.692045 4.67576 0.67854 4.67297C0.478386 4.62962 0.741505 4.64572 0.795409 4.64834C0.99371 4.65784 0.762896 4.61645 0.895466 4.62267C1.02705 4.62883 1.21815 4.67204 1.21879 4.64496C1.09646 4.62305 0.772148 4.60557 0.722358 4.57897C0.534006 4.47813 0.804001 4.36231 0.837666 4.30482C0.871383 4.24642 0.851157 4.22358 0.900115 4.19298C0.988664 4.13769 0.747031 4.13193 0.642914 4.07737C0.538863 4.02256 1.12347 4.11643 1.25042 4.12644C1.3773 4.1366 1.24823 4.11396 1.31848 4.11557C1.38871 4.11722 1.47258 4.14343 1.50072 4.13003C1.52885 4.11648 1.31018 4.04285 1.17898 4.02026C0.901035 3.97222 0.60505 3.95513 0.713753 3.92442C0.720193 3.92268 0.873476 3.95066 0.890311 3.94302C1.01895 3.88171 1.03674 3.8027 1.15202 3.73925C1.16811 3.73057 1.33845 3.76282 1.34975 3.75803C1.46805 3.70833 1.17567 3.69288 0.859078 3.61425C1.28564 3.6797 1.55 3.69428 1.55891 3.64735C1.56446 3.61887 1.37705 3.59853 1.24798 3.56197C1.20906 3.55096 1.34006 3.54793 1.25276 3.53225C0.967397 3.48082 0.643409 3.45644 0.778225 3.42371C0.784606 3.42234 0.940753 3.45088 0.951309 3.44459C1.02033 3.40405 0.720954 3.3568 0.692055 3.29809C0.669375 3.25204 0.862898 3.20261 0.899487 3.15873C1.37964 3.22779 1.2759 3.16826 0.947394 3.10284C0.965315 3.07422 0.95136 3.03841 1.00141 3.01534C1.01848 3.00738 1.15652 3.03419 1.17172 3.03507C1.41017 3.04949 1.09007 2.98951 1.07841 2.98101C0.966178 2.89105 1.21883 2.8681 0.990734 2.76331C0.982512 2.75958 0.649815 2.70595 0.895947 2.72354C0.912899 2.72486 1.06111 2.77042 1.07772 2.73946C1.09424 2.70923 1.2819 2.67595 1.13429 2.60798C1.09875 2.5916 0.832486 2.52298 1.04714 2.53315C1.07627 2.53459 1.17132 2.55238 1.22513 2.55627C1.3966 2.56852 1.06108 2.50952 1.34955 2.53727C1.63801 2.56501 1.85724 2.56499 1.66694 2.4894C1.66143 2.48709 1.39632 2.43504 1.40276 2.42141C1.41326 2.39971 1.47387 2.37601 1.47587 2.35189C1.47673 2.34032 1.30999 2.32167 1.30727 2.31921C1.22628 2.22938 1.38242 2.19883 1.45945 2.12795C1.47389 2.11506 1.25512 2.03576 1.43822 2.03556C1.63866 2.03536 2.44571 2.19953 2.26394 2.09577C2.19122 2.0545 1.16725 1.8469 1.70953 1.88291C1.59397 1.75992 1.88272 1.71168 1.71142 1.57715C1.70384 1.57113 1.41907 1.50766 1.42484 1.49737C1.43397 1.48222 1.56974 1.49621 1.58055 1.48614C1.62931 1.44434 1.52202 1.38073 1.54783 1.33789C1.55734 1.32153 1.69503 1.35168 1.7064 1.33221C1.71764 1.31274 1.53737 1.26701 1.63054 1.25406C1.70153 1.24436 2.0786 1.28839 2.12707 1.2678C1.75904 1.20203 1.77005 1.18388 1.67901 1.13188C1.66134 1.12184 1.53193 1.1064 1.51696 1.10049C1.45321 1.07588 1.56152 1.08268 1.49182 1.05765C1.47508 1.05159 1.34939 1.02917 1.32862 1.02295C1.14719 0.96921 1.43609 0.984973 1.48636 0.987884C1.67735 0.9986 1.51577 0.958842 1.5925 0.954612C1.66921 0.950451 1.75658 0.992846 1.80487 0.980622C1.9047 0.95557 1.89382 0.899739 1.9072 0.85886C1.91176 0.842459 1.74201 0.823396 1.73876 0.820345C1.70252 0.777984 1.88724 0.775555 1.55684 0.695193C2.42466 0.82914 1.47691 0.658935 1.65893 0.640693C1.67363 0.639322 2.08276 0.709541 2.13994 0.735533C2.19706 0.761493 2.06528 0.760761 2.15493 0.79859C2.17595 0.807553 2.55346 0.905436 2.57596 0.913417C2.7517 0.976145 2.14067 0.869301 2.10686 0.864814C1.74185 0.817064 2.14793 0.926177 2.17481 0.940223C2.29792 1.00502 2.20595 1.02357 2.29286 1.07545C2.34901 1.10909 2.74859 1.18277 2.73318 1.19835C2.68222 1.24998 2.12039 1.17206 2.59457 1.31302C2.6957 1.34311 3.13513 1.4083 2.78377 1.39015C2.76163 1.38896 2.44144 1.36537 2.6373 1.41835C2.662 1.42502 2.78951 1.44722 2.79969 1.45209C2.86546 1.48427 2.76156 1.47995 2.80641 1.51025C2.85127 1.54054 2.91928 1.57924 2.87174 1.59656C2.8433 1.60703 2.60236 1.58531 2.54294 1.58251C2.37176 1.57451 2.64278 1.64383 2.4376 1.62192C2.23137 1.60004 1.92589 1.52158 1.78822 1.53333C2.11946 1.59115 2.45918 1.65208 2.79218 1.71093C2.76792 1.78278 2.64849 1.8371 2.65088 1.91303C2.65151 1.9225 2.83136 1.94294 2.83664 1.95382C2.85813 1.99954 2.72508 2.01424 2.76873 2.06495C2.80328 2.10383 2.98601 2.17231 3.02797 2.21458C2.64475 2.17395 2.76526 2.24675 2.72454 2.27849C2.71043 2.28966 2.60912 2.27246 2.57451 2.27647C2.44644 2.29203 2.78481 2.32939 2.8361 2.34747C3.05502 2.42463 2.29449 2.30677 2.3055 2.35862C2.30582 2.36138 2.70602 2.45697 2.73058 2.4652C2.89081 2.51853 2.58883 2.44746 2.55619 2.45988C2.49653 2.48258 2.39636 2.48893 2.50918 2.54525C2.54263 2.56172 2.79121 2.62713 2.59251 2.61787C2.56648 2.61669 2.43273 2.59436 2.42454 2.59539C2.28743 2.61575 2.70834 2.6819 2.84741 2.7268C2.98647 2.77166 2.69034 2.7624 2.60544 2.75686C2.38578 2.74264 2.51501 2.7282 2.4939 2.72392C2.24261 2.67307 2.2822 2.70577 2.25779 2.72236C1.84437 2.66223 1.8649 2.69396 2.23414 2.73981C2.27447 2.74479 2.23831 2.72347 2.25779 2.72236C2.66031 2.80165 2.70765 2.83946 2.32387 2.8157C2.144 2.80456 1.93926 2.75851 2.00778 2.81772C2.03871 2.84453 2.32442 2.87887 2.39913 2.90947C2.56966 2.97887 2.29557 2.99782 2.33073 3.04933C2.34349 3.06806 2.50163 3.07492 2.51572 3.08848C2.55362 3.12449 2.43288 3.13364 2.48842 3.17219C2.49366 3.17571 2.65772 3.19286 2.65845 3.2024C2.66722 3.27514 2.55401 3.32077 2.54083 3.39282C2.5344 3.42856 2.61544 3.50504 2.59223 3.53927C2.55293 3.59875 2.30473 3.64435 2.35507 3.70633C2.38722 3.74658 2.55164 3.76096 2.66092 3.79101C2.87284 3.84858 2.47929 3.84907 2.41848 3.84823C2.41646 3.8482 2.38208 3.81214 2.29599 3.81741C2.11993 3.80364 2.41776 3.84779 2.41848 3.84823C2.37918 3.84772 2.3339 3.90435 2.36354 3.92064C2.37974 3.92951 2.53508 3.94626 2.5406 3.95049C2.66838 4.05055 2.69727 4.13638 2.61444 4.2086C2.61112 4.20964 2.43809 4.18537 2.43247 4.18809C2.34937 4.22561 2.55738 4.28436 2.67836 4.33948C2.79925 4.3948 2.75326 4.42051 2.45271 4.4071C2.4865 4.44149 2.34968 4.46788 2.26683 4.48268C2.18397 4.49749 2.52118 4.54184 2.5276 4.54478C2.73321 4.63693 2.53523 4.65296 2.49682 4.71995C2.47798 4.75169 2.51927 4.82346 2.5521 4.86348C2.5786 4.89519 2.49747 4.90313 2.54514 4.93488C2.5515 4.93916 2.70236 4.95276 2.70803 4.95449C2.88475 5.00381 2.51852 4.94813 2.45215 4.94664C2.21078 4.94135 2.08208 4.93981 2.19018 4.99068C2.21493 5.00243 2.74179 5.0871 2.77103 5.10625C2.80806 5.13113 2.61903 5.10232 2.66265 5.12892C2.66621 5.13117 2.7834 5.14375 2.77677 5.15639C2.74757 5.21524 2.67217 5.27438 2.67721 5.33859C2.67745 5.3473 2.86452 5.35611 2.86793 5.36898C2.88388 5.42845 2.87007 5.49401 2.77715 5.54213C2.75369 5.55399 2.62439 5.53176 2.58541 5.53086C2.34952 5.52581 2.68671 5.58732 2.69275 5.5923C2.84551 5.71334 2.52998 5.76171 2.6661 5.8844C2.67412 5.8912 3.03451 5.97058 2.71989 5.96082C2.69895 5.96018 2.37708 5.94986 2.59424 5.98784C2.60783 5.9902 2.77372 5.99342 2.75493 6.01319C2.73618 6.03301 2.84303 6.07734 2.65932 6.08983C2.60145 6.09371 2.28013 6.08668 2.53208 6.1383C2.54966 6.14192 3.12133 6.23701 2.72283 6.21681C2.65723 6.21344 2.23719 6.17337 2.44968 6.22615C2.49089 6.23625 2.58567 6.23297 2.64272 6.25497C2.73066 6.28865 2.6151 6.31284 2.79965 6.3604C2.83232 6.36879 3.11566 6.41645 2.8975 6.41635C2.86333 6.41635 2.72345 6.39881 2.70691 6.40728C2.62762 6.44697 2.71726 6.50541 2.61616 6.54551C2.58062 6.55979 2.35438 6.53236 2.29209 6.54527C2.22982 6.55817 2.1684 6.5895 2.27064 6.61645C2.37292 6.64336 2.73631 6.65223 2.76305 6.68211C2.87938 6.80982 2.65775 6.91607 2.61807 7.03283C2.61215 7.05018 2.74274 7.04491 2.74333 7.07104C2.74596 7.16828 2.85605 7.34475 2.57545 7.40893C2.35048 7.4634 2.18808 7.36614 2.09496 7.41309C2.05051 7.43593 2.46992 7.48968 2.48281 7.49649C2.61381 7.56391 2.42478 7.59317 2.47892 7.64904C2.49016 7.66054 2.66151 7.66005 2.66919 7.66969C2.69697 7.70243 2.61882 7.73146 2.63102 7.76299C2.63688 7.77709 2.76744 7.78195 2.75666 7.79394C2.73239 7.82271 2.6761 7.84607 2.55227 7.86851C2.54099 7.87058 2.37972 7.84376 2.37248 7.86561C2.36122 7.90093 2.23825 7.93895 2.3607 7.98612C2.39753 8.00051 2.69563 8.01633 2.48838 8.03245C2.44509 8.03583 2.08743 8.01062 2.39521 8.05731C2.44633 8.06529 2.86103 8.13747 2.59085 8.14942C2.51974 8.1526 2.22592 8.15554 2.27126 8.17247C2.27852 8.1748 2.43907 8.17448 2.45411 8.18735C2.50435 8.23266 2.48524 8.27561 2.53339 8.32318C2.54658 8.3357 2.71313 8.32538 2.7275 8.34374C2.76723 8.39421 2.72247 8.45229 2.66867 8.49672C2.64853 8.51309 2.51167 8.49563 2.49668 8.49626C2.25275 8.50655 2.58041 8.5317 2.59928 8.53906C2.71217 8.5858 2.55676 8.61248 2.59609 8.65286C2.60653 8.66398 2.76329 8.66223 2.77717 8.66489C2.91267 8.69197 2.63227 8.66512 2.60078 8.67793C2.51162 8.71382 2.52265 8.75764 2.54132 8.79719C2.5484 8.81179 2.73042 8.80169 2.73467 8.81503C2.76327 8.89453 2.7434 8.97374 2.6412 9.04473C2.62163 9.05809 2.48214 9.0453 2.45013 9.04728C2.22621 9.06163 2.52997 9.10082 2.5588 9.10846C2.69043 9.14367 2.56651 9.15246 2.58886 9.18071C2.70021 9.31637 2.61479 9.48121 2.56203 9.60954C2.49414 9.77333 2.35955 9.90077 2.39266 10.0632C2.39459 10.0734 2.58066 10.0648 2.58471 10.0735C2.62862 10.1842 2.55531 10.2966 2.60864 10.4114C2.61269 10.4208 2.78905 10.4078 2.80148 10.4229C2.8282 10.4539 2.81852 10.4923 2.76216 10.5226C2.735 10.5374 2.58374 10.517 2.5595 10.5322C2.5027 10.5687 2.49009 10.6075 2.51833 10.6441C2.53073 10.6596 2.71108 10.6364 2.71314 10.6565C2.72235 10.7257 2.73516 10.8021 2.71283 10.8715C2.69208 10.9418 2.64099 11.0047 2.52851 11.0758C2.51247 11.0857 2.14597 11.0943 2.21625 11.115C2.31797 11.1165 2.43761 11.1164 2.54633 11.1171C2.60489 11.3223 2.47784 11.5225 2.45819 11.7297C2.45741 11.7383 2.6516 11.7234 2.65106 11.7401C2.64819 11.8369 2.70199 11.9305 2.50898 12.0303C2.4901 12.0401 2.14847 12.0343 2.20014 12.0637C2.20957 12.0693 2.25513 12.1131 2.32929 12.1237C2.34047 12.1252 2.49993 12.1174 2.50458 12.1312C2.5288 12.2136 2.49239 12.298 2.39496 12.3808C2.37893 12.3943 2.20912 12.38 2.19623 12.3895C2.10609 12.4561 2.23518 12.5284 2.081 12.5919C1.97719 12.6342 1.68365 12.6185 1.39472 12.6413C1.35396 12.6443 1.3475 12.6709 1.17939 12.672C0.756669 12.6755 0.293792 12.6629 -0.156788 12.6681C-0.253839 12.6692 -0.149309 12.7043 -0.383838 12.6835C-0.399534 12.6821 -0.477372 12.6565 -0.556933 12.6503C-0.61194 12.6458 -0.782905 12.6541 -0.853319 12.6447C-0.923667 12.6363 -0.780354 12.6259 -0.863084 12.6113C-0.946838 12.5961 -1.14133 12.6033 -1.16435 12.5733ZM1.89647 4.54995C1.73152 4.55388 2.32509 4.62816 2.18597 4.58616C2.17854 4.58404 1.90457 4.5497 1.89647 4.54995ZM2.20366 1.76178C1.93842 1.74808 2.31762 1.83261 2.52211 1.84527C2.72636 1.85801 2.28406 1.76595 2.20366 1.76178ZM2.06692 1.418C1.8559 1.4174 2.69086 1.56711 2.52827 1.50097C2.51909 1.49718 2.07917 1.41803 2.06692 1.418ZM1.31245 12.5365C1.3045 12.5371 1.29676 12.5551 1.30463 12.5559C1.49462 12.5658 1.50997 12.5286 1.31245 12.5365ZM1.91466 1.07261C1.79972 1.06357 1.92448 1.11857 2.06741 1.12981C2.18237 1.1389 2.05763 1.08391 1.91466 1.07261ZM1.13088 5.68906C1.12198 5.68857 1.11267 5.70142 1.16285 5.70599C1.32448 5.72067 1.28071 5.69737 1.13088 5.68906ZM2.00096 0.544794C1.95503 0.617026 1.25718 0.537469 1.35086 0.465907C1.36781 0.452984 1.56433 0.540191 1.63011 0.531949C1.74995 0.516949 1.32194 0.412235 1.56062 0.41844C1.60427 0.419738 2.00509 0.541028 2.00189 0.545111C2.00158 0.545006 2.00127 0.5449 2.00096 0.544794ZM1.18144 4.47812C1.17353 4.47765 1.16383 4.49567 1.17156 4.49705C1.35892 4.52972 1.37856 4.49356 1.18144 4.47812ZM0.691896 6.44835C0.675005 6.44804 0.655754 6.49054 0.671126 6.49319C0.978845 6.54075 1.01863 6.4555 0.691896 6.44835ZM0.912403 3.15981C0.726115 3.11276 0.70733 3.08513 0.947139 3.1029C0.93165 3.12126 0.926908 3.14125 0.912403 3.15981Z" fill="#232322"/>
</svg>
