<svg width="45" height="17" viewBox="0 0 45 17" fill="none" xmlns="http://www.w3.org/2000/svg">
<path d="M-2.4402 -24.4892C-1.92781 -25.6321 -1.29211 -24.5059 -0.816976 -22.9301C-0.665111 -22.4417 -0.563987 -20.2169 -0.45808 -19.7792C-0.254361 -18.9259 -0.190184 -20.0249 0.0116849 -19.0051C0.0802523 -18.6564 0.266189 -15.1343 0.331879 -14.8491C0.692905 -13.3116 0.856944 -14.2227 1.14032 -13.49C2.53795 -9.87463 3.63811 -8.61516 4.79865 -7.07723C5.17643 -6.57279 5.80016 -3.40481 6.06825 -4.82385C6.09949 -4.99267 5.88224 -8.08054 5.87428 -8.33567C5.75545 -12.2415 6.10291 -6.00204 6.23632 -5.1785C6.76147 -1.92674 7.13754 -1.66466 7.37252 -2.87651C7.47246 -3.40116 6.95249 -9.52882 7.30123 -6.09302C7.32506 -5.86089 7.49967 -2.57828 7.55753 -2.23065C7.68826 -1.44883 7.80611 -2.04502 7.88643 -1.78917C8.04264 -1.27949 8.06003 -1.31374 8.17703 -1.28368C8.33787 -1.21397 8.63496 0.404327 8.75326 -0.349643C8.77831 -0.520355 8.51429 -3.87997 8.53452 -4.45588C8.55473 -5.03085 8.72503 -4.75554 8.82804 -3.96621C8.93098 -3.17648 9.08024 -0.532117 9.12863 0.0730867C9.5357 5.18133 9.25056 -1.91166 9.26168 -2.08826C9.48139 -5.09925 10.0972 -1.0884 10.482 -1.12554C10.7775 -1.16256 10.9973 -2.51494 11.2897 -2.35132C11.4776 -2.23785 11.6843 -1.65113 11.8835 -1.19491L9.91332 -0.946397C9.90201 -0.546088 9.91236 -0.241153 9.84469 -0.372495C9.82868 -0.398892 8.9812 -4.26915 8.95077 -4.30715C8.61849 -4.70487 8.63265 -4.25378 9.50779 -1.72466C9.59832 -1.46821 10.6008 1.86282 10.7574 2.31626C11.6563 5.03265 14.2483 11.4087 9.40619 -2.94279C9.66481 -2.40626 9.95865 -1.86188 11.0916 0.974707C11.8234 2.79941 13.0583 6.38272 12.5907 4.832C12.486 4.48665 11.3193 1.37972 11.2455 1.09863C10.9302 -0.0798084 11.4345 0.883038 10.9312 -0.760454C10.8257 -1.10188 9.75246 -3.87513 9.56585 -4.37707C8.04637 -8.43893 10.7139 -1.78464 10.9314 -1.31039C12.5022 2.24614 12.0756 0.770507 12.2662 0.795455C12.3108 0.802856 10.7646 -2.88029 10.7511 -3.00509C10.6976 -3.60141 11.0037 -3.35683 11.87 -1.79886C12.0675 -1.44394 13.3566 1.70509 13.5198 2.03459C14.2298 3.44658 11.7316 -2.47432 12.3592 -1.23259C12.489 -0.978715 13.6262 1.70288 13.7555 1.9955C15.7912 6.58634 13.0305 0.0282627 12.979 -0.120584C12.2877 -2.15997 15.3653 4.60145 15.1289 3.55639C15.0959 3.4252 13.5646 0.0725597 13.5603 -0.0888618C13.5208 -1.18339 14.326 -0.436215 15.9626 2.05529C16.2143 2.43845 17.3303 4.97259 17.4769 5.28083C19.779 10.0915 16.8259 3.58503 16.7319 3.33203C16.0739 1.50218 18.7734 6.85468 15.2698 -0.901917C17.2129 1.4487 15.7974 -3.17376 19.8528 3.32853C19.9008 3.40336 21.436 6.56987 21.5253 6.70539C22.6189 8.36944 20.1644 3.48177 17.3419 -2.58433C16.6314 -4.10669 20.3212 3.07774 20.5954 3.60251C21.6001 5.53913 23.8865 10.2489 24.0864 10.6214C25.6633 13.5422 17.9533 -1.95969 18.0768 -2.02734C18.0938 -2.00352 19.4954 0.858481 19.6474 1.13677C20.1245 2.01049 19.5943 0.859905 20.1168 1.82517C21.3244 4.05943 25.1109 11.5721 23.0466 7.13013C22.7778 6.55405 18.365 -2.21955 18.6884 -1.86262C18.8229 -1.71378 18.9487 -1.96521 19.2923 -1.4257C19.6353 -0.88664 21.0184 1.96024 21.0839 2.08068C23.124 5.73889 23.8443 7.31808 26.7167 12.8085C29.5819 18.2763 22.9257 5.14543 22.2177 3.66223C21.5114 2.18335 23.1868 5.20529 23.7592 6.26092C24.3311 7.3173 25.2023 9.13025 25.5359 9.72303C27.7179 13.5946 22.3089 3.16641 21.3077 1.05435C18.9315 -3.94387 23.9765 5.73864 24.5877 6.6279C24.7522 6.86834 23.5962 4.66667 23.52 4.4445C23.2319 3.59456 24.8539 6.59131 23.5638 3.74284C23.3543 3.27829 20.465 -2.61662 22.7299 1.63541C23.0566 2.24849 24.2702 4.68364 24.5978 5.2005C25.089 5.97645 25.4958 6.43597 25.1602 5.58595C24.9115 4.95723 22.7921 1.00615 23.5033 2.20636C23.8209 2.74221 24.9603 5.10534 25.4576 5.91723C25.9549 6.72876 26.0613 6.54422 26.0791 6.43309C26.0964 6.31995 24.5022 3.31602 24.4019 3.10999C23.8284 1.9292 23.1875 0.414633 23.1992 0.413116C23.5092 -0.214851 26.6272 4.62361 26.2474 2.68044C26.2193 2.53266 24.527 -0.628978 24.5055 -0.68426C23.9384 -2.08342 28.2663 6.41259 29.8446 9.18819C26.4468 2.75334 27.1147 3.89084 26.8374 3.13495C26.701 2.76549 25.3645 0.284853 25.2343 0.0273909C23.3079 -3.79493 25.9286 1.07238 26.4679 2.0664C28.4511 5.72329 26.2091 1.34909 27.5359 3.79277C28.8536 6.21772 30.6898 9.87451 30.7582 9.77917C29.5689 7.4615 26.3262 1.47575 25.8803 0.463637C24.1869 -3.36106 27.1586 1.10887 27.6314 1.48584C28.097 1.86621 27.9382 1.40625 28.5014 2.17293C29.5206 3.55861 27.0655 -0.856015 26.1121 -2.96751C25.1587 -5.07877 30.9445 5.91905 32.222 8.26529C33.4991 10.6104 32.2262 8.17408 32.9421 9.45586C33.658 10.7373 34.4602 12.368 34.7778 12.8231C35.0952 13.2777 33.0117 9.00492 31.7139 6.53133C28.965 1.29063 25.9669 -4.14923 27.1427 -2.30332C27.2123 -2.19367 28.7267 0.70193 28.915 0.975677C30.3603 3.05528 30.7098 3.04471 32.0208 4.8658C32.2039 5.12049 33.8934 8.33926 34.0195 8.52364C35.34 10.4534 32.3585 5.09759 29.2489 -0.960961C33.5179 7.0313 36.2122 11.8766 36.4067 11.8326C36.5249 11.809 34.6293 8.33515 33.37 5.84536C32.9904 5.0948 34.3511 7.44818 33.4798 5.80359C30.6318 0.427539 27.3316 -5.53005 28.7866 -3.23387C28.8552 -3.12446 30.4143 -0.181779 30.5356 -0.0180845C31.3281 1.05415 28.3222 -4.55453 28.1323 -5.32799C28.0358 -5.72126 28.8814 -4.48347 29.6154 -3.4366L29.5109 -3.3792C29.9145 -2.81396 30.284 -2.30439 30.4463 -2.14049C35.4027 6.75956 34.4181 4.63771 31.0514 -1.52709C31.2935 -1.33297 31.2063 -1.73921 31.7769 -0.946176C31.9728 -0.676531 33.394 1.90805 33.5542 2.18357C36.0684 6.50529 32.7672 0.521934 32.657 0.276553C31.6105 -2.12257 34.3522 2.27702 32.0821 -2.2544C32.0004 -2.41763 28.5202 -8.57892 31.1285 -4.11837C31.3085 -3.81099 32.825 -0.969736 33.0519 -0.812244C33.2802 -0.654919 35.358 2.52716 33.8803 -0.40511C33.5254 -1.11152 30.7554 -6.14495 33.0588 -2.29204C33.3716 -1.76881 34.3706 -0.00218254 34.9464 0.969464C36.7829 4.06452 33.2466 -2.15246 36.3257 3.08623C39.4038 8.3252 41.795 12.1994 39.8563 8.47805C39.8007 8.36942 37.0028 3.43888 37.0951 3.48908C37.2455 3.57309 37.9445 4.53308 38.0053 4.45515C38.0338 4.41585 36.2442 1.38444 36.2186 1.32489C35.4807 -0.52741 37.2342 2.08303 38.1953 3.09907C38.3749 3.2914 36.0963 -0.936739 38.1081 2.2831C40.3123 5.80665 48.9301 20.7869 47.1024 17.0859C46.3731 15.6046 35.4105 -3.38333 41.3332 6.31189C40.2545 3.68138 43.5114 8.5109 41.8235 4.84186C41.7488 4.67927 38.7076 -0.630857 38.7868 -0.5807C38.91 -0.495813 40.3841 1.95521 40.5176 2.09542C41.1134 2.74502 40.0296 0.544418 40.3793 0.781185C40.5089 0.865757 41.977 3.43285 42.1297 3.5352C42.2811 3.63515 40.3715 0.24106 41.4136 1.81067C42.2077 3.00725 46.2712 9.85153 46.8292 10.6004C42.8964 3.80557 43.0447 3.90647 42.1229 2.04551C41.9441 1.68437 40.552 -0.667116 40.397 -0.960004C39.7361 -2.20475 40.9102 -0.2676 40.1856 -1.61953C40.0118 -1.94432 38.6716 -4.26644 38.4539 -4.66313C36.5544 -8.12579 39.6844 -2.9688 40.2285 -2.07039C42.296 1.34093 40.5923 -1.70193 41.435 -0.374994C42.2755 0.953074 43.1682 2.70405 43.7099 3.49175C44.8299 5.12128 44.7942 4.64258 44.9955 4.66939C45.0682 4.66537 43.2528 1.58072 43.222 1.50801C42.8927 0.650632 44.8946 3.89142 41.4301 -2.33955C50.6395 13.6281 40.6187 -3.93502 42.6153 -0.825566C42.7765 -0.573864 47.1009 6.99453 47.6847 8.1347C48.2695 9.2729 46.8431 6.94965 47.7621 8.72191C47.9768 9.13842 51.9328 16.2854 52.1669 16.7215C53.9914 20.1326 47.5137 8.8315 47.1534 8.21338C43.2604 1.54538 47.5135 9.25014 47.7878 9.79372C49.0391 12.2877 48.0094 10.7666 48.8899 12.5543C49.457 13.7108 53.7058 21.1103 53.5202 20.9157C52.9095 20.2713 46.8821 10.007 51.8733 19.0427C52.9382 20.9697 57.6489 29.0183 53.8402 22.75C53.6007 22.3544 50.1342 16.6098 52.2067 20.3132C52.4681 20.7801 53.8328 23.1304 53.9379 23.3334C54.6156 24.6477 53.4853 22.8002 53.9374 23.7369C54.3904 24.6731 55.0841 26.0581 54.541 25.3077C54.2159 24.8591 51.6033 20.5208 50.9541 19.4643C49.0865 16.4192 51.9679 21.5174 49.7452 17.8073C47.5099 14.0794 44.2637 8.33112 42.733 5.97292C46.2925 12.0714 49.9409 18.3337 53.5187 24.4678C53.1563 24.3917 51.7627 22.5619 51.6713 22.9772C51.6635 23.0348 53.6155 26.2908 53.6566 26.437C53.8214 27.0395 52.3288 24.7777 52.7244 25.795C53.0384 26.5947 54.9421 30.1377 55.3284 31.085C51.1686 24.1575 52.3695 26.6329 51.8592 26.0759C51.6823 25.8838 50.5968 24.0187 50.2076 23.4307C48.7659 21.2573 52.4266 27.3881 52.9574 28.3794C55.2192 32.6121 47.0626 18.6598 47.0885 19.1068C47.0879 19.1253 51.3018 26.6404 51.5536 27.1145C53.2059 30.2004 50.0296 24.5322 49.645 24.0194C48.9427 23.0822 47.8279 21.3504 48.9538 23.6142C49.2884 24.2841 51.8741 28.9915 49.7159 25.4417C49.4335 24.9768 48.0158 22.5073 47.9241 22.3677C46.3849 20.0466 50.8489 27.8006 52.2687 30.4797C53.6874 33.1587 50.4701 27.8839 49.5569 26.3555C47.1922 22.403 48.6333 24.6164 48.4122 24.2223C45.7797 19.5324 46.1434 20.3913 45.8422 20.0401C41.4673 12.436 41.6312 12.9489 45.5487 19.7061C45.9769 20.444 45.6276 19.7012 45.8422 20.0401C50.058 27.5448 50.4814 28.5727 46.3629 21.6619C44.4338 18.4223 42.3105 14.5732 42.9329 16.0693C43.2126 16.7454 46.2326 21.977 46.9735 23.4502C48.6621 26.8126 45.6596 22.0374 45.9304 22.9041C46.0268 23.2198 47.7138 26.0645 47.8351 26.3799C48.1607 27.2265 46.8404 25.1228 47.3507 26.2939C47.3987 26.4038 49.1213 29.4062 49.1067 29.4649C49.0252 29.9719 47.7034 28.1712 47.3945 28.273C47.3321 28.2945 47.4137 28.6195 47.5055 28.9739C47.4569 28.9441 47.304 29.1414 47.2557 29.1111C47.3871 29.6054 47.5406 30.1564 47.3553 30.0018C46.8142 29.5616 44.1387 25.2862 44.5232 26.4681C44.7648 27.2271 46.4365 30.2589 47.4997 32.3655C49.5598 36.4493 45.4835 29.3423 44.8578 28.2388C44.8372 28.2022 44.5618 27.4236 43.6599 25.8909C41.8702 22.6489 44.8516 28.2239 44.8578 28.2388C44.4525 27.5266 43.8583 26.9539 44.1277 27.5604C44.275 27.8918 45.8411 30.7738 45.8885 30.8921C46.98 33.6379 47.0623 34.5397 46.0335 33.3507C45.9968 33.2951 44.2747 30.0554 44.2103 29.9652C43.2662 28.6201 45.2671 32.6397 46.3719 35.0705C47.4766 37.5001 46.9368 36.7768 43.8907 31.263C44.1522 32.0222 42.6863 29.6479 41.8039 28.2034C40.9201 26.7597 44.2553 33.075 44.3132 33.2041C46.175 37.332 44.1111 33.7993 43.5521 33.3751C43.2818 33.162 43.5126 34.2114 43.7387 34.9749C43.9228 35.5891 43.0785 34.142 43.4765 35.1418C43.5294 35.2755 45.022 38.0834 45.0748 38.1939C46.7311 41.6215 43.171 34.7104 42.5026 33.4933C40.0723 29.0667 38.7757 26.7104 39.7372 28.888C39.9576 29.3866 45.0527 39.3536 45.2934 39.9665C45.5979 40.7445 43.7691 37.1733 44.1359 38.0782C44.1655 38.1524 45.3134 40.3453 45.211 40.2757C44.7496 39.9819 43.8277 38.8382 43.6874 39.1905C43.6641 39.23 45.5174 42.6915 45.513 42.8063C45.4904 43.3423 45.165 43.347 44.0917 41.8329C43.8215 41.4494 42.5978 38.9876 42.2114 38.2685C39.8742 33.9172 43.0539 40.3509 43.0978 40.4821C44.2479 43.7682 40.9655 38.1532 41.9334 41.1296C41.9937 41.3026 45.2888 48.2567 42.2224 42.4146C42.0176 42.0263 38.8885 36.0451 40.9002 40.1992C41.0259 40.4592 42.6467 43.5334 42.3964 43.2632C42.1474 42.9931 43.0457 45.1391 41.2043 41.7917C40.6231 40.7377 37.5085 34.7676 39.8047 39.6205C39.9676 39.9579 45.2276 50.8967 41.4083 43.4448C40.7802 42.2179 36.8249 34.289 38.7194 38.421C39.0866 39.2221 40.0191 40.9655 40.4998 42.105C41.2399 43.8615 40.038 41.8089 41.6608 45.4102C41.9493 46.0472 44.5208 51.4851 42.4101 47.4366C42.0798 46.8024 40.7895 44.1403 40.6002 43.8647C39.6918 42.5426 40.3515 44.4236 39.2406 42.689C38.8503 42.0795 36.7789 37.769 36.1404 36.6548C35.5018 35.5411 34.8149 34.5053 35.6945 36.5078C36.5744 38.5111 40.0072 45.3168 40.1503 45.9256C40.7677 48.5715 38.2674 44.8133 37.4432 44.4807C37.3179 44.4321 38.5573 46.8628 38.4547 46.9687C38.0947 47.3646 38.3345 50.0744 35.5033 44.9967C33.2416 40.9274 32.1757 37.5288 31.1487 35.9216C30.6636 35.1527 34.2098 43.2744 34.2934 43.5428C35.1759 46.2543 33.3567 42.7687 33.5839 43.9862C33.6305 44.2391 35.1488 47.4943 35.171 47.6739C35.2579 48.3171 34.4338 46.9289 34.3945 47.2666C34.3777 47.4268 35.4956 49.9318 35.3412 49.7683C34.9851 49.406 34.3755 48.4139 33.1958 46.1233C33.0891 45.9142 31.8234 42.7438 31.6583 42.6771C31.394 42.5783 30.1656 40.3458 30.9716 42.8492C31.2156 43.6016 33.658 49.3755 31.8234 45.4506C31.4397 44.631 28.5541 37.6782 30.9147 43.7417C31.3163 44.7455 34.3892 52.9701 32.0645 47.8118C31.4532 46.454 29.0057 40.8001 29.2949 41.7279C29.3422 41.8755 30.6694 44.9707 30.7239 45.3035C30.8938 46.4218 30.4868 46.1993 30.6042 47.2882C30.637 47.5855 32.0417 50.7767 32.0457 51.118C32.0598 52.0607 31.3148 51.3996 30.5982 50.5061C30.3319 50.1705 29.3832 47.4428 29.2616 47.153C27.3056 42.431 29.685 48.9042 29.7776 49.2991C30.3331 51.6634 28.957 48.7191 28.9761 49.625C28.976 49.8677 30.1604 52.9358 30.2453 53.217C31.0558 55.9708 29.1598 50.3765 28.834 49.8024C27.9171 48.1745 27.6735 48.5417 27.5009 49.0463C27.438 49.2366 28.8178 52.7937 28.7423 52.9244C28.2989 53.773 27.42 53.6788 26.0476 51.9021C25.7899 51.56 25.0163 48.7263 24.7912 48.0939C23.244 43.6614 24.8141 49.8712 24.9022 50.4807C25.3583 53.2479 24.4961 50.7943 24.3338 51.3435C23.6802 53.4412 21.8846 53.3164 19.8453 52.8337C19.2952 52.1754 16.0889 54.0837 15.6174 53.367C15.4577 53.1161 15.3025 52.8384 15.1599 52.5965C14.3708 51.2797 13.655 48.5281 13.0439 49.2951C13.0053 49.3401 13.3027 53.2347 13.2725 53.3236C12.8654 54.2939 12.3104 52.8004 11.9175 53.956C11.8846 54.0439 12.1766 57.7355 12.1317 58.0009C12.0405 58.5711 11.8723 58.3802 11.6675 57.2085C11.569 56.644 11.4508 53.4678 11.356 52.9644C11.1344 51.7848 10.9659 51.5313 10.8546 52.1331C10.8074 52.3973 11.1422 56.1706 11.0621 56.2194C10.5292 56.6295 10.0177 57.3149 9.15879 52.4549C9.09993 52.1211 8.59029 44.4414 8.60196 45.9195C8.72808 48.0518 8.8838 50.5595 9.02239 52.8384C8.29701 54.1155 7.35599 51.5001 6.56822 51.136C6.53551 51.1215 6.84453 55.1881 6.78282 55.1808C6.42107 55.143 6.16107 56.2914 5.56308 52.2684C5.50343 51.875 5.05501 44.7148 5.02434 45.8041C5.01795 46.0029 4.93641 46.9671 4.99992 48.5237C5.01045 48.7585 5.25796 52.098 5.21814 52.1985C4.98901 52.7233 4.68302 51.9781 4.33641 49.952C4.28053 49.6186 4.05267 46.0597 4.00968 45.7914C3.69188 43.9167 3.76347 46.6307 3.46758 43.4067C3.26518 41.236 2.7032 35.0975 2.08986 29.0609C2.00076 28.2094 1.95659 28.0775 1.5855 24.5669C0.63902 15.7403 -0.292575 6.06435 -1.3001 -3.34408C-1.51474 -5.3712 -1.64177 -3.14938 -1.95585 -8.06936C-1.9755 -8.399 -1.87141 -10.0533 -1.97424 -11.7219C-2.04513 -12.8756 -2.48047 -16.4404 -2.5319 -17.9212C-2.57907 -19.4009 -2.19279 -16.4147 -2.21231 -18.1576C-2.24163 -19.921 -2.66672 -23.9839 -2.4402 -24.4892ZM37.8565 21.7486C36.1689 18.7612 42.0332 29.8704 40.7184 27.1658C40.6479 27.0218 37.9396 21.895 37.8565 21.7486ZM46.9715 14.3872C44.0686 9.66635 48.1202 16.735 50.3552 20.385C52.5872 24.0314 47.8512 15.8184 46.9715 14.3872ZM45.9612 10.2923C43.6446 6.58602 52.5973 21.9862 50.9046 18.8048C50.8091 18.6249 46.0956 10.5076 45.9612 10.2923ZM2.17754 27.3185C2.16243 27.1524 2.09563 26.9949 2.10891 27.1597C2.42353 31.137 2.54086 31.4506 2.17754 27.3185ZM44.7781 5.88793C43.5378 3.82156 44.8232 6.29139 46.3656 8.86084C47.6053 10.9285 46.3197 8.45911 44.7781 5.88793ZM27.3747 12.0898C27.2884 11.9237 27.1649 11.7974 27.6459 12.7399C29.1955 15.7753 28.8257 14.8842 27.3747 12.0898ZM46.4384 4.70384C45.8525 4.26496 38.4201 -8.43612 39.5382 -7.16137C39.7392 -6.92997 41.7376 -3.01424 42.459 -1.89823C43.7707 0.136413 39.3041 -7.9518 41.8705 -3.71542C42.3384 -2.93896 46.4867 4.75797 46.448 4.72195C46.4448 4.71591 46.4416 4.70987 46.4384 4.70384ZM30.7485 8.439C30.6692 8.29306 30.5315 8.18774 30.607 8.3341C32.4373 11.8776 32.7173 12.091 30.7485 8.439ZM21.2008 6.49334C21.0425 6.17676 20.7505 5.95106 20.8889 6.24639C23.6712 12.1454 24.2821 12.6132 21.2008 6.49334ZM30.581 -1.9045C28.6943 -5.44607 28.536 -5.89868 31.0486 -1.53139C30.8506 -1.72709 30.7679 -1.72607 30.581 -1.9045Z" fill="#232322"/>
</svg>
