<svg width="6" height="16" viewBox="0 0 6 16" fill="none" xmlns="http://www.w3.org/2000/svg">
<path d="M2.88605 14.8529C2.83334 14.7001 2.88766 14.4984 2.96272 14.3418C2.98602 14.2947 3.09224 14.3175 3.11308 14.2843C3.15369 14.218 3.10108 14.1575 3.1495 14.0933C3.16605 14.0716 3.33426 14.0966 3.34778 14.0738C3.42063 13.9477 3.37643 13.8309 3.41049 13.7083C3.57835 13.0906 3.62977 12.4823 3.69125 11.8561C3.71139 11.6495 3.85724 11.3942 3.78473 11.1841C3.77611 11.1596 3.62918 11.1784 3.6169 11.174C3.42894 11.1053 3.72707 11.1216 3.76522 11.0719C3.9158 10.874 3.92296 10.6591 3.86033 10.4776C3.83324 10.3999 3.5431 10.488 3.70484 10.4036C3.71576 10.3977 3.87285 10.4127 3.88884 10.3906C3.92483 10.3406 3.89378 10.2466 3.90496 10.2092C3.92726 10.136 3.92528 10.124 3.92475 10.0548C3.92538 9.9603 3.99921 9.84329 3.96023 9.74451C3.95144 9.72323 3.79209 9.75744 3.76359 9.72401C3.73513 9.69061 3.74545 9.59855 3.78211 9.56606C3.81881 9.53364 3.94532 9.54227 3.97401 9.53572C4.21617 9.48067 3.87462 9.38895 3.86575 9.37554C3.71419 9.13238 3.89829 8.91412 3.88813 8.67909C3.88018 8.50481 3.80849 8.31432 3.80992 8.14826C3.81213 7.94745 3.89128 7.77371 3.86722 7.57967C3.86486 7.55912 3.67754 7.59212 3.67428 7.56706C3.63981 7.30168 3.64729 7.03567 3.76087 6.76495C3.77242 6.73764 3.93962 6.76346 3.96105 6.73564C4.00014 6.68347 4.05666 6.62126 4.09531 6.55817C4.10808 6.56979 4.11947 6.59344 4.14253 6.63702C4.1616 6.67815 4.24298 6.82634 4.40364 6.88309C4.56936 6.93953 4.66049 6.89544 4.69047 6.89197C4.72955 6.88171 4.745 6.87942 4.75633 6.88731C4.79887 6.91776 4.8514 7.03489 5.01901 7.22173C4.96944 7.22978 4.86933 7.30022 4.70484 7.27298C4.59571 7.25929 4.48976 7.10286 4.50476 7.20764C4.50843 7.23067 4.64509 7.31259 4.64143 7.33949C4.62436 7.45472 4.5152 7.51417 4.51723 7.64914C4.5186 7.67592 4.63607 7.75522 4.65315 7.77502C4.79111 7.93594 4.46464 7.80478 4.43273 7.80671C4.20141 7.81151 4.19764 7.94317 4.11708 8.05069C4.09798 8.07613 4.2755 8.15407 4.26276 8.18241C4.19673 8.32493 4.09115 8.44989 3.93442 8.5302C3.89897 8.54811 3.78299 8.43054 3.75917 8.43449C3.6554 8.45357 3.90081 8.63692 3.80697 8.6576C3.78754 8.66216 3.67728 8.57761 3.66316 8.57129C3.44152 8.47217 3.70162 8.69246 3.70176 8.70563C3.71017 8.87596 3.368 8.75107 3.33555 8.88954C3.33208 8.90614 3.49765 8.97428 3.47897 9.01499C3.35369 9.28933 3.14032 9.52338 2.85965 9.69211C2.81628 9.71838 2.7246 9.61813 2.70947 9.61154C2.47192 9.5102 2.73841 9.72394 2.74078 9.74352C2.75201 9.89327 2.45354 9.82682 2.74631 10.1184C2.35208 10.4569 2.26103 11.0026 1.67901 11.2096C1.67199 11.2124 1.54014 11.1084 1.52674 11.1144C1.36225 11.1877 1.5938 11.3105 1.79827 11.575C1.84972 11.6412 1.48904 11.4864 1.46198 11.476C1.36233 11.4373 1.17256 11.2735 1.15124 11.269C0.982214 11.2353 1.66492 11.6977 1.61134 11.7747C1.60854 11.7763 1.49129 11.6792 1.47445 11.6769C1.42166 11.6697 1.45771 11.7233 1.40079 11.7134C1.26985 11.6894 0.931597 11.474 1.07399 11.6762C1.0926 11.7022 1.48311 11.9602 1.41673 12.0152C1.38955 12.0376 1.3079 12.1649 1.25937 12.1799C1.21067 12.1954 1.10543 12.0839 1.09841 12.0825C1.08158 12.0804 1.06578 12.0779 1.05085 12.0752C1.03787 12.0997 0.977271 12.1496 0.95752 12.169C0.727723 12.1256 0.646407 12.0218 0.621638 11.7581C0.722892 11.6297 0.718958 11.7814 0.571684 11.8349C0.441236 11.9049 0.256303 11.9771 0.200962 11.9377C0.0849672 11.8371 0.258721 11.6878 0.317591 11.6761C0.37645 11.6572 0.469632 11.6928 0.503439 11.6768C0.726918 11.5845 0.165177 11.5757 0.0623242 11.5094C-0.176455 11.3417 0.351688 11.369 0.421082 11.3023C0.440432 11.2822 0.320911 11.2715 0.315385 11.2487C0.295915 11.1563 0.465315 11.153 0.349112 11.0212C0.329579 11.0015 0.053915 10.833 0.28725 10.8557C0.320878 10.859 0.438716 10.9161 0.476758 10.8918C0.53433 10.8537 0.588774 10.7774 0.565456 10.7102C0.547664 10.6621 0.330479 10.6387 0.4096 10.611C0.444937 10.5988 0.549941 10.6785 0.6064 10.6523C0.663208 10.6249 0.692074 10.5236 0.702138 10.4818C0.711491 10.4415 0.551167 10.4095 0.541975 10.4027C0.489338 10.3638 0.442145 10.2627 0.444828 10.2558C0.545174 9.91387 0.915174 9.70678 0.953466 9.3576C0.956776 9.3301 0.791112 9.28502 0.789976 9.28019C0.756779 9.16805 1.1537 9.40004 1.31842 9.3958C0.992278 9.2784 1.0641 9.26682 1.05221 9.19297C1.04624 9.15723 0.915152 9.12401 0.903397 9.11636C0.730588 8.99881 0.987752 9.06418 1.04069 9.0767C1.23599 9.12138 1.03038 9.00482 1.16114 9.0342C1.29094 9.06333 1.45461 9.17916 1.47492 9.12108C1.36599 9.05925 1.04766 8.98269 1.0162 8.91948C0.93095 8.74851 1.09032 8.59202 1.21742 8.47071C1.26739 8.42378 1.31238 8.382 1.33466 8.34718C1.413 8.22489 1.40863 8.1754 1.4819 8.11501C1.61354 8.00823 1.37028 7.96735 1.30419 7.8391C1.23847 7.71019 1.76757 7.97912 1.89022 8.01544C2.01277 8.05187 1.89718 7.98892 1.96794 8.00081C2.03863 8.01282 2.10517 8.07808 2.14387 8.05334C2.18247 8.02875 2.01386 7.84546 1.89651 7.78137C1.6476 7.64622 1.35684 7.57479 1.49159 7.52215C1.49952 7.5192 1.63572 7.59674 1.65881 7.58237C1.83778 7.46545 1.91658 7.29853 2.08312 7.1786C2.10627 7.16215 2.25689 7.25015 2.27215 7.24137C2.43174 7.15005 2.14315 7.08253 1.87699 6.88077C2.26622 7.06785 2.52596 7.13191 2.57247 7.0308C2.6006 6.97004 2.42335 6.90518 2.31859 6.81294C2.287 6.78514 2.42449 6.79344 2.34665 6.75022C2.09236 6.60858 1.77701 6.52038 1.94174 6.46572C1.9494 6.46351 2.08825 6.5418 2.10408 6.52955C2.20738 6.45018 1.9346 6.31768 1.95066 6.19007C1.96359 6.08918 2.20102 6.00943 2.27333 5.92121C2.71543 6.12084 2.65554 5.98254 2.36754 5.80739C2.4091 5.74814 2.42333 5.67044 2.4935 5.62736C2.51755 5.61241 2.63919 5.68431 2.65424 5.68785C2.88985 5.74455 2.60606 5.58243 2.60078 5.56316C2.55632 5.36085 2.83685 5.34026 2.68358 5.09671C2.67802 5.08801 2.37574 4.93881 2.61695 5.00325C2.63349 5.00789 2.75085 5.1195 2.79278 5.05687C2.83501 4.99366 3.05728 4.9436 2.9595 4.78388C2.93596 4.7454 2.71513 4.57177 2.9301 4.61673C2.95924 4.62294 3.04362 4.67061 3.09644 4.68463C3.2649 4.72899 2.96388 4.56872 3.24151 4.65826C3.51905 4.74795 3.74786 4.77057 3.61131 4.59248C3.60746 4.58704 3.37395 4.44939 3.39181 4.42171C3.42045 4.37776 3.50324 4.33465 3.52497 4.28506C3.53529 4.26127 3.37687 4.20401 3.37605 4.19862C3.36676 4.0002 3.55582 3.95192 3.696 3.8116C3.72205 3.78588 3.55979 3.59692 3.75142 3.61644C3.96126 3.63774 4.66733 4.06685 4.56473 3.83098C4.52365 3.73681 3.6254 3.19765 4.16439 3.32837C4.14918 3.0576 4.49418 2.98753 4.43058 2.69031C4.4278 2.67706 4.18335 2.51495 4.19829 2.49439C4.22094 2.46417 4.35152 2.50792 4.37158 2.48838C4.45881 2.40789 4.40158 2.2644 4.46702 2.17731C4.4916 2.14413 4.6101 2.22152 4.63943 2.18203C4.66866 2.14248 4.51899 2.02833 4.62878 2.01146C4.71227 1.99897 5.07106 2.1307 5.14056 2.09328C4.81061 1.91751 4.8385 1.88082 4.78852 1.76396C4.77877 1.74138 4.65594 1.69537 4.64539 1.68155C4.59996 1.62391 4.70821 1.64985 4.6569 1.59071C4.64462 1.57642 4.5319 1.51645 4.51551 1.50139C4.3718 1.37091 4.66277 1.43529 4.71326 1.44685C4.90529 1.49021 4.77007 1.39088 4.8548 1.39094C4.93946 1.39115 4.99398 1.48748 5.0558 1.46804C5.18374 1.42773 5.22391 1.30944 5.27529 1.22679C5.29512 1.19339 5.13263 1.13558 5.13199 1.12892C5.13231 1.03748 5.33052 1.0525 5.0538 0.850899C5.85102 1.2224 5.00223 0.767547 5.21192 0.750567C5.22877 0.749407 5.59812 0.939144 5.63491 0.998771C5.67168 1.05833 5.53267 1.04207 5.59309 1.12966C5.60719 1.15035 5.91775 1.39334 5.93427 1.4123C6.0631 1.56087 5.51322 1.27374 5.48148 1.26079C5.13825 1.12245 5.46887 1.39204 5.48455 1.424C5.55606 1.57092 5.44062 1.60162 5.48653 1.71668C5.51591 1.79161 5.87212 1.98714 5.84204 2.01717C5.74228 2.11725 5.21854 1.89521 5.59379 2.23739C5.67381 2.31046 6.07963 2.49275 5.72485 2.41737C5.70254 2.41251 5.38556 2.32922 5.54519 2.46011C5.56533 2.47658 5.68016 2.53629 5.68658 2.54749C5.72739 2.62134 5.6217 2.60107 5.64202 2.66909C5.66237 2.73707 5.6997 2.8251 5.63415 2.85641C5.59485 2.87535 5.35995 2.80483 5.29977 2.79278C5.12681 2.75725 5.35159 2.93001 5.15491 2.8623C4.95707 2.79458 4.70387 2.59934 4.54904 2.60842C4.84716 2.76397 5.1515 2.92686 5.45058 3.08472C5.36318 3.22987 5.19039 3.33056 5.12724 3.48966C5.1197 3.50957 5.291 3.57122 5.2871 3.59461C5.26996 3.69297 5.11779 3.70937 5.1195 3.82137C5.12153 3.90822 5.25599 4.06816 5.26419 4.16074C4.89727 4.03492 4.96191 4.19975 4.89265 4.26163C4.8685 4.28345 4.77703 4.23659 4.73745 4.2413C4.59018 4.26059 4.91276 4.37475 4.95114 4.41821C5.11497 4.60369 4.41873 4.27564 4.38671 4.38579C4.3848 4.39145 4.72253 4.63566 4.74128 4.65566C4.86378 4.78539 4.60798 4.60339 4.56331 4.62641C4.48171 4.66849 4.37162 4.67162 4.44299 4.80118C4.46428 4.83924 4.6695 5.00309 4.47007 4.9621C4.44393 4.95677 4.32291 4.89552 4.31353 4.89676C4.15402 4.92434 4.53833 5.10836 4.64611 5.21809C4.75394 5.32764 4.45302 5.27649 4.36917 5.25568C4.15208 5.20212 4.29853 5.18558 4.28008 5.17428C4.06013 5.04018 4.07447 5.11332 4.03546 5.14561C3.65432 4.97443 3.64978 5.04334 3.99656 5.17978C4.03447 5.19461 4.01427 5.14585 4.03546 5.14561C4.38969 5.35565 4.40749 5.44151 4.02738 5.35051C3.84925 5.30786 3.67388 5.18845 3.69665 5.32131C3.7069 5.38143 3.97606 5.48472 4.02855 5.55804C4.14821 5.72557 3.85016 5.73149 3.8447 5.84518C3.84288 5.8861 4.00146 5.9179 4.00518 5.94807C4.01547 6.02841 3.88329 6.03365 3.90965 6.12203C3.91224 6.13008 4.06867 6.18422 4.06171 6.20466C4.01218 6.36031 3.85778 6.44621 3.78631 6.59921C3.75148 6.67393 3.77537 6.84425 3.72448 6.91437C3.63691 7.03669 3.3447 7.10669 3.34811 7.24506C3.34982 7.33474 3.508 7.38438 3.59715 7.46117C3.76996 7.60998 3.36498 7.56438 3.30297 7.55577C3.30105 7.55514 3.29299 7.47556 3.20048 7.47644C3.02992 7.42669 3.30256 7.55477 3.30297 7.55577C3.26281 7.55032 3.17268 7.66561 3.19083 7.70345C3.20073 7.72413 3.3477 7.77767 3.35015 7.78727C3.40469 8.01558 3.36824 8.20384 3.22753 8.35103C3.22331 8.35293 3.06409 8.28083 3.05619 8.28615C2.94153 8.35905 3.11233 8.50502 3.1944 8.63849C3.27678 8.77113 3.21066 8.8202 2.91243 8.75688C2.92109 8.8352 2.76163 8.8749 2.6653 8.89819C2.56925 8.92076 2.88146 9.0559 2.88581 9.06304C2.91088 9.10292 2.92483 9.13588 2.93029 9.1639C2.95444 9.29647 2.7977 9.32146 2.72494 9.43644C2.68304 9.50083 2.67236 9.66159 2.67723 9.75096C2.68102 9.82322 2.59253 9.83062 2.61852 9.90427C2.62196 9.91418 2.76598 9.96164 2.77053 9.96603C2.91505 10.0942 2.58171 9.93006 2.51505 9.91907C2.27262 9.8792 2.14201 9.86177 2.21673 9.98254C2.23359 10.0108 2.71065 10.2555 2.72733 10.2992C2.74795 10.3562 2.57584 10.2713 2.60159 10.3338C2.60365 10.3391 2.71413 10.3801 2.69867 10.4063C2.6294 10.5256 2.51159 10.6456 2.47516 10.7807C2.46956 10.7996 2.65386 10.8397 2.64874 10.8678C2.62537 10.9974 2.57213 11.1276 2.45043 11.2138C2.41971 11.2355 2.30185 11.1755 2.26291 11.1693C2.02663 11.1337 2.33295 11.2955 2.33653 11.3055C2.42572 11.5592 2.07793 11.6414 2.18864 11.8158C2.19383 11.8313 2.54779 11.9311 2.24088 11.8625C2.22059 11.8533 1.90231 11.8247 2.12452 11.7881C2.13829 11.7805 2.30207 11.8504 2.288 11.7475C2.28387 11.7221 2.28774 11.6671 2.28403 11.5865C2.27141 11.4899 2.29207 11.3929 2.14079 11.056C2.10145 10.9757 2.0524 10.8901 1.98007 10.7934C1.89667 10.6821 1.78564 10.5644 1.64708 10.4605C1.37474 10.248 0.976832 10.1247 0.677642 10.1277C0.425133 10.1259 0.224865 10.1868 0.111058 10.2394C0.00749922 10.2887 -0.0622744 10.3423 -0.11039 10.3936C-0.156106 10.4451 -0.176104 10.5411 -0.186248 10.6168L-0.50754 10.9398C-0.432371 10.9654 -0.376684 10.9669 -0.475945 10.8508C-0.487787 10.8368 -0.901554 10.4224 -0.557025 10.626C-0.500334 10.6595 -0.160379 10.9097 -0.293441 10.7235C-0.319388 10.6877 -0.411024 10.6541 -0.437281 10.5896C-0.478416 10.4911 -0.339849 10.4907 -0.453988 10.3261C-0.474112 10.2968 -0.678941 10.09 -0.476288 10.1794C-0.444528 10.1934 -0.336241 10.2844 -0.310355 10.2748C-0.185617 10.228 -0.201095 10.0845 -0.0574118 10.0474C-0.00693977 10.0344 0.169408 10.1799 0.242743 10.1808C0.315979 10.1818 0.411097 10.1466 0.349417 10.0523C0.287653 9.95797 -0.0389181 9.79277 -0.0266638 9.7231C0.0245782 9.42327 0.35642 9.31097 0.538919 9.0938C0.56606 9.06153 0.438781 9.01828 0.4709 8.96572C0.588782 8.77177 0.706048 8.37522 1.046 8.36224C1.31875 8.35116 1.34728 8.61226 1.48998 8.56005C1.5584 8.53461 1.24229 8.24794 1.23911 8.22875C1.20331 8.03889 1.41375 8.06008 1.43511 7.92469C1.43955 7.8966 1.28314 7.82288 1.28866 7.79976C1.3064 7.71974 1.4142 7.6958 1.44264 7.62821C1.45513 7.59759 1.34306 7.53019 1.36828 7.51065C1.42752 7.46288 1.50871 7.44045 1.64918 7.45098C1.66196 7.45196 1.77293 7.57811 1.80739 7.53772C1.86267 7.47227 2.02402 7.44912 1.97567 7.29827C1.96083 7.25334 1.715 7.08391 1.92171 7.1466C1.96491 7.15968 2.25152 7.37561 2.03753 7.13967C2.00212 7.1002 1.72713 6.76224 1.98555 6.86184C2.05334 6.88835 2.31852 7.0205 2.30085 6.96501C2.29756 6.95684 2.1546 6.88163 2.15863 6.84832C2.17412 6.73396 2.25489 6.64811 2.27598 6.53124C2.28233 6.49848 2.12064 6.43973 2.13452 6.39386C2.1715 6.26896 2.29765 6.16592 2.41209 6.09825C2.45422 6.07391 2.5465 6.18038 2.56048 6.18661C2.78855 6.28732 2.5444 6.06549 2.54017 6.03918C2.51474 5.88194 2.69581 5.8992 2.73041 5.78981C2.74092 5.75913 2.60487 5.67866 2.59782 5.66509C2.53526 5.52486 2.72213 5.74138 2.77356 5.7269C2.91692 5.68954 2.99161 5.57923 3.09368 5.4418C3.132 5.39072 2.95062 5.3175 2.98857 5.27138C3.02596 5.22506 3.07971 5.16573 3.14972 5.10031C3.21247 5.04238 3.31508 4.95047 3.49039 4.84267C3.55446 4.80369 3.74279 4.69285 3.98475 4.62219C4.13953 4.56794 4.84121 4.41242 5.48633 4.77796C6.10339 5.10223 6.3668 5.74145 6.40726 5.91367C6.4727 6.13731 6.48418 6.30022 6.48725 6.43231C6.47416 6.4879 6.45475 6.54311 6.42814 6.59752C6.41075 6.63243 6.27002 6.61829 6.2385 6.627C6.0179 6.68714 6.32585 6.74254 6.35567 6.75744C6.49182 6.82522 6.36974 6.8593 6.39612 6.92477C6.52705 7.24217 6.46378 7.64104 6.4267 7.94844C6.37905 8.34532 6.25891 8.66023 6.30792 9.03372C6.31087 9.05782 6.49579 9.02629 6.50071 9.04697C6.55581 9.3131 6.49272 9.57823 6.55555 9.84322C6.56038 9.86521 6.73551 9.82729 6.74919 9.86237C6.77848 9.9343 6.77197 10.0261 6.71808 10.1003C6.69213 10.1365 6.53936 10.0942 6.51632 10.1304C6.46237 10.2158 6.45274 10.3071 6.48366 10.3914C6.49721 10.4273 6.67573 10.3668 6.67929 10.414C6.70731 10.7376 6.74746 11.0531 6.52263 11.3872C6.50718 11.41 6.14132 11.4392 6.2128 11.4844C6.31457 11.4854 6.43417 11.4821 6.54289 11.4809C6.61351 11.9494 6.49677 12.4185 6.48566 12.8918C6.48523 12.9117 6.67878 12.8739 6.67893 12.9124C6.68002 13.1338 6.73734 13.3532 6.54749 13.5828C6.52893 13.606 6.18719 13.5994 6.23975 13.6652C6.24935 13.6772 6.29617 13.774 6.37067 13.8013C6.3819 13.8047 6.54112 13.7841 6.54617 13.817C6.57267 14.0006 6.53842 14.2055 6.44252 14.3929C6.42675 14.4237 6.25668 14.3925 6.24396 14.4143C6.15507 14.5682 6.28517 14.7316 6.13153 14.8815C6.02806 14.9833 5.73439 14.9429 5.44559 14.999C5.40485 15.0049 5.39848 15.0683 5.23036 15.0697C4.80765 15.0775 4.34475 15.0506 3.89418 15.0624C3.79714 15.0641 3.90168 15.1385 3.66715 15.0971C3.65146 15.091 3.57357 15.0355 3.49398 15.0222C3.43895 15.0132 3.26802 15.03 3.19757 15.0114C3.12719 14.9931 3.27044 14.966 3.18762 14.9366C3.10376 14.9053 2.90932 14.9149 2.88605 14.8529ZM2.2356 9.00117C2.06435 8.98919 2.61647 9.21953 2.50491 9.11343C2.49886 9.10803 2.24405 9.00163 2.2356 9.00117ZM4.78815 3.12658C4.52135 3.06967 4.84677 3.28616 5.05061 3.33436C5.25415 3.3827 4.86902 3.14386 4.78815 3.12658ZM4.94358 2.39901C4.72143 2.37571 5.46945 2.77592 5.35668 2.62065C5.35037 2.61175 4.95649 2.40035 4.94358 2.39901ZM5.36243 14.7568C5.35448 14.7559 5.34697 14.8028 5.35484 14.8034C5.54494 14.8265 5.55986 14.7361 5.36243 14.7568ZM5.08995 1.66824C4.97663 1.63693 5.05938 1.76369 5.20025 1.80258C5.31351 1.83396 5.23083 1.70729 5.08995 1.66824ZM0.704599 11.3721C0.695701 11.3708 0.680337 11.399 0.729459 11.4104C0.887387 11.4476 0.853222 11.396 0.704599 11.3721ZM5.66248 0.594359C5.5475 0.73554 4.88076 0.493782 5.04568 0.358883C5.0755 0.334559 5.20383 0.534533 5.28113 0.525342C5.42191 0.508687 5.06432 0.246457 5.31175 0.28687C5.35683 0.294607 5.6703 0.587192 5.66318 0.595113C5.66294 0.594862 5.66271 0.594611 5.66248 0.594359ZM1.55771 8.76108C1.54996 8.75914 1.52712 8.79585 1.53403 8.79969C1.70167 8.89182 1.74769 8.81816 1.55771 8.76108ZM1.6088 11.0226C1.62402 11.0302 1.6935 10.9563 1.68253 10.9448C1.45511 10.727 1.31443 10.8752 1.6088 11.0226ZM2.28584 5.92492C2.1304 5.80441 2.13295 5.74361 2.36723 5.80749C2.33647 5.84497 2.3156 5.88705 2.28584 5.92492Z" fill="#232322"/>
</svg>
