<svg width="9" height="2" viewBox="0 0 9 2" fill="none" xmlns="http://www.w3.org/2000/svg">
<path d="M9.07016 42.4296C9.75684 43.5059 9.98346 42.3194 10.0089 40.7106C10.0192 40.2113 9.88088 37.9891 9.87686 37.5446C9.86658 36.6783 9.95362 37.767 9.91451 36.7363C9.90014 36.3839 9.68642 32.8638 9.67491 32.575C9.60973 31.0176 9.67126 31.9137 9.62601 31.1655C9.40516 27.8149 9.17506 26.4267 8.95224 25.0071C8.9295 24.8631 8.90834 24.7186 8.88822 24.5716C8.81901 24.0484 8.55711 20.8586 8.64665 22.2555C8.65772 22.4217 8.89776 25.5078 8.91718 25.7622C9.21754 29.6562 8.73407 23.426 8.6657 22.5986C8.39684 19.3314 8.3456 19.0495 8.43161 20.2411C8.46879 20.7571 8.995 26.8829 8.69824 23.4447C8.67794 23.2124 8.40015 19.9371 8.36837 19.5879C8.29626 18.8027 8.33773 19.3888 8.31149 19.1297C8.25898 18.6137 8.26028 18.6468 8.24938 18.6102C8.23205 18.5316 8.07173 16.9054 8.12586 17.6484C8.13866 17.8167 8.44962 21.1719 8.49884 21.7432C8.54822 22.3136 8.51371 22.0299 8.43676 21.2393C8.35978 20.4483 8.11419 17.8112 8.05701 17.2068C7.57169 12.106 8.22071 19.1728 8.23761 19.3475C8.493 22.3271 8.07863 18.3057 8.03987 18.3211C8.01514 18.341 8.12009 19.6719 8.07623 19.4925C8.02223 19.2658 7.79672 17.4535 7.79586 17.7693C7.79537 17.7988 8.22475 21.7373 8.22546 21.7813C8.232 22.2443 8.14522 21.8193 7.79576 19.1671C7.76016 18.8977 7.37838 15.4402 7.31917 14.9643C6.96713 12.1272 6.11833 5.31211 7.82777 20.3606C7.73877 19.7755 7.64128 19.1717 7.2678 16.1417C7.0266 14.1915 6.60097 10.426 6.77053 12.0342C6.80834 12.3925 7.19872 15.6881 7.2266 15.9761C7.34421 17.1856 7.19141 16.1173 7.36844 17.823C7.40544 18.1777 7.75657 21.1306 7.81824 21.6625C8.31823 25.9702 7.4556 18.8535 7.38924 18.3368C6.89826 14.4834 7.05385 16.0043 7.01172 15.9139C7.00164 15.8912 7.48829 19.8558 7.49608 19.9764C7.5299 20.5489 7.4549 20.2122 7.20565 18.4571C7.14892 18.0572 6.7428 14.6791 6.69441 14.3152C6.48522 12.752 7.26379 19.1309 7.07896 17.7547C7.04089 17.4728 6.68737 14.5816 6.64771 14.2642C6.02441 9.2814 6.88447 16.3445 6.90149 16.5006C7.13326 18.6347 6.1988 11.2658 6.29617 12.3136C6.30888 12.4463 6.77203 16.1026 6.78022 16.2522C6.83854 17.2702 6.63638 16.2752 6.19526 13.3597C6.12693 12.9114 5.7859 10.1639 5.74222 9.82539C5.05773 4.53684 5.95109 11.6259 5.98162 11.8932C6.19791 13.8183 5.40891 7.87841 6.4698 16.3224C5.97096 13.4088 6.46496 18.1638 5.34992 10.6206C5.33677 10.5332 4.88073 7.04395 4.8564 6.88475C4.5582 4.93109 5.27942 10.3524 6.12983 16.9871C6.34378 18.653 5.26618 10.6495 5.18642 10.063C4.89376 7.9013 4.21412 2.71034 4.15648 2.29183C3.70181 -0.994221 5.97696 16.169 5.9546 16.1776C5.95005 16.1491 5.53436 12.9896 5.4907 12.6758C5.35359 11.6905 5.51382 12.9466 5.36328 11.86C5.01574 9.34554 3.90214 1.00678 4.52553 5.86317C4.60662 6.49344 5.90563 16.228 5.82424 15.7708C5.79063 15.5803 5.77671 15.752 5.68212 15.1226C5.58766 14.4939 5.17552 11.356 5.15667 11.2203C4.57348 7.07616 4.35442 5.3556 3.51731 -0.783282C2.68246 -6.89888 4.64078 7.6918 4.85304 9.32118C5.06476 10.9459 4.58457 7.52662 4.41934 6.33771C4.25418 5.14828 3.9935 3.15424 3.89821 2.48142C3.27438 -1.91442 4.85661 9.72554 5.15748 12.0426C5.8712 17.529 4.39642 6.7115 4.23129 5.65429C4.18675 5.36879 4.52385 7.83235 4.54971 8.06352C4.64798 8.94635 4.17924 5.57217 4.57389 8.67072C4.63796 9.17568 5.49984 15.6828 4.84117 10.911C4.74615 10.2229 4.38602 7.5262 4.29515 6.92353C4.15888 6.01904 4.05411 5.43316 4.16174 6.33628C4.24146 7.00447 4.85733 11.4449 4.6564 10.0668C4.56664 9.45148 4.2247 6.85129 4.08535 5.91204C3.94607 4.97307 3.93196 5.09128 3.93289 5.18253C3.9341 5.27577 4.39952 8.6443 4.42953 8.87141C4.6013 10.1724 4.80196 11.8 4.79959 11.7962C4.76801 12.2195 3.90324 6.55252 4.06886 8.44479C4.08128 8.58839 4.57639 12.14 4.58334 12.1985C4.76438 13.6902 3.47991 4.243 3.02537 1.08428C4.02384 8.2923 3.83247 6.98863 3.92503 7.78147C3.97042 8.16939 4.36085 10.9599 4.39962 11.2457C4.97428 15.4866 4.20858 10.0121 4.05127 8.89233C3.47286 4.77303 4.13825 9.64276 3.75133 6.8894C3.36706 4.15665 2.81862 0.10246 2.80892 0.15671C3.16189 2.73756 4.10838 9.47867 4.24759 10.5732C4.77546 14.713 3.95424 9.43486 3.83808 8.89089C3.72301 8.34725 3.77693 8.82499 3.62387 7.89583C3.34833 6.21565 4.06288 11.2154 4.35968 13.5082C4.65665 15.8006 2.94344 3.49259 2.56915 0.847545C2.19491 -1.7963 2.57255 0.926325 2.36427 -0.52672C2.15599 -1.97941 1.91358 -3.77954 1.82637 -4.32376C1.73907 -4.86742 2.37004 -0.159004 2.75497 2.60759C3.57023 8.46887 4.44659 14.6176 4.1165 12.4602C4.09693 12.3322 3.64723 9.09576 3.59533 8.76958C3.19782 6.28524 3.12578 6.13792 2.76558 3.9419C2.71531 3.63488 2.21313 0.0346965 2.17807 -0.184692C1.81091 -2.48095 2.6831 3.58581 3.61426 10.3306C2.3504 1.35824 1.56191 -4.12893 1.52324 -4.17749C1.49961 -4.20984 2.05775 -0.292042 2.43724 2.4712C2.55171 3.30416 2.15741 0.615637 2.41628 2.45863C3.26263 8.4831 4.23065 15.2242 3.81972 12.5436C3.80028 12.4162 3.33674 9.11851 3.30377 8.91949C3.08807 7.61681 3.97906 13.9175 4.05567 14.685C4.11591 15.2872 3.52392 11.452 3.40508 10.8315C1.96795 0.746285 2.26787 3.05983 3.24907 10.0148C3.1893 9.73284 3.22367 10.129 3.06869 9.17048C3.01566 8.84371 2.60225 5.92338 2.55637 5.60802C1.83649 0.660855 2.79566 7.4266 2.82966 7.69236C3.15511 10.2765 2.38395 5.15494 3.0604 10.1713C3.08475 10.3519 4.08798 17.3567 3.34249 12.244C3.29109 11.8916 2.84757 8.70267 2.79215 8.4591C2.73687 8.21496 2.15846 4.46571 2.59715 7.71537C2.70265 8.49773 3.50452 14.186 2.85079 9.7456C2.76203 9.14263 2.47465 7.13358 2.3109 6.01617C1.78887 2.45571 2.80447 9.53559 1.9272 3.52296C1.05021 -2.48943 0.376868 -6.98989 0.947054 -2.83656C0.963532 -2.71579 1.76697 2.8959 1.74538 2.80845C1.71017 2.66404 1.52113 1.49814 1.51151 1.53684C1.50721 1.55738 2.0156 5.04062 2.02358 5.10452C2.25873 7.06358 1.77553 3.96265 1.52793 2.62235C1.48142 2.36978 2.14386 7.12414 1.58002 3.37117C0.962341 -0.737109 -1.50069 -17.8423 -0.958107 -13.7607C-0.74189 -12.128 2.39143 9.57182 0.720448 -1.66397C1.06081 1.13092 0.161749 -4.61311 0.676525 -0.626494C0.69928 -0.449863 1.57545 5.60616 1.5566 5.52474C1.52683 5.39218 1.10716 2.56319 1.07251 2.37785C0.91686 1.52999 1.24316 3.95519 1.15816 3.58299C1.12675 3.44783 0.701699 0.521373 0.664022 0.359845C0.626691 0.201063 1.18297 4.05515 0.891391 2.19713C0.669293 0.780845 -0.501359 -7.09187 -0.65553 -8.00692C0.485024 -0.239274 0.448243 -0.397311 0.728067 1.65628C0.782362 2.05473 1.18435 4.75755 1.23055 5.08548C1.42744 6.48003 1.0905 4.24054 1.30597 5.75842C1.3577 6.12297 1.74782 8.77558 1.81216 9.22334C2.3742 13.1316 1.47519 7.16802 1.31846 6.12969C0.723541 2.18632 1.2249 5.63724 0.985262 4.08514C0.745558 2.53327 0.475785 0.588878 0.324132 -0.35195C0.0102954 -2.29791 0.0388982 -1.86444 -0.0063802 -1.9823C-0.0220453 -2.01296 0.507898 1.52652 0.517788 1.60434C0.628113 2.50561 0.0490015 -1.2571 1.07845 5.79714C-1.63123 -12.4354 1.32627 7.56782 0.754955 3.9222C0.708814 3.62733 -0.569549 -4.99516 -0.746742 -6.26258C-0.923718 -7.5288 -0.510296 -4.83558 -0.788125 -6.811C-0.853377 -7.27459 -2.02804 -15.3578 -2.09762 -15.8477C-2.64196 -19.6762 -0.736778 -6.79032 -0.631294 -6.0827C0.507951 1.55371 -0.754366 -7.15493 -0.836933 -7.75738C-1.21603 -10.5177 -0.925571 -8.70882 -1.1926 -10.6796C-1.36498 -11.9534 -2.6066 -20.3951 -2.55649 -20.1384C-2.3904 -19.2903 -0.645328 -7.51606 -2.10965 -17.7323C-2.4217 -19.9113 -3.78624 -29.1367 -2.68981 -21.8859C-2.62059 -21.4288 -1.62371 -14.7948 -2.22743 -18.9949C-2.30354 -19.5245 -2.69837 -22.2136 -2.72939 -22.4398C-2.92954 -23.9031 -2.6056 -21.7622 -2.7406 -22.7905C-2.87558 -23.8188 -3.08102 -25.3511 -2.92956 -24.4417C-2.83886 -23.8978 -2.09123 -18.8896 -1.90659 -17.6636C-1.37497 -14.1321 -2.20813 -19.928 -1.573 -15.6502C-0.934913 -11.3508 0.00438753 -4.81722 0.433211 -2.04172C-0.588333 -9.02864 -1.63572 -16.2002 -2.66239 -23.2268C-2.5749 -22.9884 -2.19487 -20.7364 -2.18949 -21.0524C-2.18982 -21.0986 -2.74422 -24.854 -2.75864 -25.0003C-2.81663 -25.6013 -2.40291 -22.9269 -2.52687 -23.9979C-2.62538 -24.8412 -3.17787 -28.8224 -3.29828 -29.8282C-2.12031 -21.8345 -2.47852 -24.5542 -2.34575 -23.8274C-2.29981 -23.5762 -1.99045 -21.4405 -1.8828 -20.7447C-1.4843 -18.1715 -2.52105 -25.2361 -2.67553 -26.3491C-3.33424 -31.0995 -1.01264 -15.1055 -1.03682 -15.5055C-1.03744 -15.5213 -2.25033 -24.0503 -2.324 -24.5817C-2.80578 -28.0466 -1.89118 -21.6146 -1.78798 -20.9864C-1.59941 -19.8384 -1.29007 -17.8044 -1.62562 -20.3054C-1.72523 -21.0461 -2.47488 -26.3631 -1.86667 -22.2545C-1.78704 -21.7166 -1.38111 -18.8981 -1.35577 -18.7333C-0.931493 -15.986 -2.20828 -24.8417 -2.62417 -27.8433C-3.0397 -30.8442 -2.13228 -24.7348 -1.87335 -22.9736C-1.20304 -18.4176 -1.60298 -21.0242 -1.53926 -20.5768C-0.780492 -15.2527 -0.894303 -16.1717 -0.815633 -15.724C0.437364 -7.04103 0.381052 -7.56493 -0.739139 -15.2947C-0.861546 -16.139 -0.755702 -15.3277 -0.815633 -15.724C-2.03092 -24.2451 -2.16512 -25.3395 -0.99603 -17.3814C-0.448218 -13.6516 0.167322 -9.29939 -0.0289137 -10.8957C-0.117384 -11.6163 -0.982512 -17.5946 -1.20335 -19.2266C-1.70678 -22.9504 -0.866266 -17.3785 -0.961434 -18.2617C-0.995845 -18.5824 -1.47602 -21.8539 -1.51563 -22.1859C-1.62208 -23.0772 -1.25215 -20.6238 -1.41157 -21.8849C-1.42659 -22.0033 -1.92156 -25.429 -1.92129 -25.4736C-1.92968 -25.8785 -1.57008 -23.6904 -1.50866 -23.637C-1.47911 -23.6129 -1.70241 -25.5093 -1.62183 -25.1331C-1.48479 -24.5013 -0.722323 -19.5259 -0.856231 -20.7418C-0.941266 -21.5203 -1.43222 -24.9473 -1.75213 -27.2843C-2.37199 -31.8145 -1.18716 -23.7105 -1.00447 -22.4555C-0.998462 -22.4139 -0.906512 -21.6027 -0.6458 -19.8447C-0.120543 -16.1792 -1.00251 -22.4395 -1.00447 -22.4555C-0.886352 -21.6448 -0.732116 -20.8729 -0.815866 -21.5294C-0.861632 -21.8882 -1.32268 -25.1357 -1.33785 -25.2614C-1.68803 -28.1764 -1.7429 -29.0105 -1.46934 -27.5002C-1.45907 -27.4348 -0.950479 -23.8012 -0.932726 -23.6927C-0.671725 -22.082 -1.27353 -26.5298 -1.6143 -29.1728C-1.95502 -31.8147 -1.80802 -30.9344 -0.918217 -24.699C-1.00563 -25.4876 -0.588653 -22.7342 -0.337425 -21.0633C-0.0862274 -19.3924 -1.06974 -26.4662 -1.08757 -26.6063C-1.66068 -31.0891 -1.06726 -27.0444 -0.928679 -26.4213C-0.860967 -26.113 -0.955025 -27.1458 -1.03566 -27.9231C-1.10091 -28.5492 -0.859635 -26.8929 -0.985677 -27.9558C-1.00251 -28.0978 -1.4404 -31.2475 -1.45631 -31.3689C-1.95391 -35.1409 -0.901545 -27.4385 -0.707029 -26.0638C0.000143051 -21.0647 0.377054 -18.4022 0.0803557 -20.7589C0.0122176 -21.2986 -1.49602 -32.3898 -1.57273 -33.04C-1.67001 -33.865 -1.12918 -29.8895 -1.24516 -30.8545C-1.25458 -30.9335 -1.59207 -33.3856 -1.56692 -33.2789C-1.45463 -32.8158 -1.20786 -31.3959 -1.1932 -31.6483C-1.18988 -31.6733 -1.7304 -35.562 -1.73422 -35.6622C-1.75276 -36.1294 -1.67909 -35.9928 -1.38555 -34.1782C-1.31161 -33.7193 -0.948215 -30.9945 -0.835774 -30.1861C-0.155713 -25.2945 -1.10146 -32.4076 -1.11613 -32.5436C-1.49566 -35.9719 -0.56275 -29.5451 -0.893264 -32.6203C-0.913191 -32.8007 -1.90076 -40.4296 -1.00562 -33.8933C-0.945856 -33.4584 -0.0319293 -26.7709 -0.631791 -31.3466C-0.669263 -31.6329 -1.14147 -35.0756 -1.07674 -34.7269C-1.01235 -34.379 -1.29158 -36.6828 -0.761446 -32.9018C-0.594168 -31.7107 0.314591 -25.0393 -0.373873 -30.3621C-0.422671 -30.7336 -1.99125 -42.7678 -0.872652 -34.4697C-0.688585 -33.1037 0.479059 -24.3203 -0.094678 -28.827C-0.205852 -29.7007 -0.475672 -31.6586 -0.625106 -32.8838C-0.855087 -34.772 -0.516558 -32.4229 -1.00812 -36.3395C-1.09554 -37.0328 -1.86478 -42.9976 -1.24941 -38.4745C-1.1531 -37.7661 -0.769682 -34.8328 -0.717921 -34.5057C-0.470329 -32.9367 -0.688013 -34.9038 -0.381275 -32.8798C-0.273537 -32.1686 0.343215 -27.4263 0.524238 -26.1576C0.705271 -24.8892 0.892956 -23.6709 0.62322 -25.8396C0.35362 -28.0093 -0.653276 -35.5642 -0.709569 -36.172C-0.951895 -38.8117 -0.265824 -34.3922 -0.0832523 -33.7562C-0.0557576 -33.6613 -0.417152 -36.3646 -0.401331 -36.4188C-0.346138 -36.6305 -0.512331 -39.1872 0.288453 -33.4472C0.928603 -28.8495 1.30201 -25.3349 1.58105 -23.4663C1.71295 -22.5748 0.62609 -31.3689 0.596997 -31.6464C0.295541 -34.4646 0.821735 -30.5746 0.718071 -31.7753C0.696693 -32.0245 0.241425 -35.587 0.228349 -35.7598C0.180028 -36.3814 0.408558 -34.7944 0.39934 -35.0887C0.394234 -35.229 0.0536702 -37.9508 0.0912089 -37.7421C0.176514 -37.2741 0.344323 -36.133 0.6869 -33.5849C0.717994 -33.3527 1.12029 -29.9642 1.1559 -29.8407C1.21274 -29.6505 1.56119 -27.1381 1.27883 -29.7422C1.19367 -30.5255 0.432555 -36.7483 0.9825 -32.4538C1.09742 -31.5569 2.004 -24.0838 1.2425 -30.5435C1.11515 -31.6169 0.102939 -40.3317 0.809562 -34.7208C0.995732 -33.2441 1.75319 -27.1307 1.65002 -28.0933C1.63334 -28.2469 1.22098 -31.589 1.19309 -31.9165C1.10208 -33.0125 1.18792 -32.6609 1.10427 -33.7132C1.08129 -34.0008 0.649523 -37.4585 0.628937 -37.7768C0.57248 -38.6571 0.735621 -37.783 0.914007 -36.7058C0.979953 -36.302 1.30663 -33.434 1.3449 -33.1222C1.96481 -28.0507 1.16729 -34.9008 1.12745 -35.301C0.888718 -37.6974 1.29942 -34.4838 1.23819 -35.3398C1.22249 -35.5673 0.833474 -38.8325 0.801617 -39.124C0.49253 -41.9722 1.15997 -36.1047 1.24944 -35.4598C1.50119 -33.6335 1.51531 -33.9012 1.50892 -34.3235C1.50599 -34.4833 1.05205 -38.2691 1.05487 -38.3689C1.06487 -39.0314 1.19038 -38.6785 1.51223 -36.5994C1.57316 -36.2011 1.89133 -33.2823 1.96955 -32.6163C2.51492 -27.9565 1.83263 -34.3195 1.77327 -34.9262C1.49885 -37.6963 1.80032 -35.1174 1.77675 -35.6024C1.66164 -38.0173 2.04852 -36.3295 2.31463 -35.2892C2.65873 -33.9505 3.09708 -31.1875 3.22538 -31.9287C3.23395 -31.9722 2.84368 -35.8584 2.84672 -35.9458C2.91417 -36.8983 3.21301 -35.3935 3.27561 -36.5318C3.28151 -36.6183 2.93002 -40.3043 2.92926 -40.5672C2.9279 -41.1326 3.01093 -40.9379 3.16248 -39.7644C3.23556 -39.1989 3.48091 -36.031 3.54785 -35.5265C3.70252 -34.3442 3.78117 -34.0863 3.78621 -34.6824C3.78791 -34.9442 3.43276 -38.7146 3.46103 -38.7608C3.64372 -39.1533 3.83395 -39.8226 4.3942 -34.9469C4.43279 -34.612 5.0141 -26.9375 4.92876 -28.4112C4.773 -30.5415 4.58755 -33.0472 4.42002 -35.3241C4.48117 -35.7499 4.56515 -35.721 4.63975 -35.4814C4.78537 -35.0197 4.98989 -33.7817 5.14065 -33.5197C5.1504 -33.5038 4.85738 -37.5713 4.87527 -37.5613C4.97784 -37.5079 5.01548 -38.6427 5.40833 -34.6062C5.44679 -34.2115 5.89749 -27.0514 5.86506 -28.1366C5.85869 -28.3346 5.85476 -29.293 5.77635 -30.8485C5.76423 -31.0831 5.54453 -34.4246 5.56037 -34.5233C5.65674 -35.0387 5.86906 -34.2857 6.21813 -32.255C6.27491 -31.9208 6.41397 -28.3572 6.45417 -28.0882C6.71764 -26.2058 6.91506 -28.9302 7.49991 -25.7045C7.86505 -23.5306 7.83702 -17.3646 7.98735 -11.2983C8.00957 -10.4425 8.08601 -10.3071 8.08545 -6.77676C8.093 2.10038 8.11256 11.8208 8.12481 21.2829C8.10744 23.321 8.10443 21.1259 8.10504 26.051C8.09278 26.3806 8.16288 28.0152 8.22366 29.6857C8.25766 30.8407 8.22061 34.4312 8.29528 35.9095C8.38005 37.3863 8.4365 34.3762 8.59093 36.1114C8.74986 37.8677 8.77525 41.9529 9.07016 42.4296ZM0.783701 -13.5946C1.27201 -10.1997 -0.45571 -22.6423 -0.0594634 -19.663C-0.0382588 -19.5042 0.75969 -13.7611 0.783701 -13.5946ZM-0.826176 -11.3604C-0.00590956 -5.88067 -1.16905 -13.9443 -1.80126 -18.1765C-2.43316 -22.4041 -1.07504 -13.0214 -0.826176 -11.3604ZM-0.447942 -7.32747C0.209013 -3.00849 -2.37033 -20.6341 -1.87397 -17.0674C-1.84597 -16.8658 -0.486123 -7.57825 -0.447942 -7.32747ZM7.66518 -9.56388C7.67173 -9.39721 7.72617 -9.23623 7.72334 -9.40153C7.64324 -13.3906 7.50097 -13.7087 7.66518 -9.56388ZM-0.0114736 -2.94028C0.346457 -0.55736 -0.038298 -3.31235 -0.483257 -6.27553C-0.841336 -8.65932 -0.456875 -5.90448 -0.0114736 -2.94028ZM3.41136 -0.422457C3.43661 -0.236977 3.4676 -0.0710694 3.3261 -1.11971C2.87033 -4.49714 2.98671 -3.54229 3.41136 -0.422457ZM-0.325544 -2.68661C-0.175088 -2.03105 2.0082 12.5208 1.71117 10.8863C1.65728 10.5906 1.04531 6.2413 0.83847 4.93084C0.461117 2.54349 1.79948 11.6851 1.05031 6.79121C0.913045 5.89549 -0.339037 -2.75633 -0.328457 -2.70691C-0.327488 -2.70014 -0.326514 -2.69337 -0.325544 -2.68661ZM2.87144 1.34889C2.89462 1.51337 2.92821 1.66773 2.90582 1.50457C2.36323 -2.44642 2.29477 -2.75961 2.87144 1.34889ZM4.93208 7.21092C4.97884 7.56179 5.04778 7.88663 5.00621 7.56315C4.17278 1.09504 4.02796 0.419513 4.93208 7.21092ZM3.36626 10.5626C3.91986 14.5362 3.97199 15.0059 3.24985 10.0198C3.30037 10.2828 3.3187 10.32 3.36626 10.5626Z" fill="#232322"/>
</svg>
