<svg width="2" height="13" viewBox="0 0 2 13" fill="none" xmlns="http://www.w3.org/2000/svg">
<path d="M-1.55962 12.3209C-1.61109 12.2523 -1.55449 12.1655 -1.47734 12.0999C-1.45341 12.0794 -1.34751 12.0911 -1.32621 12.0765C-1.28471 12.0498 -1.3364 12.0208 -1.28703 11.9951C-1.27014 11.9862 -1.10234 11.9993 -1.08847 11.9899C-1.0137 11.9366 -1.05595 11.8875 -1.01968 11.8341C-0.840756 11.5721 -0.774898 11.3135 -0.695489 11.0487C-0.669431 10.9598 -0.515862 10.8542 -0.58153 10.7644C-0.589345 10.7538 -0.736805 10.7585 -0.748931 10.7563C-0.934555 10.7226 -0.637119 10.7364 -0.597356 10.716C-0.57176 10.7027 -0.549948 10.689 -0.531608 10.675C-0.437512 10.6085 -0.43488 10.5287 -0.481744 10.4646C-0.505982 10.4308 -0.799133 10.461 -0.634411 10.4291C-0.62328 10.4268 -0.466865 10.4373 -0.450062 10.4282C-0.412268 10.4077 -0.439748 10.367 -0.427135 10.3504C-0.402044 10.319 -0.403563 10.3146 -0.401393 10.2851C-0.397066 10.2451 -0.318589 10.1969 -0.353408 10.1522C-0.361309 10.143 -0.521928 10.1527 -0.549017 10.1378C-0.576064 10.1228 -0.561871 10.084 -0.523841 10.0713C-0.485795 10.0586 -0.35978 10.0662 -0.330839 10.0643C-0.0865796 10.0489 -0.423721 9.99748 -0.431973 9.99125C-0.572601 9.88323 -0.37834 9.79107 -0.376858 9.69326C-0.376116 9.61768 -0.437751 9.53228 -0.427296 9.46131C-0.414175 9.375 -0.32528 9.30276 -0.337863 9.21932C-0.339002 9.21041 -0.527885 9.21544 -0.529656 9.20451C-0.548228 9.08619 -0.524156 8.97543 -0.392811 8.86238C-0.379473 8.8511 -0.214451 8.87193 -0.191228 8.86103C-0.0527981 8.79638 0.278065 8.69903 -0.440927 8.6285C-0.410876 8.58009 -0.379584 8.52592 -0.232554 8.48894C-0.137931 8.4654 0.0412584 8.49952 -0.0342708 8.46267C-0.0510929 8.45434 -0.209402 8.45763 -0.222686 8.44561C-0.278479 8.39531 -0.224777 8.3427 -0.304291 8.2931C-0.320826 8.28279 -0.462403 8.27905 -0.487755 8.2752C-0.69303 8.24303 -0.35026 8.22016 -0.325096 8.21301C-0.137394 8.15819 -0.207831 8.10712 -0.200421 8.0482C-0.198629 8.03471 -0.389392 8.0414 -0.394489 8.02805C-0.418373 7.95887 -0.398398 7.88833 -0.310509 7.8247C-0.290502 7.81057 -0.129449 7.83308 -0.11161 7.82678C-0.0349237 7.79898 -0.340103 7.77527 -0.272473 7.74917C-0.258605 7.74361 -0.120301 7.75469 -0.105028 7.75437C0.134711 7.74952 -0.202744 7.71542 -0.209956 7.71034C-0.308766 7.64593 0.0465184 7.62805 -0.000180781 7.5679C-0.0061211 7.56065 -0.182227 7.56606 -0.188209 7.54626C-0.229125 7.4149 -0.172749 7.2835 -0.0244158 7.16534C-0.0016146 7.14736 0.129046 7.16975 0.145344 7.16958C0.400029 7.16627 0.0613511 7.13127 0.0489836 7.12405C-0.0397642 7.06786 0.248083 7.04 -0.1539 6.97809C0.000958234 6.77342 -0.210254 6.54268 0.168323 6.36017C0.172728 6.35781 0.339398 6.37581 0.347465 6.37104C0.446385 6.31375 0.185784 6.30564 -0.128225 6.23671C-0.207043 6.21901 0.178879 6.21771 0.207205 6.21719C0.311584 6.21522 0.559183 6.24621 0.579517 6.24437C0.739297 6.22855 -0.0828021 6.16614 -0.0798286 6.12675C-0.0783574 6.12563 0.0724546 6.14326 0.087763 6.1412C0.135815 6.13487 0.076559 6.11976 0.129449 6.11404C0.251818 6.10103 0.651702 6.12634 0.422305 6.07184C0.392528 6.06484 -0.0740757 6.03255 -0.0490635 5.99891C-0.0387082 5.98559 -0.0413313 5.92204 -0.00960016 5.90691C0.0220813 5.89185 0.171181 5.91694 0.177791 5.91623C0.380405 5.88626 0.461117 5.91158 0.757051 5.91401C1.05186 5.91662 0.352941 5.86196 0.275823 5.84567C0.198926 5.82938 0.36571 5.80974 0.423386 5.80643C0.481085 5.80311 0.575553 5.82196 0.608441 5.8174C0.823392 5.78694 0.263762 5.76499 0.154389 5.73879C-0.104567 5.67667 0.415957 5.69291 0.469899 5.66221C0.484471 5.65386 0.36584 5.65097 0.355591 5.64141C0.316561 5.60372 0.480021 5.59759 0.33543 5.5459C0.31186 5.53755 0.00348693 5.47788 0.233743 5.47927C0.26694 5.47954 0.395183 5.49959 0.425406 5.48808C0.470753 5.47092 0.502555 5.43529 0.461629 5.40823C0.431346 5.38823 0.216979 5.38749 0.285034 5.37236C0.315419 5.36566 0.438058 5.39512 0.484769 5.38157C0.531451 5.36814 0.530361 5.32213 0.527757 5.30433C0.52505 5.28656 0.362957 5.28043 0.352234 5.27798C0.290854 5.26347 0.216403 5.22237 0.216889 5.21941C0.211644 5.06983 0.496916 4.9618 0.422156 4.80791C0.416502 4.79606 0.245895 4.78572 0.243281 4.78373C0.176133 4.73803 0.624507 4.81546 0.778427 4.80477C0.433406 4.77239 0.497452 4.76323 0.462512 4.73227C0.445397 4.7173 0.311219 4.71026 0.297686 4.70763C0.0970761 4.66679 0.360274 4.68104 0.414186 4.68329C0.612516 4.69147 0.38128 4.65269 0.513866 4.65802C0.645464 4.66329 0.837028 4.70403 0.83732 4.67788C0.714768 4.65736 0.390387 4.64214 0.340276 4.61673C0.15069 4.52063 0.419043 4.4068 0.451863 4.35127C0.484745 4.29471 0.464201 4.27279 0.512693 4.24296C0.600396 4.18905 0.358811 4.18498 0.253952 4.13301C0.14915 4.0808 0.734814 4.16766 0.861842 4.17652C0.988799 4.1855 0.859465 4.16448 0.929701 4.16558C0.999916 4.16671 1.08412 4.19149 1.11206 4.17835C1.13995 4.16523 0.920388 4.0949 0.7889 4.07413C0.51039 4.0296 0.214319 4.01506 0.322491 3.98471C0.328901 3.98299 0.48252 4.00897 0.499229 4.00148C0.626858 3.94144 0.643408 3.86503 0.757602 3.80292C0.773544 3.79442 0.94429 3.82432 0.955512 3.81962C1.07294 3.77072 0.7805 3.75795 0.462827 3.68441C0.890182 3.74442 1.15461 3.75656 1.16279 3.71079C1.16787 3.68321 0.980243 3.66502 0.850649 3.6307C0.811581 3.62037 0.942444 3.61642 0.854935 3.60195C0.568902 3.55451 0.244722 3.53349 0.378894 3.50086C0.385248 3.4995 0.541772 3.52582 0.552214 3.51966C0.6205 3.47998 0.320526 3.43675 0.29063 3.38034C0.267169 3.33611 0.459682 3.28686 0.495465 3.24416C0.976545 3.30646 0.871815 3.24991 0.542367 3.18957C0.559761 3.16178 0.545166 3.12733 0.594753 3.10461C0.61167 3.09678 0.750091 3.12144 0.765302 3.12216C1.00384 3.13397 0.682877 3.07889 0.671072 3.07079C0.557259 2.98495 0.80929 2.96046 0.579373 2.86141C0.571087 2.85789 0.237628 2.80923 0.4839 2.82392C0.500864 2.82502 0.649832 2.86762 0.665831 2.83757C0.681819 2.80779 0.868652 2.77411 0.719834 2.70983C0.684006 2.69435 0.416609 2.63073 0.631282 2.63843C0.660424 2.63953 0.755744 2.65577 0.809584 2.65899C0.981159 2.66912 0.644741 2.61548 0.933526 2.6394C1.2223 2.6633 1.44135 2.661 1.2497 2.58989C1.24414 2.58771 0.978208 2.54015 0.984364 2.52691C0.994415 2.50584 1.05449 2.48231 1.056 2.45898C1.05662 2.44779 0.889636 2.43152 0.88687 2.42918C0.804164 2.34285 0.959485 2.31195 1.03496 2.24254C1.04912 2.22991 0.828859 2.15572 1.01178 2.15349C1.21203 2.15106 2.02186 2.3007 1.83804 2.20235C1.76451 2.16315 0.736949 1.97448 1.27955 2.00272C1.16139 1.88516 1.44879 1.83504 1.2746 1.70704C1.26689 1.70131 0.980945 1.64345 0.986477 1.63344C0.995242 1.61869 1.13119 1.63054 1.14177 1.62068C1.1895 1.57972 1.08088 1.51937 1.10564 1.47769C1.11476 1.46175 1.25302 1.48915 1.26391 1.47018C1.27468 1.45121 1.09353 1.4093 1.18629 1.39559C1.25697 1.38531 1.63468 1.423 1.68261 1.40243C1.31341 1.34362 1.32397 1.32592 1.23178 1.27684C1.21389 1.26737 1.08425 1.25414 1.06915 1.24861C1.00487 1.22566 1.11323 1.23082 1.04299 1.20754C1.02613 1.20191 0.900038 1.18189 0.879136 1.17615C0.6966 1.12661 0.985554 1.13806 1.03584 1.1402C1.22688 1.14802 1.06451 1.11174 1.14105 1.10663C1.21756 1.10159 1.30588 1.1414 1.35381 1.12893C1.45294 1.10325 1.44068 1.04945 1.45302 1.00971C1.45717 0.993777 1.28713 0.977685 1.28382 0.974776C1.24656 0.93432 1.43101 0.929395 1.09896 0.85629C1.96914 0.97372 1.01821 0.822345 1.19954 0.802185C1.21419 0.800653 1.62462 0.862795 1.68239 0.887134C1.74011 0.911447 1.60846 0.912599 1.69896 0.947941C1.72018 0.956314 2.09972 1.04575 2.12238 1.05317C2.29948 1.11145 1.68649 1.01658 1.6526 1.0127C1.28682 0.971564 1.69515 1.07151 1.72236 1.08474C1.84692 1.14577 1.75552 1.16494 1.84358 1.21406C1.9005 1.24585 2.30143 1.31176 2.28641 1.32705C2.23675 1.37779 1.67366 1.30984 2.1507 1.44001C2.25244 1.46779 2.69296 1.52508 2.34153 1.5122C2.31938 1.51135 1.99897 1.49274 2.19588 1.54147C2.22071 1.54761 2.3486 1.56743 2.35889 1.57201C2.42535 1.60232 2.32145 1.59951 2.36696 1.62829C2.41248 1.65705 2.48131 1.69368 2.43422 1.71109C2.40604 1.72164 2.16486 1.70357 2.10541 1.70182C1.93421 1.69626 2.20655 1.75994 2.00108 1.74132C1.79454 1.72274 1.48758 1.65066 1.35031 1.66373C1.68255 1.71554 2.02332 1.77026 2.35734 1.82304C2.33473 1.89297 2.21662 1.94709 2.22068 2.02063C2.22152 2.02978 2.40166 2.0474 2.40717 2.05788C2.42964 2.10193 2.29703 2.11779 2.34173 2.16642C2.37705 2.20398 2.56111 2.26796 2.60393 2.3085C2.22018 2.27364 2.34213 2.34276 2.3021 2.37399C2.28824 2.38498 2.18665 2.36947 2.15217 2.37375C2.02452 2.39028 2.36338 2.42263 2.41501 2.43956C2.63534 2.51187 1.87301 2.40627 1.88509 2.45634C1.88546 2.459 2.28729 2.54716 2.312 2.55487C2.47318 2.60477 2.17 2.53925 2.13763 2.55164C2.0785 2.5742 1.97849 2.58182 2.09237 2.63503C2.12612 2.65062 2.37581 2.71131 2.17708 2.70448C2.15105 2.70361 2.01696 2.68341 2.00879 2.68449C1.8722 2.70566 2.29408 2.76527 2.43393 2.80732C2.57375 2.84934 2.27767 2.84349 2.19273 2.83899C1.97296 2.8275 2.10181 2.81218 2.08064 2.80825C1.82855 2.76161 1.86875 2.79287 1.84467 2.80918C1.43041 2.7552 1.45154 2.78569 1.82138 2.82632C1.86178 2.83072 1.82523 2.81046 1.84467 2.80918C2.24842 2.88181 2.29645 2.91801 1.9125 2.89888C1.73256 2.88991 1.52709 2.84738 1.5967 2.90401C1.62811 2.92965 1.91426 2.96005 1.9895 2.98894C2.16114 3.05493 1.88765 3.07565 1.92372 3.12525C1.93682 3.14327 2.09497 3.14839 2.1093 3.16139C2.14783 3.19591 2.02735 3.20592 2.08355 3.24275C2.08884 3.2461 2.2531 3.26117 2.25401 3.27041C2.26407 3.34091 2.15178 3.38582 2.1398 3.45626C2.13399 3.49094 2.21629 3.56433 2.19367 3.5977C2.15539 3.65568 1.9081 3.70192 1.95942 3.76153C1.9922 3.80026 2.15676 3.81286 2.26646 3.8411C2.4792 3.89505 2.0858 3.89925 2.02503 3.89875C2.02302 3.89873 1.98808 3.86408 1.90213 3.86986C1.72596 3.8579 2.02432 3.89832 2.02503 3.89875C1.98575 3.89856 1.94139 3.95375 1.97127 3.9693C1.98759 3.97777 2.1431 3.99281 2.14869 3.99687C2.27795 4.09283 2.3081 4.17586 2.22637 4.24646C2.22307 4.24749 2.04977 4.22519 2.04419 4.22787C1.96162 4.26544 2.17042 4.32046 2.2921 4.37317C2.41372 4.42597 2.3681 4.45124 2.06751 4.4402C2.10177 4.47331 1.96537 4.49976 1.88276 4.5146C1.80014 4.52946 2.13779 4.57032 2.14424 4.57314C2.351 4.66101 2.15325 4.67846 2.11573 4.7434C2.09731 4.77425 2.13948 4.84357 2.17278 4.88219C2.19966 4.91278 2.11866 4.92091 2.16669 4.95143C2.17311 4.95554 2.32406 4.96793 2.32975 4.96958C2.507 5.01647 2.14024 4.96441 2.07388 4.96331C1.83256 4.95936 1.70387 4.95878 1.81251 5.00764C1.83738 5.01889 2.36503 5.09832 2.39447 5.11676C2.43177 5.1407 2.24248 5.1137 2.28638 5.13927C2.28997 5.14144 2.40726 5.15306 2.40078 5.16536C2.37225 5.22258 2.29752 5.28027 2.30323 5.34251C2.30356 5.35095 2.49066 5.35869 2.4942 5.37117C2.51075 5.4291 2.49759 5.49285 2.40518 5.53985C2.38183 5.55145 2.25235 5.53038 2.21338 5.52965C1.97752 5.52563 2.3152 5.58401 2.32129 5.58883C2.47517 5.70549 2.1601 5.75423 2.29724 5.87256C2.30532 5.87912 2.66628 5.95514 2.35165 5.94653C2.33071 5.94597 2.00885 5.93678 2.22626 5.97306C2.23986 5.97531 2.40574 5.97801 2.38711 5.99723C2.36851 6.0165 2.47569 6.05927 2.29212 6.07181C2.23431 6.07549 1.91295 6.07018 2.16524 6.11947C2.18285 6.12292 2.75507 6.21402 2.35652 6.19521C2.29092 6.19208 1.87068 6.15401 2.08351 6.20478C2.12478 6.2145 2.21951 6.21114 2.2767 6.23238C2.36486 6.26489 2.24949 6.28853 2.43431 6.33438C2.46703 6.34246 2.75062 6.38829 2.53251 6.38853C2.49835 6.38858 2.35838 6.37176 2.3419 6.38C2.2629 6.41839 2.35281 6.47581 2.25198 6.51458C2.21653 6.52846 1.99018 6.50208 1.92798 6.51463C1.8658 6.52719 1.80457 6.55756 1.90693 6.58361C2.00934 6.60963 2.37271 6.61799 2.39961 6.64697C2.5166 6.77062 2.29543 6.87465 2.25623 6.98762C2.25038 7.00444 2.38092 6.99939 2.38161 7.02474C2.38455 7.1201 2.49521 7.29033 2.21471 7.35318C1.98989 7.40566 1.8273 7.31109 1.73429 7.35642C1.6899 7.37844 2.10937 7.4313 2.12227 7.43794C2.25338 7.50356 2.06441 7.53155 2.11862 7.58583C2.12987 7.59701 2.3012 7.59693 2.3089 7.60631C2.33673 7.63789 2.25856 7.6668 2.2708 7.69716C2.27667 7.71085 2.40722 7.71592 2.39645 7.72752C2.3722 7.75537 2.31593 7.77788 2.19212 7.79928C2.18084 7.80125 2.01957 7.77477 2.01234 7.79593C2.00109 7.83027 1.87817 7.86608 2.00055 7.91311C2.03737 7.92725 2.33545 7.94358 2.1282 7.9585C2.08492 7.96162 1.7273 7.9359 2.03503 7.98226C2.08615 7.99016 2.50077 8.06173 2.2306 8.0723C2.15949 8.07512 1.86569 8.0768 1.91101 8.09338C1.91826 8.09567 2.0788 8.096 2.09383 8.10854C2.14403 8.15241 2.12482 8.19495 2.17291 8.24103C2.18607 8.25323 2.35263 8.24395 2.36696 8.26183C2.40661 8.31097 2.36173 8.36714 2.30783 8.40998C2.28765 8.42575 2.15084 8.40813 2.13585 8.40868C1.89191 8.41749 2.2195 8.44325 2.23833 8.45089C2.35106 8.49738 2.19561 8.52205 2.23481 8.5615C2.24522 8.57235 2.40198 8.5715 2.41584 8.57415C2.55125 8.60117 2.27095 8.57359 2.23942 8.58585C2.15015 8.62024 2.16105 8.66242 2.17955 8.7014C2.18656 8.71608 2.36862 8.70703 2.37281 8.72007C2.40111 8.79739 2.38091 8.87403 2.27838 8.94236C2.25872 8.95573 2.11931 8.94205 2.08729 8.94388C1.86331 8.95644 2.16687 8.99635 2.19565 9.004C2.3271 9.03904 2.20314 9.04671 2.22534 9.07425C2.33596 9.20704 2.24951 9.36583 2.19582 9.49065C2.12677 9.64839 1.99113 9.77206 2.02282 9.92942C2.02466 9.93926 2.2108 9.93272 2.21478 9.94121C2.25768 10.0501 2.18334 10.1566 2.23552 10.2693C2.23948 10.2785 2.41596 10.2678 2.42823 10.2825C2.45464 10.3128 2.44458 10.3497 2.38791 10.3786C2.36059 10.3934 2.20956 10.3712 2.18516 10.3861C2.128 10.4208 2.11499 10.4581 2.14284 10.4937C2.15508 10.5088 2.33566 10.4883 2.33751 10.5078C2.34562 10.5726 2.35693 10.6426 2.33785 10.7065C2.31832 10.7776 2.26717 10.8403 2.14846 10.9114C2.13232 10.9207 1.76575 10.925 1.83581 10.9456C1.9375 10.9482 2.05714 10.9495 2.16585 10.9513C2.22224 11.1497 2.09307 11.3428 2.07127 11.542C2.0704 11.5503 2.26473 11.5381 2.26402 11.5541C2.26014 11.648 2.31297 11.7381 2.11893 11.8326C2.09995 11.842 1.75841 11.832 1.80976 11.8619C1.81913 11.8674 1.86425 11.9098 1.93829 11.9208C1.94946 11.9224 2.109 11.9161 2.11349 11.9303C2.13688 12.0089 2.0996 12.0916 2.00136 12.1697C1.9852 12.1823 1.81554 12.167 1.80256 12.1759C1.71177 12.2389 1.84014 12.31 1.68543 12.3686C1.58128 12.4072 1.28788 12.39 0.998793 12.4092C0.957998 12.4122 0.951395 12.4358 0.783297 12.4361C0.360564 12.4382 -0.102253 12.4232 -0.552852 12.4265C-0.649943 12.4275 -0.545436 12.4686 -0.779953 12.4448C-0.795671 12.4425 -0.873375 12.4111 -0.952877 12.4045C-1.00785 12.3994 -1.17887 12.4069 -1.24921 12.3965C-1.31949 12.3865 -1.17611 12.3775 -1.2587 12.3616C-1.34233 12.3461 -1.53687 12.351 -1.55962 12.3209ZM1.51345 4.58229C1.34862 4.58705 1.94289 4.65548 1.80329 4.61563C1.79583 4.61363 1.52154 4.582 1.51345 4.58229ZM1.77052 1.87962C1.50523 1.86959 1.88596 1.9468 2.09054 1.95656C2.29488 1.96639 1.85094 1.88267 1.77052 1.87962ZM1.62606 1.54856C1.41525 1.55068 2.25284 1.6849 2.08888 1.62294C2.07963 1.61938 1.63831 1.54843 1.62606 1.54856ZM0.917405 12.3086C0.909456 12.309 0.901549 12.3263 0.909413 12.3273C1.0993 12.3387 1.11499 12.3028 0.917405 12.3086ZM1.46574 1.21641C1.3507 1.2092 1.47666 1.26073 1.6197 1.2697C1.73476 1.27696 1.60882 1.22543 1.46574 1.21641ZM0.760778 5.68768C0.751868 5.68724 0.74268 5.69966 0.792886 5.70395C0.954591 5.71771 0.910635 5.69532 0.760778 5.68768ZM1.5387 0.704592C1.49468 0.775151 0.795639 0.708047 0.887351 0.637603C0.903946 0.624873 1.10248 0.706368 1.16797 0.697471C1.28728 0.681262 0.857074 0.586167 1.09562 0.588756C1.13925 0.58938 1.54273 0.700879 1.53964 0.704886C1.53933 0.704789 1.53901 0.704688 1.5387 0.704592ZM0.7978 4.51694C0.789887 4.51654 0.780429 4.534 0.788178 4.53528C0.97588 4.5658 0.995029 4.53075 0.7978 4.51694ZM0.327558 6.42188C0.31067 6.42159 0.291676 6.46258 0.307059 6.46513C0.614987 6.51095 0.654266 6.42865 0.327558 6.42188ZM0.508393 3.24507C0.321459 3.20078 0.302151 3.1746 0.542113 3.18963C0.526957 3.20755 0.522615 3.22659 0.508393 3.24507Z" fill="#232322"/>
</svg>
