<svg width="98" height="6" viewBox="0 0 98 6" fill="none" xmlns="http://www.w3.org/2000/svg">
<path d="M98.6168 45.2462C98.5904 46.3426 97.8402 45.2185 97.2124 43.6511C97.0151 43.1651 96.9506 40.9381 96.8041 40.5029C96.5025 39.6554 96.3829 40.7577 96.0698 39.7451C95.9666 39.3985 95.8323 35.8731 95.7293 35.5903C95.1898 34.0642 94.8105 34.9893 94.3033 34.2708C91.7888 30.7271 89.4533 29.5359 87.0974 28.0474C86.3113 27.5602 85.2567 24.4076 84.5408 25.8422C84.4603 26.0127 84.6574 29.1022 84.6525 29.3579C84.5679 33.2717 84.3658 27.0254 84.1535 26.2041C83.2963 22.962 82.5362 22.7102 81.9067 23.9328C81.6395 24.4619 82.1882 30.5924 81.7531 27.1568C81.7239 26.9247 81.6554 23.6375 81.5648 23.2905C81.3602 22.5099 81.0548 23.1106 80.9074 22.856C80.6234 22.3487 80.581 22.3835 80.3276 22.3563C79.9689 22.2909 79.5241 20.6732 79.187 21.4317C79.1159 21.6033 79.3494 24.9664 79.2471 25.5442C79.1449 26.1211 78.8005 25.8483 78.6571 25.0589C78.5139 24.269 78.4623 21.6205 78.4194 21.0147C78.0577 15.9008 77.9618 23.0058 77.9163 23.1831C77.1387 26.2042 76.2243 22.1911 75.3966 22.2305C74.7477 22.2697 74.1397 23.6247 73.5246 23.4609C72.7807 23.253 72.1473 21.4452 71.4544 21.7794C71.3814 21.8108 71.5829 25.7685 71.4936 25.8149C70.5291 26.304 69.6043 25.8972 68.566 23.2486C68.4659 22.9793 68.4958 19.4989 68.3907 19.022C67.7485 16.179 66.6741 9.33601 66.6849 24.4853C66.2704 23.9036 65.7959 23.3035 65.3736 20.2594C65.1033 18.3001 65.2366 14.5066 64.9963 16.1295C64.9418 16.4911 65.0981 19.8071 65.0104 20.0984C64.6447 21.3219 64.1646 20.2533 63.8263 21.9756C63.7555 22.3338 63.8402 25.3063 63.8293 25.8421C63.7335 30.1818 63.268 23.0212 63.1892 22.5018C62.5872 18.629 62.2347 20.165 61.736 20.0799C61.6207 20.0585 61.8326 24.0494 61.7272 24.1721C61.1839 24.7553 60.5937 24.423 60.0042 22.6609C59.873 22.2594 59.9259 18.8555 59.8601 18.4895C59.5714 16.9173 59.627 23.3436 59.3496 21.9598C59.2913 21.6763 59.2706 18.7635 59.2552 18.4438C59.2033 17.3544 59.1622 16.8369 59.1294 16.6959C59.0077 16.1876 58.9883 20.5764 58.9572 20.6999C58.4586 22.8544 58.0385 15.4311 57.5581 16.4873C57.4996 16.6212 57.6677 20.3053 57.4993 20.4562C56.3817 21.4833 55.1568 20.4697 54.0888 17.5111C53.922 17.0561 54.0725 14.2889 54.0648 13.9475C53.9493 8.61341 53.7623 15.7568 53.7018 16.0252C53.2357 17.9567 52.9312 11.9591 52.482 20.4627C50.682 17.477 48.6109 22.1899 47.1187 14.4879C47.0999 14.3986 47.3047 10.8853 47.2671 10.7224C46.8193 8.72305 46.6683 14.1911 45.9522 20.8524C45.7681 22.5248 45.9016 14.4451 45.9113 13.8528C45.9374 11.6698 46.3072 6.44676 46.2999 6.02333C46.2396 2.69806 45.3494 19.9887 44.996 19.9747C44.9869 19.9453 45.2095 16.766 45.1984 16.4481C45.1649 15.4499 45.0054 16.7092 44.9808 15.609C44.925 13.0634 45.3532 4.66135 44.7727 9.53162C44.6971 10.1637 44.1694 19.9707 43.8863 19.4886C43.7743 19.2883 43.2206 19.422 43.1106 18.7769C42.9997 18.1326 43.3113 14.9815 43.3091 14.844C43.1837 10.6418 43.451 8.92119 43.6752 2.72663C43.9059 -3.4442 42.957 11.2468 42.7631 12.8805C42.5689 14.5095 42.5172 11.0447 42.5322 9.8424C42.5467 8.63958 42.7764 6.63983 42.7625 5.95762C42.6729 1.50012 42.0588 13.2332 41.7509 15.5536C41.0128 21.047 41.5586 10.1398 41.3517 9.05104C41.2942 8.75688 41.1689 11.2411 41.0795 11.4675C40.725 12.3307 40.8274 8.92175 40.2537 12.0092C40.1624 12.5125 39.3597 19.0328 39.5842 14.2178C39.6177 13.5236 39.9096 10.8179 39.8403 10.2006C39.7373 9.27435 39.4649 8.65452 39.1954 9.54399C38.9954 10.202 38.7727 14.6825 38.7119 13.2794C38.6859 12.6529 39.0604 10.0531 38.9942 9.09425C38.9302 8.13597 38.5406 8.21706 38.3896 8.29427C38.2382 8.37352 38.0098 11.7673 37.9777 11.9944C37.7886 13.295 37.3594 14.9023 37.3333 14.8958C36.0247 15.192 35.4527 9.37442 34.0629 11.1353C33.9538 11.2685 33.6387 14.8411 33.6182 14.8982C33.1318 16.3574 34.3958 6.904 34.5126 3.70716C33.7718 10.9463 33.7791 9.62202 33.4679 10.3911C33.3171 10.7676 33.0733 13.5753 33.0324 13.861C32.408 18.0981 32.8899 12.5901 32.9841 11.4628C33.3284 7.31602 32.6768 12.189 32.9075 9.41717C33.1376 6.6662 33.7495 2.61779 33.532 2.64652C33.1856 5.22897 32.5993 12.0128 32.3128 13.0911C31.2211 17.1694 30.6493 11.7282 30.2219 11.1193C29.7897 10.5107 29.5742 10.969 29.3959 9.99983C29.0776 8.24776 28.6719 13.2856 28.0691 15.5417C27.4656 17.7973 29.1101 5.47885 29.3826 2.82098C29.6569 0.164522 29.2789 2.88755 29.3988 1.42347C29.5191 -0.0401987 29.8566 -1.82899 29.7925 -2.39179C29.7303 -2.95377 28.7983 1.71841 28.4142 4.48551C27.6011 10.3479 27.0146 16.5333 26.926 14.324C26.9215 14.193 27.3822 10.9575 27.3451 10.6202C27.3261 10.4618 27.3061 10.3123 27.285 10.1706L27.6524 10.2055C27.2877 8.07207 26.7212 7.77603 26.2548 5.66306C26.1867 5.34832 26.4388 1.72128 26.4007 1.49701C26.0005 -0.850217 25.8909 5.28086 25.2758 12.0677C25.7803 3.02056 25.892 -2.52383 25.5195 -2.5961C25.2971 -2.64277 25.132 1.31127 24.8366 4.08882C24.7464 4.92606 24.7252 2.20382 24.5959 4.0606C24.1656 10.1297 23.9585 16.9392 23.6731 14.2072C23.6615 14.0774 23.9103 10.7561 23.8569 10.5511C23.521 9.20935 23.0893 15.5585 22.5594 16.2967C22.139 16.8758 21.7499 12.9581 21.3947 12.2969C22.1889 2.14094 21.6644 4.4395 20.9261 11.426C20.6854 11.1176 20.3662 11.4886 20.1986 10.4988C20.1403 10.1612 20.4628 7.22886 20.4803 6.91046C20.7715 1.91719 20.0429 8.71232 19.9587 8.97356C19.2817 10.9916 19.15 8.10886 18.5846 9.35398C18.4402 9.67373 18.2642 10.2653 18.0363 11.281C17.9984 11.4603 17.2119 18.4929 17.6059 13.3388C17.6349 12.9837 18.1638 9.8024 17.9241 9.52629C17.6751 9.24863 17.6085 5.42484 16.8755 8.64166C16.6995 9.41619 15.8232 15.098 16.1523 10.618C16.1979 10.0098 16.4562 7.99659 16.5509 6.8707C16.8552 3.28343 15.9731 10.3814 16.5437 4.3306C17.1123 -1.7202 17.3884 -6.26926 16.5416 -2.14789C16.5163 -2.02814 15.7681 3.5918 15.665 3.48935C15.4997 3.32079 15.387 2.11814 15.1931 2.13218C15.1002 2.14094 14.741 5.64319 14.7176 5.70524C13.8768 7.59139 13.8185 4.42354 13.3324 2.99322C13.2468 2.72442 12.3284 7.44872 12.5539 3.65343C12.7985 -0.501502 15.1229 -17.6281 14.0468 -13.6106C13.6134 -12.004 10.7083 9.72949 11.6366 -1.59972C10.4872 1.09774 10.4108 -4.7656 9.12035 -0.869696C9.06258 -0.697162 8.23744 5.36716 8.16147 5.27449C8.05051 5.12521 8.30979 2.27617 8.23977 2.0784C7.9517 1.17786 7.32434 3.56879 6.99733 3.14852C6.87336 2.99524 7.25632 0.062558 7.10669 -0.120758C6.95649 -0.301329 6.40598 3.55525 6.3915 1.66111C6.38176 0.217477 7.09126 -7.71208 6.96081 -8.66006C6.08401 -0.858219 5.94565 -1.03636 5.43879 0.992754C5.34105 1.38652 5.09911 4.10895 5.03751 4.43532C4.78058 5.82389 4.9333 3.56235 4.66973 5.07573C4.60613 5.43916 4.31305 8.10424 4.24474 8.55182C3.65424 12.4592 4.03981 6.43463 4.10497 5.38548C4.35666 1.40142 3.89901 4.85943 3.93066 3.28332C3.96137 1.70734 4.37677 -0.222268 4.31741 -1.18701C4.19008 -3.18295 3.71579 -2.79784 3.38671 -2.95618C3.25469 -3.00279 2.97464 0.56637 2.94708 0.642348C2.57712 1.5163 2.67981 -2.30033 1.79839 4.77558C3.48976 -13.5805 1.44919 6.53689 1.42884 2.82581C1.42797 2.52574 2.26575 -6.15075 2.51888 -7.41133C2.77235 -8.67066 2.68186 -5.94101 3.05529 -7.90795C3.14225 -8.36963 4.2136 -16.4706 4.29874 -16.9592C4.95297 -20.7791 3.63928 -7.81939 3.57775 -7.10649C2.92374 0.588042 4.11723 -8.13464 4.25891 -8.7311C4.89495 -11.4656 4.98982 -9.61318 5.49013 -11.5595C5.81475 -12.8173 6.74918 -21.2985 6.87097 -21.0226C7.28454 -20.1095 6.14641 -8.26003 7.74634 -18.4667C8.08786 -20.6435 9.01757 -29.9234 8.56847 -22.595C8.54067 -22.133 8.0639 -15.4361 8.68912 -19.6359C8.76806 -20.1654 9.07053 -22.8663 9.12162 -23.0904C9.45813 -24.5387 9.32985 -22.3742 9.63444 -23.3834C9.93931 -24.3925 10.3362 -25.9033 10.4478 -24.9628C10.5152 -24.4002 10.1027 -19.3506 10.0215 -18.1121C9.78331 -14.5446 10.6395 -20.3402 10.2496 -16.0317C9.85631 -11.7018 8.89283 -5.16848 8.84412 -2.34701C9.66709 -9.3601 10.5253 -16.5568 11.3602 -23.6088C11.9542 -23.2896 12.292 -20.951 12.9445 -21.1878C13.026 -21.2242 13.3948 -25.0032 13.4939 -25.1394C13.9092 -25.6974 13.8917 -22.9742 14.3753 -24.0018C14.7516 -24.8116 15.5311 -28.7662 15.9384 -29.7371C15.147 -21.6941 15.8991 -24.3664 16.1153 -23.5966C16.1919 -23.3304 15.9267 -21.1888 15.9182 -20.4807C15.8913 -17.8613 16.6115 -24.9664 16.8235 -26.0727C17.7345 -30.7933 15.8264 -14.7448 16.2701 -15.0936C16.2936 -15.1066 17.573 -23.6297 17.6703 -24.1583C18.3074 -27.6052 17.3498 -21.1768 17.4125 -20.5282C17.5256 -19.3431 17.4562 -17.2794 18.0465 -19.7503C18.2191 -20.4824 19.0547 -25.7904 18.7285 -21.6468C18.686 -21.1041 18.3401 -18.2777 18.3378 -18.1101C18.3236 -15.3128 19.3813 -24.1973 19.9047 -27.1869C20.4257 -30.1762 19.9792 -24.0102 19.8288 -22.2356C19.442 -17.6446 19.4946 -20.2931 19.4345 -19.8452C18.7239 -14.5136 19.0276 -15.4104 19.1275 -14.9415C18.1477 -6.22352 18.4266 -6.72161 19.2352 -14.4905C19.3237 -15.3391 19.1127 -14.5398 19.1275 -14.9415C20.2474 -23.4769 20.5788 -24.5485 19.9308 -16.5272C19.628 -12.7677 19.0245 -8.41211 19.57 -9.96945C19.8139 -10.6728 20.4105 -16.6842 20.7261 -18.3064C21.2269 -20.8769 21.2711 -18.9404 21.3912 -17.8025C21.4466 -17.3016 21.5152 -16.9554 21.6354 -17.2159C21.7781 -17.5256 22.0001 -20.8265 22.108 -21.1516C22.3905 -22.0252 22.3232 -19.5391 22.636 -20.7862C22.6642 -20.9034 22.9464 -24.3534 23.008 -24.392C23.4781 -24.7519 23.6597 -22.5109 24.1068 -22.4143C24.3255 -22.3689 24.8412 -24.2455 25.0326 -23.8483C25.3581 -23.1801 25.5703 -18.1259 26.0228 -19.3267C26.31 -20.0954 26.436 -23.5556 26.6597 -25.9061C27.0846 -30.4627 27.0787 -22.2632 27.0788 -20.9935C27.0779 -20.9516 26.7978 -20.1481 26.8399 -18.3668C26.7354 -14.6645 27.0754 -20.9776 27.0788 -20.9935C27.0713 -20.1737 27.5445 -19.364 27.6935 -20.0191C27.7707 -20.3774 27.9005 -23.655 27.9382 -23.7799C28.6231 -25.9946 29.3856 -26.9717 30.1656 -26.5836C30.3927 -26.3592 31.5375 -26.6688 31.7523 -26.4327C31.8905 -26.3125 32.0137 -26.0662 32.1218 -25.6903C32.1252 -25.6232 31.6656 -21.9831 31.6792 -21.8706C31.861 -20.2053 32.6352 -24.6327 33.257 -27.2419C33.8784 -29.8501 34.0037 -28.9368 33.4433 -22.6606C33.7672 -23.4208 33.7636 -20.6175 33.7586 -18.917C33.7531 -17.2166 34.604 -24.3077 34.6365 -24.4461C35.6618 -28.8765 35.4837 -24.7823 35.937 -24.0911C36.1536 -23.75 36.7536 -24.7258 37.1049 -25.4733C37.3805 -26.0762 37.3269 -24.3985 37.6335 -25.4421C37.6746 -25.5814 37.9862 -28.7462 38.0071 -28.8671C38.6215 -32.6277 37.6973 -24.9083 37.5949 -23.523C37.224 -18.4851 37.0465 -15.7998 37.5743 -18.1328C37.6975 -18.6668 39.0348 -29.7815 39.2113 -30.4214C39.4402 -31.2329 38.9777 -27.2471 39.2294 -28.1984C39.2505 -28.2761 39.498 -30.7389 39.5803 -30.6209C39.9674 -30.1052 40.2989 -28.6255 40.773 -28.8297C40.8362 -28.8482 41.1292 -32.764 41.2254 -32.8552C41.6775 -33.2799 42.1011 -33.0952 42.3364 -31.2297C42.3935 -30.7582 42.0914 -28.0253 42.0413 -27.2104C41.7436 -22.2789 42.5548 -29.4111 42.5947 -29.5449C43.6074 -32.919 43.6336 -26.4019 44.6133 -29.4286C44.6719 -29.6062 45.5296 -37.2561 45.1871 -30.6665C45.1629 -30.2281 44.8205 -23.4856 45.2684 -28.0804C45.2958 -28.3679 45.4572 -31.84 45.5777 -31.4765C45.6995 -31.1137 46.0842 -33.4132 46.0297 -29.5905C46.0102 -28.3864 45.7306 -21.6571 46.2683 -27.0008C46.3112 -27.3735 47.354 -39.4677 46.9367 -31.1044C46.8681 -29.7277 46.3086 -20.8845 46.8175 -25.4051C46.9141 -26.2816 46.9546 -28.2592 47.1414 -29.4843C47.4249 -31.3728 47.5191 -28.9902 47.9503 -32.9195C48.028 -33.615 48.5064 -39.6119 48.3798 -35.0473C48.3607 -34.3324 48.1651 -31.3805 48.2133 -31.0464C48.4448 -29.4438 48.8753 -31.4033 49.0957 -29.344C49.176 -28.6202 48.8939 -23.846 48.9587 -22.5601C49.0229 -21.2746 49.2254 -20.032 49.4477 -22.2099C49.6687 -24.3888 49.8553 -32.0094 50.0627 -32.6112C50.9522 -35.2253 51.5577 -30.7314 52.3491 -30.057C52.4642 -29.9565 52.4352 -32.6853 52.6069 -32.7329C53.254 -32.9195 54.3328 -35.4605 54.8387 -29.6622C55.2568 -25.0175 54.6569 -21.4878 55.0018 -19.5966C55.1761 -18.6945 55.3998 -27.5548 55.4379 -27.8337C55.8344 -30.6662 56.0987 -26.7411 56.4531 -27.9467C56.5249 -28.1969 56.4396 -31.788 56.4995 -31.9613C56.6996 -32.585 56.925 -30.9834 57.1208 -31.2783C57.2082 -31.4189 57.1662 -34.1617 57.2481 -33.9508C57.445 -33.4777 57.6233 -32.3267 57.8508 -29.7587C57.8723 -29.5247 57.7988 -26.1111 57.9498 -25.9863C58.0836 -25.8809 58.2471 -25.0725 58.4086 -24.7963C58.5669 -24.569 58.7221 -24.7029 58.8522 -25.8886C58.9375 -26.6781 58.8292 -32.9463 59.1187 -28.6213C59.1791 -27.718 59.2594 -20.1903 59.3877 -26.6982C59.4106 -27.7796 59.6576 -36.5589 59.9622 -30.9085C60.0427 -29.4214 60.2942 -23.2649 60.3923 -24.235C60.4051 -24.3898 60.2778 -27.7554 60.3676 -28.0856C60.6792 -29.1908 61.0567 -28.8388 61.3897 -29.9004C61.4785 -30.1906 61.2678 -33.6716 61.4019 -33.9928C61.7705 -34.8811 62.2642 -34.004 62.6563 -32.9214C62.801 -32.5157 62.7688 -29.6278 62.7854 -29.314C63.0548 -24.2093 62.9996 -31.1061 63.0469 -31.5093C63.3349 -33.924 63.6629 -30.691 63.9527 -31.555C64.0326 -31.7847 63.898 -35.0708 63.9083 -35.3643C64.018 -38.2324 64.0218 -32.3256 64.1474 -31.6774C64.4999 -29.8418 64.8375 -30.114 65.1353 -30.5414C65.245 -30.7032 65.0252 -34.5119 65.1274 -34.6131C65.7357 -35.2848 66.3775 -34.9358 67.0168 -32.8496C67.1373 -32.4499 67.1438 -29.5131 67.1842 -28.8433C67.4601 -24.1573 67.5429 -30.561 67.5797 -31.1718C67.757 -33.9608 67.9222 -31.368 68.1285 -31.8583C69.1149 -34.2985 70.4852 -32.6178 71.5157 -31.587C72.8656 -30.2611 73.9746 -27.5034 75.1915 -28.2725C75.27 -28.3177 75.0499 -32.2181 75.1154 -32.3072C75.9531 -33.2794 76.8811 -31.7871 77.6922 -32.9483C77.7585 -33.0367 77.5112 -36.7325 77.612 -36.9986C77.8269 -37.5708 78.1358 -37.3819 78.4196 -36.2103C78.5581 -35.6459 78.5342 -32.465 78.6713 -31.9617C78.9948 -30.7829 79.277 -30.5307 79.5442 -31.1363C79.6537 -31.4018 79.3106 -35.1776 79.4647 -35.2279C80.4992 -35.6483 81.4551 -36.3446 82.7612 -31.4983C82.8486 -31.1653 83.2871 -23.481 83.3675 -24.9627C83.2741 -27.0967 83.1501 -29.6062 83.043 -31.8868C84.4969 -33.1896 86.1033 -30.6038 87.6495 -30.2817C87.715 -30.2691 87.3638 -34.3334 87.4883 -34.3296C88.1881 -34.3106 88.8095 -35.4807 89.7886 -31.4818C89.883 -31.0906 90.3074 -23.9288 90.4598 -25.0259C90.4875 -25.2261 90.7523 -26.202 90.7309 -27.7614C90.7266 -27.9965 90.4509 -31.3343 90.5461 -31.4383C91.136 -31.9864 91.8294 -31.2669 92.6442 -29.2704C92.7801 -28.9421 92.8949 -25.3759 92.9932 -25.1111C93.6696 -23.2582 94.1313 -26.007 95.1535 -22.8181C95.8831 -20.6709 95.9186 -14.5011 96.467 -8.45053C96.5341 -7.59704 96.9209 -7.47193 97.0145 -3.94197C97.1723 4.93377 97.3319 14.6529 97.5356 24.1129C97.6242 26.1515 97.0396 23.9594 97.4132 28.8829C97.4667 29.2131 97.8187 30.8409 97.8821 32.5097C97.9516 33.6632 98.001 37.2538 98.1282 38.729C98.2621 40.2026 98.1952 37.1932 98.2931 38.9278C98.3877 40.6842 98.6078 44.7625 98.6168 45.2462ZM33.7477 -11.316C33.5375 -7.88787 34.9854 -20.3661 34.4558 -17.4016C34.4285 -17.2435 33.7577 -11.4842 33.7477 -11.316ZM11.1809 -11.5408C10.7763 -6.00941 11.8993 -14.0804 12.2272 -18.3506C12.554 -22.6162 11.3019 -13.2177 11.1809 -11.5408ZM8.16704 -7.81759C7.95648 -3.44475 10.0237 -21.1378 9.30397 -17.5955C9.26272 -17.3953 8.17892 -8.07153 8.16704 -7.81759ZM95.4533 -6.67053C95.4622 -6.50399 95.6479 -6.35192 95.6443 -6.51727C95.5161 -10.5062 95.1287 -10.8067 95.4533 -6.67053ZM5.15907 -3.72091C4.98819 -1.31568 5.54562 -4.05301 5.75998 -7.0438C5.93136 -9.44995 5.37021 -6.71307 5.15907 -3.72091ZM41.8128 2.93658C41.8013 3.12345 41.8954 3.29969 41.9736 2.24444C42.2252 -1.15431 42.0062 -0.206432 41.8128 2.93658ZM0.86243 -3.95993C1.43302 -3.22989 0.334043 11.4486 -0.165937 9.7301C-0.257381 9.41912 0.558939 5.08662 0.535598 3.75114C0.488549 1.31768 -0.603215 10.4939 -0.410555 5.53834C-0.377008 4.63112 0.831532 -4.0343 0.865561 -3.98023C0.864519 -3.97346 0.863475 -3.96669 0.86243 -3.95993ZM32.1391 3.68697C32.1242 3.85247 32.2546 4.02586 32.2766 3.86261C32.8066 -0.0908783 32.5475 -0.442094 32.1391 3.68697ZM47.6915 11.0754C47.6849 11.4295 48.0275 11.7758 48.0531 11.4503C48.51 4.94247 47.8433 4.22423 47.6915 11.0754ZM21.4094 12.0255C20.922 16.0118 20.6507 16.4638 20.9265 11.4312C21.0788 11.7122 21.2529 11.7657 21.4094 12.0255Z" fill="#232322"/>
</svg>
