<svg width="25" viewBox="0 0 25 0" fill="none" xmlns="http://www.w3.org/2000/svg">
<path d="M0.236881 -1.97966C0.376242 -2.03177 0.558921 -1.97605 0.697755 -1.89958C0.741266 -1.87587 0.719233 -1.76985 0.749269 -1.7487C0.808013 -1.70748 0.86274 -1.75948 0.920792 -1.71037C0.940031 -1.69358 0.916083 -1.52565 0.936256 -1.51189C1.0468 -1.43767 1.15138 -1.48045 1.26336 -1.44475C1.81496 -1.26863 2.35716 -1.20559 2.91551 -1.12908C3.01277 -1.11582 3.12112 -1.06703 3.22973 -1.03378C3.32669 -1.00409 3.42387 -0.986294 3.51356 -1.01678C3.53576 -1.02447 3.52253 -1.17177 3.52675 -1.18386C3.59299 -1.36861 3.57097 -1.07188 3.61422 -1.03189C3.78588 -0.873788 3.97677 -0.857218 4.14197 -0.908605C4.21226 -0.930824 4.14179 -1.22127 4.21256 -1.05708C4.21747 -1.04601 4.19964 -0.892614 4.21891 -0.875624C4.26263 -0.837474 4.34555 -0.862376 4.37943 -0.849083C4.44472 -0.822796 4.45552 -0.824011 4.51728 -0.820106C4.6017 -0.813293 4.70211 -0.734604 4.79268 -0.765202C4.81201 -0.772106 4.78642 -0.927181 4.81725 -0.951846C4.84811 -0.976453 4.92975 -0.959008 4.95728 -0.921608C4.98481 -0.884188 4.97309 -0.765024 4.97796 -0.73733C5.01804 -0.504424 5.11248 -0.820566 5.12463 -0.827212C5.34617 -0.948612 5.53616 -0.757435 5.74412 -0.746702C5.902 -0.738213 6.07081 -0.782768 6.22103 -0.763876C6.4 -0.740752 6.55168 -0.656841 6.72554 -0.656776C6.74389 -0.656516 6.72239 -0.812738 6.7448 -0.81242C6.9829 -0.808841 7.21934 -0.76581 7.45641 -0.64911C7.48019 -0.637404 7.44955 -0.516069 7.4733 -0.497305C7.61873 -0.381908 7.84884 -0.14918 7.93522 -0.644844C8.03373 -0.615571 8.15332 -0.583035 8.24145 -0.479342C8.29828 -0.412982 8.24309 -0.297749 8.31289 -0.344353C8.32863 -0.35462 8.30816 -0.459658 8.33177 -0.466838C8.43117 -0.49627 8.53977 -0.454717 8.6381 -0.496873C8.6581 -0.505587 8.65264 -0.593535 8.65831 -0.608669C8.70594 -0.729731 8.78522 -0.512031 8.80251 -0.496538C8.93413 -0.373959 9.03025 -0.411269 9.15286 -0.397829C9.18132 -0.394777 9.14768 -0.504283 9.17506 -0.504725C9.31706 -0.505155 9.46416 -0.478815 9.6032 -0.422413C9.63413 -0.409722 9.60569 -0.330183 9.62047 -0.320122C9.68564 -0.278013 9.70009 -0.429239 9.76258 -0.39038C9.77576 -0.382528 9.76834 -0.31541 9.77074 -0.307754C9.80836 -0.18887 9.84104 -0.351068 9.85072 -0.353292C9.97311 -0.389874 10.0513 -0.220206 10.1696 -0.236902C10.1837 -0.2387 10.1518 -0.318838 10.1916 -0.318682C10.4565 -0.317747 10.7366 -0.26913 10.9988 -0.20334C11.0396 -0.193221 11.0105 -0.149503 11.0131 -0.14362C11.0549 -0.0544838 11.0819 -0.170219 11.0952 -0.17328C11.2001 -0.196412 11.298 -0.102537 11.3693 -0.223067C11.8134 -0.152995 12.2555 -0.166837 12.6959 -0.0783193C12.7015 -0.0773865 12.6915 -0.0485169 12.7027 -0.0468982C12.8372 -0.0276844 12.8114 -0.0733165 12.9004 -0.117775C12.9228 -0.128142 12.991 -0.0661165 12.997 -0.0623456C13.019 -0.046362 12.9962 -0.010335 13.0036 -0.00720714C13.0645 0.015564 13.0546 -0.102907 13.1368 -0.0972557C13.1394 -0.0969464 13.1286 -0.0768476 13.1355 -0.0744593C13.1569 -0.0671182 13.1781 -0.0742258 13.1991 -0.0664547C13.2471 -0.0482342 13.2642 0.00113518 13.3375 -0.0263129C13.3468 -0.0296603 13.3326 -0.0863808 13.406 -0.079529C13.4353 -0.0769032 13.5648 -0.0709301 13.6011 -0.0661742C13.6373 -0.0614381 13.6124 -0.0478265 13.615 -0.0470091C13.7127 -0.0246814 13.6757 -0.0180607 13.7246 0.00909064C13.7735 0.0348129 13.76 -0.027268 13.7799 -0.0334704C13.7999 -0.0395318 13.8715 -0.0237649 13.8891 -0.019205C13.9067 -0.0144357 13.8848 -0.0070884 13.9004 -0.00443465C14.0041 0.0118736 13.9459 -0.0305599 13.9801 -0.0379032C14.0606 -0.0534664 14.1234 -0.0155001 14.1971 -0.0125137C14.2171 -0.0114415 14.2008 -0.0187343 14.2186 -0.0190613C14.289 -0.0198803 14.3313 -0.0109313 14.4114 -0.0169462C14.4245 -0.0182397 14.4892 -0.0301965 14.5311 -0.0192473C14.537 -0.0177654 14.5202 -0.0125779 14.5501 -0.0109745C14.595 -0.00854362 14.6757 -0.00691386 14.7239 -0.00783232C14.7594 -0.00844441 14.7187 -0.0158533 14.7634 -0.0129464C14.7833 -0.011729 14.7464 -0.00835304 14.7838 -0.00658269C14.821 -0.00486874 14.916 -0.0044283 14.9522 -0.00425614C14.9883 -0.00410991 14.9685 -0.00785368 14.9715 -0.00809099C14.9891 -0.00930657 15.0584 -0.00967482 15.0645 -0.00953638C15.3734 -0.00358546 15.6582 -0.000330421 15.9589 -0.000157204C15.9825 -0.000115736 15.9667 -0.000213509 15.9703 -0.00020791C16.0511 -3.76564e-05 15.9874 -4.18791e-05 16.0439 1.5787e-06C16.036 -4.20278e-05 16.0667 -1.4412e-06 16.1198 0C16.1218 0 16.1239 0 16.1259 0C16.1533 0 16.1384 0 16.1409 0C16.1816 0 16.2099 0 16.2172 0C16.2441 0 16.2734 0 16.2918 0C16.3101 0 16.2679 0 16.3225 0C16.3378 0 16.2973 0 16.3387 0C16.495 0 16.7869 0 16.9126 0C17.038 0 17.0785 0 17.1516 0C17.2837 0 17.2353 0 17.3173 0C17.3995 0 17.3595 0 17.3714 0C17.383 0 17.3956 0 17.4101 0C17.4245 0 17.3933 0 17.4271 0C17.461 0 17.5536 0 17.5656 0C17.5909 0 17.5492 0 17.6388 0C17.644 0 17.6272 0 17.647 0C17.8036 0 17.9664 0 18.1229 0C18.1444 0 18.1252 0 18.1377 0C18.2682 0 18.2215 0 18.293 0C18.277 0 18.3165 0 18.4155 0C18.475 0 18.4648 0 18.5032 0C18.5148 0 18.5569 0 18.5645 0C18.5897 0 18.55 0 18.6521 0C18.6566 0 18.6423 0 18.6578 0C18.7578 0 18.7698 0 18.8779 0C18.9626 0 19.1133 0 19.2098 0C19.2078 0 19.2989 0 19.3359 0C19.3985 0 19.4662 0 19.5267 0C19.5475 0 19.5338 0 19.5365 0C19.5767 0 19.604 0 19.6175 0C19.764 0 19.8833 0 20.0231 0C20.0281 0 20.0361 0 20.0735 0C20.0759 0 20.0298 0 20.0955 0C20.1613 0 20.2853 0 20.3766 0C20.3987 0 20.4546 0 20.4995 0C20.5055 0 20.4989 0 20.5075 0C20.5354 0 20.5507 0 20.5834 0C20.6162 0 20.6844 0 20.7765 0C20.7794 0 20.8012 0 20.8302 0C20.8764 0 20.9421 0 20.9903 0C21.0134 0 20.9986 0 21.0027 0C21.1581 0 21.2687 0 21.4352 0C21.4657 0 21.5534 0 21.6125 0C21.6774 0 21.6107 0 21.7598 0C21.82 0 21.8961 0 22.0042 0C22.2138 0 22.4077 0 22.6179 0C22.6274 0 22.6573 0 22.6795 0C22.7125 0 22.7306 0 22.7541 0C22.8529 0 22.9432 0 23.0384 0C23.0745 0 23.0619 0 23.105 0C23.148 0 23.1768 0 23.2351 0C23.2792 0 23.3233 0 23.3818 0C23.384 0 23.4242 0 23.4956 0C23.5094 0 23.4946 0 23.5011 0C23.5276 0 23.552 0 23.5771 0C23.5832 0 23.5835 0 23.5885 0C23.631 0 23.7009 0 23.7129 0C23.7589 0 23.7804 0 23.8157 0C23.851 0 23.7983 0 23.8394 0C23.9248 0 24.0344 0 24.1211 0C24.1557 0 24.1321 0 24.137 0C24.2086 0 24.2809 0 24.3205 0C24.3701 0 24.3636 0 24.4659 0C24.4739 0 24.4842 0 24.4532 0C24.4223 0 24.3755 0 24.3326 0C24.3224 0 24.2642 0 24.2563 0C24.1941 0 24.1853 0 24.182 0C24.1447 0 24.0736 0 24.0549 0C23.9692 0 23.8965 0 23.8248 0C23.778 0 23.7734 0 23.7366 0C23.6143 0 23.5716 0 23.4564 0C23.4316 0 23.4562 0 23.3677 0C23.3621 0 23.2963 0 23.2584 0C23.2536 0 23.2537 0 23.2475 0C23.2053 0 23.1772 0 23.1312 0C23.0853 0 23.0301 0 22.9776 0C22.946 0 22.9055 0 22.8904 0C22.8477 0 22.8018 0 22.7754 0C22.7487 0 22.8009 0 22.7309 0C22.7283 0 22.7224 0 22.7182 0C22.5648 0 22.4139 0 22.2601 0C22.241 0 22.2605 0 22.24 0C22.1538 0 22.0784 0 21.9889 0C21.9197 0 21.8437 0 21.7713 0C21.7271 0 21.6196 0 21.5415 0C21.5142 0 21.516 0 21.4966 0C21.4232 0 21.4576 0 21.4375 0C21.3511 0 21.3438 0 21.242 0C21.2366 0 21.1707 0 21.1617 0C21.104 0 21.1521 0 21.116 0C21.0501 0 21.0044 0 20.9271 0C20.9045 0 20.8504 0 20.8067 0C20.8009 0 20.8041 0 20.7995 0C20.7156 0 20.7134 0 20.6654 0C20.6175 0 20.5434 0 20.5283 0C20.4889 0 20.5585 0 20.5607 0C20.5858 0 20.5317 0 20.4905 0C20.4845 0 20.4268 0 20.4477 0C20.4501 0 20.4822 0 20.4905 0C20.4542 0 20.3908 0 20.3207 0C20.288 0 20.319 0 20.2193 0C20.1741 0 20.1916 0 20.1517 0C20.0605 0 19.9421 0 19.8481 0C19.814 0 19.8472 0 19.8239 0C19.7621 0 19.7075 0 19.6454 0C19.6397 0 19.6535 0 19.6342 0C19.4877 0 19.3602 0 19.2073 0C19.1334 0 19.0013 0 18.9247 0C18.7921 0 18.6289 0 18.5156 0C18.4417 0 18.4579 0 18.4262 0C18.3651 0 18.2569 0 18.2424 0C18.2419 0 18.3055 0 18.2716 0C18.2518 0 18.2431 0 18.2424 0C18.2328 0 18.1057 0 18.0805 0C18.0668 0 18.0745 0 18.0673 0C17.8974 0 17.7272 0 17.5549 0C17.5519 0 17.5565 0 17.5493 0C17.4496 0 17.3857 0 17.3034 0C17.2212 0 17.1559 0 17.1072 0C17.0452 0 16.9561 0 16.9049 0C16.8537 0 16.8465 0 16.842 0C16.7014 0 16.6201 0 16.4742 0C16.4048 0 16.2672 0 16.1921 0C16.1643 0 16.1417 0 16.1198 0C16.0951 2.05189e-06 16.0714 3.79916e-05 16.0423 0.000152409C16.0349 0.000183141 16.0424 0.000169737 16.0402 0.000179822C15.9791 0.000544102 16.0085 0.000318275 15.9959 0.000364039C15.9502 0.00060191 15.9219 0.00054718 15.8438 0.00144415C15.8258 0.00157665 15.7732 0.00328815 15.7404 0.00421793C15.6976 0.00530944 15.7138 0.00435321 15.669 0.00555351C15.6652 0.00566413 15.666 0.0060494 15.6384 0.00679911C15.5102 0.0103302 15.3705 0.0149348 15.2373 0.0212963C15.2191 0.0221927 15.2424 0.0235491 15.2161 0.0250151C15.0928 0.0318919 14.9576 0.0411175 14.8374 0.0473357C14.8078 0.048827 14.8264 0.0437884 14.82 0.0431253C14.7805 0.038604 14.7246 0.0525844 14.7154 0.0537825C14.4954 0.077344 14.327 0.077384 14.1027 0.107295C14.0905 0.108324 13.9966 0.145415 13.9547 0.12714C13.9518 0.126194 13.9103 0.105194 13.8736 0.12632C13.8714 0.12774 13.8972 0.137992 13.8521 0.141898C13.807 0.145439 13.7344 0.164723 13.6724 0.15521C13.6528 0.152618 13.6064 0.125108 13.5479 0.157481C13.544 0.158563 13.4537 0.234048 13.4214 0.194328C13.4162 0.187734 13.4216 0.138702 13.3518 0.171479C13.3384 0.178054 13.3626 0.186166 13.3275 0.197712C13.2736 0.216063 13.2022 0.210685 13.1359 0.245655C13.1244 0.251446 13.0752 0.300035 13.0358 0.275585C13.0296 0.27163 13.0413 0.249538 13.0205 0.250291C12.9214 0.253158 12.8177 0.283727 12.7171 0.282468C12.6815 0.281797 12.6997 0.239627 12.6625 0.233356C12.6254 0.227197 12.5506 0.224203 12.5117 0.24876C12.4728 0.273816 12.5153 0.33745 12.4571 0.352866C12.2039 0.423065 11.9531 0.42328 11.7003 0.456854C11.6628 0.462229 11.6939 0.492097 11.6386 0.503316C11.4349 0.541997 11.0832 0.660051 10.9064 0.595846C10.7648 0.540569 10.943 0.450483 10.8348 0.433596C10.7826 0.42376 10.7261 0.590937 10.7135 0.598972C10.5903 0.67366 10.5047 0.615945 10.3938 0.658706C10.371 0.667881 10.3934 0.73506 10.3739 0.742416C10.3074 0.768689 10.2374 0.75017 10.1738 0.768853C10.1453 0.777497 10.1506 0.834574 10.1243 0.835777C10.0615 0.839171 10.006 0.826408 9.94473 0.780962C9.93915 0.77663 9.97678 0.694025 9.93031 0.699251C9.8551 0.70854 9.76174 0.664097 9.67521 0.740682C9.64954 0.763567 9.64853 0.914903 9.59334 0.820968C9.58176 0.801432 9.59653 0.614836 9.53224 0.785C9.52143 0.811793 9.41344 1.05488 9.36043 0.922625C9.34645 0.887768 9.31077 0.735304 9.27989 0.765036C9.2757 0.769814 9.29248 0.85427 9.26689 0.867513C9.17672 0.912991 9.08223 0.921157 8.98959 0.967789C8.96485 0.980632 9.0017 1.06935 8.96483 1.08599C8.86344 1.13233 8.73686 1.13533 8.63772 1.12329C8.60117 1.1187 8.62643 1.02806 8.62378 1.01938C8.58101 0.875414 8.55572 1.08501 8.54152 1.10037C8.45324 1.19085 8.38601 1.10559 8.30464 1.14746C8.28218 1.15896 8.29811 1.25892 8.29363 1.269C8.24727 1.369 8.28181 1.17605 8.25246 1.16128C8.17025 1.11891 8.0786 1.14322 7.99546 1.17251C7.96492 1.18346 7.99924 1.30252 7.97184 1.3113C7.80963 1.36612 7.641 1.38996 7.48269 1.34482C7.45288 1.33603 7.47164 1.22814 7.46543 1.2054C7.42261 1.04484 7.35986 1.28366 7.34542 1.30892C7.27976 1.42146 7.25426 1.33182 7.19628 1.35944C6.91305 1.49921 6.56333 1.49582 6.29598 1.49005C5.94758 1.48593 5.67724 1.39652 5.34501 1.46147C5.32389 1.46549 5.34518 1.63596 5.32698 1.64181C5.09198 1.71041 4.86062 1.66388 4.62514 1.73431C4.60582 1.73984 4.63367 1.90808 4.60266 1.92288C4.53904 1.95447 4.45846 1.95206 4.39414 1.90181C4.36276 1.87758 4.40484 1.72676 4.37326 1.70522C4.29974 1.65458 4.22092 1.64658 4.14539 1.67839C4.11325 1.69233 4.16174 1.86745 4.11996 1.87186C3.83539 1.90557 3.5559 1.9461 3.26833 1.71315C3.25653 1.70358 3.24559 1.56846 3.22973 1.47656C3.21908 1.41491 3.20622 1.37273 3.18939 1.40094C3.18624 1.50266 3.18641 1.6223 3.18503 1.73102C2.77076 1.78958 2.36072 1.66253 1.94528 1.64289C1.92777 1.6421 1.95804 1.83629 1.92413 1.83576C1.72786 1.83289 1.53727 1.88668 1.33651 1.69367C1.31659 1.67479 1.32681 1.33316 1.26811 1.38483C1.25775 1.39426 1.16934 1.43982 1.14649 1.51398C1.14338 1.52517 1.15951 1.68463 1.13102 1.68927C0.965464 1.71349 0.791969 1.67708 0.626698 1.57965C0.600025 1.56363 0.62843 1.39382 0.609432 1.38092C0.474669 1.29078 0.328086 1.41987 0.199313 1.26569C0.113118 1.16188 0.14503 0.868347 0.0992264 0.579414C0.092748 0.538649 0.039373 0.532189 0.0366129 0.364082C0.0295266 -0.0586386 0.0553798 -0.521516 0.0447716 -0.972095C0.0430406 -1.04705 6.51605e-06 -1.00176 0 -1.08531C0 -1.08532 0 -1.08533 0 -1.08534C1.92018e-06 -1.10997 0.00373972 -1.14578 0.01337 -1.19915C0.0163266 -1.21484 0.068152 -1.29268 0.0809167 -1.37224C0.0898039 -1.42725 0.0737889 -1.59821 0.0919215 -1.66863C0.110053 -1.73897 0.129976 -1.59566 0.160037 -1.67839C0.190085 -1.76215 0.176873 -1.95664 0.236881 -1.97966ZM16.6742 0C16.6267 0 16.6197 0 16.671 0C16.6735 0 16.6766 0 16.6742 0ZM22.4148 0C22.3528 0 22.3103 0 22.3541 0C22.3978 0 22.4337 0 22.4148 0ZM23.058 0C22.9855 0 22.9741 0 23.0517 0C23.0563 0 23.0622 0 23.058 0ZM0.311638 0.497138C0.310983 0.489195 0.272615 0.481453 0.271698 0.489326C0.251268 0.67931 0.327988 0.69466 0.311638 0.497138ZM23.6963 0C23.6736 0 23.6085 0 23.6366 0C23.6592 0 23.7245 0 23.6963 0ZM14.1991 0.00502789C14.1984 0.00450366 14.1709 0.00411372 14.1714 0.0072273C14.1733 0.017231 14.2116 0.013833 14.1991 0.00502789ZM24.7811 0C24.6208 0 24.5237 0 24.6982 0C24.7298 0 24.6301 0 24.6703 0C24.7439 0 24.7928 0 24.8679 0C24.8815 0 24.7902 0 24.7808 0C24.7809 0 24.781 0 24.7811 0ZM16.6468 0C16.6459 0 16.6078 0 16.6069 0C16.5863 0 16.663 0 16.6468 0ZM12.594 -0.0524988C12.5919 -0.0555872 12.5036 -0.0611647 12.5007 -0.058274C12.4546 0.00148126 12.6333 0.00732575 12.594 -0.0524988ZM19.2113 0C19.2529 0 19.3026 0 19.3357 0C19.2944 0 19.2529 0 19.2113 0Z" fill="#232322"/>
</svg>
