<svg width="11" height="3" viewBox="0 0 11 3" fill="none" xmlns="http://www.w3.org/2000/svg">
<path d="M-5.44 -39.1079C-6.3987 -40.0682 -6.25836 -38.8981 -6.0701 -37.3021C-6.00371 -36.808 -5.60399 -34.6178 -5.5372 -34.1787C-5.40356 -33.3232 -5.60735 -34.396 -5.43003 -33.3801C-5.36884 -33.0328 -4.73794 -29.5632 -4.68726 -29.2786C-4.4112 -27.7448 -4.5611 -28.6305 -4.40907 -27.8963C-3.9346 -25.6409 -3.57285 -24.3022 -3.25819 -23.2388C-3.06813 -22.5952 -2.88554 -22.0543 -2.69076 -21.4747C-2.52229 -20.9706 -1.83104 -17.8443 -2.01635 -19.2338C-2.0385 -19.3991 -2.62399 -22.4387 -2.67007 -22.6896C-3.37448 -26.5313 -2.21266 -20.3913 -2.03919 -19.5791C-1.35456 -16.3725 -1.2228 -16.1073 -1.37599 -17.2942C-1.44262 -17.8081 -2.61983 -23.8427 -1.94572 -20.4581C-1.90017 -20.2294 -1.2944 -16.9986 -1.22098 -16.6557C-1.05578 -15.8844 -1.13045 -16.4683 -1.06746 -16.2151C-0.943223 -15.7109 -0.944195 -15.7444 -0.911551 -15.7124C-0.861258 -15.6407 -0.514715 -14.0433 -0.614511 -14.7824C-0.637634 -14.9498 -1.27358 -18.2589 -1.36668 -18.8249C-1.45961 -19.3899 -1.37104 -19.1159 -1.21193 -18.3375C-1.05277 -17.5588 -0.567618 -14.9551 -0.453128 -14.359C0.512248 -9.32683 -0.760573 -16.3084 -0.787403 -16.482C-1.24322 -19.439 -0.4143 -15.4813 -0.32668 -15.5094C-0.261441 -15.5392 -0.430768 -16.8652 -0.330584 -16.6976C-0.208577 -16.4852 0.189282 -14.7018 0.209057 -15.0246C0.211898 -15.0548 -0.513164 -18.9498 -0.510923 -18.9947C-0.485959 -19.468 -0.297335 -19.0634 0.286814 -16.4511C0.345959 -16.1856 0.952395 -12.7603 1.04834 -12.2905C1.6246 -9.4896 2.9307 -2.74699 0.294624 -17.6611C0.444703 -17.0872 0.607553 -16.4956 1.18324 -13.4972C1.55348 -11.5673 2.1937 -7.83216 1.94054 -9.4295C1.8843 -9.78543 1.29362 -13.0511 1.25354 -13.3378C1.08557 -14.542 1.32271 -13.4884 1.06914 -15.1848C1.01626 -15.5376 0.496465 -18.4655 0.405989 -18.9933C-0.324841 -23.2679 0.958087 -16.2148 1.05566 -15.7031C1.78904 -11.888 1.56698 -13.401 1.6394 -13.3174C1.65646 -13.2963 0.954265 -17.2284 0.946357 -17.3495C0.914895 -17.9252 1.04521 -17.5993 1.41187 -15.864C1.49501 -15.4686 2.06005 -12.1134 2.12921 -11.7528C2.42611 -10.2036 1.3427 -16.5379 1.60766 -15.1746C1.66201 -14.8953 2.15155 -12.024 2.20682 -11.709C3.07319 -6.76266 1.88446 -13.7779 1.86285 -13.9335C1.55864 -16.0591 2.8442 -8.74319 2.71934 -9.78883C2.70345 -9.92138 2.0718 -13.5523 2.06526 -13.7028C2.01835 -14.7268 2.32376 -13.7515 2.92528 -10.8631C3.01794 -10.4189 3.45613 -7.68515 3.51306 -7.34864C4.40056 -2.09033 3.24787 -9.14186 3.21063 -9.40843C2.94509 -11.3278 3.95591 -5.42148 2.61693 -13.8259C3.10558 -11.7725 2.96731 -13.5975 3.36097 -12.0999C3.51895 -11.4965 3.76057 -10.3535 4.15319 -8.19884C4.16921 -8.11195 4.70216 -4.63357 4.73162 -4.4752C5.09113 -2.53142 4.24511 -7.93471 3.2773 -14.5533C3.03569 -16.2155 4.28775 -8.23742 4.37858 -7.65248C4.71684 -5.49747 5.49477 -0.320322 5.56156 0.09683C6.08405 3.37281 3.47897 -13.7435 3.521 -13.7555C3.52656 -13.7271 3.99794 -10.5754 4.04867 -10.2627C4.20758 -9.2806 4.0286 -10.5342 4.2022 -9.45104C4.60418 -6.94464 5.85953 1.37396 5.16424 -3.47271C5.07435 -4.10179 3.61288 -13.8133 3.71893 -13.3601C3.7621 -13.1711 3.80268 -13.3473 3.91382 -12.7204C4.02471 -12.0942 4.47429 -8.9615 4.49569 -8.82613C5.15108 -4.69266 5.38644 -2.97419 6.30605 3.15288C7.21929 9.25727 5.08012 -5.30799 4.85149 -6.93517C4.62382 -8.55778 5.15543 -5.14599 5.3352 -3.95919C5.51552 -2.77194 5.79568 -0.780541 5.89985 -0.109022C6.57857 4.27874 4.86978 -7.34331 4.55066 -9.65801C3.79952 -15.1394 5.38771 -4.338 5.56815 -3.28313C5.6176 -2.99836 5.25868 -5.45885 5.23371 -5.69019C5.1406 -6.57395 5.63726 -3.20374 5.23533 -6.30147C5.16886 -6.80613 4.28563 -13.3104 4.976 -8.54306C5.07519 -7.85557 5.44586 -5.1603 5.54366 -4.55864C5.69045 -3.65568 5.80651 -3.07147 5.70236 -3.97512C5.62552 -4.64373 4.99156 -9.08167 5.20344 -7.70511C5.29772 -7.09041 5.64101 -4.49037 5.78741 -3.55212C5.93348 -2.61412 5.95763 -2.73375 5.96083 -2.82558C5.9636 -2.91937 5.49449 -6.28739 5.46463 -6.51452C5.29452 -7.81578 5.10599 -9.44498 5.10964 -9.44139C5.20735 -9.87359 6.08662 -4.20802 5.97403 -6.10634C5.96628 -6.25048 5.50151 -9.80617 5.49561 -9.86482C5.34269 -11.3599 6.52811 -1.8998 6.95691 1.26254C6.02871 -5.95486 6.21061 -4.6498 6.1349 -5.44466C6.09779 -5.83357 5.73532 -8.62782 5.69997 -8.91409C5.17958 -13.1621 5.89024 -7.68014 6.03513 -6.55865C6.56966 -2.43341 5.96593 -7.31118 6.3224 -4.5537C6.67517 -1.8167 7.17034 2.24435 7.18486 2.1897C6.86615 -0.39561 5.99789 -7.14726 5.87921 -8.24428C5.43551 -12.3945 6.2351 -7.11167 6.3543 -6.56721C6.47769 -6.02378 6.4383 -6.50308 6.58275 -5.57224C6.84243 -3.889 6.22408 -8.90156 5.99247 -11.2021C5.76236 -13.5024 7.19586 -1.15869 7.51364 1.49374C7.83017 4.14511 7.51392 1.41468 7.69077 2.87189C7.86718 4.3288 8.06781 6.13407 8.14402 6.67996C8.2192 7.22542 7.70189 2.50315 7.38525 -0.272093C6.71289 -6.15148 5.97725 -12.3187 6.27161 -10.1559C6.28886 -10.0275 6.65685 -6.78072 6.70373 -6.45371C7.06239 -3.96294 7.14932 -3.8159 7.46321 -1.61234C7.50668 -1.30424 7.90393 2.30903 7.93356 2.52924C8.24169 4.83432 7.54209 -1.25477 6.82254 -8.02541C7.81562 0.980905 8.44293 6.48882 8.48306 6.53823C8.50816 6.57102 8.07231 2.63774 7.7839 -0.136497C7.69722 -0.972819 8.00906 1.72653 7.81015 -0.123894C7.16119 -6.17281 6.4057 -12.941 6.74721 -10.2504C6.76315 -10.1225 7.11587 -6.81117 7.14455 -6.61142C7.33058 -5.30379 6.65345 -11.631 6.62461 -12.403C6.60218 -13.0087 7.08301 -9.15764 7.19176 -8.53448C8.25354 1.59713 8.04416 -0.726417 7.335 -7.71435C7.39267 -7.43124 7.38247 -7.82937 7.50879 -6.8664C7.55188 -6.5381 7.84708 -3.60346 7.88082 -3.28657C8.40773 1.68486 7.72222 -5.11406 7.70144 -5.38124C7.5029 -7.97867 8.07263 -2.83071 7.63054 -7.87328C7.61441 -8.05488 6.91704 -15.0967 7.44601 -9.95704C7.4821 -9.60272 7.78081 -6.39697 7.83402 -6.15207C7.88839 -5.90671 8.3112 -2.13662 8.03088 -5.40385C7.96299 -6.19038 7.43262 -11.9104 7.88634 -7.44509C7.94778 -6.83872 8.1409 -4.81844 8.25352 -3.69472C8.61185 -0.114071 7.92986 -7.23383 8.52774 -1.18702C9.12576 4.8595 9.58298 9.38701 9.21801 5.2106C9.20737 5.08917 8.67737 -0.554908 8.69792 -0.466823C8.7308 -0.321326 8.86805 0.851907 8.88358 0.813359C8.89087 0.792865 8.5546 -2.71118 8.55016 -2.77543C8.43029 -4.74542 8.77068 -1.62538 8.96117 -0.275194C8.99616 -0.0206959 8.59493 -4.80426 8.96454 -1.02717C9.36736 3.10773 10.9102 20.3204 10.5853 16.2157C10.4527 14.5742 8.52042 -7.26543 9.57767 4.04467C9.41069 1.23362 9.9928 7.01851 9.72438 3.00755C9.71243 2.82986 9.19648 -3.26743 9.21305 -3.18527C9.23839 -3.05147 9.49149 -0.202738 9.51698 -0.0158343C9.6298 0.8391 9.45792 -1.60201 9.52889 -1.22608C9.55512 -1.08953 9.80018 1.85747 9.83091 2.02074C9.86116 2.18128 9.54502 -1.69991 9.72648 0.172145C9.86478 1.59909 10.5475 9.52904 10.6456 10.4518C9.9917 2.62816 10.0211 2.78796 9.87705 0.72033C9.84913 0.319159 9.61666 -2.40349 9.5918 -2.73372C9.48587 -4.13813 9.68334 -1.88205 9.56678 -3.41073C9.53885 -3.77788 9.31741 -6.44986 9.28215 -6.90084C8.97441 -10.8374 9.5015 -4.8294 9.59224 -3.78323C9.93862 0.189715 9.66113 -3.28638 9.80428 -1.7224C9.94694 -0.15859 10.0864 1.79951 10.1806 2.74787C10.3754 4.70943 10.3809 4.27454 10.4245 4.39463C10.4404 4.42605 10.1424 0.859548 10.138 0.781216C10.0936 -0.125883 10.4273 3.66652 9.87207 -3.4408C11.368 14.9312 9.74654 -5.22436 10.0832 -1.54953C10.1103 -1.2523 10.8081 7.43647 10.8987 8.71301C10.9894 9.98833 10.7544 7.27371 10.8979 9.26342C10.9312 9.73039 11.5657 17.8739 11.6031 18.3673C11.8934 22.2233 10.8412 9.23993 10.7821 8.52693C10.1454 0.832312 10.8285 9.60543 10.8717 10.212C11.0667 12.9914 10.892 11.1677 11.0286 13.1518C11.1169 14.4342 11.8149 22.9381 11.7818 22.6787C11.6736 21.8215 10.6717 9.96082 11.4898 20.249C11.6644 22.4433 12.4487 31.736 11.8106 24.4306C11.7709 23.9701 11.1884 17.2869 11.5314 21.5163C11.5748 22.0496 11.8027 24.7578 11.8199 24.9855C11.9311 26.4582 11.7406 24.3014 11.814 25.3359C11.8875 26.3704 12.0027 27.9121 11.9091 26.9949C11.8532 26.4465 11.4097 21.4021 11.299 20.1674C10.9802 16.6102 11.4662 22.4456 11.0873 18.1375C10.7054 13.8079 10.1587 7.22973 9.89128 4.43402C10.4968 11.4692 11.1175 18.6902 11.7266 25.7653C11.6611 25.5214 11.417 23.2507 11.3983 23.5655C11.3967 23.6116 11.7361 27.3925 11.7433 27.5394C11.7729 28.1422 11.512 25.4486 11.5823 26.5242C11.6381 27.3713 11.978 31.3763 12.0517 32.3864C11.3126 24.3402 11.529 27.0748 11.4411 26.3414C11.4104 26.088 11.2139 23.939 11.144 23.2384C10.8844 20.6475 11.5483 27.7568 11.6459 28.8762C12.0651 33.6536 10.5762 17.5608 10.5799 17.9615C10.579 17.9774 11.3596 26.5568 11.4079 27.091C11.7186 30.5755 11.1262 24.1058 11.0568 23.473C10.9301 22.3166 10.7227 20.2697 10.9384 22.7838C11.0019 23.5285 11.4964 28.8753 11.091 24.7418C11.0379 24.2005 10.7685 21.3658 10.7513 21.1999C10.4623 18.4352 11.3137 27.3418 11.5925 30.3592C11.8717 33.3759 11.2618 27.2296 11.0854 25.4582C10.6308 20.8757 10.904 23.4986 10.861 23.0487C10.3509 17.695 10.4241 18.6182 10.3679 18.1671C9.51893 9.43538 9.54954 9.96146 10.313 17.7346C10.3963 18.5836 10.3267 17.7684 10.3679 18.1671C11.188 26.7353 11.2839 27.8335 10.4796 19.8303C10.1021 16.0794 9.68207 11.704 9.80695 13.3075C9.86356 14.0313 10.4627 20.0421 10.6138 21.6821C10.9606 25.4236 10.3702 19.8197 10.4314 20.7058C10.4543 21.0275 10.7951 24.3165 10.8226 24.6496C10.8976 25.5439 10.6331 23.077 10.7461 24.343C10.7568 24.4619 11.1113 27.905 11.1113 27.9493C11.119 28.3526 10.8621 26.1504 10.8191 26.0931C10.7981 26.067 10.9691 27.9686 10.9122 27.5886C10.8167 26.9504 10.2352 21.9507 10.339 23.1693C10.4063 23.9493 10.7881 27.3902 11.0396 29.7356C11.5297 34.2816 10.6086 26.1434 10.463 24.8836C10.4581 24.8419 10.3829 24.0291 10.1786 22.2637C9.76435 18.584 10.4612 24.8677 10.463 24.8836C10.3704 24.0696 10.2529 23.2919 10.3209 23.9503C10.3582 24.31 10.7268 27.5693 10.7394 27.6953C11.0326 30.6161 11.1029 31.4472 10.8943 29.9275C10.8861 29.8617 10.463 26.2172 10.4488 26.1082C10.2383 24.4903 10.746 28.9498 11.0459 31.5977C11.3451 34.2444 11.2339 33.3593 10.4754 27.1065C10.558 27.8954 10.208 25.1328 9.99244 23.457C9.77678 21.7812 10.6382 28.8709 10.6546 29.0111C11.1779 33.4998 10.6704 29.4435 10.5637 28.8157C10.5121 28.505 10.6166 29.5359 10.7029 30.3122C10.7727 30.9376 10.5548 29.2781 10.6815 30.3408C10.6985 30.4827 11.1038 33.6367 11.119 33.7582C11.5952 37.5329 10.6093 29.8218 10.4303 28.445C9.77879 23.4383 9.42566 20.7726 9.71345 23.1303C9.77819 23.6704 11.2126 34.7714 11.2948 35.4208C11.3973 36.245 10.879 32.2665 10.9988 33.231C11.0087 33.3098 11.3305 35.764 11.3131 35.6562C11.2367 35.1882 11.0281 33.7629 11.0431 34.0112C11.0441 34.0357 11.5707 37.9262 11.5814 38.0256C11.631 38.4885 11.6005 38.346 11.3362 36.5274C11.2693 36.0675 10.8957 33.3442 10.7833 32.5357C10.1012 27.6445 11.0759 34.7536 11.0946 34.889C11.5469 38.3076 10.6177 31.8805 11.0226 34.9458C11.0449 35.126 12.136 42.7406 11.1862 36.212C11.1237 35.7776 10.147 29.0989 10.8055 33.6666C10.8469 33.9523 11.3504 37.3905 11.2941 37.0408C11.2371 36.692 11.5667 38.989 11.0034 35.2128C10.8268 34.0232 9.83449 27.3636 10.6103 32.6744C10.6622 33.0455 12.4373 45.0509 11.2007 36.7696C10.997 35.4064 9.69009 26.6426 10.349 31.1376C10.4773 32.0089 10.7733 33.963 10.9511 35.1843C11.2263 37.0664 10.8623 34.7212 11.444 38.6253C11.5463 39.3166 12.4442 45.2633 11.755 40.7509C11.6468 40.0442 11.2037 37.1194 11.1512 36.7926C10.8982 35.2248 11.1837 37.1829 10.8573 35.1623C10.7421 34.4524 10.0148 29.7258 9.81151 28.4604C9.60849 27.1955 9.40226 25.9804 9.73071 28.1409C10.0601 30.3023 11.2418 37.8319 11.3279 38.4357C11.3976 38.9232 11.4298 39.1675 11.4345 39.2382C11.4554 39.5478 10.9419 36.5287 10.8182 36.0093C10.7958 35.914 11.2358 38.6056 11.2348 38.6582C11.2305 38.8644 11.5901 41.3967 10.6057 35.6856C9.8139 31.112 9.27615 27.6191 8.93951 25.7603C8.77692 24.874 10.2207 33.6166 10.2645 33.8921C10.7051 36.6916 10.0373 32.8235 10.211 34.0155C10.2474 34.2628 10.8499 37.8034 10.8745 37.9747C10.9645 38.5911 10.6821 37.0131 10.717 37.3046C10.7342 37.4435 11.1948 40.1475 11.154 39.9397C11.0613 39.4737 10.8562 38.339 10.409 35.8072C10.3681 35.5765 9.80263 32.2114 9.76974 32.0883C9.71865 31.8985 9.26474 29.4031 9.68662 31.9881C9.81356 32.7658 10.8787 38.9438 10.1296 34.6795C9.97321 33.7889 8.69568 26.3702 9.78639 32.7825C9.96643 33.8483 11.4399 42.497 10.461 36.9272C10.2034 35.4613 9.13932 29.3937 9.29664 30.349C9.32206 30.5014 9.90352 33.8182 9.95339 34.1429C10.1193 35.2295 10.034 34.8797 10.1926 35.9227C10.2363 36.2077 10.8468 39.6384 10.8931 39.9536C11.0217 40.8252 10.8391 39.9565 10.6248 38.8868C10.5447 38.4859 10.0483 35.6424 9.99305 35.3331C9.09197 30.3039 10.2866 37.096 10.3535 37.4926C10.7518 39.8674 10.1691 36.6807 10.298 37.5285C10.3321 37.7538 10.9128 40.9904 10.9631 41.2793C11.4543 44.1017 10.427 38.2865 10.3053 37.647C9.96058 35.8362 9.98218 36.1008 10.0345 36.5183C10.0545 36.6764 10.7363 40.4278 10.7468 40.5263C10.8218 41.1803 10.7161 40.8287 10.2993 38.768C10.2196 38.3731 9.70127 35.4833 9.58006 34.8237C8.73126 30.2095 9.85508 36.5095 9.96054 37.1099C10.4403 39.8517 9.96909 37.2984 10.0398 37.7781C10.3959 40.1658 9.99088 38.4918 9.71965 37.4616C9.37052 36.1357 8.77432 33.4057 8.80334 34.1382C8.80447 34.1811 9.53105 38.0187 9.5414 38.105C9.64331 39.0438 9.28921 37.5575 9.42255 38.6804C9.43231 38.7657 10.1292 42.4022 10.1682 42.6614C10.253 43.2186 10.1907 43.0256 9.9495 41.868C9.83323 41.3102 9.25516 38.186 9.15006 37.6884C8.90372 36.5227 8.82892 36.2684 8.9137 36.8565C8.95147 37.1147 9.67469 40.8319 9.66886 40.8775C9.64488 41.2645 9.67097 41.9235 8.6432 37.1273C8.57267 36.7979 7.12242 29.2392 7.38347 30.692C7.78299 32.7903 8.25441 35.2583 8.68218 37.5009C8.73443 38.3961 8.39757 37.2914 8.09053 36.474C7.97139 36.1611 7.86104 35.8895 7.7804 35.7885C7.76836 35.7739 8.54083 39.7781 8.52106 39.7705C8.40478 39.7311 8.49882 40.8629 7.62823 36.9019C7.54306 36.5146 6.2421 29.4593 6.40298 30.533C6.43238 30.7289 6.55167 31.6798 6.81568 33.2148C6.85587 33.4462 7.47356 36.7374 7.47024 36.8373C7.43964 37.3599 7.15622 36.6346 6.58845 34.657C6.49633 34.3313 5.91705 30.8125 5.84747 30.5499C5.34532 28.7146 5.64401 31.4198 4.44419 28.3235C3.55595 26.2449 2.91965 20.1097 1.92389 14.1162C1.84986 13.2682 1.11473 13.1882 0.925994 9.65694C0.671324 0.782182 -0.0485594 -8.91448 -0.406653 -18.3707C-0.465718 -19.3901 0.218702 -19.3779 0.485445 -19.6977C0.616544 -19.8592 0.613931 -20.1099 0.613557 -20.6286C0.594084 -21.1471 0.691152 -21.9341 0.440039 -23.1642C0.488434 -23.5137 -1.67749 -25.0522 -1.97718 -26.6816C-2.30425 -27.8111 -2.2334 -31.4246 -2.83829 -32.8517C-3.46123 -34.2735 -3.4205 -31.2464 -3.95302 -32.9286C-4.45756 -34.6351 -4.96413 -38.6892 -5.44 -39.1079ZM9.01856 15.9678C8.58509 12.5655 10.1227 25.033 9.76633 22.0487C9.74728 21.8897 9.03979 16.1347 9.01856 15.9678ZM10.5908 13.8115C10.0852 8.29383 10.7838 16.4109 11.1724 20.6724C11.5591 24.9294 10.7434 15.4841 10.5908 13.8115ZM10.4697 9.76176C10.0728 5.41114 11.5812 23.1605 11.3004 19.5704C11.2846 19.3675 10.4926 10.0144 10.4697 9.76176ZM2.37429 12.314C2.34883 12.1492 2.26611 11.9976 2.28899 12.1613C2.85836 16.1104 3.05766 16.4055 2.37429 12.314ZM10.3392 5.35325C10.1322 2.95249 10.3365 5.72675 10.5942 8.71205C10.8011 11.1137 10.5961 8.3397 10.3392 5.35325ZM6.43696 2.78683C6.4102 2.60156 6.37574 2.43621 6.52598 3.48363C7.00986 6.85716 6.88703 5.9031 6.43696 2.78683ZM10.7375 5.11537C10.625 4.45164 9.41561 -10.2133 9.62189 -8.56407C9.65878 -8.26563 9.96413 -3.88407 10.0858 -2.56293C10.3059 -0.155921 9.5992 -9.36792 10.0198 -4.43488C10.096 -3.53191 10.746 5.18586 10.739 5.13582C10.7385 5.129 10.738 5.12219 10.7375 5.11537ZM7.16443 0.993599C7.14375 0.828783 7.10937 0.674321 7.12918 0.837809C7.61092 4.79668 7.67804 5.11046 7.16443 0.993599ZM4.63342 -4.79721C4.57829 -5.14687 4.48851 -5.46793 4.53749 -5.14549C5.52431 1.301 5.70001 1.97058 4.63342 -4.79721ZM7.22077 -8.2643C6.8218 -12.2565 6.79855 -12.729 7.33438 -7.71944C7.28813 -7.98352 7.26556 -8.02078 7.22077 -8.2643Z" fill="#232322"/>
</svg>
