<svg width="120" height="8" viewBox="0 0 120 8" fill="none" xmlns="http://www.w3.org/2000/svg">
<path d="M1.39099 -41.0567C2.15386 -42.1477 3.13601 -40.9698 3.83153 -39.3565C4.0547 -38.8561 3.91525 -36.6311 4.06839 -36.1853C4.36988 -35.3164 4.65027 -36.405 4.94239 -35.3701C5.03801 -35.0162 4.86902 -31.4915 4.96988 -31.2012C5.50697 -29.6357 6.06089 -30.5261 6.60555 -29.768C9.32487 -26.0264 11.9889 -24.6438 14.7022 -22.9637C15.6043 -22.4125 16.6075 -19.1819 17.591 -20.552C17.7065 -20.7151 17.7356 -23.8111 17.7644 -24.0655C18.2122 -27.9592 17.9101 -21.7165 18.0966 -20.8801C18.8417 -17.5771 19.7641 -17.2615 20.6191 -18.4273C20.9818 -18.9323 20.8488 -25.0889 21.0778 -21.6279C21.0939 -21.394 20.8914 -18.112 20.9739 -17.7583C21.1604 -16.9628 21.5919 -17.5354 21.7482 -17.2691C22.0487 -16.7394 22.1027 -16.7705 22.4046 -16.7219C22.818 -16.6268 23.2479 -14.9755 23.72 -15.7026C23.8215 -15.8675 23.8257 -19.2395 24.0001 -19.8066C24.1741 -20.3728 24.5696 -20.0713 24.672 -19.2723C24.7757 -18.4728 24.6126 -15.8287 24.6123 -15.2212C24.6026 -10.0936 25.3501 -17.1657 25.4187 -17.3386C26.6347 -20.2817 27.4011 -16.2023 28.4221 -16.1679C29.1986 -16.1502 30.0949 -17.4443 30.8261 -17.2255C31.6995 -16.9517 32.3534 -15.0904 33.2265 -15.359C33.3185 -15.3834 33.42 -19.3455 33.5334 -19.3833C34.7382 -19.7816 35.896 -19.2848 36.9151 -16.5458C37.0168 -16.2676 36.6616 -12.8039 36.7505 -12.3184C37.2263 -9.8208 37.803 -4.32818 38.8329 -12.5444C39.0099 -13.8538 39.2013 -15.5115 39.4086 -17.5853C39.9645 -16.9565 40.6179 -16.2939 40.8486 -13.2114C40.9946 -11.2276 40.3809 -7.4763 40.8862 -9.05631C41.0008 -9.40809 41.1736 -12.7241 41.3272 -13.0013C41.9703 -14.1653 42.4524 -13.0372 43.1348 -14.6935C43.2758 -15.038 43.5366 -18.0003 43.6195 -18.5302C44.3099 -22.8201 44.0157 -15.6446 44.0499 -15.1174C44.3387 -11.1831 44.9779 -12.6519 45.5864 -12.4898C45.7279 -12.4505 45.9934 -16.4396 46.1468 -16.5442C46.9348 -17.0333 47.6354 -16.6079 48.1244 -14.7668C48.2292 -14.348 47.6971 -10.9846 47.7267 -10.6116C47.8603 -9.00825 48.6782 -15.3826 48.8254 -13.9673C48.8573 -13.6771 48.48 -10.7887 48.4545 -10.4696C48.0528 -5.46063 49.0407 -12.5086 49.1077 -12.6588C49.9591 -14.7194 49.4556 -7.29874 50.1505 -8.27465C50.235 -8.39879 50.5197 -12.0766 50.7307 -12.2017C52.1297 -13.0583 53.34 -11.8913 54.2269 -8.8155C54.3665 -8.34208 53.8977 -5.60996 53.8691 -5.26964C53.4326 0.0489461 54.4122 -7.02987 54.5066 -7.28956C55.2289 -9.15372 54.9884 -3.14792 56.3252 -11.5593C58.075 -8.37731 60.6402 -12.8924 61.8661 -5.09253C61.8827 -5.00191 61.4597 -1.50815 61.4948 -1.34243C61.9162 0.689852 62.3794 -4.76102 63.4898 -11.3698C63.768 -13.0294 63.2408 -4.96491 63.2099 -4.37301C63.0873 -2.19264 62.4398 3.00354 62.4308 3.42732C62.3802 6.75713 64.1123 -10.4694 64.4882 -10.4365C64.4972 -10.4066 64.1234 -7.24143 64.1231 -6.92296C64.1219 -5.92314 64.349 -7.17288 64.3347 -6.07174C64.2992 -3.52408 63.5429 4.85518 64.3764 0.0177749C64.4827 -0.61027 65.3892 -10.3893 65.6796 -9.89447C65.7951 -9.68873 66.4012 -9.79894 66.5076 -9.14958C66.6135 -8.50089 66.1987 -5.36135 66.1973 -5.22381C66.2568 -1.01439 65.9198 0.69577 65.5729 6.8862C65.2337 13.0537 66.5379 -1.61007 66.7826 -3.23751C67.0265 -4.86032 67.0424 -1.39143 67.0176 -0.188432C66.9916 1.01502 66.7047 3.00819 66.7175 3.6917C66.8121 8.1583 67.5922 -3.56619 67.9603 -5.87899C68.8204 -11.3565 68.1445 -0.456261 68.4057 0.64012C68.4745 0.936031 68.612 -1.54786 68.7147 -1.77242C69.1166 -2.62923 69.0307 0.782272 69.6649 -2.29934C69.7714 -2.80123 70.6004 -9.31912 70.4034 -4.50235C70.3752 -3.80776 70.0774 -1.10231 70.169 -0.483552C70.2857 0.311839 70.5484 0.883057 70.8087 0.47157C70.8522 0.402691 70.8957 0.306284 70.9383 0.178794C71.1575 -0.479107 71.3112 -4.96352 71.4133 -3.55891C71.459 -2.93175 71.0845 -0.330231 71.1882 0.629977C71.2912 1.5899 71.7516 1.50915 71.9303 1.43161C72.1085 1.35209 72.2667 -2.04608 72.2977 -2.27349C72.4782 -3.57596 72.9219 -5.18743 72.95 -5.18134C74.4139 -5.4904 75.369 0.319746 76.9175 -1.48225C77.0381 -1.6188 77.192 -5.20219 77.2128 -5.25992C77.6871 -6.73522 76.7829 2.76066 76.8512 5.96256C77.2706 -1.30231 77.3456 0.0227042 77.6648 -0.757012C77.8188 -1.13866 77.9229 -3.95529 77.9526 -4.24243C78.4082 -8.50205 78.1995 -2.9767 78.1653 -1.84585C78.0381 2.31388 78.477 -2.58345 78.3947 0.197083C78.3147 2.95694 77.8646 7.02825 78.1299 6.99184C78.36 4.39612 78.5793 -2.41027 78.8414 -3.4997C79.8248 -7.62059 80.8819 -2.20995 81.4521 -1.62302C82.0157 -1.03663 82.2329 -1.50632 82.5297 -0.547569C83.0661 1.18564 83.105 -3.87 83.6115 -6.1583C84.1182 -8.44648 83.285 3.9536 83.2021 6.62431C83.1194 9.29382 83.3229 6.55199 83.3164 8.02151C83.3101 9.49068 83.0657 11.2968 83.2011 11.8556C83.3376 12.4139 84.0262 7.69244 84.2235 4.90558C84.6432 -0.998479 84.7579 -7.21139 85.0714 -5.01059C85.0894 -4.88002 84.8466 -1.62054 84.9238 -1.28603C85.5426 1.26355 86.3123 1.45686 86.9531 3.71409C87.0419 4.02961 86.7797 7.65635 86.8297 7.88107C87.3506 10.2328 87.4108 4.09987 88.0615 -2.6861C87.5714 6.36182 87.5056 11.9083 87.9836 11.9833C88.2704 12.0316 88.3976 8.07593 88.706 5.29774C88.7985 4.46024 88.8801 7.18376 88.9986 5.32608C89.3861 -0.746406 89.4961 -7.55829 89.86 -4.82806C89.8757 -4.69838 89.663 -1.3744 89.728 -1.16971C90.1483 0.169804 90.4788 -6.18525 91.0188 -6.93369C91.4476 -7.52075 91.9921 -3.61461 92.4307 -2.96537C92.0095 7.21303 92.543 4.89988 92.9956 -2.11153C93.2793 -1.81248 93.6212 -2.19646 93.87 -1.21527C93.9561 -0.880699 93.7772 2.06402 93.7774 2.38295C93.7769 7.38591 94.1689 0.562521 94.2429 0.297257C95.0433 -2.27822 95.4174 2.91841 96.2692 -2.11551C96.2995 -2.29683 96.5936 -9.36706 96.5829 -4.19731C96.5818 -3.84097 96.2463 -0.631404 96.5496 -0.371332C96.8586 -0.110496 97.3096 3.7013 97.8651 0.439585C97.9991 -0.345631 98.463 -6.0775 98.5209 -1.58465C98.5283 -0.974569 98.4279 1.05267 98.4302 2.18275C98.4394 5.78369 98.756 -1.36202 98.7078 4.71613C98.6599 10.794 98.8373 15.3531 99.4183 11.1779C99.4368 11.0565 99.7304 5.39426 99.8667 5.48844C100.085 5.64369 100.357 6.83417 100.591 6.80478C100.703 6.7887 100.745 3.26809 100.767 3.20437C101.577 1.25696 102.004 4.41022 102.76 5.79633C102.902 6.0575 103.464 1.27232 103.633 5.0743C103.819 9.23629 102.975 26.5003 103.815 22.4066C104.159 20.7695 105.18 -1.13461 105.36 10.2351C105.908 8.83735 106.377 9.61395 106.837 10.2282C107.311 10.8377 107.778 11.2878 108.334 9.30255C108.382 9.12581 108.712 3.01382 108.816 3.10023C108.972 3.24037 108.973 6.10161 109.079 6.29323C109.529 7.16839 110.036 4.73542 110.478 5.12926C110.643 5.2725 110.5 8.22672 110.703 8.39808C110.906 8.5667 111.152 4.67824 111.382 6.56657C111.55 8.00569 111.527 15.9678 111.779 16.9034C112.022 9.0562 112.211 9.22358 112.615 7.16221C112.692 6.76222 112.703 4.02881 112.744 3.69871C112.908 2.29459 112.964 4.56197 113.13 3.03312C113.17 2.66596 113.251 -0.0139597 113.288 -0.465402C113.602 -4.40629 113.769 1.63233 113.791 2.68351C113.892 6.6763 114.104 3.19393 114.221 4.76859C114.346 6.34328 114.03 8.29763 114.203 9.25612C114.549 11.2383 115.091 10.8214 115.502 10.9572C115.664 10.9948 115.662 7.41413 115.687 7.33644C116.061 6.43969 116.289 10.2555 116.7 3.13591C116.365 21.5672 116.964 1.35529 117.341 5.05921C117.37 5.35875 117.138 14.0725 116.951 15.3469C116.763 16.62 116.63 13.8897 116.36 15.8771C116.299 16.3435 115.766 24.499 115.716 24.9925C115.304 28.8486 115.66 15.8275 115.667 15.1119C115.723 7.38908 115.116 16.1743 115.007 16.7793C114.512 19.5517 114.225 17.7104 113.819 19.6877C113.558 20.9658 113.283 29.4939 113.112 29.2275C112.558 28.3473 112.697 16.4433 111.845 26.7431C111.662 28.9399 111.495 38.2648 111.296 30.9225C111.285 30.4597 111.161 23.7446 110.859 27.9808C110.82 28.5149 110.741 31.2316 110.704 31.4589C110.458 32.9291 110.383 30.7607 110.136 31.7909C109.885 32.8209 109.574 34.3583 109.351 33.4295C109.215 32.874 109.167 27.8066 109.134 26.5654C109.038 22.9896 108.641 28.8359 108.64 24.5093C108.643 20.1611 109.085 13.5705 108.837 10.7536C108.616 17.8113 108.373 25.0549 108.143 32.1525C107.488 31.9125 106.915 30.0737 106.256 29.8628C106.175 29.836 106.093 29.8356 106.009 29.8684C105.917 29.9115 105.898 33.7087 105.795 33.8526C105.358 34.443 105.083 31.7275 104.613 32.7917C104.251 33.6299 103.769 37.6366 103.38 38.6379C103.415 30.5553 102.802 33.2809 102.449 32.5313C102.325 32.2722 102.4 30.1155 102.328 29.4089C102.051 26.7953 101.997 33.9373 101.864 35.0574C101.286 39.8375 101.765 23.683 101.256 24.0665C101.231 24.0814 100.633 32.6816 100.573 33.2164C100.183 36.704 100.623 30.218 100.468 29.5762C100.187 28.4034 100.022 26.3397 99.5689 28.8496C99.4359 29.593 98.9954 34.951 98.9165 30.7928C98.9062 30.2483 99.016 27.4029 98.9987 27.2355C98.6787 24.4436 98.3755 33.3857 98.0374 36.4063C97.7007 39.4262 97.54 33.2408 97.5293 31.4593C97.4953 26.8503 97.7427 29.4974 97.7703 29.0461C98.0764 23.6755 97.7791 24.5918 97.5963 24.1309C97.8681 15.3622 97.5719 15.8789 97.4038 23.6882C97.386 24.5412 97.5701 23.7289 97.5963 24.1309C97.1265 32.7272 96.774 33.8181 96.7096 25.7674C96.682 21.9942 96.9878 17.6069 96.4493 19.1968C96.2042 19.9144 96.0746 25.9542 95.8201 27.5931C95.2333 31.332 94.866 25.6801 94.3691 26.55C94.1915 26.866 94.2301 30.1763 94.1041 30.506C93.7683 31.3915 93.5938 28.9022 93.2387 30.1605C93.2062 30.2787 93.1426 33.7401 93.045 33.7805C92.3101 34.1547 91.7636 31.9146 91.0139 31.8228C90.6471 31.7799 89.9219 33.6607 89.5558 33.2612C88.9259 32.5895 88.3355 27.526 87.7268 28.7228C87.3274 29.4886 87.2527 32.9506 86.9893 35.3C86.4759 39.854 86.3122 31.6478 86.2993 30.3776C86.2992 30.3356 86.6507 29.5347 86.5645 27.7518C86.6372 24.0483 86.3037 30.3618 86.2993 30.3776C86.2901 29.5571 85.6957 28.7428 85.5417 29.398C85.457 29.7561 85.3405 33.0343 85.2991 33.159C84.3167 36.0513 83.4197 36.8422 82.6345 35.2668C82.6227 35.1999 82.8311 31.5368 82.8012 31.4251C82.3894 29.7708 81.8402 34.2366 81.2872 36.8761C80.7348 39.5143 80.4487 38.6056 80.5447 32.303C80.1909 33.0782 79.8983 30.2733 79.7374 28.5722C79.5769 26.871 79.1416 33.9997 79.1109 34.1394C78.1495 38.6115 77.9678 34.5064 77.2733 33.8281C76.9432 33.4934 76.1874 34.4856 75.7589 35.2415C75.4193 35.8509 75.3427 34.1691 74.9985 35.2198C74.952 35.3601 74.7897 38.5361 74.7705 38.6576C74.2184 42.4348 74.8599 34.686 74.884 33.2964C74.973 28.2429 75.0074 25.5507 74.4627 27.8955C74.3386 28.4325 73.3423 39.5845 73.1284 40.2264C72.8538 41.0406 73.2022 37.0428 72.9088 37.9973C72.8839 38.0753 72.7232 40.5453 72.5882 40.4269C71.9603 39.9097 71.3401 38.4232 70.6374 38.6217C70.5417 38.6394 70.3831 42.564 70.2392 42.6539C69.563 43.0721 68.8661 42.875 68.3763 40.9948C68.2572 40.5197 68.5628 37.7861 68.5913 36.9698C68.7646 32.0301 67.9276 39.1625 67.8674 39.2949C67.8372 39.3667 67.8074 39.434 67.7781 39.4969C66.3823 42.3629 66.002 36.1568 64.5772 39.0689C64.4996 39.2444 63.3071 46.8612 63.6746 40.2701C63.6975 39.8315 64.0905 33.0898 63.4771 37.6678C63.4384 37.9542 63.26 41.4273 63.051 41.0524C62.8436 40.6785 62.2378 42.9527 62.2699 39.1207C62.2769 37.9133 62.6765 31.1879 61.8575 36.501C61.8059 36.8725 60.1477 48.9046 60.7935 40.5544C60.9002 39.1799 61.7971 30.3648 60.9876 34.8499C60.8309 35.7194 60.7626 37.6987 60.456 38.9085C59.9823 40.7728 59.8514 38.3744 59.1016 42.2656C58.9709 42.9547 58.0931 48.9104 58.3532 44.3481C58.3943 43.6337 58.76 40.6976 58.6854 40.357C58.3366 38.7244 57.5841 40.6347 57.2844 38.5441C57.1779 37.8093 57.7836 33.0647 57.731 31.77C57.6781 30.4758 57.4346 29.2097 57.0009 31.3606C56.5659 33.5123 55.9509 41.1123 55.5853 41.6857C53.9821 44.174 53.201 39.5846 52.016 38.7878C51.8388 38.6687 51.6783 41.3958 51.3943 41.4147C50.348 41.4968 48.3055 43.8277 48.1425 37.9707C48.0175 33.2804 49.2962 29.8753 49.0038 27.9375C48.8587 27.0124 47.5248 35.7767 47.4309 36.0464C46.506 38.7889 46.5625 34.8419 45.8994 35.9748C45.7609 36.2098 45.4368 39.7883 45.3239 39.9489C44.934 40.5292 44.8044 38.8989 44.473 39.1544C44.3234 39.2773 44.0209 42.0037 43.9249 41.7789C43.6909 41.2725 43.5805 40.098 43.6015 37.5115C43.6035 37.2758 44.1797 33.908 43.9812 33.7566C43.661 33.5214 43.533 30.9524 42.8399 33.5084C42.6333 34.2775 41.9047 40.5041 42.1621 36.1754C42.2155 35.2713 43.1454 27.8007 42.1125 34.2291C41.9345 35.2965 40.4807 43.9605 40.8909 38.3157C40.9992 36.8301 41.534 30.6912 41.2926 31.6384C41.2576 31.7899 40.954 35.1443 40.8092 35.4586C40.3055 36.5082 39.9529 36.1081 39.4649 37.1168C39.3349 37.3929 39.1129 40.8735 38.9337 41.1747C38.4453 42.0085 38.0639 41.0777 37.8107 39.9573C37.7178 39.5376 38.0874 36.6734 38.1085 36.3599C38.4379 31.2586 37.6874 38.1148 37.6027 38.5107C37.0676 40.8789 37.1419 37.6331 36.7982 38.4641C36.7069 38.685 36.4806 41.9659 36.4417 42.2568C36.0632 45.1 36.6607 39.224 36.6233 38.5677C36.521 36.7097 36.2158 36.9514 35.9665 37.3554C35.8754 37.5087 35.7018 41.3186 35.6287 41.4126C35.559 41.5153 35.4947 41.5913 35.4359 41.6374C34.8167 41.854 34.2324 41.275 33.7465 39.4843C33.6374 39.0745 33.8931 36.1485 33.9047 35.4774C33.9861 30.7825 33.3304 37.1546 33.2319 37.7596C32.7785 40.5214 32.8135 37.9229 32.5259 38.392C31.1245 40.7294 29.6524 38.9303 28.4931 37.81C26.987 36.3674 25.8767 33.5211 24.3247 34.181C24.2265 34.2193 24.1586 38.1257 24.0723 38.2089C22.967 39.1046 21.971 37.5376 20.8574 38.6246C20.7658 38.7069 20.754 42.4117 20.603 42.6682C20.2925 43.2202 19.9356 43.0057 19.6878 41.8137C19.5665 41.2393 19.8715 38.071 19.7465 37.5577C19.4525 36.3551 19.0986 36.0788 18.7342 36.6602C18.579 36.9156 18.6687 40.7079 18.4779 40.7451C17.1664 41.0759 15.8838 41.6878 14.7153 36.7478C14.6343 36.4085 14.7761 28.7129 14.5389 30.1827C14.4632 32.3174 14.3923 34.8289 14.3208 37.1109C12.3899 38.2861 10.5964 35.5727 8.69695 35.1209C8.61721 35.1027 8.67131 39.1827 8.51728 39.1683C7.6347 39.09 6.74539 40.2034 5.91269 36.1361C5.82813 35.7383 5.98899 28.5657 5.70251 29.6464C5.65002 29.8436 5.24049 30.7942 5.11179 32.3499C5.09418 32.5846 5.11904 35.934 4.98723 36.0296C4.23356 36.5273 3.47313 35.7534 2.76084 33.7004C2.6484 33.3627 2.80565 29.798 2.72545 29.5266C2.12391 27.6278 1.47683 30.3342 0.922063 27.0943C0.559886 24.913 0.719388 18.7493 0.520007 12.6812C0.490378 11.8251 0.247469 11.6891 0.238226 8.15885C0.2103 -0.718313 0.345211 -10.4386 0.302115 -19.9008C0.291328 -21.939 -0.0748036 -19.7439 0.142847 -24.669C0.157117 -24.9986 0.430827 -26.633 0.504386 -28.3036C0.554969 -29.4587 0.472772 -33.0491 0.576036 -34.5276C0.678739 -36.0047 0.791429 -32.9949 0.950252 -34.7317C1.11618 -36.49 1.05732 -40.5746 1.39099 -41.0567ZM79.022 20.9677C78.9867 17.5302 78.2262 30.0692 78.6549 27.0834C78.6765 26.9242 79.0244 21.1364 79.022 20.9677ZM107.042 20.1074C106.91 14.5604 106.459 22.6976 106.546 26.9812C106.632 31.2602 107.082 21.7889 107.042 20.1074ZM110.244 16.1552C110.031 11.7784 109.45 29.5824 109.923 25.9937C109.949 25.7909 110.258 16.4094 110.244 16.1552ZM1.50725 10.9573C1.50445 10.7904 1.33401 10.627 1.32522 10.7923C1.21271 14.7814 1.55806 15.1056 1.50725 10.9573ZM113.439 11.8441C113.405 9.43233 113.001 12.2032 113.05 15.2024C113.091 17.6152 113.483 14.8442 113.439 11.8441ZM67.8875 6.75001C67.9001 6.56321 67.7826 6.38385 67.6935 7.43823C67.4081 10.8343 67.677 9.89215 67.8875 6.75001ZM118.616 11.8023C117.9 11.1053 117.897 -3.6171 118.708 -1.92806C118.852 -1.62241 118.208 2.74981 118.361 4.08254C118.629 6.51019 119.212 -2.71379 119.397 2.24799C119.424 3.15583 118.65 11.8745 118.614 11.8228C118.614 11.816 118.615 11.8091 118.616 11.8023ZM79.7566 5.89643C79.7616 5.73034 79.5882 5.56253 79.5743 5.72668C79.2437 9.70228 79.5957 10.0428 79.7566 5.89643ZM61.0181 -1.72913C61.0461 -2.08209 60.6669 -2.45652 60.618 -2.13383C59.6871 4.32485 60.465 5.10253 61.0181 -1.72913ZM92.427 -2.69357C92.7866 -6.69435 93.0381 -7.15705 92.9949 -2.11669C92.8102 -2.39168 92.6146 -2.43894 92.427 -2.69357Z" fill="#232322"/>
</svg>
