<svg height="8" viewBox="0 0 0 8" fill="none" xmlns="http://www.w3.org/2000/svg">
<path d="M1.97966 0.0706431C2.03177 0.112204 1.97605 0.166682 1.89958 0.208086C1.87587 0.221061 1.76985 0.214491 1.7487 0.223448C1.70748 0.240967 1.75948 0.257288 1.71037 0.2746C1.69358 0.280338 1.52565 0.273196 1.51189 0.279212C1.43767 0.312179 1.48045 0.343367 1.44475 0.376762C1.26863 0.54126 1.20559 0.702957 1.12908 0.869468C1.10399 0.92437 0.951589 0.991112 1.01824 1.04782C1.02617 1.05444 1.17357 1.05049 1.18572 1.05175C1.3717 1.07151 1.07413 1.06494 1.0346 1.07784C0.878492 1.12903 0.864916 1.18596 0.921802 1.23523C0.946436 1.25619 1.23921 1.23517 1.07488 1.25628C1.06378 1.25774 0.907247 1.25242 0.890552 1.25817C0.853004 1.27121 0.880982 1.29594 0.86858 1.30604C0.843886 1.32551 0.845461 1.32873 0.843678 1.34715C0.839877 1.37233 0.762068 1.40227 0.797535 1.42928C0.805571 1.43505 0.96603 1.42741 0.993335 1.43661C1.0206 1.44581 1.00699 1.47016 0.969166 1.47837C0.931321 1.48658 0.805203 1.48308 0.776295 1.48454C0.532301 1.49649 0.870232 1.52465 0.87859 1.52827C1.02099 1.59435 0.828481 1.651 0.829029 1.71302C0.829854 1.7601 0.893408 1.81045 0.884693 1.85525C0.873689 1.90862 0.786738 1.95385 0.801686 2.0057C0.803078 2.01117 0.991741 2.00476 0.993824 2.01145C1.01578 2.08245 0.995212 2.15296 0.867847 2.22366C0.854908 2.23075 0.689263 2.22162 0.666432 2.2287C0.530302 2.27207 0.203286 2.34069 0.924488 2.36645C0.896326 2.39583 0.867229 2.4315 0.721852 2.45778C0.628284 2.47473 0.447832 2.45827 0.524831 2.47908C0.541987 2.48378 0.700019 2.47767 0.713795 2.48471C0.771649 2.51436 0.720278 2.54674 0.80193 2.57607C0.818909 2.58203 0.960512 2.5804 0.986011 2.58209C1.19252 2.5963 0.851149 2.61994 0.826344 2.6251C0.641369 2.66435 0.714161 2.69302 0.709645 2.72958C0.708517 2.73807 0.898721 2.72804 0.904468 2.7362C0.931729 2.77855 0.915381 2.82242 0.830982 2.86388C0.811752 2.87311 0.649732 2.86462 0.632253 2.86903C0.557152 2.88847 0.863165 2.89277 0.797047 2.91141C0.783501 2.91534 0.6448 2.91313 0.629567 2.91385C0.390445 2.92506 0.729264 2.93481 0.736744 2.9377C0.838954 2.9742 0.485244 2.99753 0.535329 3.03279C0.541678 3.037 0.717176 3.02749 0.724293 3.03935C0.772741 3.11835 0.72453 3.20189 0.584157 3.28009C0.562568 3.29224 0.430732 3.28357 0.41448 3.28433C0.160544 3.2968 0.500788 3.30487 0.513601 3.30883C0.605837 3.3401 0.320504 3.36932 0.725758 3.39057C0.585121 3.52301 0.812693 3.65485 0.449636 3.7862C0.44543 3.78787 0.277861 3.78488 0.270193 3.78821C0.176104 3.82833 0.436538 3.82062 0.755055 3.84717C0.835036 3.85386 0.45048 3.8742 0.422292 3.876C0.318417 3.88256 0.0691192 3.87576 0.0490024 3.87795C-0.108964 3.89612 0.715482 3.89316 0.715748 3.91768C0.714374 3.91844 0.562624 3.91522 0.547536 3.91728C0.500166 3.92367 0.560466 3.93001 0.508229 3.93626C0.387357 3.95058 -0.0132517 3.95568 0.2199 3.97754C0.25016 3.98031 0.717821 3.97608 0.695729 3.99797C0.686525 4.00669 0.694541 4.04531 0.664235 4.05614C0.633965 4.06695 0.483261 4.05952 0.476735 4.0603C0.277456 4.08942 0.194865 4.07838 -0.100167 4.09297C-0.394086 4.10756 0.306938 4.10352 0.385183 4.10947C0.463205 4.11543 0.298787 4.13678 0.241629 4.14203C0.184446 4.14728 0.0886847 4.14073 0.0563266 4.1454C-0.15509 4.17632 0.40429 4.15897 0.515554 4.16916C0.779006 4.19319 0.259124 4.2119 0.208182 4.23389C0.194425 4.23985 0.31283 4.23499 0.323904 4.24029C0.366192 4.26128 0.203975 4.2739 0.352712 4.29778C0.37695 4.30168 0.689518 4.32099 0.460134 4.33348C0.427057 4.33525 0.297504 4.33022 0.268484 4.33917C0.224932 4.35253 0.196615 4.37661 0.23992 4.39097C0.271959 4.40158 0.485433 4.38942 0.419118 4.40277C0.389508 4.4087 0.264624 4.39771 0.219412 4.40885C0.174213 4.41994 0.1797 4.44828 0.184012 4.45907C0.188419 4.46984 0.350349 4.46394 0.361257 4.46481C0.423748 4.47008 0.501831 4.49074 0.501638 4.49257C0.521405 4.58467 0.248456 4.6696 0.338796 4.75928C0.345651 4.76631 0.51641 4.76163 0.519216 4.7627C0.59076 4.78679 0.136756 4.7678 -0.0152064 4.78463C0.33131 4.7822 0.268567 4.79213 0.30657 4.8091C0.325164 4.81728 0.459338 4.81282 0.473073 4.81357C0.676867 4.8257 0.413641 4.83414 0.359792 4.83632C0.161711 4.84435 0.395758 4.85309 0.263357 4.85855C0.131946 4.86402 -0.0628677 4.85145 -0.0603722 4.86772C0.0636692 4.87228 0.387823 4.8602 0.440359 4.87256C0.639078 4.91918 0.384747 5.00621 0.358328 5.0437C0.331931 5.08111 0.354817 5.09319 0.309988 5.11499C0.228933 5.15437 0.469434 5.13994 0.579518 5.16439C0.68959 5.18891 0.0978429 5.17699 -0.0293665 5.18052C-0.156519 5.18398 -0.0256289 5.18776 -0.0955284 5.19206C-0.165411 5.19635 -0.251904 5.18706 -0.278145 5.19715C-0.30436 5.20725 -0.0781498 5.23485 0.0548618 5.23843C0.336657 5.246 0.632412 5.23356 0.528493 5.26027C0.522326 5.26181 0.366729 5.25682 0.351003 5.2627C0.231218 5.30943 0.223793 5.35798 0.11785 5.40465C0.103039 5.41106 -0.0700579 5.40532 -0.0806358 5.40906C-0.191352 5.44796 0.100511 5.43405 0.424734 5.45537C-0.00673752 5.45059 -0.270714 5.46238 -0.273262 5.4919C-0.274945 5.50965 -0.0864997 5.50659 0.0463169 5.51807C0.0863544 5.52151 -0.0430386 5.53407 0.0455845 5.53635C0.335281 5.54385 0.659578 5.53202 0.530446 5.56246C0.524309 5.56379 0.365734 5.55954 0.35613 5.56416C0.29327 5.59398 0.596289 5.59755 0.632985 5.62979C0.661779 5.65507 0.477002 5.70001 0.44695 5.72879C-0.0381492 5.72818 0.0729327 5.75536 0.4074 5.76639C0.393707 5.78506 0.412615 5.80523 0.366384 5.82328C0.350623 5.82949 0.210174 5.82541 0.194998 5.8262C-0.0430614 5.83821 0.282338 5.84633 0.295095 5.85036C0.419103 5.89405 0.172477 5.92964 0.413503 5.97133C0.422184 5.97281 0.759149 5.97521 0.513112 5.98636C0.496153 5.98708 0.34284 5.97331 0.330984 5.99292C0.319102 6.01254 0.138464 6.04952 0.294607 6.07675C0.332198 6.08334 0.605745 6.10001 0.392019 6.11339C0.362997 6.11517 0.266354 6.11322 0.212576 6.11579C0.041218 6.12411 0.381806 6.12865 0.0924593 6.13843C-0.196874 6.1482 -0.413564 6.16854 -0.213936 6.196C-0.208132 6.19688 0.0618157 6.20338 0.0575473 6.21201C0.0505017 6.2258 -0.00573398 6.24538 -0.00397592 6.25977C-0.00303691 6.26666 0.164588 6.26225 0.167654 6.26345C0.261585 6.3098 0.112149 6.34278 0.0472934 6.39243C0.0350727 6.40153 0.263655 6.42769 0.0829379 6.44531C-0.114891 6.46466 -0.937826 6.44478 -0.741767 6.48925C-0.663347 6.50718 0.380694 6.52989 -0.160225 6.56213C-0.0261892 6.62464 -0.30303 6.68246 -0.111642 6.74515C-0.103162 6.74797 0.188222 6.75688 0.184256 6.76351C0.177805 6.77335 0.0416166 6.77875 0.0326451 6.78578C-0.00837694 6.81521 0.108141 6.84215 0.0900179 6.87054C0.0834329 6.88131 -0.0573843 6.87755 -0.065255 6.8904C-0.072994 6.90324 0.112435 6.91181 0.0228795 6.92922C-0.0453834 6.94236 -0.424396 6.95551 -0.468574 6.97296C-0.09472 6.97362 -0.10242 6.98561 -0.00373178 7.00691C0.0154161 7.011 0.145537 7.00661 0.161307 7.00855C0.228372 7.01643 0.120529 7.02372 0.193533 7.03121C0.211067 7.03303 0.33874 7.03312 0.360281 7.0346C0.548304 7.04726 0.261115 7.06811 0.211111 7.07169C0.0212076 7.08542 0.187262 7.09184 0.112479 7.10236C0.0377056 7.11287 -0.0557682 7.09716 -0.101144 7.10944C-0.194997 7.13489 -0.174378 7.16759 -0.180245 7.19344C-0.181798 7.20375 -0.011373 7.19671 -0.00763802 7.19819C0.0355867 7.21951 -0.145697 7.24108 0.193777 7.2529C-0.683975 7.26769 0.278915 7.26577 0.103201 7.29625C0.0889897 7.29865 -0.326093 7.3017 -0.387031 7.29249C-0.447912 7.28327 -0.318163 7.26929 -0.413154 7.2565C-0.435447 7.25347 -0.824406 7.23612 -0.847967 7.23375C-1.03211 7.21521 -0.411823 7.21258 -0.377754 7.2116C-0.0100919 7.20047 -0.429122 7.17927 -0.458076 7.17369C-0.590747 7.14814 -0.503514 7.12644 -0.598212 7.10508C-0.659417 7.09111 -1.06573 7.08974 -1.05329 7.07877C-1.01218 7.04229 -0.445378 7.02956 -0.936834 6.99519C-1.04165 6.98782 -1.48574 6.99515 -1.13654 6.96874C-1.11453 6.96708 -0.795076 6.94747 -0.997137 6.93615C-1.02261 6.93472 -1.15204 6.93477 -1.16291 6.93289C-1.23323 6.92032 -1.13013 6.91194 -1.17951 6.89824C-1.22889 6.88454 -1.30251 6.86807 -1.25861 6.85243C-1.23236 6.84301 -0.99123 6.83091 -0.932196 6.8264C-0.762131 6.81366 -1.04097 6.8 -0.835028 6.79211C-0.628054 6.78415 -0.313731 6.79971 -0.180001 6.77884C-0.516248 6.77807 -0.861373 6.7763 -1.19953 6.77505C-1.18769 6.72932 -1.07896 6.68432 -1.09382 6.63843C-1.09599 6.63274 -1.27676 6.63856 -1.28376 6.63246C-1.31247 6.60673 -1.18361 6.58426 -1.23493 6.55757C-1.27534 6.53692 -1.46674 6.51427 -1.51496 6.49267C-1.1302 6.47948 -1.26081 6.44743 -1.22565 6.42415C-1.2135 6.41599 -1.11074 6.41654 -1.07721 6.41074C-0.953225 6.38886 -1.29324 6.39911 -1.34675 6.39311C-1.57511 6.36738 -0.805515 6.36517 -0.82453 6.33483C-0.825277 6.33322 -1.23551 6.31357 -1.26105 6.31087C-1.42763 6.29367 -1.11827 6.30802 -1.08796 6.29726C-1.03257 6.27761 -0.934597 6.26396 -1.05475 6.2409C-1.09034 6.23418 -1.34604 6.21805 -1.14826 6.205C-1.12236 6.20328 -0.986767 6.20423 -0.978826 6.20285C-0.846459 6.17783 -1.27252 6.17717 -1.41681 6.16287C-1.56108 6.14857 -1.26696 6.12648 -1.18219 6.12199C-0.962906 6.11023 -1.08848 6.131 -1.06696 6.13164C-0.810868 6.13912 -0.854958 6.12301 -0.833319 6.1107C-0.415564 6.10892 -0.440639 6.09171 -0.812567 6.09794C-0.853192 6.09865 -0.814234 6.10823 -0.833319 6.1107C-1.24319 6.0999 -1.29569 6.08098 -0.912664 6.06009C-0.733148 6.05031 -0.523839 6.05955 -0.60041 6.02984C-0.634975 6.01636 -0.922621 6.02157 -1.00104 6.00967C-1.17997 5.98249 -0.911646 5.94716 -0.953924 5.91914C-0.969273 5.90896 -1.12673 5.91887 -1.14264 5.91192C-1.18537 5.89347 -1.06723 5.8772 -1.12775 5.85868C-1.13343 5.857 -1.29826 5.8611 -1.30036 5.85534C-1.3195 5.81166 -1.21393 5.77363 -1.211 5.72802C-1.20966 5.70599 -1.30057 5.6666 -1.28229 5.64377C-1.25159 5.60421 -1.01191 5.55554 -1.07013 5.52175C-1.1074 5.4997 -1.27226 5.50454 -1.38459 5.4951C-1.60232 5.47687 -1.21231 5.44461 -1.15192 5.44027C-1.14992 5.44013 -1.11106 5.4591 -1.02643 5.44898C-0.850102 5.44309 -1.15116 5.44048 -1.15192 5.44027C-1.11291 5.43741 -1.07549 5.39952 -1.107 5.392C-1.12422 5.38791 -1.28042 5.3902 -1.28644 5.38807C-1.42622 5.3374 -1.46592 5.28665 -1.39289 5.23526C-1.38973 5.23436 -1.21502 5.23572 -1.20978 5.23359C-1.1321 5.20384 -1.34583 5.18479 -1.47272 5.16026C-1.59956 5.13573 -1.55708 5.11627 -1.25715 5.10175C-1.29491 5.08324 -1.16231 5.05669 -1.08185 5.0414C-1.0014 5.02612 -1.34149 5.02399 -1.34821 5.02265C-1.5634 4.98071 -1.36874 4.95647 -1.33844 4.91296C-1.32346 4.89227 -1.37279 4.85124 -1.40998 4.82885C-1.43994 4.81115 -1.36024 4.80048 -1.4112 4.78417C-1.418 4.78197 -1.56943 4.7842 -1.57526 4.78352C-1.75643 4.76532 -1.38625 4.77407 -1.32013 4.77031C-1.07971 4.75669 -0.951661 4.74827 -1.06476 4.72496C-1.09067 4.71958 -1.62368 4.70392 -1.65485 4.69412C-1.6944 4.68138 -1.50335 4.68619 -1.54963 4.67284C-1.55341 4.6717 -1.67128 4.67194 -1.66608 4.66371C-1.64351 4.62548 -1.57492 4.58381 -1.58673 4.54409C-1.5879 4.53866 -1.77485 4.54562 -1.77961 4.53778C-1.80177 4.50099 -1.79485 4.46067 -1.70734 4.42484C-1.68521 4.41602 -1.55431 4.42155 -1.51545 4.41963C-1.28028 4.40788 -1.62197 4.39121 -1.62848 4.38845C-1.79269 4.32284 -1.48345 4.27262 -1.63068 4.20574C-1.63932 4.2021 -2.00563 4.17408 -1.69147 4.16158C-1.67057 4.16072 -1.34915 4.14836 -1.56891 4.13742C-1.58266 4.13674 -1.74813 4.14445 -1.73127 4.131C-1.71444 4.11755 -1.82494 4.0959 -1.64313 4.07741C-1.58586 4.07156 -1.26524 4.05772 -1.52082 4.04026C-1.53866 4.03913 -2.11656 4.01217 -1.71784 4.00255C-1.6522 4.00099 -1.23026 4.00262 -1.4466 3.98178C-1.48854 3.9778 -1.58265 3.98503 -1.64142 3.97454C-1.732 3.95847 -1.61899 3.93718 -1.80695 3.91742C-1.84022 3.91397 -2.12661 3.89931 -1.90924 3.88754C-1.8752 3.8857 -1.73433 3.8892 -1.71857 3.88299C-1.64295 3.85344 -1.73718 3.82251 -1.63971 3.79251C-1.60547 3.78189 -1.37774 3.78732 -1.31672 3.77624C-1.25571 3.76517 -1.19703 3.74285 -1.30109 3.73126C-1.4052 3.71967 -1.76814 3.73233 -1.79718 3.71496C-1.92332 3.63946 -1.71041 3.56467 -1.67926 3.48928C-1.67461 3.4781 -1.80448 3.48737 -1.80695 3.47089C-1.81661 3.41014 -1.93838 3.30525 -1.66242 3.25253C-1.44139 3.21029 -1.27312 3.26345 -1.18317 3.23117C-1.14026 3.21559 -1.56222 3.19874 -1.5755 3.19498C-1.71044 3.15825 -1.52353 3.13273 -1.58088 3.09967C-1.59278 3.09284 -1.7638 3.09954 -1.77204 3.09373C-1.8017 3.07388 -1.72536 3.05302 -1.73932 3.03406C-1.74598 3.02555 -1.8766 3.02712 -1.86652 3.01929C-1.8439 3.00056 -1.78899 2.98399 -1.66657 2.96573C-1.65541 2.96407 -1.49292 2.97529 -1.48688 2.96143C-1.47756 2.939 -1.35679 2.91116 -1.48151 2.88536C-1.51903 2.8777 -1.81756 2.8774 -1.61139 2.86094C-1.56833 2.85749 -1.20986 2.86189 -1.5196 2.84272C-1.57107 2.8395 -1.98884 2.80729 -1.71955 2.79148C-1.64867 2.78731 -1.35533 2.77667 -1.40143 2.76746C-1.40879 2.76622 -1.56914 2.77122 -1.58478 2.76359C-1.63711 2.7367 -1.62001 2.70852 -1.67023 2.68089C-1.68396 2.67351 -1.84989 2.6845 -1.86505 2.67351C-1.90699 2.64327 -1.86475 2.60552 -1.81281 2.57596C-1.79334 2.56505 -1.65589 2.57259 -1.64093 2.5718C-1.39763 2.55904 -1.72603 2.5515 -1.74518 2.54727C-1.85984 2.52094 -1.70558 2.50089 -1.7464 2.47662C-1.75725 2.46992 -1.91384 2.47467 -1.9278 2.47334C-2.06422 2.45951 -1.78301 2.46981 -1.75202 2.46106C-1.66425 2.43654 -1.67683 2.40921 -1.69684 2.38442C-1.70442 2.37531 -1.88598 2.38555 -1.89069 2.37737C-1.92198 2.329 -1.9046 2.27871 -1.80451 2.2315C-1.78533 2.22261 -1.64552 2.2282 -1.61359 2.22635C-1.39018 2.21358 -1.69491 2.19487 -1.72394 2.19056C-1.85648 2.17098 -1.73285 2.16338 -1.75592 2.14609C-1.87082 2.06162 -1.78893 1.95733 -1.73835 1.8776C-1.67324 1.7737 -1.54023 1.69308 -1.57477 1.594C-1.57679 1.5877 -1.76278 1.59405 -1.76691 1.58862C-1.81175 1.51854 -1.73907 1.44954 -1.79279 1.37932C-1.79687 1.37355 -1.97319 1.38186 -1.98566 1.37261C-2.01248 1.35364 -2.0029 1.32961 -1.9466 1.31043C-1.91947 1.30107 -1.76817 1.31362 -1.74396 1.3042C-1.68724 1.28227 -1.67468 1.25877 -1.70295 1.23624C-1.71536 1.22666 -1.89569 1.24112 -1.89777 1.22866C-1.91566 1.1438 -1.94672 1.06045 -1.7132 0.974685C-1.69716 0.968806 -1.33066 0.963647 -1.40094 0.951147C-1.50266 0.950205 -1.6223 0.950256 -1.73102 0.949845C-1.78958 0.8263 -1.66253 0.704017 -1.64289 0.580125C-1.6421 0.574902 -1.83629 0.583929 -1.83576 0.573816C-1.83289 0.515285 -1.88668 0.458447 -1.69367 0.398576C-1.67479 0.392635 -1.33316 0.395683 -1.38483 0.378177C-1.39426 0.375089 -1.43982 0.348724 -1.51398 0.341907C-1.52517 0.340981 -1.68463 0.345791 -1.68927 0.337295C-1.71349 0.287922 -1.67708 0.236182 -1.57965 0.186895C-1.56363 0.17894 -1.39382 0.187411 -1.38092 0.181746C-1.29078 0.141557 -1.41987 0.0978422 -1.26569 0.0594395C-1.16188 0.0337341 -0.868347 0.043251 -0.579414 0.0295915C-0.538649 0.0276595 -0.532189 0.0117419 -0.364082 0.0109187C0.0586386 0.00880548 0.521516 0.0165155 0.972095 0.0133519C1.06915 0.0126835 0.964616 -0.00863426 1.19915 0.00398721C1.21484 0.00486895 1.29268 0.0203244 1.37224 0.0241311C1.42725 0.0267815 1.59821 0.0220054 1.66863 0.027413C1.73897 0.0328201 1.59566 0.0387617 1.67839 0.0477266C1.76215 0.0566875 1.95664 0.0527473 1.97966 0.0706431ZM-0.722235 4.9726C-0.558912 4.95845 -1.1571 4.95636 -1.01398 4.97166C-1.00635 4.97241 -0.730248 4.97333 -0.722235 4.9726ZM-0.627753 6.68458C-0.36391 6.66608 -0.751865 6.65342 -0.955633 6.66647C-1.15918 6.67952 -0.707734 6.69021 -0.627753 6.68458ZM-0.435127 6.87639C-0.227098 6.85478 -1.07535 6.85137 -0.903875 6.87453C-0.894185 6.87587 -0.447206 6.87766 -0.435127 6.87639ZM-0.497138 0.0929372C-0.489195 0.0927419 -0.481453 0.0812998 -0.489326 0.0810263C-0.67931 0.0749336 -0.69466 0.0978132 -0.497138 0.0929372ZM-0.225411 7.06674C-0.110666 7.05999 -0.243125 7.04056 -0.385811 7.04895C-0.500597 7.0557 -0.368147 7.07515 -0.225411 7.06674ZM-0.0838097 4.23449C-0.0748958 4.23426 -0.0668691 4.22606 -0.117257 4.22623C-0.279545 4.22678 -0.233743 4.2382 -0.0838097 4.23449ZM-0.215645 7.39026C-0.183716 7.34246 0.516985 7.31348 0.437917 7.36554C0.423612 7.37496 0.214469 7.34522 0.151297 7.35722C0.0362076 7.37917 0.476162 7.39375 0.240408 7.41615C0.197257 7.4202 -0.219024 7.39299 -0.216622 7.39018C-0.216296 7.39021 -0.215971 7.39023 -0.215645 7.39026ZM-0.00373178 4.96445C0.00417809 4.96417 0.0116786 4.95281 0.00383655 4.95254C-0.186071 4.94639 -0.201292 4.96927 -0.00373178 4.96445ZM0.286062 3.75582C0.302918 3.75519 0.318682 3.72884 0.303152 3.72798C-0.00739871 3.71423 -0.0401906 3.76751 0.286062 3.75582ZM0.434011 5.72924C0.62506 5.74163 0.647554 5.75645 0.407644 5.76633C0.42038 5.75402 0.422256 5.74162 0.434011 5.72924Z" fill="#232322"/>
</svg>
